<?xml version="1.0" standalone="no"?>
<!DOCTYPE svg PUBLIC "-//W3C//DTD SVG 1.1//EN" "http://www.w3.org/Graphics/SVG/1.1/DTD/svg11.dtd" >
<svg xmlns="http://www.w3.org/2000/svg" xmlns:xlink="http://www.w3.org/1999/xlink" version="1.1">
<metadata>
Created by FontForge 20170910 at Wed Aug  3 21:21:24 2016
 By Jimmy Wärting
Copyright \(c\) 2016 by Ignacio Corbo and Fernando Diaz. All rights reserved.
</metadata>
<defs>
<font id="Brother-1816-Medium" horiz-adv-x="615" >
  <font-face 
    font-family="Brother 1816"
    font-weight="500"
    font-stretch="normal"
    units-per-em="1000"
    panose-1="0 0 0 0 0 0 0 0 0 0"
    ascent="800"
    descent="-200"
    x-height="500"
    cap-height="720"
    bbox="-79 -318 1489 1112"
    underline-thickness="35"
    underline-position="-205"
    unicode-range="U+000D-F6C3"
  />
<missing-glyph horiz-adv-x="785" 
d="M275 526l-47 -47l117 -117l-118 -120l47 -47l119 118l118 -118l47 47l-118 120l117 117l-47 47l-117 -118zM100 0v720h585v-720h-585z" />
    <glyph glyph-name=".notdef" horiz-adv-x="785" 
d="M275 526l-47 -47l117 -117l-118 -120l47 -47l119 118l118 -118l47 47l-118 120l117 117l-47 47l-117 -118zM100 0v720h585v-720h-585z" />
    <glyph glyph-name=".null" horiz-adv-x="0" 
 />
    <glyph glyph-name=".null" horiz-adv-x="0" 
 />
    <glyph glyph-name="A" unicode="A" horiz-adv-x="681" 
d="M-3 0l341 731h4l341 -731h-132l-64 143h-294l-64 -143h-132zM234 237h212c-41 92 -75 173 -105 255c-31 -75 -68 -167 -107 -255z" />
    <glyph glyph-name="A.001" horiz-adv-x="687" 
d="M-1 0l290 720h109l291 -720h-132l-62 162h-303l-61 -162h-132zM231 262h226c-33 84 -75 195 -113 299h-1c-38 -104 -80 -215 -112 -299z" />
    <glyph glyph-name="AE" unicode="&#xc6;" horiz-adv-x="891" 
d="M540 0l-49 146h-287l-73 -146h-131l374 720h440v-106h-363l67 -198h281v-103h-245l70 -207h243v-106h-327zM375 503l-128 -265h214l-85 265h-1z" />
    <glyph glyph-name="AEacute" unicode="&#x1fc;" horiz-adv-x="891" 
d="M540 0l-49 146h-287l-73 -146h-131l374 720h440v-106h-363l67 -198h281v-103h-245l70 -207h243v-106h-327zM375 503l-128 -265h214l-85 265h-1zM529 782l99 201h153l-151 -201h-101z" />
    <glyph glyph-name="Aacute" unicode="&#xc1;" horiz-adv-x="681" 
d="M-3 0l341 731h4l341 -731h-132l-64 143h-294l-64 -143h-132zM234 237h212c-41 92 -75 173 -105 255c-31 -75 -68 -167 -107 -255zM278 782l99 201h153l-151 -201h-101z" />
    <glyph glyph-name="Aacute.001" horiz-adv-x="687" 
d="M-1 0l290 720h109l291 -720h-132l-62 162h-303l-61 -162h-132zM231 262h226c-33 84 -75 195 -113 299h-1c-38 -104 -80 -215 -112 -299zM301 782l98 201h153l-151 -201h-100z" />
    <glyph glyph-name="Abreve" unicode="&#x102;" horiz-adv-x="681" 
d="M-3 0l341 731h4l341 -731h-132l-64 143h-294l-64 -143h-132zM234 237h212c-41 92 -75 173 -105 255c-31 -75 -68 -167 -107 -255zM398 952h92c0 -97 -50 -160 -149 -160c-100 0 -151 63 -150 160h91c0 -47 21 -75 59 -75c37 0 58 28 57 75z" />
    <glyph glyph-name="Abreve.001" horiz-adv-x="687" 
d="M-1 0l290 720h109l291 -720h-132l-62 162h-303l-61 -162h-132zM231 262h226c-33 84 -75 195 -113 299h-1c-38 -104 -80 -215 -112 -299zM403 952h91c1 -97 -50 -160 -149 -160s-150 63 -149 160h91c-1 -47 20 -75 58 -75c37 0 58 28 58 75z" />
    <glyph glyph-name="Acircumflex" unicode="&#xc2;" horiz-adv-x="681" 
d="M-3 0l341 731h4l341 -731h-132l-64 143h-294l-64 -143h-132zM234 237h212c-41 92 -75 173 -105 255c-31 -75 -68 -167 -107 -255zM162 783l121 198h113l121 -198h-108l-69 121l-70 -121h-108z" />
    <glyph glyph-name="Acircumflex.001" horiz-adv-x="687" 
d="M-1 0l290 720h109l291 -720h-132l-62 162h-303l-61 -162h-132zM166 783l121 198h113l121 -198h-108l-69 121l-70 -121h-108zM231 262h226c-33 84 -75 195 -113 299h-1c-38 -104 -80 -215 -112 -299z" />
    <glyph glyph-name="Adieresis" unicode="&#xc4;" horiz-adv-x="681" 
d="M-3 0l341 731h4l341 -731h-132l-64 143h-294l-64 -143h-132zM234 237h212c-41 92 -75 173 -105 255c-31 -75 -68 -167 -107 -255zM165 875c0 41 28 68 71 68c42 0 71 -27 71 -68c0 -42 -29 -69 -71 -69c-43 0 -71 27 -71 69zM373 875c0 41 28 68 71 68
c42 0 71 -27 71 -68c0 -42 -29 -69 -71 -69c-43 0 -71 27 -71 69z" />
    <glyph glyph-name="Adieresis.001" horiz-adv-x="687" 
d="M-1 0l290 720h109l291 -720h-132l-62 162h-303l-61 -162h-132zM231 262h226c-33 84 -75 195 -113 299h-1c-38 -104 -80 -215 -112 -299zM170 875c0 41 28 68 71 68c42 0 71 -27 71 -68c0 -42 -29 -69 -71 -69c-43 0 -71 27 -71 69zM378 875c0 41 28 68 71 68
c42 0 70 -27 70 -68c0 -42 -28 -69 -70 -69c-43 0 -71 27 -71 69z" />
    <glyph glyph-name="Agrave" unicode="&#xc0;" horiz-adv-x="681" 
d="M-3 0l341 731h4l341 -731h-132l-64 143h-294l-64 -143h-132zM234 237h212c-41 92 -75 173 -105 255c-31 -75 -68 -167 -107 -255zM303 983l99 -201h-101l-151 201h153z" />
    <glyph glyph-name="Agrave.001" horiz-adv-x="687" 
d="M-1 0l290 720h109l291 -720h-132l-62 162h-303l-61 -162h-132zM231 262h226c-33 84 -75 195 -113 299h-1c-38 -104 -80 -215 -112 -299zM296 983l99 -201h-101l-150 201h152z" />
    <glyph glyph-name="Amacron" unicode="&#x100;" horiz-adv-x="681" 
d="M-3 0l341 731h4l341 -731h-132l-64 143h-294l-64 -143h-132zM234 237h212c-41 92 -75 173 -105 255c-31 -75 -68 -167 -107 -255zM176 828v93h328v-93h-328z" />
    <glyph glyph-name="Amacron.001" horiz-adv-x="687" 
d="M-1 0l290 720h109l291 -720h-132l-62 162h-303l-61 -162h-132zM231 262h226c-33 84 -75 195 -113 299h-1c-38 -104 -80 -215 -112 -299zM181 828v93h327v-93h-327z" />
    <glyph glyph-name="Aogonek" unicode="&#x104;" horiz-adv-x="681" 
d="M-3 0l341 731h4l341 -731h-1c-55 -35 -86 -74 -86 -112c0 -31 21 -44 48 -44c19 0 36 5 49 10v-76c-15 -5 -41 -11 -66 -11c-68 0 -125 31 -125 99c0 56 51 102 110 134h-61l-64 143h-294l-64 -143h-132zM234 237h212c-41 92 -75 173 -105 255
c-31 -75 -68 -167 -107 -255z" />
    <glyph glyph-name="Aogonek.001" horiz-adv-x="687" 
d="M-1 0l290 720h109l291 -720h-8c-55 -35 -86 -74 -86 -112c0 -32 21 -44 48 -44c19 0 36 5 49 10v-76c-15 -5 -41 -11 -66 -11c-68 0 -124 31 -124 99c0 56 51 102 109 134h-54l-62 162h-303l-61 -162h-132zM231 262h226c-33 84 -75 195 -113 299h-1
c-38 -104 -80 -215 -112 -299z" />
    <glyph glyph-name="Aring" unicode="&#xc5;" horiz-adv-x="681" 
d="M-3 0l341 731h4l341 -731h-132l-64 143h-294l-64 -143h-132zM234 237h212c-41 92 -75 173 -105 255c-31 -75 -68 -167 -107 -255zM226 875c0 61 50 100 114 100c63 0 113 -39 113 -100c0 -62 -50 -101 -113 -101c-64 0 -114 39 -114 101zM299 875c0 -23 16 -41 41 -41
s41 18 41 41c0 22 -16 39 -41 39s-41 -17 -41 -39z" />
    <glyph glyph-name="Aring.001" horiz-adv-x="687" 
d="M-1 0l290 720h109l291 -720h-132l-62 162h-303l-61 -162h-132zM231 875c0 61 49 100 113 100s113 -39 113 -100c0 -62 -49 -101 -113 -101s-113 39 -113 101zM231 262h226c-33 84 -75 195 -113 299h-1c-38 -104 -80 -215 -112 -299zM304 875c0 -23 15 -41 40 -41
c26 0 41 18 41 41c0 22 -15 39 -41 39c-25 0 -40 -17 -40 -39z" />
    <glyph glyph-name="Aringacute" unicode="&#x1fa;" horiz-adv-x="681" 
d="M-3 0l341 731h4l341 -731h-132l-64 143h-294l-64 -143h-132zM234 237h212c-41 92 -75 173 -105 255c-31 -75 -68 -167 -107 -255zM228 859c0 60 48 96 111 96c64 0 111 -36 111 -96c0 -61 -47 -97 -111 -97c-63 0 -111 36 -111 97zM301 859c0 -22 14 -37 38 -37
s38 15 38 37c0 20 -14 35 -38 35s-38 -15 -38 -35zM351 1112h147l-108 -132h-108z" />
    <glyph glyph-name="Aringacute.001" horiz-adv-x="687" 
d="M-1 0l290 720h109l291 -720h-132l-62 162h-303l-61 -162h-132zM233 855c0 60 48 96 111 96c64 0 110 -36 110 -96c0 -61 -46 -97 -110 -97c-63 0 -111 36 -111 97zM231 262h226c-34 84 -75 195 -113 299h-1c-38 -104 -80 -215 -112 -299zM356 1106h147l-107 -132h-109z
M306 855c0 -22 14 -37 38 -37c23 0 38 15 38 37c0 20 -15 35 -38 35c-24 0 -38 -15 -38 -35z" />
    <glyph glyph-name="Atilde" unicode="&#xc3;" horiz-adv-x="681" 
d="M-3 0l341 731h4l341 -731h-132l-64 143h-294l-64 -143h-132zM234 237h212c-41 92 -75 173 -105 255c-31 -75 -68 -167 -107 -255zM264 940c55 0 103 -36 152 -36c37 0 68 16 89 41v-97c-13 -19 -49 -39 -90 -39c-56 0 -105 36 -154 36c-38 0 -68 -17 -89 -40v96
c14 19 50 39 92 39z" />
    <glyph glyph-name="Atilde.001" horiz-adv-x="687" 
d="M-1 0l290 720h109l291 -720h-132l-62 162h-303l-61 -162h-132zM231 262h226c-33 84 -75 195 -113 299h-1c-38 -104 -80 -215 -112 -299zM269 940c55 0 103 -36 152 -36c37 0 68 16 89 41v-97c-13 -19 -49 -39 -90 -39c-56 0 -105 36 -154 36c-38 0 -68 -17 -89 -40v96
c14 19 50 39 92 39z" />
    <glyph glyph-name="B" unicode="B" horiz-adv-x="637" 
d="M475 378c67 -23 119 -91 119 -171c0 -130 -104 -207 -257 -207h-251v720h228c147 0 252 -71 252 -200c0 -65 -38 -118 -91 -142zM207 414h109c21 0 42 1 61 3c37 12 61 45 61 94c0 67 -45 108 -116 108h-115v-205zM207 324v-223h135c72 0 123 43 123 112
c0 71 -46 111 -109 111h-149z" />
    <glyph glyph-name="C" unicode="C" horiz-adv-x="664" 
d="M628 682v-117c-45 23 -116 52 -206 52c-155 0 -259 -112 -259 -257s104 -257 256 -257c96 0 169 28 214 51v-117c-30 -17 -112 -50 -219 -50c-217 0 -378 160 -378 373c0 212 161 373 381 373c104 0 181 -34 211 -51z" />
    <glyph glyph-name="CR" unicode="&#xd;" horiz-adv-x="260" 
 />
    <glyph glyph-name="Cacute" unicode="&#x106;" horiz-adv-x="663" 
d="M628 682v-117c-45 23 -116 52 -206 52c-155 0 -259 -112 -259 -257s104 -257 256 -257c96 0 169 28 214 51v-117c-30 -17 -112 -50 -219 -50c-217 0 -378 160 -378 373c0 212 161 373 381 373c104 0 181 -34 211 -51zM325 782l99 201h153l-151 -201h-101z" />
    <glyph glyph-name="Ccaron" unicode="&#x10c;" horiz-adv-x="663" 
d="M628 682v-117c-45 23 -116 52 -206 52c-155 0 -259 -112 -259 -257s104 -257 256 -257c96 0 169 28 214 51v-117c-30 -17 -112 -50 -219 -50c-217 0 -378 160 -378 373c0 212 161 373 381 373c104 0 181 -34 211 -51zM577 981l-121 -198h-113l-121 198h108l70 -121
l69 121h108z" />
    <glyph glyph-name="Ccedilla" unicode="&#xc7;" horiz-adv-x="663" 
d="M628 682v-117c-45 23 -116 52 -206 52c-155 0 -259 -112 -259 -257s104 -257 256 -257c96 0 169 28 214 51v-117c-29 -16 -105 -47 -204 -50l-15 -39c44 -2 98 -30 98 -88c0 -64 -56 -93 -127 -93c-30 0 -59 5 -65 8v73c5 -2 23 -7 44 -7c24 0 53 10 53 35
c0 32 -45 39 -84 34l32 80c-192 21 -329 173 -329 370c0 212 161 373 381 373c104 0 181 -34 211 -51z" />
    <glyph glyph-name="Ccircumflex" unicode="&#x108;" horiz-adv-x="663" 
d="M628 682v-117c-45 23 -116 52 -206 52c-155 0 -259 -112 -259 -257s104 -257 256 -257c96 0 169 28 214 51v-117c-30 -17 -112 -50 -219 -50c-217 0 -378 160 -378 373c0 212 161 373 381 373c104 0 181 -34 211 -51zM219 783l121 198h113l121 -198h-108l-69 121
l-70 -121h-108z" />
    <glyph glyph-name="Cdotaccent" unicode="&#x10a;" horiz-adv-x="663" 
d="M628 682v-117c-45 23 -116 52 -206 52c-155 0 -259 -112 -259 -257s104 -257 256 -257c96 0 169 28 214 51v-117c-30 -17 -112 -50 -219 -50c-217 0 -378 160 -378 373c0 212 161 373 381 373c104 0 181 -34 211 -51zM330 875c0 41 28 68 71 68c42 0 71 -27 71 -68
c0 -42 -29 -69 -71 -69c-43 0 -71 27 -71 69z" />
    <glyph glyph-name="D" unicode="D" horiz-adv-x="734" 
d="M308 0h-222v720h219c238 0 393 -147 393 -360c0 -214 -153 -360 -390 -360zM304 614h-92v-508h95c161 0 264 105 264 254c0 148 -103 254 -267 254z" />
    <glyph glyph-name="Dcaron" unicode="&#x10e;" horiz-adv-x="734" 
d="M308 0h-222v720h219c238 0 393 -147 393 -360c0 -214 -153 -360 -390 -360zM304 614h-92v-508h95c161 0 264 105 264 254c0 148 -103 254 -267 254zM500 981l-121 -198h-113l-121 198h108l70 -121l69 121h108z" />
    <glyph glyph-name="Dcroat" unicode="&#x110;" horiz-adv-x="754" 
d="M26 319v82h80v319h219c238 0 393 -147 393 -360c0 -214 -153 -360 -390 -360h-222v319h-80zM324 614h-92v-213h176v-82h-176v-213h95c161 0 264 105 264 254c0 148 -103 254 -267 254z" />
    <glyph glyph-name="E" unicode="E" horiz-adv-x="590" 
d="M554 0h-468v720h453v-106h-327v-198h277v-103h-277v-207h342v-106z" />
    <glyph glyph-name="Eacute" unicode="&#xc9;" horiz-adv-x="590" 
d="M554 0h-468v720h453v-106h-327v-198h277v-103h-277v-207h342v-106zM242 782l99 201h153l-151 -201h-101z" />
    <glyph glyph-name="Ebreve" unicode="&#x114;" horiz-adv-x="590" 
d="M554 0h-468v720h453v-106h-327v-198h277v-103h-277v-207h342v-106zM369 952h92c0 -97 -50 -160 -149 -160c-100 0 -151 63 -150 160h91c0 -47 21 -75 59 -75c37 0 58 28 57 75z" />
    <glyph glyph-name="Ecaron" unicode="&#x11a;" horiz-adv-x="590" 
d="M554 0h-468v720h453v-106h-327v-198h277v-103h-277v-207h342v-106zM489 981l-121 -198h-113l-121 198h108l70 -121l69 121h108z" />
    <glyph glyph-name="Ecircumflex" unicode="&#xca;" horiz-adv-x="590" 
d="M554 0h-468v720h453v-106h-327v-198h277v-103h-277v-207h342v-106zM134 783l121 198h113l121 -198h-108l-69 121l-70 -121h-108z" />
    <glyph glyph-name="Edieresis" unicode="&#xcb;" horiz-adv-x="590" 
d="M554 0h-468v720h453v-106h-327v-198h277v-103h-277v-207h342v-106zM138 875c0 41 28 68 71 68c42 0 71 -27 71 -68c0 -42 -29 -69 -71 -69c-43 0 -71 27 -71 69zM346 875c0 41 28 68 71 68c42 0 71 -27 71 -68c0 -42 -29 -69 -71 -69c-43 0 -71 27 -71 69z" />
    <glyph glyph-name="Edotaccent" unicode="&#x116;" horiz-adv-x="590" 
d="M554 0h-468v720h453v-106h-327v-198h277v-103h-277v-207h342v-106zM237 875c0 41 28 68 71 68c42 0 71 -27 71 -68c0 -42 -29 -69 -71 -69c-43 0 -71 27 -71 69z" />
    <glyph glyph-name="Egrave" unicode="&#xc8;" horiz-adv-x="590" 
d="M554 0h-468v720h453v-106h-327v-198h277v-103h-277v-207h342v-106zM276 983l99 -201h-101l-151 201h153z" />
    <glyph glyph-name="Emacron" unicode="&#x112;" horiz-adv-x="590" 
d="M554 0h-468v720h453v-106h-327v-198h277v-103h-277v-207h342v-106zM146 828v93h328v-93h-328z" />
    <glyph glyph-name="Eogonek" unicode="&#x118;" horiz-adv-x="590" 
d="M554 0h-8c-55 -35 -86 -74 -86 -112c0 -31 21 -44 48 -44c19 0 36 5 49 10v-76c-15 -5 -41 -11 -66 -11c-68 0 -125 31 -125 99c0 56 51 102 110 134h-390v720h453v-106h-327v-198h277v-103h-277v-207h342v-106z" />
    <glyph glyph-name="Eth" unicode="&#xd0;" horiz-adv-x="754" 
d="M26 319v82h80v319h219c238 0 393 -147 393 -360c0 -214 -153 -360 -390 -360h-222v319h-80zM324 614h-92v-213h176v-82h-176v-213h95c161 0 264 105 264 254c0 148 -103 254 -267 254z" />
    <glyph glyph-name="Euro" unicode="&#x20ac;" horiz-adv-x="798" 
d="M618 398h-350c-2 -13 -2 -25 -2 -38s0 -26 2 -38h340v-73h-319c37 -88 119 -146 226 -146c92 0 162 28 206 51v-117c-30 -17 -108 -50 -212 -50c-174 0 -310 107 -355 262h-117v73h104c-2 12 -2 25 -2 38s0 25 2 38h-94v74h108c44 154 181 261 357 261
c101 0 174 -34 204 -51v-117c-43 23 -111 52 -198 52c-108 0 -191 -58 -228 -145h328v-74z" />
    <glyph glyph-name="F" unicode="F" horiz-adv-x="547" 
d="M516 614h-304v-204h256v-105h-256v-305h-126v720h430v-106z" />
    <glyph glyph-name="G" unicode="G" horiz-adv-x="707" 
d="M660 42c-62 -33 -154 -55 -241 -55c-223 0 -383 160 -383 373c0 212 162 373 384 373c108 0 187 -34 220 -50v-118c-47 23 -121 52 -216 52c-160 0 -262 -112 -262 -257c0 -147 104 -259 257 -259c43 0 91 9 119 20v204h122v-283z" />
    <glyph glyph-name="Gbreve" unicode="&#x11e;" horiz-adv-x="707" 
d="M660 42c-62 -33 -154 -55 -241 -55c-223 0 -383 160 -383 373c0 212 162 373 384 373c108 0 187 -34 220 -50v-118c-47 23 -121 52 -216 52c-160 0 -262 -112 -262 -257c0 -147 104 -259 257 -259c43 0 91 9 119 20v204h122v-283zM465 952h92c0 -97 -50 -160 -149 -160
c-100 0 -151 63 -150 160h91c0 -47 21 -75 59 -75c37 0 58 28 57 75z" />
    <glyph glyph-name="Gcircumflex" unicode="&#x11c;" horiz-adv-x="707" 
d="M660 42c-62 -33 -154 -55 -241 -55c-223 0 -383 160 -383 373c0 212 162 373 384 373c108 0 187 -34 220 -50v-118c-47 23 -121 52 -216 52c-160 0 -262 -112 -262 -257c0 -147 104 -259 257 -259c43 0 91 9 119 20v204h122v-283zM226 783l121 198h113l121 -198h-108
l-69 121l-70 -121h-108z" />
    <glyph glyph-name="Gcommaaccent" unicode="&#x122;" horiz-adv-x="707" 
d="M660 42c-62 -33 -154 -55 -241 -55c-223 0 -383 160 -383 373c0 212 162 373 384 373c108 0 187 -34 220 -50v-118c-47 23 -121 52 -216 52c-160 0 -262 -112 -262 -257c0 -147 104 -259 257 -259c43 0 91 9 119 20v204h122v-283zM472 -56l-71 -177h-96l41 177h126z" />
    <glyph glyph-name="Gdotaccent" unicode="&#x120;" horiz-adv-x="707" 
d="M660 42c-62 -33 -154 -55 -241 -55c-223 0 -383 160 -383 373c0 212 162 373 384 373c108 0 187 -34 220 -50v-118c-47 23 -121 52 -216 52c-160 0 -262 -112 -262 -257c0 -147 104 -259 257 -259c43 0 91 9 119 20v204h122v-283zM332 875c0 41 28 68 71 68
c42 0 71 -27 71 -68c0 -42 -29 -69 -71 -69c-43 0 -71 27 -71 69z" />
    <glyph glyph-name="H" unicode="H" horiz-adv-x="750" 
d="M664 0h-126v312h-326v-312h-126v720h126v-303h326v303h126v-720z" />
    <glyph glyph-name="Hbar" unicode="&#x126;" horiz-adv-x="808" 
d="M28 531v81h90v108h126v-108h326v108h126v-108h85v-81h-85v-531h-126v312h-326v-312h-126v531h-90zM244 417h326v114h-326v-114z" />
    <glyph glyph-name="Hcircumflex" unicode="&#x124;" horiz-adv-x="750" 
d="M667 0h-126v312h-326v-312h-126v720h126v-303h326v303h126v-720zM194 783l121 198h113l121 -198h-108l-69 121l-70 -121h-108z" />
    <glyph glyph-name="I" unicode="I" horiz-adv-x="298" 
d="M212 0h-126v720h126v-720z" />
    <glyph glyph-name="IJ" unicode="&#x132;" horiz-adv-x="688" 
d="M212 0h-126v720h126v-720zM602 720v-525c0 -140 -64 -208 -194 -208c-43 0 -79 9 -97 20v108c18 -10 49 -19 80 -19c55 0 85 30 85 87v537h126z" />
    <glyph glyph-name="Iacute" unicode="&#xcd;" horiz-adv-x="298" 
d="M212 0h-126v720h126v-720zM91 782l99 201h153l-151 -201h-101z" />
    <glyph glyph-name="Ibreve" unicode="&#x12c;" horiz-adv-x="298" 
d="M212 0h-126v720h126v-720zM206 952h92c0 -97 -50 -160 -149 -160c-100 0 -151 63 -150 160h91c0 -47 21 -75 59 -75c37 0 58 28 57 75z" />
    <glyph glyph-name="Icircumflex" unicode="&#xce;" horiz-adv-x="298" 
d="M212 0h-126v720h126v-720zM-29 783l121 198h113l121 -198h-108l-69 121l-70 -121h-108z" />
    <glyph glyph-name="Idieresis" unicode="&#xcf;" horiz-adv-x="298" 
d="M212 0h-126v720h126v-720zM-26 875c0 41 28 68 71 68c42 0 71 -27 71 -68c0 -42 -29 -69 -71 -69c-43 0 -71 27 -71 69zM182 875c0 41 28 68 71 68c42 0 71 -27 71 -68c0 -42 -29 -69 -71 -69c-43 0 -71 27 -71 69z" />
    <glyph glyph-name="Idotaccent" unicode="&#x130;" horiz-adv-x="298" 
d="M212 0h-126v720h126v-720zM77 875c0 41 28 68 71 68c42 0 71 -27 71 -68c0 -42 -29 -69 -71 -69c-43 0 -71 27 -71 69z" />
    <glyph glyph-name="Igrave" unicode="&#xcc;" horiz-adv-x="298" 
d="M212 0h-126v720h126v-720zM106 983l99 -201h-101l-151 201h153z" />
    <glyph glyph-name="Imacron" unicode="&#x12a;" horiz-adv-x="298" 
d="M212 0h-126v720h126v-720zM-15 828v93h328v-93h-328z" />
    <glyph glyph-name="Iogonek" unicode="&#x12e;" horiz-adv-x="298" 
d="M212 0c-55 -35 -86 -74 -86 -112c0 -31 21 -44 48 -44c19 0 36 5 49 10v-76c-15 -5 -41 -11 -66 -11c-68 0 -125 31 -125 99c0 56 51 102 110 134h-56v720h126v-720z" />
    <glyph glyph-name="Itilde" unicode="&#x128;" horiz-adv-x="298" 
d="M212 0h-126v720h126v-720zM73 940c55 0 103 -36 152 -36c37 0 68 16 89 41v-97c-13 -19 -49 -39 -90 -39c-56 0 -105 36 -154 36c-38 0 -68 -17 -89 -40v96c14 19 50 39 92 39z" />
    <glyph glyph-name="J" unicode="J" horiz-adv-x="390" 
d="M304 720v-525c0 -140 -64 -208 -194 -208c-43 0 -79 9 -97 20v108c18 -10 49 -19 80 -19c55 0 85 30 85 87v537h126z" />
    <glyph glyph-name="J.swsh" horiz-adv-x="298" 
d="M212 720v-741c0 -141 -64 -208 -193 -208c-44 0 -80 9 -98 19v109c18 -10 48 -19 80 -19c55 0 85 29 85 89v751h126z" />
    <glyph glyph-name="Jcircumflex" unicode="&#x134;" horiz-adv-x="390" 
d="M304 720v-525c0 -140 -64 -208 -194 -208c-43 0 -79 9 -97 20v108c18 -10 49 -19 80 -19c55 0 85 30 85 87v537h126zM63 783l121 198h113l121 -198h-108l-69 121l-70 -121h-108z" />
    <glyph glyph-name="Jcircumflex.swsh" horiz-adv-x="298" 
d="M212 720v-741c0 -141 -64 -208 -193 -208c-44 0 -80 9 -98 19v109c18 -10 48 -19 80 -19c55 0 85 29 85 89v751h126zM-28 783l120 198h114l120 -198h-107l-70 121l-70 -121h-107z" />
    <glyph glyph-name="K" unicode="K" horiz-adv-x="681" 
d="M212 720v-362l311 362h151l-260 -295l264 -425h-143l-206 341l-117 -129v-212h-126v720h126z" />
    <glyph glyph-name="K.swsh" horiz-adv-x="708" 
d="M212 720v-362l311 362h151l-261 -295l108 -203c38 -71 60 -120 117 -122c18 -2 34 -1 51 3v-108c-17 -4 -38 -8 -66 -8c-92 0 -134 48 -198 168l-99 184l-114 -127v-212h-126v720h126z" />
    <glyph glyph-name="K.swsh_Mayus" horiz-adv-x="666" 
d="M212 720v-362l311 362h151l-255 -290c159 -430 415 -610 687 -610c53 0 106 5 141 12v-111c-35 -12 -89 -17 -145 -17c-308 0 -594 181 -771 639l-119 -134v-209h-126v720h126z" />
    <glyph glyph-name="K.swsh_minus" horiz-adv-x="631" 
d="M212 720v-362l311 362h151l-258 -292l58 -142c123 -301 267 -425 468 -425c51 0 105 7 139 16v-108c-34 -13 -90 -20 -144 -20c-237 0 -422 124 -565 477l-46 112l-114 -126v-212h-126v720h126z" />
    <glyph glyph-name="Kcommaaccent" unicode="&#x136;" horiz-adv-x="681" 
d="M212 720v-362l311 362h151l-260 -295l264 -425h-143l-206 341l-117 -129v-212h-126v720h126zM427 -56l-71 -177h-96l41 177h126z" />
    <glyph glyph-name="Kcommaaccent.swsh" horiz-adv-x="708" 
d="M212 720v-362l311 362h151l-261 -295l108 -203c38 -71 60 -120 117 -122c18 -2 34 -1 51 3v-108c-17 -4 -38 -8 -66 -8c-92 0 -134 48 -198 168l-99 184l-114 -127v-212h-126v720h126zM420 -56l-71 -177h-95l40 177h126z" />
    <glyph glyph-name="Kcommaaccent.swsh_Mayus" horiz-adv-x="633" 
d="M212 720v-362l311 362h151l-255 -290c159 -430 415 -610 687 -610c53 0 106 5 141 12v-111c-35 -12 -89 -17 -145 -17c-308 0 -594 181 -771 639l-119 -134v-209h-126v720h126zM396 -56l-71 -177h-96l41 177h126z" />
    <glyph glyph-name="Kcommaaccent.swsh_minus" horiz-adv-x="608" 
d="M212 720v-362l311 362h151l-258 -292l58 -142c123 -301 267 -425 468 -425c51 0 105 7 139 16v-108c-34 -13 -90 -20 -144 -20c-237 0 -422 124 -565 477l-46 112l-114 -126v-212h-126v720h126zM386 -56l-71 -177h-96l41 177h126z" />
    <glyph glyph-name="L" unicode="L" horiz-adv-x="524" 
d="M505 0h-419v720h126v-614h293v-106z" />
    <glyph glyph-name="Lacute" unicode="&#x139;" horiz-adv-x="524" 
d="M505 0h-419v720h126v-614h293v-106zM96 782l99 201h153l-151 -201h-101z" />
    <glyph glyph-name="Lcaron" unicode="&#x13d;" horiz-adv-x="524" 
d="M505 0h-419v720h126v-614h293v-106zM336 475v293h113v-293h-113z" />
    <glyph glyph-name="Lcommaaccent" unicode="&#x13b;" horiz-adv-x="524" 
d="M505 0h-419v720h126v-614h293v-106zM366 -56l-71 -177h-96l41 177h126z" />
    <glyph glyph-name="Ldot" unicode="&#x13f;" horiz-adv-x="526" 
d="M505 0h-419v720h126v-614h293v-106zM329 352c0 42 28 69 71 69c42 0 71 -27 71 -69c0 -41 -29 -68 -71 -68c-43 0 -71 27 -71 68z" />
    <glyph glyph-name="Lslash" unicode="&#x141;" horiz-adv-x="531" 
d="M10 227v84l83 56v353h126v-268l115 78v-83l-115 -78v-263h293v-106h-419v283z" />
    <glyph glyph-name="M" unicode="M" horiz-adv-x="847" 
d="M423 198l-188 217l-28 28v-443h-121v731h2l335 -372l335 372h2v-731h-120v443l-29 -28c-62 -73 -125 -145 -188 -217z" />
    <glyph glyph-name="M.001" horiz-adv-x="889" 
d="M444 175l-234 341v-516h-124v720h121l237 -356l239 356h120v-720h-123v516z" />
    <glyph glyph-name="N" unicode="N" horiz-adv-x="755" 
d="M669 -11h-3l-421 431c-11 10 -23 22 -35 32v-452h-124v731h4l420 -430l35 -34v453h124v-731z" />
    <glyph glyph-name="N.001" horiz-adv-x="783" 
d="M697 0h-114l-371 505v-505h-126v720h114l371 -510v510h126v-720z" />
    <glyph glyph-name="Nacute" unicode="&#x143;" horiz-adv-x="755" 
d="M669 -11h-3l-421 431c-11 10 -23 22 -35 32v-452h-124v731h4l420 -430l35 -34v453h124v-731zM299 782l99 201h153l-151 -201h-101z" />
    <glyph glyph-name="Nacute.001" horiz-adv-x="783" 
d="M697 0h-114l-371 505v-505h-126v720h114l371 -510v510h126v-720zM326 782l99 201h152l-150 -201h-101z" />
    <glyph glyph-name="Ncaron" unicode="&#x147;" horiz-adv-x="755" 
d="M669 -11h-3l-421 431c-11 10 -23 22 -35 32v-452h-124v731h4l420 -430l35 -34v453h124v-731zM557 981l-121 -198h-113l-121 198h108l70 -121l69 121h108z" />
    <glyph glyph-name="Ncaron.001" horiz-adv-x="783" 
d="M697 0h-114l-371 505v-505h-126v720h114l371 -510v510h126v-720zM564 981l-121 -198h-113l-121 198h108l69 -121l70 121h108z" />
    <glyph glyph-name="Ncommaaccent" unicode="&#x145;" horiz-adv-x="755" 
d="M669 -11h-3l-421 431c-11 10 -23 22 -35 32v-452h-124v731h4l420 -430l35 -34v453h124v-731zM461 -56l-71 -177h-96l41 177h126z" />
    <glyph glyph-name="Ncommaaccent.001" horiz-adv-x="783" 
d="M697 0h-114l-371 505v-505h-126v720h114l371 -510v510h126v-720zM453 -56l-71 -177h-96l41 177h126z" />
    <glyph glyph-name="Ntilde" unicode="&#xd1;" horiz-adv-x="755" 
d="M669 -11h-3l-421 431c-11 10 -23 22 -35 32v-452h-124v731h4l420 -430l35 -34v453h124v-731zM303 940c55 0 103 -36 152 -36c37 0 68 16 89 41v-97c-13 -19 -49 -39 -90 -39c-56 0 -105 36 -154 36c-38 0 -68 -17 -89 -40v96c14 19 50 39 92 39z" />
    <glyph glyph-name="Ntilde.001" horiz-adv-x="783" 
d="M697 0h-114l-371 505v-505h-126v720h114l371 -510v510h126v-720zM301 940c55 0 104 -36 153 -36c37 0 68 16 89 41v-97c-14 -19 -49 -39 -91 -39c-55 0 -104 36 -153 36c-38 0 -68 -17 -89 -40v96c14 19 50 39 91 39z" />
    <glyph glyph-name="O" unicode="O" horiz-adv-x="818" 
d="M36 360c0 207 160 373 373 373c211 0 373 -163 373 -373s-159 -373 -373 -373c-213 0 -373 163 -373 373zM162 360c0 -146 104 -257 247 -257s246 111 246 257c0 145 -103 257 -246 257s-247 -112 -247 -257z" />
    <glyph glyph-name="OE" unicode="&#x152;" horiz-adv-x="1030" 
d="M578 720h402v-106h-278v-198h221v-103h-221v-207h293v-106h-417v41c-48 -33 -107 -54 -182 -54c-204 0 -360 163 -360 373c0 207 156 373 360 373c75 0 134 -21 182 -54v41zM401 103c77 0 137 27 177 73v367c-40 46 -100 74 -177 74c-137 0 -239 -109 -239 -257
s102 -257 239 -257z" />
    <glyph glyph-name="Oacute" unicode="&#xd3;" horiz-adv-x="818" 
d="M36 360c0 207 160 373 373 373c211 0 373 -163 373 -373s-159 -373 -373 -373c-213 0 -373 163 -373 373zM162 360c0 -146 104 -257 247 -257s246 111 246 257c0 145 -103 257 -246 257s-247 -112 -247 -257zM333 782l99 201h153l-151 -201h-101z" />
    <glyph glyph-name="Obreve" unicode="&#x14e;" horiz-adv-x="818" 
d="M36 360c0 207 160 373 373 373c211 0 373 -163 373 -373s-159 -373 -373 -373c-213 0 -373 163 -373 373zM162 360c0 -146 104 -257 247 -257s246 111 246 257c0 145 -103 257 -246 257s-247 -112 -247 -257zM466 952h92c0 -97 -50 -160 -149 -160
c-100 0 -151 63 -150 160h91c0 -47 21 -75 59 -75c37 0 58 28 57 75z" />
    <glyph glyph-name="Ocircumflex" unicode="&#xd4;" horiz-adv-x="818" 
d="M36 360c0 207 160 373 373 373c211 0 373 -163 373 -373s-159 -373 -373 -373c-213 0 -373 163 -373 373zM162 360c0 -146 104 -257 247 -257s246 111 246 257c0 145 -103 257 -246 257s-247 -112 -247 -257zM231 783l121 198h113l121 -198h-108l-69 121l-70 -121h-108z
" />
    <glyph glyph-name="Odieresis" unicode="&#xd6;" horiz-adv-x="818" 
d="M36 360c0 207 160 373 373 373c211 0 373 -163 373 -373s-159 -373 -373 -373c-213 0 -373 163 -373 373zM162 360c0 -146 104 -257 247 -257s246 111 246 257c0 145 -103 257 -246 257s-247 -112 -247 -257zM234 875c0 41 28 68 71 68c42 0 71 -27 71 -68
c0 -42 -29 -69 -71 -69c-43 0 -71 27 -71 69zM442 875c0 41 28 68 71 68c42 0 71 -27 71 -68c0 -42 -29 -69 -71 -69c-43 0 -71 27 -71 69z" />
    <glyph glyph-name="Ograve" unicode="&#xd2;" horiz-adv-x="818" 
d="M36 360c0 207 160 373 373 373c211 0 373 -163 373 -373s-159 -373 -373 -373c-213 0 -373 163 -373 373zM162 360c0 -146 104 -257 247 -257s246 111 246 257c0 145 -103 257 -246 257s-247 -112 -247 -257zM377 983l99 -201h-101l-151 201h153z" />
    <glyph glyph-name="Ohungarumlaut" unicode="&#x150;" horiz-adv-x="818" 
d="M36 360c0 207 160 373 373 373c211 0 373 -163 373 -373s-159 -373 -373 -373c-213 0 -373 163 -373 373zM162 360c0 -146 104 -257 247 -257s246 111 246 257c0 145 -103 257 -246 257s-247 -112 -247 -257zM262 782l75 185h136l-108 -185h-103zM441 782l103 185h143
l-142 -185h-104z" />
    <glyph glyph-name="Omacron" unicode="&#x14c;" horiz-adv-x="818" 
d="M36 360c0 207 160 373 373 373c211 0 373 -163 373 -373s-159 -373 -373 -373c-213 0 -373 163 -373 373zM162 360c0 -146 104 -257 247 -257s246 111 246 257c0 145 -103 257 -246 257s-247 -112 -247 -257zM245 828v93h328v-93h-328z" />
    <glyph glyph-name="Oslash" unicode="&#xd8;" horiz-adv-x="818" 
d="M36 360c0 207 160 373 373 373c64 0 123 -15 175 -42l66 99h87l-92 -139c84 -67 137 -172 137 -291c0 -210 -159 -373 -373 -373c-65 0 -125 15 -177 42l-65 -99h-86l91 138c-84 67 -136 172 -136 292zM162 360c0 -77 29 -145 77 -191l280 423c-33 16 -70 25 -110 25
c-143 0 -247 -112 -247 -257zM655 360c0 76 -29 144 -77 190l-280 -422c33 -16 70 -25 111 -25c143 0 246 111 246 257z" />
    <glyph glyph-name="Oslashacute" unicode="&#x1fe;" horiz-adv-x="818" 
d="M36 360c0 207 160 373 373 373c64 0 123 -15 175 -42l66 99h87l-92 -139c84 -67 137 -172 137 -291c0 -210 -159 -373 -373 -373c-65 0 -125 15 -177 42l-65 -99h-86l91 138c-84 67 -136 172 -136 292zM162 360c0 -77 29 -145 77 -191l280 423c-33 16 -70 25 -110 25
c-143 0 -247 -112 -247 -257zM655 360c0 76 -29 144 -77 190l-280 -422c33 -16 70 -25 111 -25c143 0 246 111 246 257zM333 782l99 201h153l-151 -201h-101z" />
    <glyph glyph-name="Otilde" unicode="&#xd5;" horiz-adv-x="818" 
d="M36 360c0 207 160 373 373 373c211 0 373 -163 373 -373s-159 -373 -373 -373c-213 0 -373 163 -373 373zM162 360c0 -146 104 -257 247 -257s246 111 246 257c0 145 -103 257 -246 257s-247 -112 -247 -257zM334 940c55 0 103 -36 152 -36c37 0 68 16 89 41v-97
c-13 -19 -49 -39 -90 -39c-56 0 -105 36 -154 36c-38 0 -68 -17 -89 -40v96c14 19 50 39 92 39z" />
    <glyph glyph-name="P" unicode="P" horiz-adv-x="602" 
d="M314 263h-102v-263h-126v720h228c160 0 261 -82 261 -229c0 -146 -101 -228 -261 -228zM315 614h-103v-245h108c78 0 128 43 128 122c0 80 -52 123 -133 123z" />
    <glyph glyph-name="Q" unicode="Q" horiz-adv-x="841" 
d="M47 360c0 207 160 373 373 373c212 0 374 -163 374 -373c0 -179 -116 -322 -280 -361c77 -69 187 -110 285 -110c36 0 82 4 110 11v-111c-24 -7 -74 -12 -121 -12c-153 0 -317 82 -413 213c-190 20 -328 174 -328 370zM174 360c0 -146 104 -257 246 -257
c143 0 246 111 246 257c0 145 -103 257 -246 257c-142 0 -246 -112 -246 -257z" />
    <glyph glyph-name="Q.swsh_Mayus" horiz-adv-x="833" 
d="M36 360c0 207 160 373 373 373c211 0 373 -163 373 -373c0 -131 -63 -244 -161 -308c184 -183 391 -256 592 -256c119 0 208 27 276 61v-115c-47 -29 -178 -60 -279 -60c-256 0 -492 111 -701 317c-32 -7 -65 -12 -100 -12c-213 0 -373 163 -373 373zM162 360
c0 -146 104 -257 247 -257s246 111 246 257c0 145 -103 257 -246 257s-247 -112 -247 -257z" />
    <glyph glyph-name="Q.swsh_minus" horiz-adv-x="829" 
d="M36 360c0 207 160 373 373 373c211 0 373 -163 373 -373c0 -137 -68 -254 -174 -317c132 -145 288 -203 435 -203c85 0 164 19 224 47v-114c-38 -21 -128 -48 -227 -48c-196 0 -385 93 -548 271c-27 -5 -54 -9 -83 -9c-213 0 -373 163 -373 373zM162 360
c0 -146 104 -257 247 -257s246 111 246 257c0 145 -103 257 -246 257s-247 -112 -247 -257z" />
    <glyph glyph-name="R" unicode="R" horiz-adv-x="645" 
d="M86 720h243c163 0 266 -82 266 -229c0 -106 -64 -176 -142 -203l157 -288h-135l-138 267h-127v-267h-124v720zM330 614h-120v-245h126c81 0 133 43 133 122c0 80 -54 123 -139 123z" />
    <glyph glyph-name="R.swsh" horiz-adv-x="640" 
d="M334 267h-124v-267h-124v720h242c164 0 267 -82 267 -229c0 -106 -65 -178 -147 -206l58 -135c16 -39 42 -58 75 -58c13 0 26 2 34 4v-101c-15 -4 -35 -8 -62 -8c-79 0 -117 47 -166 160zM329 614h-119v-245h125c82 0 134 43 134 122c0 80 -55 123 -140 123z" />
    <glyph glyph-name="R.swsh_Mayus" horiz-adv-x="641" 
d="M86 720h242c164 0 267 -82 267 -229c0 -106 -66 -178 -146 -205c18 -37 37 -74 56 -110c131 -249 329 -359 599 -359c58 0 120 9 164 21v-110c-36 -14 -105 -24 -172 -24c-319 0 -555 142 -701 440c-20 41 -40 81 -59 123h-126v-267h-124v720zM330 614h-120v-245h126
c82 0 133 43 133 122c0 80 -53 123 -139 123z" />
    <glyph glyph-name="R.swsh_minus" horiz-adv-x="618" 
d="M86 720h242c164 0 267 -82 267 -229c0 -102 -69 -175 -149 -204l39 -90c106 -234 261 -337 454 -337c53 0 110 9 146 19v-108c-34 -15 -93 -24 -151 -24c-251 0 -450 137 -569 439l-33 81h-122v-267h-124v720zM330 614h-120v-245h126c82 0 133 43 133 122
c0 80 -53 123 -139 123z" />
    <glyph glyph-name="Racute" unicode="&#x154;" horiz-adv-x="646" 
d="M86 720h243c163 0 266 -82 266 -229c0 -106 -64 -176 -142 -203l157 -288h-135l-138 267h-127v-267h-124v720zM330 614h-120v-245h126c81 0 133 43 133 122c0 80 -54 123 -139 123zM236 782l99 201h153l-151 -201h-101z" />
    <glyph glyph-name="Racute.swsh" horiz-adv-x="640" 
d="M334 267h-124v-267h-124v720h242c164 0 267 -82 267 -229c0 -106 -65 -178 -147 -206l58 -135c16 -39 42 -58 75 -58c13 0 26 2 34 4v-101c-15 -4 -35 -8 -62 -8c-79 0 -117 47 -166 160zM329 614h-119v-245h125c82 0 134 43 134 122c0 80 -55 123 -140 123zM230 782
l99 201h153l-151 -201h-101z" />
    <glyph glyph-name="Racute.swsh_Mayus" horiz-adv-x="642" 
d="M86 720h242c164 0 267 -82 267 -229c0 -106 -66 -178 -146 -205c18 -37 37 -74 56 -110c131 -249 329 -359 599 -359c58 0 120 9 164 21v-110c-36 -14 -105 -24 -172 -24c-319 0 -555 142 -701 440c-20 41 -40 81 -59 123h-126v-267h-124v720zM330 614h-120v-245h126
c82 0 133 43 133 122c0 80 -53 123 -139 123zM240 782l98 201h153l-150 -201h-101z" />
    <glyph glyph-name="Racute.swsh_minus" horiz-adv-x="618" 
d="M86 720h242c164 0 267 -82 267 -229c0 -102 -69 -175 -149 -204l39 -90c106 -234 261 -337 454 -337c53 0 110 9 146 19v-108c-34 -15 -93 -24 -151 -24c-251 0 -450 137 -569 439l-33 81h-122v-267h-124v720zM330 614h-120v-245h126c82 0 133 43 133 122
c0 80 -53 123 -139 123zM240 782l98 201h153l-150 -201h-101z" />
    <glyph glyph-name="Rcaron" unicode="&#x158;" horiz-adv-x="646" 
d="M86 720h243c163 0 266 -82 266 -229c0 -106 -64 -176 -142 -203l157 -288h-135l-138 267h-127v-267h-124v720zM330 614h-120v-245h126c81 0 133 43 133 122c0 80 -54 123 -139 123zM481 981l-121 -198h-113l-121 198h108l70 -121l69 121h108z" />
    <glyph glyph-name="Rcaron.swsh" horiz-adv-x="640" 
d="M334 267h-124v-267h-124v720h242c164 0 267 -82 267 -229c0 -106 -65 -178 -147 -206l58 -135c16 -39 42 -58 75 -58c13 0 26 2 34 4v-101c-15 -4 -35 -8 -62 -8c-79 0 -117 47 -166 160zM329 614h-119v-245h125c82 0 134 43 134 122c0 80 -55 123 -140 123zM481 981
l-121 -198h-113l-121 198h108l69 -121l70 121h108z" />
    <glyph glyph-name="Rcaron.swsh_Mayus" horiz-adv-x="642" 
d="M86 720h242c164 0 267 -82 267 -229c0 -106 -66 -178 -146 -205c18 -37 37 -74 56 -110c131 -249 329 -359 599 -359c58 0 120 9 164 21v-110c-36 -14 -105 -24 -172 -24c-319 0 -555 142 -701 440c-20 41 -40 81 -59 123h-126v-267h-124v720zM330 614h-120v-245h126
c82 0 133 43 133 122c0 80 -53 123 -139 123zM478 981l-121 -198h-113l-121 198h107l70 -121l70 121h108z" />
    <glyph glyph-name="Rcaron.swsh_minus" horiz-adv-x="618" 
d="M86 720h242c164 0 267 -82 267 -229c0 -102 -69 -175 -149 -204l39 -90c106 -234 261 -337 454 -337c53 0 110 9 146 19v-108c-34 -15 -93 -24 -151 -24c-251 0 -450 137 -569 439l-33 81h-122v-267h-124v720zM330 614h-120v-245h126c82 0 133 43 133 122
c0 80 -53 123 -139 123zM478 981l-121 -198h-113l-121 198h107l70 -121l70 121h108z" />
    <glyph glyph-name="Rcommaaccent" unicode="&#x156;" horiz-adv-x="646" 
d="M86 720h243c163 0 266 -82 266 -229c0 -106 -64 -176 -142 -203l157 -288h-135l-138 267h-127v-267h-124v720zM330 614h-120v-245h126c81 0 133 43 133 122c0 80 -54 123 -139 123zM398 -56l-71 -177h-96l41 177h126z" />
    <glyph glyph-name="Rcommaaccent.swsh" horiz-adv-x="640" 
d="M334 267h-124v-267h-124v720h242c164 0 267 -82 267 -229c0 -106 -65 -178 -147 -206l58 -135c16 -39 42 -58 75 -58c13 0 26 2 34 4v-101c-15 -4 -35 -8 -62 -8c-79 0 -117 47 -166 160zM329 614h-119v-245h125c82 0 134 43 134 122c0 80 -55 123 -140 123zM396 -56
l-71 -177h-96l41 177h126z" />
    <glyph glyph-name="Rcommaaccent.swsh_Mayus" horiz-adv-x="642" 
d="M86 720h242c164 0 267 -82 267 -229c0 -106 -66 -178 -146 -205c18 -37 37 -74 56 -110c131 -249 329 -359 599 -359c58 0 120 9 164 21v-110c-36 -14 -105 -24 -172 -24c-319 0 -555 142 -701 440c-20 41 -40 81 -59 123h-126v-267h-124v720zM330 614h-120v-245h126
c82 0 133 43 133 122c0 80 -53 123 -139 123zM376 -56l-71 -177h-96l41 177h126z" />
    <glyph glyph-name="Rcommaaccent.swsh_minus" horiz-adv-x="618" 
d="M86 720h242c164 0 267 -82 267 -229c0 -102 -69 -175 -149 -204l39 -90c106 -234 261 -337 454 -337c53 0 110 9 146 19v-108c-34 -15 -93 -24 -151 -24c-251 0 -450 137 -569 439l-33 81h-122v-267h-124v720zM330 614h-120v-245h126c82 0 133 43 133 122
c0 80 -53 123 -139 123zM368 -56l-71 -177h-96l41 177h126z" />
    <glyph glyph-name="S" unicode="S" horiz-adv-x="543" 
d="M255 -13c-83 0 -161 20 -211 41v123c51 -26 120 -50 192 -52c26 0 51 2 72 8c51 12 82 38 82 77c0 57 -41 88 -151 127c-132 47 -202 103 -202 220c0 126 105 202 251 202c72 0 141 -18 184 -36v-118c-41 23 -110 43 -175 43c-82 0 -137 -34 -137 -89
c0 -51 38 -85 148 -125c132 -49 204 -105 204 -219c0 -126 -96 -202 -257 -202z" />
    <glyph glyph-name="Sacute" unicode="&#x15a;" horiz-adv-x="541" 
d="M254 -13c-83 0 -161 20 -211 41v123c51 -26 120 -50 192 -52c26 0 51 2 72 8c51 12 82 38 82 77c0 57 -41 88 -151 127c-132 47 -202 103 -202 220c0 126 105 202 251 202c72 0 141 -18 184 -36v-118c-41 23 -110 43 -175 43c-82 0 -137 -34 -137 -89
c0 -51 38 -85 148 -125c132 -49 204 -105 204 -219c0 -126 -96 -202 -257 -202zM202 782l99 201h153l-151 -201h-101z" />
    <glyph glyph-name="Scaron" unicode="&#x160;" horiz-adv-x="541" 
d="M254 -13c-83 0 -161 20 -211 41v123c51 -26 120 -50 192 -52c26 0 51 2 72 8c51 12 82 38 82 77c0 57 -41 88 -151 127c-132 47 -202 103 -202 220c0 126 105 202 251 202c72 0 141 -18 184 -36v-118c-41 23 -110 43 -175 43c-82 0 -137 -34 -137 -89
c0 -51 38 -85 148 -125c132 -49 204 -105 204 -219c0 -126 -96 -202 -257 -202zM449 981l-121 -198h-113l-121 198h108l70 -121l69 121h108z" />
    <glyph glyph-name="Scedilla" unicode="&#x15e;" horiz-adv-x="541" 
d="M511 189c0 -117 -82 -190 -222 -200l-15 -41c44 -2 98 -30 98 -88c0 -64 -56 -93 -127 -93c-30 0 -59 5 -65 8v73c5 -2 23 -7 44 -7c24 0 53 10 53 35c0 32 -45 39 -84 34l32 78c-72 4 -138 21 -182 40v123c51 -26 120 -50 192 -52c26 0 51 2 72 8c51 12 82 38 82 77
c0 57 -41 88 -151 127c-132 47 -202 103 -202 220c0 126 105 202 251 202c72 0 141 -18 184 -36v-118c-41 23 -110 43 -175 43c-82 0 -137 -34 -137 -89c0 -51 38 -85 148 -125c132 -49 204 -105 204 -219z" />
    <glyph glyph-name="Scircumflex" unicode="&#x15c;" horiz-adv-x="541" 
d="M254 -13c-83 0 -161 20 -211 41v123c51 -26 120 -50 192 -52c26 0 51 2 72 8c51 12 82 38 82 77c0 57 -41 88 -151 127c-132 47 -202 103 -202 220c0 126 105 202 251 202c72 0 141 -18 184 -36v-118c-41 23 -110 43 -175 43c-82 0 -137 -34 -137 -89
c0 -51 38 -85 148 -125c132 -49 204 -105 204 -219c0 -126 -96 -202 -257 -202zM89 783l121 198h113l121 -198h-108l-69 121l-70 -121h-108z" />
    <glyph glyph-name="Scommaaccent" unicode="&#x218;" horiz-adv-x="541" 
d="M254 -13c-83 0 -161 20 -211 41v123c51 -26 120 -50 192 -52c26 0 51 2 72 8c51 12 82 38 82 77c0 57 -41 88 -151 127c-132 47 -202 103 -202 220c0 126 105 202 251 202c72 0 141 -18 184 -36v-118c-41 23 -110 43 -175 43c-82 0 -137 -34 -137 -89
c0 -51 38 -85 148 -125c132 -49 204 -105 204 -219c0 -126 -96 -202 -257 -202zM337 -56l-71 -177h-96l41 177h126z" />
    <glyph glyph-name="T" unicode="T" horiz-adv-x="566" 
d="M556 614h-210v-614h-126v614h-210v106h546v-106z" />
    <glyph glyph-name="Tbar" unicode="&#x166;" horiz-adv-x="566" 
d="M556 614h-210v-184h124v-81h-124v-349h-126v349h-124v81h124v184h-210v106h546v-106z" />
    <glyph glyph-name="Tcaron" unicode="&#x164;" horiz-adv-x="566" 
d="M556 614h-210v-614h-126v614h-210v106h546v-106zM460 981l-121 -198h-113l-121 198h108l70 -121l69 121h108z" />
    <glyph glyph-name="Tcommaaccent" unicode="&#x162;" horiz-adv-x="566" 
d="M556 614h-210v-614h-32l-20 -52c44 -2 98 -30 98 -88c0 -64 -56 -93 -127 -93c-30 0 -59 5 -65 8v73c5 -2 23 -7 44 -7c24 0 53 10 53 35c0 32 -45 39 -84 34l37 90h-30v614h-210v106h546v-106z" />
    <glyph glyph-name="Thorn" unicode="&#xde;" horiz-adv-x="569" 
d="M273 131h-61v-131h-126v720h126v-131h61c162 0 265 -82 265 -229s-103 -229 -265 -229zM273 483h-61v-246h36c12 0 26 0 38 1c77 1 124 46 124 122c0 79 -53 123 -137 123z" />
    <glyph glyph-name="U" unicode="U" horiz-adv-x="727" 
d="M653 720v-463c0 -166 -108 -270 -290 -270c-181 0 -289 104 -289 270v463h125v-452c0 -104 61 -165 164 -165c104 0 164 61 164 165v452h126z" />
    <glyph glyph-name="Uacute" unicode="&#xda;" horiz-adv-x="727" 
d="M653 720v-463c0 -166 -108 -270 -290 -270c-181 0 -289 104 -289 270v463h125v-452c0 -104 61 -165 164 -165c104 0 164 61 164 165v452h126zM299 782l99 201h153l-151 -201h-101z" />
    <glyph glyph-name="Ubreve" unicode="&#x16c;" horiz-adv-x="727" 
d="M653 720v-463c0 -166 -108 -270 -290 -270c-181 0 -289 104 -289 270v463h125v-452c0 -104 61 -165 164 -165c104 0 164 61 164 165v452h126zM422 952h92c0 -97 -50 -160 -149 -160c-100 0 -151 63 -150 160h91c0 -47 21 -75 59 -75c37 0 58 28 57 75z" />
    <glyph glyph-name="Ucircumflex" unicode="&#xdb;" horiz-adv-x="727" 
d="M653 720v-463c0 -166 -108 -270 -290 -270c-181 0 -289 104 -289 270v463h125v-452c0 -104 61 -165 164 -165c104 0 164 61 164 165v452h126zM185 783l121 198h113l121 -198h-108l-69 121l-70 -121h-108z" />
    <glyph glyph-name="Udieresis" unicode="&#xdc;" horiz-adv-x="727" 
d="M653 720v-463c0 -166 -108 -270 -290 -270c-181 0 -289 104 -289 270v463h125v-452c0 -104 61 -165 164 -165c104 0 164 61 164 165v452h126zM188 875c0 41 28 68 71 68c42 0 71 -27 71 -68c0 -42 -29 -69 -71 -69c-43 0 -71 27 -71 69zM396 875c0 41 28 68 71 68
c42 0 71 -27 71 -68c0 -42 -29 -69 -71 -69c-43 0 -71 27 -71 69z" />
    <glyph glyph-name="Ugrave" unicode="&#xd9;" horiz-adv-x="727" 
d="M653 720v-463c0 -166 -108 -270 -290 -270c-181 0 -289 104 -289 270v463h125v-452c0 -104 61 -165 164 -165c104 0 164 61 164 165v452h126zM323 983l99 -201h-101l-151 201h153z" />
    <glyph glyph-name="Uhungarumlaut" unicode="&#x170;" horiz-adv-x="727" 
d="M653 720v-463c0 -166 -108 -270 -290 -270c-181 0 -289 104 -289 270v463h125v-452c0 -104 61 -165 164 -165c104 0 164 61 164 165v452h126zM210 782l75 185h136l-108 -185h-103zM389 782l103 185h143l-142 -185h-104z" />
    <glyph glyph-name="Umacron" unicode="&#x16a;" horiz-adv-x="727" 
d="M653 720v-463c0 -166 -108 -270 -290 -270c-181 0 -289 104 -289 270v463h125v-452c0 -104 61 -165 164 -165c104 0 164 61 164 165v452h126zM200 828v93h328v-93h-328z" />
    <glyph glyph-name="Uogonek" unicode="&#x172;" horiz-adv-x="727" 
d="M653 720v-463c0 -131 -68 -224 -186 -257h1c-55 -35 -86 -74 -86 -112c0 -31 21 -44 48 -44c19 0 36 5 49 10v-76c-15 -5 -41 -11 -66 -11c-68 0 -125 31 -125 99c0 49 39 90 88 121h-13c-181 0 -289 104 -289 270v463h125v-452c0 -104 61 -165 164 -165
c104 0 164 61 164 165v452h126z" />
    <glyph glyph-name="Uring" unicode="&#x16e;" horiz-adv-x="727" 
d="M653 720v-463c0 -166 -108 -270 -290 -270c-181 0 -289 104 -289 270v463h125v-452c0 -104 61 -165 164 -165c104 0 164 61 164 165v452h126zM250 875c0 61 50 100 114 100c63 0 113 -39 113 -100c0 -62 -50 -101 -113 -101c-64 0 -114 39 -114 101zM323 875
c0 -23 16 -41 41 -41s41 18 41 41c0 22 -16 39 -41 39s-41 -17 -41 -39z" />
    <glyph glyph-name="Utilde" unicode="&#x168;" horiz-adv-x="727" 
d="M653 720v-463c0 -166 -108 -270 -290 -270c-181 0 -289 104 -289 270v463h125v-452c0 -104 61 -165 164 -165c104 0 164 61 164 165v452h126zM288 940c55 0 103 -36 152 -36c37 0 68 16 89 41v-97c-13 -19 -49 -39 -90 -39c-56 0 -105 36 -154 36c-38 0 -68 -17 -89 -40
v96c14 19 50 39 92 39z" />
    <glyph glyph-name="V" unicode="V" horiz-adv-x="673" 
d="M682 720l-343 -731h-4l-344 731h136l97 -216c43 -98 79 -177 112 -262c31 76 73 170 114 262l96 216h136z" />
    <glyph glyph-name="V.001" horiz-adv-x="684" 
d="M342 175l204 545h140l-290 -720h-108l-289 720h139z" />
    <glyph glyph-name="W" unicode="W" horiz-adv-x="1006" 
d="M5 720h138l106 -272c26 -67 49 -132 65 -181c15 39 39 98 64 157l44 105l78 184h4c66 -153 145 -333 186 -446c34 96 118 313 171 453h139l-307 -731h-4l-148 355c-13 32 -28 66 -39 97l-38 -97l-149 -355h-4z" />
    <glyph glyph-name="W.001" horiz-adv-x="1058" 
d="M750 192l170 528h139l-253 -720h-108l-173 487l-165 -487h-108l-253 720h139l170 -528h1l174 528h85l181 -528h1z" />
    <glyph glyph-name="Wacute" unicode="&#x1e82;" horiz-adv-x="1006" 
d="M5 720h138l106 -272c26 -67 49 -132 65 -181c15 39 39 98 64 157l44 105l78 184h4c66 -153 145 -333 186 -446c34 96 118 313 171 453h139l-307 -731h-4l-148 355c-13 32 -28 66 -39 97l-38 -97l-149 -355h-4zM441 782l99 201h153l-151 -201h-101z" />
    <glyph glyph-name="Wacute.002" horiz-adv-x="1058" 
d="M750 192l170 528h139l-253 -720h-108l-173 487l-165 -487h-108l-253 720h139l170 -528h1l174 528h85l181 -528h1zM475 782l98 201h153l-151 -201h-100z" />
    <glyph glyph-name="Wcircumflex" unicode="&#x174;" horiz-adv-x="1006" 
d="M5 720h138l106 -272c26 -67 49 -132 65 -181c15 39 39 98 64 157l44 105l78 184h4c66 -153 145 -333 186 -446c34 96 118 313 171 453h139l-307 -731h-4l-148 355c-13 32 -28 66 -39 97l-38 -97l-149 -355h-4zM324 783l121 198h113l121 -198h-108l-69 121l-70 -121h-108z
" />
    <glyph glyph-name="Wcircumflex.002" horiz-adv-x="1058" 
d="M750 192l170 528h139l-253 -720h-108l-173 487l-165 -487h-108l-253 720h139l170 -528h1l174 528h85l181 -528h1zM351 783l120 198h114l120 -198h-107l-70 121l-70 -121h-107z" />
    <glyph glyph-name="Wdieresis" unicode="&#x1e84;" horiz-adv-x="1006" 
d="M5 720h138l106 -272c26 -67 49 -132 65 -181c15 39 39 98 64 157l44 105l78 184h4c66 -153 145 -333 186 -446c34 96 118 313 171 453h139l-307 -731h-4l-148 355c-13 32 -28 66 -39 97l-38 -97l-149 -355h-4zM535 875c0 41 28 68 71 68c42 0 71 -27 71 -68
c0 -42 -29 -69 -71 -69c-43 0 -71 27 -71 69zM327 875c0 41 28 68 71 68c42 0 71 -27 71 -68c0 -42 -29 -69 -71 -69c-43 0 -71 27 -71 69z" />
    <glyph glyph-name="Wdieresis.002" horiz-adv-x="1058" 
d="M750 192l170 528h139l-253 -720h-108l-173 487l-165 -487h-108l-253 720h139l170 -528h1l174 528h85l181 -528h1zM562 875c0 41 27 68 70 68s71 -27 71 -68c0 -42 -28 -69 -71 -69s-70 27 -70 69zM354 875c0 41 27 68 70 68s71 -27 71 -68c0 -42 -28 -69 -71 -69
s-70 27 -70 69z" />
    <glyph glyph-name="Wgrave" unicode="&#x1e80;" horiz-adv-x="1006" 
d="M5 720h138l106 -272c26 -67 49 -132 65 -181c15 39 39 98 64 157l44 105l78 184h4c66 -153 145 -333 186 -446c34 96 118 313 171 453h139l-307 -731h-4l-148 355c-13 32 -28 66 -39 97l-38 -97l-149 -355h-4zM453 983l99 -201h-101l-151 201h153z" />
    <glyph glyph-name="Wgrave.002" horiz-adv-x="1058" 
d="M750 192l170 528h139l-253 -720h-108l-173 487l-165 -487h-108l-253 720h139l170 -528h1l174 528h85l181 -528h1zM471 983l99 -201h-101l-150 201h152z" />
    <glyph glyph-name="X" unicode="X" horiz-adv-x="699" 
d="M524 720h142l-248 -356l254 -364h-143l-179 266l-180 -266h-142l254 364l-248 356h142l174 -259z" />
    <glyph glyph-name="Y" unicode="Y" horiz-adv-x="618" 
d="M-14 720h141l182 -318l183 318h141l-261 -438v-282h-126v282z" />
    <glyph glyph-name="Yacute" unicode="&#xdd;" horiz-adv-x="618" 
d="M-14 720h141l182 -318l183 318h141l-261 -438v-282h-126v282zM250 782l99 201h153l-151 -201h-101z" />
    <glyph glyph-name="Ycircumflex" unicode="&#x176;" horiz-adv-x="618" 
d="M-14 720h141l182 -318l183 318h141l-261 -438v-282h-126v282zM131 783l121 198h113l121 -198h-108l-69 121l-70 -121h-108z" />
    <glyph glyph-name="Ydieresis" unicode="&#x178;" horiz-adv-x="618" 
d="M-14 720h141l182 -318l183 318h141l-261 -438v-282h-126v282zM134 875c0 41 28 68 71 68c42 0 71 -27 71 -68c0 -42 -29 -69 -71 -69c-43 0 -71 27 -71 69zM342 875c0 41 28 68 71 68c42 0 71 -27 71 -68c0 -42 -29 -69 -71 -69c-43 0 -71 27 -71 69z" />
    <glyph glyph-name="Ygrave" unicode="&#x1ef2;" horiz-adv-x="618" 
d="M-14 720h141l182 -318l183 318h141l-261 -438v-282h-126v282zM255 983l99 -201h-101l-151 201h153z" />
    <glyph glyph-name="Z" unicode="Z" horiz-adv-x="623" 
d="M30 0l368 614h-340v106h531l-367 -614h362v-106h-554z" />
    <glyph glyph-name="Z.001" horiz-adv-x="576" 
d="M37 102l356 511h-336v107h472v-102l-355 -511h372v-107h-509v102z" />
    <glyph glyph-name="Z.swsh_Mayus" horiz-adv-x="547" 
d="M1282 -142l1 -116c-56 -34 -168 -60 -281 -60c-302 0 -505 198 -695 329c-46 33 -79 52 -119 55l-49 -79h-122l381 627h-340v106h531l-341 -561c41 -7 86 -31 130 -62c182 -121 355 -299 627 -299c94 0 214 23 277 60z" />
    <glyph glyph-name="Z.swsh_Mayus.001" horiz-adv-x="547" 
d="M1282 -141l1 -116c-56 -35 -168 -60 -281 -60c-302 0 -505 197 -695 328c-46 33 -79 52 -119 55l-49 -79h-122l400 626h-359v107h494v-101l-304 -460c41 -7 86 -31 130 -62c182 -121 355 -298 627 -298c94 0 214 22 277 60z" />
    <glyph glyph-name="Z.swsh_minus" horiz-adv-x="528" 
d="M1059 -111l1 -113c-47 -27 -142 -51 -229 -51c-243 0 -414 177 -547 279c-36 28 -68 48 -102 54l-43 -71h-122l381 627h-340v106h531l-345 -567c34 -7 71 -29 107 -56c134 -99 265 -258 482 -258c80 0 175 22 226 50z" />
    <glyph glyph-name="Z.swsh_minus.001" horiz-adv-x="528" 
d="M1059 -111l1 -113c-47 -27 -142 -51 -229 -51c-243 0 -414 177 -547 279c-36 28 -68 48 -102 54l-43 -71h-122l401 626h-360v107h494v-101l-308 -466c34 -7 71 -29 107 -56c134 -99 265 -258 482 -258c80 0 175 22 226 50z" />
    <glyph glyph-name="Zacute" unicode="&#x179;" horiz-adv-x="623" 
d="M30 0l368 614h-340v106h531l-367 -614h362v-106h-554zM241 782l99 201h153l-151 -201h-101z" />
    <glyph glyph-name="Zacute.001" horiz-adv-x="581" 
d="M37 102l356 511h-336v107h472v-102l-355 -511h372v-107h-509v102zM233 782l99 201h153l-151 -201h-101z" />
    <glyph glyph-name="Zacute.swsh_Mayus" horiz-adv-x="531" 
d="M1282 -142c0 -38 1 -77 1 -116c-56 -34 -168 -60 -281 -60c-301 0 -506 197 -695 329c-46 32 -78 52 -119 55l-49 -79h-122l381 627h-340v106h531l-341 -561c41 -7 86 -31 130 -62c182 -121 355 -299 627 -299c94 0 214 23 277 60zM245 782l99 201h153l-151 -201h-101z
" />
    <glyph glyph-name="Zacute.swsh_Mayus.001" horiz-adv-x="531" 
d="M1282 -141c0 -39 1 -77 1 -116c-56 -35 -168 -60 -281 -60c-301 0 -506 196 -695 328c-46 32 -78 52 -119 55l-49 -79h-122l400 626h-359v107h494v-101l-304 -460c41 -7 86 -31 130 -62c182 -121 355 -298 627 -298c94 0 214 22 277 60zM240 782l99 201h152l-150 -201
h-101z" />
    <glyph glyph-name="Zacute.swsh_minus" horiz-adv-x="530" 
d="M1059 -111c0 -38 1 -75 1 -113c-47 -27 -142 -51 -229 -51c-243 0 -414 177 -547 279c-37 27 -68 48 -102 54l-43 -71h-122l381 627h-340v106h531l-345 -567c34 -7 71 -30 107 -56c133 -99 265 -258 482 -258c81 0 175 22 226 50zM245 782l99 201h153l-151 -201h-101z
" />
    <glyph glyph-name="Zacute.swsh_minus.001" horiz-adv-x="530" 
d="M1059 -111c0 -38 1 -75 1 -113c-47 -27 -142 -51 -229 -51c-243 0 -414 177 -547 279c-37 27 -68 48 -102 54l-43 -71h-122l401 626h-360v107h494v-101l-308 -466c34 -7 71 -30 107 -56c133 -99 265 -258 482 -258c80 0 175 22 226 50zM240 782l99 201h152l-150 -201
h-101z" />
    <glyph glyph-name="Zcaron" unicode="&#x17d;" horiz-adv-x="623" 
d="M30 0l368 614h-340v106h531l-367 -614h362v-106h-554zM494 981l-121 -198h-113l-121 198h108l70 -121l69 121h108z" />
    <glyph glyph-name="Zcaron.001" horiz-adv-x="578" 
d="M37 102l356 511h-336v107h472v-102l-355 -511h372v-107h-509v102zM476 981l-120 -198h-114l-121 198h108l70 -121l70 121h107z" />
    <glyph glyph-name="Zcaron.swsh_Mayus" horiz-adv-x="531" 
d="M1282 -142c0 -38 1 -77 1 -116c-56 -34 -168 -60 -281 -60c-301 0 -506 197 -695 329c-46 32 -78 52 -119 55l-49 -79h-122l381 627h-340v106h531l-341 -561c41 -7 86 -31 130 -62c182 -121 355 -299 627 -299c94 0 214 23 277 60zM493 981l-121 -198h-113l-121 198h108
l70 -121l69 121h108z" />
    <glyph glyph-name="Zcaron.swsh_Mayus.001" horiz-adv-x="531" 
d="M1282 -141c0 -39 1 -77 1 -116c-56 -35 -168 -60 -281 -60c-301 0 -506 196 -695 328c-46 32 -78 52 -119 55l-49 -79h-122l400 626h-359v107h494v-101l-304 -460c41 -7 86 -31 130 -62c182 -121 355 -298 627 -298c94 0 214 22 277 60zM488 981l-121 -198h-113l-121 198
h108l70 -121l69 121h108z" />
    <glyph glyph-name="Zcaron.swsh_minus" horiz-adv-x="530" 
d="M1059 -111c0 -38 1 -75 1 -113c-47 -27 -142 -51 -229 -51c-243 0 -414 177 -547 279c-37 27 -68 48 -102 54l-43 -71h-122l381 627h-340v106h531l-345 -567c34 -7 71 -30 107 -56c133 -99 265 -258 482 -258c81 0 175 22 226 50zM493 981l-121 -198h-113l-121 198h108
l70 -121l69 121h108z" />
    <glyph glyph-name="Zcaron.swsh_minus.001" horiz-adv-x="530" 
d="M1059 -111c0 -38 1 -75 1 -113c-47 -27 -142 -51 -229 -51c-243 0 -414 177 -547 279c-37 27 -68 48 -102 54l-43 -71h-122l401 626h-360v107h494v-101l-308 -466c34 -7 71 -30 107 -56c133 -99 265 -258 482 -258c80 0 175 22 226 50zM488 981l-121 -198h-113l-121 198
h108l70 -121l69 121h108z" />
    <glyph glyph-name="Zdotaccent" unicode="&#x17b;" horiz-adv-x="623" 
d="M30 0l368 614h-340v106h531l-367 -614h362v-106h-554zM241 875c0 41 28 68 71 68c42 0 71 -27 71 -68c0 -42 -29 -69 -71 -69c-43 0 -71 27 -71 69z" />
    <glyph glyph-name="Zdotaccent.001" horiz-adv-x="576" 
d="M37 102l356 511h-336v107h472v-102l-355 -511h372v-107h-509v102zM218 875c0 41 28 68 71 68s71 -27 71 -68c0 -42 -28 -69 -71 -69s-71 27 -71 69z" />
    <glyph glyph-name="Zdotaccent.swsh_Mayus" horiz-adv-x="531" 
d="M1282 -142l1 -116c-56 -34 -168 -60 -281 -60c-302 0 -505 198 -695 329c-46 33 -79 52 -119 55l-49 -79h-122l381 627h-340v106h531l-341 -561c41 -7 86 -31 130 -62c182 -121 355 -299 627 -299c94 0 214 23 277 60zM246 875c0 41 27 68 70 68s71 -27 71 -68
c0 -42 -28 -69 -71 -69s-70 27 -70 69z" />
    <glyph glyph-name="Zdotaccent.swsh_Mayus.001" horiz-adv-x="531" 
d="M1282 -141l1 -116c-56 -35 -168 -60 -281 -60c-302 0 -505 197 -695 328c-46 33 -79 52 -119 55l-49 -79h-122l400 626h-359v107h494v-101l-304 -460c41 -7 86 -31 130 -62c182 -121 355 -298 627 -298c94 0 214 22 277 60zM238 875c0 41 28 68 71 68c42 0 70 -27 70 -68
c0 -42 -28 -69 -70 -69c-43 0 -71 27 -71 69z" />
    <glyph glyph-name="Zdotaccent.swsh_minus" horiz-adv-x="530" 
d="M1059 -111l1 -113c-47 -27 -142 -51 -229 -51c-243 0 -414 177 -547 279c-36 28 -68 48 -102 54l-43 -71h-122l381 627h-340v106h531l-345 -567c34 -7 71 -29 107 -56c134 -99 265 -258 482 -258c80 0 175 22 226 50zM246 875c0 41 27 68 70 68s71 -27 71 -68
c0 -42 -28 -69 -71 -69s-70 27 -70 69z" />
    <glyph glyph-name="Zdotaccent.swsh_minus.001" horiz-adv-x="530" 
d="M1059 -111l1 -113c-47 -27 -142 -51 -229 -51c-243 0 -414 177 -547 279c-36 28 -68 48 -102 54l-43 -71h-122l401 626h-360v107h494v-101l-308 -466c34 -7 71 -29 107 -56c134 -99 265 -258 482 -258c80 0 175 22 226 50zM238 875c0 41 28 68 71 68c42 0 70 -27 70 -68
c0 -42 -28 -69 -70 -69c-43 0 -71 27 -71 69z" />
    <glyph glyph-name="a" unicode="a" horiz-adv-x="535" 
d="M71 367v110c28 15 95 36 180 36c148 0 221 -71 221 -196v-317h-111l-2 52c-1 23 2 38 2 38h-2c-9 -22 -62 -103 -164 -103c-89 0 -159 53 -159 149c0 123 121 183 315 156v19c0 73 -46 98 -119 98c-66 0 -129 -22 -161 -42zM222 82c72 0 126 68 126 138
c-137 22 -195 -17 -195 -74c0 -38 27 -64 69 -64z" />
    <glyph glyph-name="a.alt" horiz-adv-x="636" 
d="M293 409c-81 0 -137 -65 -137 -159c0 -93 56 -159 137 -159c67 0 138 51 138 159s-71 159 -138 159zM556 500v-500h-112l-2 52c-1 21 2 35 2 35h-2c-24 -53 -92 -100 -171 -100c-129 0 -231 104 -231 263c0 161 102 263 231 263c77 0 147 -45 171 -95h2s-3 14 -2 35l2 47
h112z" />
    <glyph glyph-name="aacute" unicode="&#xe1;" horiz-adv-x="535" 
d="M71 367v110c28 15 95 36 180 36c148 0 221 -71 221 -196v-317h-111l-2 52c-1 23 2 38 2 38h-2c-9 -22 -62 -103 -164 -103c-89 0 -159 53 -159 149c0 123 121 183 315 156v19c0 73 -46 98 -119 98c-66 0 -129 -22 -161 -42zM222 82c72 0 126 68 126 138
c-137 22 -195 -17 -195 -74c0 -38 27 -64 69 -64zM191 562l89 171h156l-136 -171h-109z" />
    <glyph glyph-name="aacute.alt" horiz-adv-x="640" 
d="M559 500v-500h-112l-2 52c-2 21 2 35 2 35h-2c-24 -53 -92 -100 -171 -100c-129 0 -231 104 -231 263c0 161 102 263 231 263c77 0 147 -45 171 -95h2s-4 14 -2 35l2 47h112zM296 409c-81 0 -137 -65 -137 -159c0 -93 56 -159 137 -159c67 0 138 51 138 159
s-71 159 -138 159zM223 562l89 171h156l-136 -171h-109z" />
    <glyph glyph-name="abreve" unicode="&#x103;" horiz-adv-x="535" 
d="M71 367v110c28 15 95 36 180 36c148 0 221 -71 221 -196v-317h-111l-2 52c-1 23 2 38 2 38h-2c-9 -22 -62 -103 -164 -103c-89 0 -159 53 -159 149c0 123 121 183 315 156v19c0 73 -46 98 -119 98c-66 0 -129 -22 -161 -42zM222 82c72 0 126 68 126 138
c-137 22 -195 -17 -195 -74c0 -38 27 -64 69 -64zM308 725h91c1 -94 -48 -155 -145 -155s-146 61 -145 155h91c0 -44 20 -70 54 -70c35 0 55 26 54 70z" />
    <glyph glyph-name="abreve.alt" horiz-adv-x="640" 
d="M559 500v-500h-112l-2 52c-2 21 2 35 2 35h-2c-24 -53 -92 -100 -171 -100c-129 0 -231 104 -231 263c0 161 102 263 231 263c77 0 147 -45 171 -95h2s-4 14 -2 35l2 47h112zM296 409c-81 0 -137 -65 -137 -159c0 -93 56 -159 137 -159c67 0 138 51 138 159
s-71 159 -138 159zM339 725h90c1 -94 -48 -155 -145 -155s-146 61 -144 155h90c0 -44 20 -70 54 -70c35 0 55 26 55 70z" />
    <glyph glyph-name="acircumflex" unicode="&#xe2;" horiz-adv-x="535" 
d="M71 367v110c28 15 95 36 180 36c148 0 221 -71 221 -196v-317h-111l-2 52c-1 23 2 38 2 38h-2c-9 -22 -62 -103 -164 -103c-89 0 -159 53 -159 149c0 123 121 183 315 156v19c0 73 -46 98 -119 98c-66 0 -129 -22 -161 -42zM222 82c72 0 126 68 126 138
c-137 22 -195 -17 -195 -74c0 -38 27 -64 69 -64zM91 562l104 171h117l102 -171h-105l-56 99l-56 -99h-106z" />
    <glyph glyph-name="acircumflex.alt" horiz-adv-x="640" 
d="M559 500v-500h-112l-2 52c-2 21 2 35 2 35h-2c-24 -53 -92 -100 -171 -100c-129 0 -231 104 -231 263c0 161 102 263 231 263c77 0 147 -45 171 -95h2s-4 14 -2 35l2 47h112zM296 409c-81 0 -137 -65 -137 -159c0 -93 56 -159 137 -159c67 0 138 51 138 159
s-71 159 -138 159zM132 562l103 171h117l103 -171h-106l-55 99l-57 -99h-105z" />
    <glyph glyph-name="acute" unicode="&#xb4;" horiz-adv-x="330" 
d="M42 562l89 171h156l-136 -171h-109z" />
    <glyph glyph-name="acute.cap" horiz-adv-x="336" 
d="M42 562l99 201h153l-151 -201h-101z" />
    <glyph glyph-name="acutecomb" unicode="&#x301;" horiz-adv-x="327" 
d="M116 697h147l-107 -132h-108z" />
    <glyph glyph-name="acutecomb.cap" horiz-adv-x="323" 
d="M115 697h147l-108 -132h-108z" />
    <glyph glyph-name="adieresis" unicode="&#xe4;" horiz-adv-x="535" 
d="M71 367v110c28 15 95 36 180 36c148 0 221 -71 221 -196v-317h-111l-2 52c-1 23 2 38 2 38h-2c-9 -22 -62 -103 -164 -103c-89 0 -159 53 -159 149c0 123 121 183 315 156v19c0 73 -46 98 -119 98c-66 0 -129 -22 -161 -42zM222 82c72 0 126 68 126 138
c-137 22 -195 -17 -195 -74c0 -38 27 -64 69 -64zM77 644c0 42 28 69 71 69c42 0 71 -27 71 -69c0 -41 -29 -68 -71 -68c-43 0 -71 27 -71 68zM285 644c0 42 27 69 70 69s71 -27 71 -69c0 -41 -28 -68 -71 -68s-70 27 -70 68z" />
    <glyph glyph-name="adieresis.alt" horiz-adv-x="640" 
d="M559 500v-500h-112l-2 52c-2 21 2 35 2 35h-2c-24 -53 -92 -100 -171 -100c-129 0 -231 104 -231 263c0 161 102 263 231 263c77 0 147 -45 171 -95h2s-4 14 -2 35l2 47h112zM296 409c-81 0 -137 -65 -137 -159c0 -93 56 -159 137 -159c67 0 138 51 138 159
s-71 159 -138 159zM115 644c0 42 28 69 71 69c42 0 70 -27 70 -69c0 -41 -28 -68 -70 -68c-43 0 -71 27 -71 68zM322 644c0 42 28 69 70 69c43 0 71 -27 71 -69c0 -41 -28 -68 -71 -68c-42 0 -70 27 -70 68z" />
    <glyph glyph-name="ae" unicode="&#xe6;" horiz-adv-x="832" 
d="M71 367v110c27 14 87 33 164 35c20 1 40 0 60 -2c55 -7 96 -27 124 -60c40 40 93 63 157 63c144 0 219 -110 219 -234c0 -23 -3 -45 -3 -54h-336c4 -84 61 -134 150 -134c67 0 136 21 170 42v-107c-34 -19 -98 -39 -180 -39c-92 0 -166 38 -211 99
c-25 -33 -89 -99 -189 -99c-89 0 -160 53 -160 149c0 120 117 180 306 157c2 17 6 33 12 47c-11 50 -57 69 -120 69c-67 0 -131 -22 -163 -42zM224 82c57 0 104 40 122 92c-4 15 -6 31 -6 49c-132 16 -187 -22 -187 -77c0 -38 28 -64 71 -64zM677 296c2 63 -33 119 -105 119
c-71 0 -111 -56 -116 -119h221z" />
    <glyph glyph-name="aeacute" unicode="&#x1fd;" horiz-adv-x="832" 
d="M71 367v110c27 14 87 33 164 35c20 1 40 0 60 -2c55 -7 96 -27 124 -60c40 40 93 63 157 63c144 0 219 -110 219 -234c0 -23 -3 -45 -3 -54h-336c4 -84 61 -134 150 -134c67 0 136 21 170 42v-107c-34 -19 -98 -39 -180 -39c-92 0 -166 38 -211 99
c-25 -33 -89 -99 -189 -99c-89 0 -160 53 -160 149c0 120 117 180 306 157c2 17 6 33 12 47c-11 50 -57 69 -120 69c-67 0 -131 -22 -163 -42zM224 82c57 0 104 40 122 92c-4 15 -6 31 -6 49c-132 16 -187 -22 -187 -77c0 -38 28 -64 71 -64zM677 296c2 63 -33 119 -105 119
c-71 0 -111 -56 -116 -119h221zM340 562l89 171h156l-136 -171h-109z" />
    <glyph glyph-name="agrave" unicode="&#xe0;" horiz-adv-x="535" 
d="M71 367v110c28 15 95 36 180 36c148 0 221 -71 221 -196v-317h-111l-2 52c-1 23 2 38 2 38h-2c-9 -22 -62 -103 -164 -103c-89 0 -159 53 -159 149c0 123 121 183 315 156v19c0 73 -46 98 -119 98c-66 0 -129 -22 -161 -42zM222 82c72 0 126 68 126 138
c-137 22 -195 -17 -195 -74c0 -38 27 -64 69 -64zM235 733l89 -171h-107l-138 171h156z" />
    <glyph glyph-name="agrave.alt" horiz-adv-x="640" 
d="M559 500v-500h-112l-2 52c-2 21 2 35 2 35h-2c-24 -53 -92 -100 -171 -100c-129 0 -231 104 -231 263c0 161 102 263 231 263c77 0 147 -45 171 -95h2s-4 14 -2 35l2 47h112zM296 409c-81 0 -137 -65 -137 -159c0 -93 56 -159 137 -159c67 0 138 51 138 159
s-71 159 -138 159zM269 733l89 -171h-108l-137 171h156z" />
    <glyph glyph-name="amacron" unicode="&#x101;" horiz-adv-x="535" 
d="M71 367v110c28 15 95 36 180 36c148 0 221 -71 221 -196v-317h-111l-2 52c-1 23 2 38 2 38h-2c-9 -22 -62 -103 -164 -103c-89 0 -159 53 -159 149c0 123 121 183 315 156v19c0 73 -46 98 -119 98c-66 0 -129 -22 -161 -42zM222 82c72 0 126 68 126 138
c-137 22 -195 -17 -195 -74c0 -38 27 -64 69 -64zM96 599v91h315v-91h-315z" />
    <glyph glyph-name="amacron.alt" horiz-adv-x="640" 
d="M559 500v-500h-112l-2 52c-2 21 2 35 2 35h-2c-24 -53 -92 -100 -171 -100c-129 0 -231 104 -231 263c0 161 102 263 231 263c77 0 147 -45 171 -95h2s-4 14 -2 35l2 47h112zM296 409c-81 0 -137 -65 -137 -159c0 -93 56 -159 137 -159c67 0 138 51 138 159
s-71 159 -138 159zM126 599v91h315v-91h-315z" />
    <glyph glyph-name="ampersand" unicode="&#x26;" horiz-adv-x="672" 
d="M506 365h106c6 -85 -6 -165 -54 -240l120 -125h-137l-53 55c-52 -44 -121 -68 -200 -68c-167 0 -259 89 -259 197c0 96 75 156 146 194c-48 53 -81 100 -81 177c0 94 82 178 195 178c106 0 193 -79 193 -171c0 -114 -92 -174 -151 -203l147 -151c24 48 32 103 28 157z
M414 131l-177 182c-44 -23 -93 -60 -93 -119c0 -63 58 -109 145 -109c46 0 91 16 125 46zM200 551c0 -48 25 -81 66 -125c45 23 111 64 111 125c0 47 -40 84 -88 84c-49 0 -89 -37 -89 -84z" />
    <glyph glyph-name="ampersand.alt" horiz-adv-x="729" 
d="M506 371h106c8 -85 -9 -170 -52 -237c51 -48 86 -47 112 -47c17 -1 33 2 44 6v-96c-15 -5 -37 -10 -63 -10c-53 0 -104 18 -163 69c-53 -45 -122 -69 -202 -69c-167 0 -259 89 -259 197c0 96 75 156 146 194c-48 53 -81 100 -81 177c0 90 75 170 179 176
c20 1 39 -1 58 -5c86 -17 151 -86 151 -164c0 -114 -92 -174 -151 -203l146 -151c25 53 34 110 29 163zM414 131l-177 182c-44 -23 -93 -60 -93 -119c0 -63 58 -109 145 -109c46 0 91 16 125 46zM200 551c0 -48 25 -81 66 -125c45 23 111 64 111 125c0 47 -40 84 -88 84
c-49 0 -89 -37 -89 -84z" />
    <glyph glyph-name="aogonek" unicode="&#x105;" horiz-adv-x="535" 
d="M71 367v110c28 15 95 36 180 36c148 0 221 -71 221 -196v-317c-55 -35 -86 -74 -86 -112c0 -31 21 -44 48 -44c19 0 36 5 49 10v-76c-15 -5 -41 -11 -66 -11c-68 0 -125 31 -125 99c0 56 51 102 110 134h-41l-2 52c-1 23 2 38 2 38h-2c-9 -22 -62 -103 -164 -103
c-89 0 -159 53 -159 149c0 123 121 183 315 156v19c0 73 -46 98 -119 98c-66 0 -129 -22 -161 -42zM222 82c72 0 126 68 126 138c-137 22 -195 -17 -195 -74c0 -38 27 -64 69 -64z" />
    <glyph glyph-name="aogonek.alt" horiz-adv-x="640" 
d="M559 500v-500c-55 -35 -86 -74 -86 -112c0 -32 20 -44 48 -44c19 0 36 5 49 10v-76c-15 -5 -42 -11 -66 -11c-68 0 -125 31 -125 99c0 56 51 102 109 134h-41l-2 52c-2 21 2 35 2 35h-2c-24 -53 -92 -100 -171 -100c-129 0 -231 104 -231 263c0 161 102 263 231 263
c77 0 147 -45 171 -95h2s-4 14 -2 35l2 47h112zM296 409c-81 0 -137 -65 -137 -159c0 -93 56 -159 137 -159c67 0 138 51 138 159s-71 159 -138 159z" />
    <glyph glyph-name="approxequal" unicode="&#x2248;" horiz-adv-x="601" 
d="M88 385v92c22 22 71 40 121 40c66 0 117 -36 183 -36c46 0 92 18 119 40v-93c-23 -22 -71 -40 -121 -40c-66 0 -118 37 -183 37c-47 0 -93 -20 -119 -40zM91 200v92c22 22 70 41 120 41c66 0 118 -37 183 -37c47 0 93 19 120 40v-92c-23 -22 -72 -41 -121 -41
c-67 0 -118 37 -184 37c-46 0 -92 -19 -118 -40z" />
    <glyph glyph-name="aring" unicode="&#xe5;" horiz-adv-x="535" 
d="M71 367v110c28 15 95 36 180 36c148 0 221 -71 221 -196v-317h-111l-2 52c-1 23 2 38 2 38h-2c-9 -22 -62 -103 -164 -103c-89 0 -159 53 -159 149c0 123 121 183 315 156v19c0 73 -46 98 -119 98c-66 0 -129 -22 -161 -42zM222 82c72 0 126 68 126 138
c-137 22 -195 -17 -195 -74c0 -38 27 -64 69 -64zM141 644c0 63 49 99 114 99s113 -36 113 -99c0 -61 -48 -99 -113 -99s-114 38 -114 99zM214 644c0 -22 16 -38 41 -38s41 16 41 38c0 23 -16 39 -41 39s-41 -16 -41 -39z" />
    <glyph glyph-name="aring.alt" horiz-adv-x="640" 
d="M559 500v-500h-112l-2 52c-2 21 2 35 2 35h-2c-24 -53 -92 -100 -171 -100c-129 0 -231 104 -231 263c0 161 102 263 231 263c77 0 147 -45 171 -95h2s-4 14 -2 35l2 47h112zM296 409c-81 0 -137 -65 -137 -159c0 -93 56 -159 137 -159c67 0 138 51 138 159
s-71 159 -138 159zM177 644c0 63 49 99 114 99c64 0 112 -36 112 -99c0 -61 -48 -99 -112 -99c-65 0 -114 38 -114 99zM250 644c0 -22 15 -38 41 -38c25 0 40 16 40 38c0 23 -15 39 -40 39c-26 0 -41 -16 -41 -39z" />
    <glyph glyph-name="aringacute" unicode="&#x1fb;" horiz-adv-x="535" 
d="M71 367v110c28 15 95 36 180 36c148 0 221 -71 221 -196v-317h-111l-2 52c-1 23 2 38 2 38h-2c-9 -22 -62 -103 -164 -103c-89 0 -159 53 -159 149c0 123 121 183 315 156v19c0 73 -46 98 -119 98c-66 0 -129 -22 -161 -42zM222 82c72 0 126 68 126 138
c-137 22 -195 -17 -195 -74c0 -38 27 -64 69 -64zM143 639c0 60 47 96 110 96c64 0 111 -36 111 -96c0 -61 -47 -97 -111 -97c-63 0 -110 36 -110 97zM215 639c0 -22 14 -37 38 -37s39 15 39 37c0 20 -15 35 -39 35s-38 -15 -38 -35zM264 892h147l-107 -132h-108z" />
    <glyph glyph-name="aringacute.alt" horiz-adv-x="640" 
d="M559 500v-500h-112l-2 52c-2 21 2 35 2 35h-2c-24 -53 -92 -100 -171 -100c-129 0 -231 104 -231 263c0 161 102 263 231 263c77 0 147 -45 171 -95h2s-4 14 -2 35l2 47h112zM296 409c-81 0 -137 -65 -137 -159c0 -93 56 -159 137 -159c67 0 138 51 138 159
s-71 159 -138 159zM182 638c0 61 47 97 111 97c63 0 110 -36 110 -97c0 -60 -47 -96 -110 -96c-64 0 -111 36 -111 96zM255 638c0 -21 13 -36 38 -36c23 0 38 15 38 36s-15 36 -38 36c-25 0 -38 -15 -38 -36zM299 891h147l-107 -132h-108z" />
    <glyph glyph-name="asciicircum" unicode="^" horiz-adv-x="589" 
d="M539 327h-127l-117 207l-118 -208h-127l245 406z" />
    <glyph glyph-name="asciicircum.001" horiz-adv-x="601" 
d="M551 327h-128l-122 269l-124 -270h-127l193 403h115z" />
    <glyph glyph-name="asciitilde" unicode="~" horiz-adv-x="551" 
d="M186 429c70 0 115 -40 183 -40c48 0 92 20 118 43v-92c-22 -25 -71 -44 -122 -44c-70 0 -116 40 -183 40c-48 0 -92 -22 -118 -44v93c22 24 71 44 122 44z" />
    <glyph glyph-name="asterisk" unicode="*" horiz-adv-x="443" 
d="M377 668l30 -91l-122 -32l78 -98l-72 -52l-70 99l-69 -99l-72 52l77 98l-121 32l30 91l115 -46l-7 122h95l-6 -122z" />
    <glyph glyph-name="at" unicode="@" horiz-adv-x="886" 
d="M801 9v-103c-64 -35 -168 -61 -275 -61c-257 0 -446 167 -446 405c0 231 173 402 435 402c169 0 264 -81 264 -208v-298c-62 -30 -153 -66 -248 -66c-104 0 -198 62 -198 173c0 135 140 202 326 173v19c-2 66 -56 103 -149 103c-186 0 -313 -121 -313 -289
c0 -180 136 -312 329 -312c94 0 199 24 275 62zM545 171c48 0 90 17 111 27v155c-132 23 -207 -20 -207 -90c0 -54 34 -92 96 -92z" />
    <glyph glyph-name="atilde" unicode="&#xe3;" horiz-adv-x="535" 
d="M71 367v110c28 15 95 36 180 36c148 0 221 -71 221 -196v-317h-111l-2 52c-1 23 2 38 2 38h-2c-9 -22 -62 -103 -164 -103c-89 0 -159 53 -159 149c0 123 121 183 315 156v19c0 73 -46 98 -119 98c-66 0 -129 -22 -161 -42zM222 82c72 0 126 68 126 138
c-137 22 -195 -17 -195 -74c0 -38 27 -64 69 -64zM182 711c55 0 101 -35 150 -35c37 0 68 17 89 40v-94c-13 -19 -49 -39 -91 -39c-55 0 -102 36 -151 36c-38 0 -68 -18 -89 -41v95c14 19 50 38 92 38z" />
    <glyph glyph-name="atilde.alt" horiz-adv-x="640" 
d="M559 500v-500h-112l-2 52c-2 21 2 35 2 35h-2c-24 -53 -92 -100 -171 -100c-129 0 -231 104 -231 263c0 161 102 263 231 263c77 0 147 -45 171 -95h2s-4 14 -2 35l2 47h112zM296 409c-81 0 -137 -65 -137 -159c0 -93 56 -159 137 -159c67 0 138 51 138 159
s-71 159 -138 159zM215 711c55 0 102 -35 151 -35c36 0 67 17 88 40v-94c-13 -19 -49 -39 -91 -39c-55 0 -102 36 -150 36c-39 0 -68 -18 -89 -41v95c14 19 49 38 91 38z" />
    <glyph glyph-name="b" unicode="b" horiz-adv-x="636" 
d="M343 409c-67 0 -138 -51 -138 -159s71 -159 138 -159c81 0 137 66 137 159c0 94 -56 159 -137 159zM80 0v720h122v-248c0 -27 -3 -41 -3 -41h2c27 43 88 82 165 82c128 0 230 -102 230 -263c0 -159 -102 -263 -232 -263c-78 0 -146 47 -170 100h-2c-1 0 4 -14 2 -35
l-2 -52h-112z" />
    <glyph glyph-name="backslash" unicode="\" horiz-adv-x="479" 
d="M121 787l366 -854h-129l-366 854h129z" />
    <glyph glyph-name="bar" unicode="|" horiz-adv-x="323" 
d="M221 -67h-119v854h119v-854z" />
    <glyph glyph-name="braceleft" unicode="{" horiz-adv-x="359" 
d="M119 118v97c0 70 -39 99 -75 102v87c36 3 75 31 75 103v94c0 131 70 186 173 186h41v-101h-23c-42 0 -69 -28 -69 -82v-113c0 -76 -38 -118 -75 -129v-2c38 -12 75 -53 75 -128v-92c0 -70 17 -106 69 -106h23v-101h-41c-100 0 -173 54 -173 185z" />
    <glyph glyph-name="braceright" unicode="}" horiz-adv-x="359" 
d="M240 602v-97c0 -70 39 -99 76 -102v-87c-37 -3 -76 -31 -76 -103v-94c0 -131 -69 -186 -173 -186h-41v100h23c41 0 69 29 69 83v113c0 76 39 118 76 129v2c-38 12 -76 53 -76 128v92c0 70 -16 106 -69 106h-23v101h41c100 0 173 -54 173 -185z" />
    <glyph glyph-name="bracketleft" unicode="[" horiz-adv-x="359" 
d="M102 -67v854h199v-101h-75v-653h75v-100h-199z" />
    <glyph glyph-name="bracketright" unicode="]" horiz-adv-x="359" 
d="M264 787v-854h-199v100h76v653h-76v101h199z" />
    <glyph glyph-name="breve" unicode="&#x2d8;" horiz-adv-x="376" 
d="M242 725h91c1 -94 -48 -155 -145 -155s-146 61 -145 155h91c0 -44 20 -70 54 -70c35 0 55 26 54 70z" />
    <glyph glyph-name="breve.cap" horiz-adv-x="406" 
d="M261 732h92c0 -97 -50 -160 -149 -160c-100 0 -151 63 -150 160h91c0 -47 21 -75 59 -75c37 0 58 28 57 75z" />
    <glyph glyph-name="brokenbar" unicode="&#xa6;" horiz-adv-x="323" 
d="M221 446h-119v341h119v-341zM221 -67h-119v341h119v-341z" />
    <glyph glyph-name="bullet" unicode="&#x2022;" horiz-adv-x="291" 
d="M42 359c0 61 41 101 103 101s104 -40 104 -101c0 -59 -42 -99 -104 -99s-103 40 -103 99z" />
    <glyph glyph-name="c" unicode="c" horiz-adv-x="497" 
d="M164 250c0 -93 62 -156 153 -156c64 0 117 27 142 43v-111c-25 -13 -76 -39 -155 -39c-157 0 -264 112 -264 263s107 263 264 263c79 0 127 -25 152 -38v-112c-31 21 -81 43 -139 43c-90 0 -153 -63 -153 -156z" />
    <glyph glyph-name="cacute" unicode="&#x107;" horiz-adv-x="497" 
d="M164 250c0 -93 62 -156 153 -156c64 0 117 27 142 43v-111c-25 -13 -76 -39 -155 -39c-157 0 -264 112 -264 263s107 263 264 263c79 0 127 -25 152 -38v-112c-31 21 -81 43 -139 43c-90 0 -153 -63 -153 -156zM242 562l89 171h156l-136 -171h-109z" />
    <glyph glyph-name="caron" unicode="&#x2c7;" horiz-adv-x="408" 
d="M365 733l-102 -171h-117l-104 171h106l56 -99l56 99h105z" />
    <glyph glyph-name="caron.cap" horiz-adv-x="439" 
d="M397 761l-121 -198h-113l-121 198h108l70 -121l69 121h108z" />
    <glyph glyph-name="ccaron" unicode="&#x10d;" horiz-adv-x="497" 
d="M164 250c0 -93 62 -156 153 -156c64 0 117 27 142 43v-111c-25 -13 -76 -39 -155 -39c-157 0 -264 112 -264 263s107 263 264 263c79 0 127 -25 152 -38v-112c-31 21 -81 43 -139 43c-90 0 -153 -63 -153 -156zM449 733l-102 -171h-117l-104 171h106l56 -99l56 99h105z
" />
    <glyph glyph-name="ccedilla" unicode="&#xe7;" horiz-adv-x="497" 
d="M164 250c0 -93 62 -156 153 -156c64 0 117 27 142 43v-111c-24 -13 -73 -37 -147 -39l-15 -39c44 -2 98 -30 98 -88c0 -64 -56 -93 -127 -93c-30 0 -59 5 -65 8v73c5 -2 23 -7 44 -7c24 0 53 10 53 35c0 32 -45 39 -84 34l33 82c-127 22 -209 125 -209 258
c0 151 107 263 264 263c79 0 127 -25 152 -38v-112c-31 21 -81 43 -139 43c-90 0 -153 -63 -153 -156z" />
    <glyph glyph-name="ccircumflex" unicode="&#x109;" horiz-adv-x="497" 
d="M164 250c0 -93 62 -156 153 -156c64 0 117 27 142 43v-111c-25 -13 -76 -39 -155 -39c-157 0 -264 112 -264 263s107 263 264 263c79 0 127 -25 152 -38v-112c-31 21 -81 43 -139 43c-90 0 -153 -63 -153 -156zM128 562l104 171h117l102 -171h-105l-56 99l-56 -99h-106z
" />
    <glyph glyph-name="cdotaccent" unicode="&#x10b;" horiz-adv-x="497" 
d="M164 250c0 -93 62 -156 153 -156c64 0 117 27 142 43v-111c-25 -13 -76 -39 -155 -39c-157 0 -264 112 -264 263s107 263 264 263c79 0 127 -25 152 -38v-112c-31 21 -81 43 -139 43c-90 0 -153 -63 -153 -156zM231 644c0 42 28 69 71 69c42 0 71 -27 71 -69
c0 -41 -29 -68 -71 -68c-43 0 -71 27 -71 68z" />
    <glyph glyph-name="cedilla" unicode="&#xb8;" horiz-adv-x="276" 
d="M96 10h64l-24 -62c44 -2 98 -30 98 -88c0 -64 -56 -93 -127 -93c-30 0 -59 5 -65 8v73c5 -2 23 -7 44 -7c24 0 53 10 53 35c0 32 -45 39 -84 34z" />
    <glyph glyph-name="cent" unicode="&#xa2;" horiz-adv-x="554" 
d="M310 751h46v-130c64 -4 105 -24 128 -36v-113c-30 19 -75 40 -128 43v-311c59 2 106 27 131 42v-111c-23 -12 -65 -34 -131 -38v-130h-46v130c-145 10 -242 118 -242 262s97 252 242 262v130zM191 359c0 -80 47 -139 119 -153v305c-71 -14 -119 -71 -119 -152z" />
    <glyph glyph-name="circumflex" unicode="&#x2c6;" horiz-adv-x="408" 
d="M42 562l104 171h117l102 -171h-105l-56 99l-56 -99h-106z" />
    <glyph glyph-name="circumflex.cap" horiz-adv-x="439" 
d="M42 563l121 198h113l121 -198h-108l-69 121l-70 -121h-108z" />
    <glyph glyph-name="colon" unicode=":" horiz-adv-x="226" 
d="M42 444c0 42 28 69 71 69c42 0 71 -27 71 -69c0 -41 -29 -68 -71 -68c-43 0 -71 27 -71 68zM42 55c0 42 28 69 71 69c42 0 71 -27 71 -69c0 -41 -29 -68 -71 -68c-43 0 -71 27 -71 68z" />
    <glyph glyph-name="comma" unicode="," horiz-adv-x="219" 
d="M176 58l-83 -208h-91l60 208h114z" />
    <glyph glyph-name="commaaccent" unicode="&#xf6c3;" horiz-adv-x="251" 
d="M209 -56l-71 -177h-96l41 177h126z" />
    <glyph glyph-name="copyright" unicode="&#xa9;" horiz-adv-x="828" 
d="M50 360c0 208 161 372 362 372c203 0 366 -164 366 -372c0 -209 -163 -372 -366 -372c-201 0 -362 163 -362 372zM125 360c0 -168 126 -298 287 -298c163 0 291 130 291 298c0 167 -128 298 -291 298c-161 0 -287 -131 -287 -298zM414 147c-118 0 -205 91 -205 213
s87 213 205 213c65 0 112 -26 128 -35v-88c-18 12 -62 38 -118 38c-72 0 -123 -55 -123 -128s51 -128 122 -128c56 0 103 27 121 39v-89c-15 -7 -65 -35 -130 -35z" />
    <glyph glyph-name="currency" unicode="&#xa4;" horiz-adv-x="778" 
d="M388 599c45 0 87 -13 122 -36l112 112l75 -76l-110 -111c24 -35 38 -77 38 -122s-14 -87 -38 -122l110 -111l-75 -76l-113 111c-35 -22 -76 -35 -121 -35c-44 0 -85 13 -121 35l-111 -111l-76 76l110 111c-23 35 -37 76 -37 122c0 45 14 87 38 123l-111 110l76 76
l111 -112c34 23 77 36 121 36zM388 238c71 0 129 56 129 128c0 71 -57 128 -127 128c-71 0 -129 -55 -129 -128c0 -72 58 -128 127 -128z" />
    <glyph glyph-name="d" unicode="d" horiz-adv-x="637" 
d="M556 720v-720h-112l-2 52c-1 21 2 35 2 35h-2c-24 -53 -92 -100 -169 -100c-131 0 -233 104 -233 263c0 161 102 263 230 263c77 0 138 -39 165 -82h2s-3 14 -3 41v248h122zM293 409c-81 0 -137 -65 -137 -159c0 -93 56 -159 137 -159c67 0 138 51 138 159
s-71 159 -138 159z" />
    <glyph glyph-name="dagger" unicode="&#x2020;" horiz-adv-x="580" 
d="M226 -67v493h-188v108h188v253h123v-253h193v-108h-193v-493h-123z" />
    <glyph glyph-name="daggerdbl" unicode="&#x2021;" horiz-adv-x="565" 
d="M221 239v242h-183v109h183v197h118v-197h188v-109h-188v-242h188v-109h-188v-197h-118v197h-183v109h183z" />
    <glyph glyph-name="dcaron" unicode="&#x10f;" horiz-adv-x="747" 
d="M556 720v-720h-112l-2 47c-1 21 3 35 2 35h-2c-24 -50 -92 -95 -169 -95c-131 0 -233 104 -233 263c0 161 102 263 230 263c77 0 139 -41 165 -87h2s-3 14 -3 41v253h122zM293 409c-81 0 -137 -65 -137 -159c0 -93 56 -159 137 -159c67 0 138 51 138 159
s-71 159 -138 159zM633 421v293h113v-293h-113z" />
    <glyph glyph-name="dcroat" unicode="&#x111;" horiz-adv-x="637" 
d="M556 720v-69h76v-81h-76v-570h-112l-2 47c-1 21 3 35 2 35h-2c-24 -50 -92 -95 -169 -95c-131 0 -233 104 -233 263c0 161 102 263 230 263c77 0 139 -41 165 -87h2s-3 14 -3 41v103h-152v81h152v69h122zM293 409c-81 0 -137 -65 -137 -159c0 -93 56 -159 137 -159
c67 0 138 51 138 159s-71 159 -138 159z" />
    <glyph glyph-name="degree" unicode="&#xb0;" horiz-adv-x="410" 
d="M205 734c94 0 168 -72 168 -164s-74 -164 -168 -164c-95 0 -167 72 -167 164s72 164 167 164zM205 482c47 0 85 37 85 88s-38 88 -85 88c-46 0 -85 -37 -85 -88s39 -88 85 -88z" />
    <glyph glyph-name="dieresis" unicode="&#xa8;" horiz-adv-x="433" 
d="M42 644c0 42 28 69 71 69c42 0 71 -27 71 -69c0 -41 -29 -68 -71 -68c-43 0 -71 27 -71 68zM250 644c0 42 27 69 70 69s71 -27 71 -69c0 -41 -28 -68 -71 -68s-70 27 -70 68z" />
    <glyph glyph-name="dieresis.cap" horiz-adv-x="434" 
d="M42 655c0 41 28 68 71 68c42 0 71 -27 71 -68c0 -42 -29 -69 -71 -69c-43 0 -71 27 -71 69zM250 655c0 41 28 68 71 68c42 0 71 -27 71 -68c0 -42 -29 -69 -71 -69c-43 0 -71 27 -71 69z" />
    <glyph glyph-name="divide" unicode="&#xf7;" horiz-adv-x="630" 
d="M244 563c0 42 28 68 70 68c43 0 71 -26 71 -68s-28 -68 -71 -68c-42 0 -70 26 -70 68zM88 312v96h454v-96h-454zM244 157c0 42 28 68 70 68c43 0 71 -26 71 -68s-28 -68 -71 -68c-42 0 -70 26 -70 68z" />
    <glyph glyph-name="dollar" unicode="$" horiz-adv-x="597" 
d="M73 28v123c50 -26 118 -49 186 -53l12 212c-1 0 -2 0 -3 1c-132 47 -202 103 -202 220c0 119 94 194 228 201l7 120h50l-7 -120c62 -4 119 -20 157 -35v-118c-39 21 -102 41 -163 43l-12 -211l10 -3c133 -50 205 -104 205 -219c0 -121 -89 -195 -238 -201l-6 -120h-50
l6 120c-71 4 -136 21 -180 40zM419 184c0 47 -28 76 -99 107l-11 -192c66 7 110 36 110 85zM189 533c0 -40 23 -71 89 -102l10 188c-61 -9 -99 -40 -99 -86z" />
    <glyph glyph-name="dotaccent" unicode="&#x2d9;" horiz-adv-x="226" 
d="M42 644c0 42 28 69 71 69c42 0 71 -27 71 -69c0 -41 -29 -68 -71 -68c-43 0 -71 27 -71 68z" />
    <glyph glyph-name="dotaccent.cap" horiz-adv-x="226" 
d="M42 655c0 41 28 68 71 68c42 0 71 -27 71 -68c0 -42 -29 -69 -71 -69c-43 0 -71 27 -71 69z" />
    <glyph glyph-name="dotlessi" unicode="&#x131;" horiz-adv-x="283" 
d="M80 500h122v-500h-122v500z" />
    <glyph glyph-name="dotlessj" unicode="&#x237;" horiz-adv-x="283" 
d="M202 500v-554c0 -115 -64 -179 -177 -179c-27 0 -52 4 -62 9v106c7 -3 21 -5 36 -5c50 0 81 31 81 89v534h122z" />
    <glyph glyph-name="e" unicode="e" horiz-adv-x="557" 
d="M290 513c150 0 229 -110 229 -234c0 -23 -3 -45 -3 -54h-349c3 -84 63 -134 155 -134c70 0 143 21 177 42v-107c-35 -19 -102 -39 -186 -39c-166 0 -273 109 -273 263c0 151 109 263 250 263zM401 296c1 63 -38 119 -113 119c-72 0 -115 -56 -121 -119h234z" />
    <glyph glyph-name="eacute" unicode="&#xe9;" horiz-adv-x="557" 
d="M290 513c150 0 229 -110 229 -234c0 -23 -3 -45 -3 -54h-349c3 -84 63 -134 155 -134c70 0 143 21 177 42v-107c-35 -19 -102 -39 -186 -39c-166 0 -273 109 -273 263c0 151 109 263 250 263zM401 296c1 63 -38 119 -113 119c-72 0 -115 -56 -121 -119h234zM223 562
l89 171h156l-136 -171h-109z" />
    <glyph glyph-name="ebreve" unicode="&#x115;" horiz-adv-x="557" 
d="M290 513c150 0 229 -110 229 -234c0 -23 -3 -45 -3 -54h-349c3 -84 63 -134 155 -134c70 0 143 21 177 42v-107c-35 -19 -102 -39 -186 -39c-166 0 -273 109 -273 263c0 151 109 263 250 263zM401 296c1 63 -38 119 -113 119c-72 0 -115 -56 -121 -119h234zM346 725h91
c1 -94 -48 -155 -145 -155s-146 61 -145 155h91c0 -44 20 -70 54 -70c35 0 55 26 54 70z" />
    <glyph glyph-name="ecaron" unicode="&#x11b;" horiz-adv-x="557" 
d="M290 513c150 0 229 -110 229 -234c0 -23 -3 -45 -3 -54h-349c3 -84 63 -134 155 -134c70 0 143 21 177 42v-107c-35 -19 -102 -39 -186 -39c-166 0 -273 109 -273 263c0 151 109 263 250 263zM401 296c1 63 -38 119 -113 119c-72 0 -115 -56 -121 -119h234zM450 733
l-102 -171h-117l-104 171h106l56 -99l56 99h105z" />
    <glyph glyph-name="ecircumflex" unicode="&#xea;" horiz-adv-x="557" 
d="M290 513c150 0 229 -110 229 -234c0 -23 -3 -45 -3 -54h-349c3 -84 63 -134 155 -134c70 0 143 21 177 42v-107c-35 -19 -102 -39 -186 -39c-166 0 -273 109 -273 263c0 151 109 263 250 263zM401 296c1 63 -38 119 -113 119c-72 0 -115 -56 -121 -119h234zM129 562
l104 171h117l102 -171h-105l-56 99l-56 -99h-106z" />
    <glyph glyph-name="edieresis" unicode="&#xeb;" horiz-adv-x="557" 
d="M290 513c150 0 229 -110 229 -234c0 -23 -3 -45 -3 -54h-349c3 -84 63 -134 155 -134c70 0 143 21 177 42v-107c-35 -19 -102 -39 -186 -39c-166 0 -273 109 -273 263c0 151 109 263 250 263zM401 296c1 63 -38 119 -113 119c-72 0 -115 -56 -121 -119h234zM115 644
c0 42 28 69 71 69c42 0 71 -27 71 -69c0 -41 -29 -68 -71 -68c-43 0 -71 27 -71 68zM323 644c0 42 27 69 70 69s71 -27 71 -69c0 -41 -28 -68 -71 -68s-70 27 -70 68z" />
    <glyph glyph-name="edotaccent" unicode="&#x117;" horiz-adv-x="557" 
d="M290 513c150 0 229 -110 229 -234c0 -23 -3 -45 -3 -54h-349c3 -84 63 -134 155 -134c70 0 143 21 177 42v-107c-35 -19 -102 -39 -186 -39c-166 0 -273 109 -273 263c0 151 109 263 250 263zM401 296c1 63 -38 119 -113 119c-72 0 -115 -56 -121 -119h234zM220 644
c0 42 28 69 71 69c42 0 71 -27 71 -69c0 -41 -29 -68 -71 -68c-43 0 -71 27 -71 68z" />
    <glyph glyph-name="egrave" unicode="&#xe8;" horiz-adv-x="557" 
d="M290 513c150 0 229 -110 229 -234c0 -23 -3 -45 -3 -54h-349c3 -84 63 -134 155 -134c70 0 143 21 177 42v-107c-35 -19 -102 -39 -186 -39c-166 0 -273 109 -273 263c0 151 109 263 250 263zM401 296c1 63 -38 119 -113 119c-72 0 -115 -56 -121 -119h234zM279 733
l89 -171h-107l-138 171h156z" />
    <glyph glyph-name="eight" unicode="8" horiz-adv-x="553" 
d="M177 366c-47 21 -127 83 -127 181c0 107 96 187 227 187s228 -80 228 -187c0 -98 -81 -160 -128 -181c54 -24 140 -86 140 -189c0 -109 -99 -191 -240 -191c-132 0 -229 74 -238 174c-2 24 1 46 7 68c20 74 89 120 131 138zM156 191c0 -56 53 -98 121 -98s120 42 120 98
c0 61 -60 109 -120 131c-60 -22 -121 -70 -121 -131zM170 535c0 -61 53 -100 107 -122c53 22 107 61 107 122c0 53 -46 94 -107 94s-107 -41 -107 -94z" />
    <glyph glyph-name="ellipsis" unicode="&#x2026;" horiz-adv-x="689" 
d="M42 55c0 42 28 69 71 69c42 0 71 -27 71 -69c0 -41 -29 -68 -71 -68c-43 0 -71 27 -71 68zM273 55c0 42 28 69 71 69s71 -27 71 -69c0 -41 -28 -68 -71 -68s-71 27 -71 68zM506 55c0 42 27 69 70 69s71 -27 71 -69c0 -41 -28 -68 -71 -68s-70 27 -70 68z" />
    <glyph glyph-name="emacron" unicode="&#x113;" horiz-adv-x="557" 
d="M290 513c150 0 229 -110 229 -234c0 -23 -3 -45 -3 -54h-349c3 -84 63 -134 155 -134c70 0 143 21 177 42v-107c-35 -19 -102 -39 -186 -39c-166 0 -273 109 -273 263c0 151 109 263 250 263zM401 296c1 63 -38 119 -113 119c-72 0 -115 -56 -121 -119h234zM133 599v91
h315v-91h-315z" />
    <glyph glyph-name="emdash" unicode="&#x2014;" horiz-adv-x="810" 
d="M42 234v97h726v-97h-726z" />
    <glyph glyph-name="endash" unicode="&#x2013;" horiz-adv-x="586" 
d="M42 234v97h501v-97h-501z" />
    <glyph glyph-name="eogonek" unicode="&#x119;" horiz-adv-x="557" 
d="M290 513c150 0 229 -110 229 -234c0 -23 -3 -45 -3 -54h-349c3 -84 63 -134 155 -134c70 0 143 21 177 42v-107c-17 -9 -42 -19 -72 -26c-55 -35 -86 -74 -86 -112c0 -31 21 -44 48 -44c19 0 36 5 49 10v-76c-15 -5 -41 -11 -66 -11c-68 0 -125 31 -125 99
c0 49 39 91 88 122c-7 -1 -15 -1 -22 -1c-166 0 -273 109 -273 263c0 151 109 263 250 263zM401 296c1 63 -38 119 -113 119c-72 0 -115 -56 -121 -119h234z" />
    <glyph glyph-name="equal" unicode="=" horiz-adv-x="620" 
d="M88 411v98h445v-98h-445zM88 211v98h445v-98h-445z" />
    <glyph glyph-name="estimated" unicode="&#x212e;" horiz-adv-x="1026" 
d="M926 342h-669c-5 0 -6 -2 -6 -5v-191c0 -9 3 -17 9 -25c65 -63 155 -94 254 -94c106 0 202 37 266 106h60c-72 -86 -189 -145 -327 -145c-234 0 -413 165 -413 371c0 207 185 373 413 373s413 -172 413 -378v-12zM774 385v190c0 11 -3 17 -9 25c-63 61 -155 93 -251 93
c-100 0 -188 -31 -253 -93c-7 -9 -10 -16 -10 -28v-187c0 -5 1 -7 6 -7h514c2 0 3 2 3 7z" />
    <glyph glyph-name="eth" unicode="&#xf0;" horiz-adv-x="587" 
d="M402 755l35 -53l-90 -53c102 -101 199 -240 199 -389c0 -151 -100 -273 -253 -273c-152 0 -253 118 -253 263c0 130 89 251 224 259c28 2 53 -4 70 -14c-20 29 -50 65 -84 96l-95 -56l-35 54l84 50c-30 31 -56 54 -86 81h153c10 -8 20 -16 28 -24zM156 250
c0 -90 53 -159 137 -159s137 72 137 169c1 79 -55 150 -137 150c-84 0 -137 -70 -137 -160z" />
    <glyph glyph-name="exclam" unicode="!" horiz-adv-x="320" 
d="M109 203l-10 517h122l-9 -517h-103zM89 55c0 42 28 69 71 69c42 0 71 -27 71 -69c0 -41 -29 -68 -71 -68c-43 0 -71 27 -71 68z" />
    <glyph glyph-name="exclamdown" unicode="&#xa1;" horiz-adv-x="320" 
d="M212 297l9 -517h-122l10 517h103zM89 444c0 42 28 69 71 69c42 0 71 -27 71 -69c0 -41 -29 -68 -71 -68c-43 0 -71 27 -71 68z" />
    <glyph glyph-name="f" unicode="f" horiz-adv-x="350" 
d="M26 500h73v50c0 111 71 183 194 183c31 0 56 -4 64 -6v-104c-8 2 -27 6 -51 6c-57 0 -94 -32 -94 -91v-38h125v-97h-120v-403h-122v403h-69v97z" />
    <glyph glyph-name="f.alt" horiz-adv-x="350" 
d="M26 500h73v50c0 111 70 183 194 183c31 0 56 -4 64 -6v-104c-8 2 -27 6 -51 6c-58 0 -94 -32 -94 -91v-38h125v-97h-120v-623h-122v623h-69v97z" />
    <glyph glyph-name="five" unicode="5" horiz-adv-x="505" 
d="M41 32v111c35 -25 93 -45 159 -45c85 0 149 49 149 132c0 81 -67 130 -156 130c-72 0 -120 -19 -138 -27l16 387h366v-107h-257l-6 -167c12 4 33 10 69 10c133 0 235 -94 235 -238s-109 -231 -263 -231c-78 0 -137 21 -174 45z" />
    <glyph glyph-name="florin" unicode="&#x192;" horiz-adv-x="514" 
d="M72 414h107c6 48 14 98 23 145c21 101 92 174 217 174c29 0 53 -5 63 -7v-103c-8 3 -31 6 -56 6c-58 0 -97 -35 -107 -96l-18 -119h121v-95h-135l-45 -293c-5 -34 -11 -65 -18 -96c-24 -104 -103 -163 -203 -163c-29 0 -53 4 -63 7v102c8 -2 30 -5 57 -5
c51 0 87 35 96 96l53 352h-92v95z" />
    <glyph glyph-name="foundryicon" horiz-adv-x="1128" 
d="M292 267v170h32l4 -11l4 3c3 4 14 11 28 11c33 0 51 -25 51 -63c0 -39 -23 -65 -59 -65c-8 0 -15 2 -20 5v-50h-40zM780 267v170h32l4 -11l3 3c4 4 16 11 30 11c31 0 50 -25 50 -63c0 -39 -23 -65 -59 -65c-8 0 -15 2 -21 5v-50h-39zM491 440c40 0 63 -25 63 -63
c0 -39 -24 -65 -64 -65c-39 0 -61 25 -61 63c0 39 23 65 62 65zM679 322l-44 115h44l25 -84h1l20 84h43l-39 -125c-13 -36 -30 -50 -61 -50c-13 0 -24 4 -30 7l5 28c2 0 11 -3 22 -3c10 0 16 4 18 15zM100 461v35h144v-35h-55v-147h-39v147h-50zM528 461v35h139v-35h-50
v-147h-39v147h-50zM1024 368h-68c2 -17 11 -24 27 -24s26 4 34 7l8 -29c-7 -4 -23 -10 -46 -10c-40 0 -63 25 -63 63c0 39 23 65 63 65c31 0 49 -20 49 -46c0 -12 -2 -20 -4 -26zM221 314v123h40v-123h-40zM881 181c0 18 11 30 29 30c16 0 29 -12 29 -30
c0 -17 -12 -31 -30 -31c-17 0 -28 14 -28 31zM535 181c0 18 11 30 29 30c17 0 28 -12 28 -30c0 -17 -10 -31 -29 -31c-16 0 -28 14 -28 31zM491 412c-17 0 -22 -16 -22 -35c0 -22 6 -37 22 -37s22 15 22 35c0 21 -6 37 -22 37zM819 403v-57c4 -2 9 -4 16 -4
c15 0 23 14 23 33c0 21 -7 34 -23 34c-5 0 -12 -3 -16 -6zM332 403v-57c2 -2 7 -4 15 -4c16 0 23 14 23 33c0 21 -7 34 -22 34c-6 0 -13 -3 -16 -6zM933 180c0 17 -10 27 -24 27c-13 0 -23 -9 -23 -26c0 -15 9 -26 24 -26c12 0 23 9 23 25zM587 180c0 17 -9 27 -24 27
c-13 0 -22 -9 -22 -26c0 -15 8 -26 23 -26c13 0 23 9 23 25zM710 152h-5v58h18c12 0 21 -6 21 -17s-9 -18 -21 -18h-13v-23zM493 152h-5v58h18c13 0 21 -6 21 -17s-10 -18 -22 -18h-12v-23zM159 208h4l19 -50l18 52h6l-21 -58h-6l-18 49l-19 -49h-5l-21 58h6l18 -52z
M342 208h5l18 -50l19 52h5l-21 -58h-6l-18 49l-18 -49h-5l-21 58h6l18 -52zM953 152v58h7l25 -44l23 44h8v-58h-5v53l-24 -45h-4l-24 45v-53h-6zM250 208h5l19 -50l17 52h6l-21 -58h-5l-19 49l-17 -49h-5l-21 58h4l19 -52zM505 207h-12v-28h13c10 0 16 5 16 13
c0 9 -6 15 -17 15zM723 207h-13v-28h13c10 0 15 5 15 13c0 9 -5 15 -15 15zM956 389h34c3 13 -3 23 -14 23c-13 0 -18 -8 -20 -23zM791 210v-3h-30v-24h29v-4h-29v-23h31v-4h-36v58h35zM857 211c5 0 10 -1 13 -3c0 -1 -1 -2 -1 -3c-3 1 -8 2 -13 2c-14 0 -23 -9 -23 -26
c0 -15 8 -26 26 -26c5 0 10 1 12 2l2 -4c-4 -1 -10 -3 -15 -3c-19 0 -31 14 -31 31c0 18 11 30 30 30zM666 152v22l-22 36h5l20 -32l20 32h5l-23 -36v-22h-5zM408 207v3h44v-3h-19v-55h-5v55h-20zM597 207v3h44v-3h-19v-55h-5v55h-20zM463 152v58h6v-58h-6zM810 159
c2 0 4 -2 4 -4c0 -3 -2 -5 -4 -5s-4 2 -4 5c0 2 2 4 4 4zM396 159c2 0 2 -2 2 -4c0 -3 -1 -5 -3 -5s-4 2 -4 5c0 2 2 4 5 4z" />
    <glyph glyph-name="four" unicode="4" horiz-adv-x="582" 
d="M468 0h-110v164h-346l245 556h123l-197 -451h177v178h108v-178h95v-105h-95v-164z" />
    <glyph glyph-name="four.001" horiz-adv-x="573" 
d="M460 0h-110v147h-326v99l229 474h130l-232 -468h201v195h108v-195h95v-105h-95v-147z" />
    <glyph glyph-name="foursuperior" unicode="&#x2074;" horiz-adv-x="347" 
d="M282 337h-78v79h-193l142 313h87l-113 -243h82v95h73v-95h53v-72h-53v-77z" />
    <glyph glyph-name="foursuperior.001" horiz-adv-x="345" 
d="M280 337h-78v72h-181v60l129 260h88l-124 -250h93v102h73v-102h52v-72h-52v-70z" />
    <glyph glyph-name="fraction" unicode="&#x2044;" horiz-adv-x="626" 
d="M17 0l513 720h79l-513 -720h-79z" />
    <glyph glyph-name="g" unicode="g" horiz-adv-x="535" 
d="M204 121c0 -22 34 -30 111 -39c131 -15 199 -55 199 -145c0 -101 -102 -160 -251 -160c-137 0 -235 45 -235 133c0 58 58 105 132 120c-44 6 -74 30 -74 66c0 30 26 60 74 75c-71 27 -118 86 -118 162c0 108 93 180 210 180c30 0 58 -4 83 -13h184v-88h-64
c-22 0 -24 3 -28 4c20 -22 33 -50 33 -83c0 -98 -76 -164 -178 -175c-44 -4 -78 -20 -78 -37zM252 237c60 0 99 39 99 93s-39 95 -99 95c-58 0 -98 -41 -98 -95s40 -93 98 -93zM265 -143c77 0 128 28 128 71c0 42 -37 71 -134 71c-67 0 -114 -33 -114 -73
c0 -46 50 -69 120 -69z" />
    <glyph glyph-name="g.alt" horiz-adv-x="636" 
d="M96 -192v112c48 -28 104 -44 174 -44c100 0 167 49 167 138c0 28 0 59 2 60h-1c-28 -46 -90 -87 -168 -87c-128 0 -230 102 -230 263c0 159 102 263 233 263c77 0 145 -45 169 -95h2c1 0 -3 14 -2 35l2 47h112v-443c0 -20 0 -39 -1 -58c-6 -157 -118 -232 -274 -232
c-81 0 -146 18 -185 41zM293 91c67 0 138 51 138 159s-71 159 -138 159c-81 0 -137 -66 -137 -159c0 -94 56 -159 137 -159z" />
    <glyph glyph-name="gbreve" unicode="&#x11f;" horiz-adv-x="535" 
d="M204 121c0 -22 34 -30 111 -39c131 -15 199 -55 199 -145c0 -101 -102 -160 -251 -160c-137 0 -235 45 -235 133c0 58 58 105 132 120c-44 6 -74 30 -74 66c0 30 26 60 74 75c-71 27 -118 86 -118 162c0 108 93 180 210 180c30 0 58 -4 83 -13h184v-88h-64
c-22 0 -24 3 -28 4c20 -22 33 -50 33 -83c0 -98 -76 -164 -178 -175c-44 -4 -78 -20 -78 -37zM252 237c60 0 99 39 99 93s-39 95 -99 95c-58 0 -98 -41 -98 -95s40 -93 98 -93zM265 -143c77 0 128 28 128 71c0 42 -37 71 -134 71c-67 0 -114 -33 -114 -73
c0 -46 50 -69 120 -69zM313 725h91c1 -94 -48 -155 -145 -155s-146 61 -145 155h91c0 -44 20 -70 54 -70c35 0 55 26 54 70z" />
    <glyph glyph-name="gbreve.alt" horiz-adv-x="638" 
d="M97 -192v112c49 -28 105 -44 174 -44c101 0 168 49 168 138c0 30 1 62 2 60h-2c-27 -46 -89 -87 -168 -87c-127 0 -229 102 -229 263c0 159 102 263 232 263c77 0 145 -45 170 -95h2c1 0 -4 14 -3 35l3 47h111v-443c0 -20 0 -39 -1 -58c-5 -157 -117 -232 -274 -232
c-81 0 -146 18 -185 41zM294 91c68 0 139 51 139 159s-71 159 -139 159c-80 0 -136 -66 -136 -159c0 -94 56 -159 136 -159zM339 725h91c1 -94 -48 -155 -145 -155s-146 61 -145 155h91c0 -44 20 -70 54 -70c35 0 55 26 54 70z" />
    <glyph glyph-name="gcircumflex" unicode="&#x11d;" horiz-adv-x="535" 
d="M204 121c0 -22 34 -30 111 -39c131 -15 199 -55 199 -145c0 -101 -102 -160 -251 -160c-137 0 -235 45 -235 133c0 58 58 105 132 120c-44 6 -74 30 -74 66c0 30 26 60 74 75c-71 27 -118 86 -118 162c0 108 93 180 210 180c30 0 58 -4 83 -13h184v-88h-64
c-22 0 -24 3 -28 4c20 -22 33 -50 33 -83c0 -98 -76 -164 -178 -175c-44 -4 -78 -20 -78 -37zM252 237c60 0 99 39 99 93s-39 95 -99 95c-58 0 -98 -41 -98 -95s40 -93 98 -93zM265 -143c77 0 128 28 128 71c0 42 -37 71 -134 71c-67 0 -114 -33 -114 -73
c0 -46 50 -69 120 -69zM99 562l104 171h117l102 -171h-105l-56 99l-56 -99h-106z" />
    <glyph glyph-name="gcircumflex.alt" horiz-adv-x="638" 
d="M97 -192v112c49 -28 105 -44 174 -44c101 0 168 49 168 138c0 30 1 62 2 60h-2c-27 -46 -89 -87 -168 -87c-127 0 -229 102 -229 263c0 159 102 263 232 263c77 0 145 -45 170 -95h2c1 0 -4 14 -3 35l3 47h111v-443c0 -20 0 -39 -1 -58c-5 -157 -117 -232 -274 -232
c-81 0 -146 18 -185 41zM294 91c68 0 139 51 139 159s-71 159 -139 159c-80 0 -136 -66 -136 -159c0 -94 56 -159 136 -159zM126 562l104 171h116l103 -171h-105l-56 99l-56 -99h-106z" />
    <glyph glyph-name="gcommaaccent" unicode="&#x123;" horiz-adv-x="535" 
d="M204 121c0 -22 34 -30 111 -39c131 -15 199 -55 199 -145c0 -101 -102 -160 -251 -160c-137 0 -235 45 -235 133c0 58 58 105 132 120c-44 6 -74 30 -74 66c0 30 26 60 74 75c-71 27 -118 86 -118 162c0 108 93 180 210 180c30 0 58 -4 83 -13h184v-88h-64
c-22 0 -24 3 -28 4c20 -22 33 -50 33 -83c0 -98 -76 -164 -178 -175c-44 -4 -78 -20 -78 -37zM252 237c60 0 99 39 99 93s-39 95 -99 95c-58 0 -98 -41 -98 -95s40 -93 98 -93zM265 -143c77 0 128 28 128 71c0 42 -37 71 -134 71c-67 0 -114 -33 -114 -73
c0 -46 50 -69 120 -69zM183 557l71 177h96l-41 -177h-126z" />
    <glyph glyph-name="gcommaaccent.alt" horiz-adv-x="638" 
d="M97 -192v112c49 -28 105 -44 174 -44c101 0 168 49 168 138c0 30 1 62 2 60h-2c-27 -46 -89 -87 -168 -87c-127 0 -229 102 -229 263c0 159 102 263 232 263c77 0 145 -45 170 -95h2c1 0 -4 14 -3 35l3 47h111v-443c0 -20 0 -39 -1 -58c-5 -157 -117 -232 -274 -232
c-81 0 -146 18 -185 41zM294 91c68 0 139 51 139 159s-71 159 -139 159c-80 0 -136 -66 -136 -159c0 -94 56 -159 136 -159zM217 559l71 177h96l-40 -177h-127z" />
    <glyph glyph-name="gdotaccent" unicode="&#x121;" horiz-adv-x="535" 
d="M204 121c0 -22 34 -30 111 -39c131 -15 199 -55 199 -145c0 -101 -102 -160 -251 -160c-137 0 -235 45 -235 133c0 58 58 105 132 120c-44 6 -74 30 -74 66c0 30 26 60 74 75c-71 27 -118 86 -118 162c0 108 93 180 210 180c30 0 58 -4 83 -13h184v-88h-64
c-22 0 -24 3 -28 4c20 -22 33 -50 33 -83c0 -98 -76 -164 -178 -175c-44 -4 -78 -20 -78 -37zM252 237c60 0 99 39 99 93s-39 95 -99 95c-58 0 -98 -41 -98 -95s40 -93 98 -93zM265 -143c77 0 128 28 128 71c0 42 -37 71 -134 71c-67 0 -114 -33 -114 -73
c0 -46 50 -69 120 -69zM189 644c0 42 28 69 71 69c42 0 71 -27 71 -69c0 -41 -29 -68 -71 -68c-43 0 -71 27 -71 68z" />
    <glyph glyph-name="gdotaccent.alt" horiz-adv-x="638" 
d="M97 -192v112c49 -28 105 -44 174 -44c101 0 168 49 168 138c0 30 1 62 2 60h-2c-27 -46 -89 -87 -168 -87c-127 0 -229 102 -229 263c0 159 102 263 232 263c77 0 145 -45 170 -95h2c1 0 -4 14 -3 35l3 47h111v-443c0 -20 0 -39 -1 -58c-5 -157 -117 -232 -274 -232
c-81 0 -146 18 -185 41zM294 91c68 0 139 51 139 159s-71 159 -139 159c-80 0 -136 -66 -136 -159c0 -94 56 -159 136 -159zM221 644c0 42 28 69 71 69c42 0 71 -27 71 -69c0 -41 -29 -68 -71 -68c-43 0 -71 27 -71 68z" />
    <glyph glyph-name="germandbls" unicode="&#xdf;" horiz-adv-x="640" 
d="M200 0h-120v499c0 104 70 234 257 234c120 0 207 -70 207 -168c0 -126 -161 -167 -161 -217c0 -31 25 -38 83 -62c99 -40 156 -67 156 -156c0 -93 -77 -143 -192 -143c-66 0 -123 16 -158 33v109c46 -25 110 -44 156 -44c40 0 80 15 80 50c0 34 -32 46 -94 70
c-85 32 -141 58 -141 138c0 99 154 132 154 212c0 46 -36 74 -92 74c-82 0 -135 -55 -135 -139v-490z" />
    <glyph glyph-name="germandbls.alt" horiz-adv-x="640" 
d="M200 -220h-120v719c0 104 70 234 257 234c120 0 207 -70 207 -168c0 -126 -161 -167 -161 -217c0 -31 25 -38 83 -62c99 -40 156 -67 156 -156c0 -93 -77 -143 -192 -143c-66 0 -123 16 -158 33v109c46 -25 110 -44 156 -44c40 0 80 15 80 50c0 34 -32 46 -94 70
c-85 32 -141 58 -141 138c0 99 154 132 154 212c0 46 -36 74 -92 74c-82 0 -135 -55 -135 -139v-710z" />
    <glyph glyph-name="grave" unicode="`" horiz-adv-x="330" 
d="M198 733l89 -171h-107l-138 171h156z" />
    <glyph glyph-name="grave.cap" horiz-adv-x="336" 
d="M195 763l99 -201h-101l-151 201h153z" />
    <glyph glyph-name="greater" unicode="&#x3e;" horiz-adv-x="595" 
d="M540 360l-450 -276v127l252 149l-252 148v128z" />
    <glyph glyph-name="greaterequal" unicode="&#x2265;" horiz-adv-x="595" 
d="M90 706l450 -276l-450 -275v127l252 148l-252 150v126zM514 102v-65h-424v65h424z" />
    <glyph glyph-name="guillemotleft" unicode="&#xab;" horiz-adv-x="610" 
d="M343 500l-164 -250l164 -250h-133l-158 250l158 250h133zM568 500l-163 -250l163 -250h-132l-158 250l158 250h132z" />
    <glyph glyph-name="guillemotright" unicode="&#xbb;" horiz-adv-x="610" 
d="M42 0l164 250l-164 250h133l158 -250l-158 -250h-133zM268 0l163 250l-163 250h132l158 -250l-158 -250h-132z" />
    <glyph glyph-name="guilsinglleft" unicode="&#x2039;" horiz-adv-x="385" 
d="M343 500l-164 -250l164 -250h-133l-158 250l158 250h133z" />
    <glyph glyph-name="guilsinglright" unicode="&#x203a;" horiz-adv-x="385" 
d="M50 0l164 250l-164 250h133l158 -250l-158 -250h-133z" />
    <glyph glyph-name="h" unicode="h" 
d="M80 720h120v-263c0 -23 -2 -43 -2 -52c24 42 83 108 177 108c118 0 173 -71 173 -200v-313h-122v292c0 58 -14 110 -82 110c-83 0 -142 -66 -142 -154v-248h-122v720z" />
    <glyph glyph-name="hbar" unicode="&#x127;" 
d="M80 720h120v-69h145v-81h-145v-113c0 -23 -2 -43 -2 -52c24 42 83 108 177 108c118 0 173 -71 173 -200v-313h-122v292c0 58 -14 110 -82 110c-83 0 -142 -66 -142 -154v-248h-122v570h-76v81h76v69z" />
    <glyph glyph-name="hcircumflex" unicode="&#x125;" 
d="M80 720h120v-263c0 -23 -2 -43 -2 -52c24 42 83 108 177 108c118 0 173 -71 173 -200v-313h-122v292c0 58 -14 110 -82 110c-83 0 -142 -66 -142 -154v-248h-122v720zM-21 767l104 171h117l102 -171h-105l-56 99l-56 -99h-106z" />
    <glyph glyph-name="hungarumlaut" unicode="&#x2dd;" horiz-adv-x="509" 
d="M42 562l75 171h136l-108 -171h-103zM221 562l103 171h143l-142 -171h-104z" />
    <glyph glyph-name="hungarumlaut.cap" horiz-adv-x="509" 
d="M42 562l75 185h136l-108 -185h-103zM221 562l103 185h143l-142 -185h-104z" />
    <glyph glyph-name="hyphen" unicode="-" horiz-adv-x="395" 
d="M42 234v97h311v-97h-311z" />
    <glyph glyph-name="i" unicode="i" horiz-adv-x="283" 
d="M80 500h122v-500h-122v500zM70 644c0 42 28 69 71 69c42 0 71 -27 71 -69c0 -41 -29 -68 -71 -68c-43 0 -71 27 -71 68z" />
    <glyph glyph-name="i.TRK" horiz-adv-x="283" 
d="M80 500h122v-500h-122v500zM70 644c0 42 28 69 71 69c42 0 71 -27 71 -69c0 -41 -29 -68 -71 -68c-43 0 -71 27 -71 68z" />
    <glyph glyph-name="iacute" unicode="&#xed;" horiz-adv-x="283" 
d="M83 562l89 171h156l-137 -171h-108zM80 500h122v-500h-122v500z" />
    <glyph glyph-name="ibreve" unicode="&#x12d;" horiz-adv-x="283" 
d="M195 725h91c1 -94 -48 -155 -145 -155s-146 61 -145 155h91c-1 -44 19 -70 54 -70c34 0 55 26 54 70zM80 500h122v-500h-122v500z" />
    <glyph glyph-name="icircumflex" unicode="&#xee;" horiz-adv-x="283" 
d="M80 500h122v-500h-122v500zM-20 562l103 171h117l103 -171h-106l-55 99l-57 -99h-105z" />
    <glyph glyph-name="idieresis" unicode="&#xef;" horiz-adv-x="283" 
d="M-33 644c0 42 28 69 71 69c42 0 70 -27 70 -69c0 -41 -28 -68 -70 -68c-43 0 -71 27 -71 68zM174 644c0 42 28 69 70 69c43 0 71 -27 71 -69c0 -41 -28 -68 -71 -68c-42 0 -70 27 -70 68zM80 500h122v-500h-122v500z" />
    <glyph glyph-name="igrave" unicode="&#xec;" horiz-adv-x="283" 
d="M111 733l89 -171h-108l-137 171h156zM80 500h122v-500h-122v500z" />
    <glyph glyph-name="ij" unicode="&#x133;" horiz-adv-x="565" 
d="M80 500h122v-500h-122v500zM485 500v-554c0 -115 -64 -179 -177 -179c-28 0 -52 4 -63 9v106c7 -3 22 -5 36 -5c51 0 82 31 82 89v534h122zM70 644c0 42 28 69 71 69c42 0 71 -27 71 -69c0 -41 -29 -68 -71 -68c-43 0 -71 27 -71 68zM353 644c0 42 27 69 70 69
s71 -27 71 -69c0 -41 -28 -68 -71 -68s-70 27 -70 68z" />
    <glyph glyph-name="imacron" unicode="&#x12b;" horiz-adv-x="283" 
d="M-16 599v91h315v-91h-315zM80 500h122v-500h-122v500z" />
    <glyph glyph-name="iogonek" unicode="&#x12f;" horiz-adv-x="283" 
d="M80 500h122v-500c-55 -35 -86 -74 -86 -112c0 -31 21 -44 48 -44c19 0 36 5 49 10v-76c-15 -5 -41 -11 -66 -11c-68 0 -124 31 -124 99c0 56 51 102 109 134h-52v500zM70 644c0 42 28 69 71 69c42 0 71 -27 71 -69c0 -41 -29 -68 -71 -68c-43 0 -71 27 -71 68z" />
    <glyph glyph-name="itilde" unicode="&#x129;" horiz-adv-x="283" 
d="M67 711c55 0 102 -35 151 -35c36 0 68 17 89 40v-94c-14 -19 -50 -39 -92 -39c-55 0 -101 36 -150 36c-38 0 -68 -18 -89 -41v95c14 19 49 38 91 38zM80 500h122v-500h-122v500z" />
    <glyph glyph-name="j" unicode="j" horiz-adv-x="283" 
d="M202 500v-554c0 -115 -64 -179 -177 -179c-27 0 -52 4 -62 9v106c7 -3 21 -5 36 -5c50 0 81 31 81 89v534h122zM70 644c0 42 28 69 71 69c42 0 71 -27 71 -69c0 -41 -29 -68 -71 -68c-43 0 -71 27 -71 68z" />
    <glyph glyph-name="j.alt" horiz-adv-x="283" 
d="M80 500h122v-720h-122v720zM70 644c0 42 28 69 71 69c42 0 71 -27 71 -69c0 -41 -29 -68 -71 -68c-43 0 -71 27 -71 68z" />
    <glyph glyph-name="jcircumflex" unicode="&#x135;" horiz-adv-x="283" 
d="M202 500v-554c0 -115 -64 -179 -177 -179c-27 0 -52 4 -62 9v106c7 -3 21 -5 36 -5c50 0 81 31 81 89v534h122zM-20 562l104 171h117l102 -171h-105l-56 99l-56 -99h-106z" />
    <glyph glyph-name="jcircumflex.alt" horiz-adv-x="283" 
d="M80 500h122v-720h-122v720zM-20 562l103 171h117l103 -171h-106l-55 99l-57 -99h-105z" />
    <glyph glyph-name="k" unicode="k" horiz-adv-x="573" 
d="M540 500l-174 -210l187 -290h-139l-141 226l-73 -81v-145h-120v720h122v-448l196 228h142z" />
    <glyph glyph-name="k.alt" horiz-adv-x="566" 
d="M546 500l-195 -245l195 -255h-142l-185 255l185 245h142zM80 720h122v-720h-122v720z" />
    <glyph glyph-name="k.alt.swsh_minus.001" horiz-adv-x="540" 
d="M546 500l-144 -186l-53 -62c103 -217 261 -398 499 -398c52 0 105 9 152 22v-107c-31 -13 -79 -28 -162 -28c-275 0 -464 186 -619 514l185 245h142zM80 720h122v-720h-122v720z" />
    <glyph glyph-name="k.swsh" horiz-adv-x="571" 
d="M540 500l-187 -220l87 -138c24 -38 40 -49 71 -49c19 0 38 4 47 8v-100c-12 -6 -39 -14 -76 -14c-74 0 -104 32 -153 113l-66 112l-63 -75v-137h-120v720h122v-442l192 222h146z" />
    <glyph glyph-name="k.swsh_minus" horiz-adv-x="569" 
d="M543 500l-175 -206c118 -250 254 -440 508 -440c50 0 101 9 146 22v-107c-31 -13 -78 -28 -162 -28c-271 0 -455 199 -582 488l-78 -92v-137h-120v720h121v-447l197 227h145z" />
    <glyph glyph-name="kcommaaccent" unicode="&#x137;" horiz-adv-x="573" 
d="M540 500l-174 -210l187 -290h-139l-141 226l-73 -81v-145h-120v720h122v-448l196 228h142zM365 -56l-71 -177h-96l41 177h126z" />
    <glyph glyph-name="kcommaaccent.alt" horiz-adv-x="565" 
d="M546 500l-195 -245l195 -255h-142l-185 255l185 245h142zM80 720h122v-720h-122v720zM362 -56l-72 -177h-95l40 177h127z" />
    <glyph glyph-name="kcommaaccent.swsh" horiz-adv-x="571" 
d="M540 500l-187 -220l87 -138c24 -38 40 -49 71 -49c19 0 38 4 47 8v-100c-12 -6 -39 -14 -76 -14c-74 0 -104 32 -153 113l-66 112l-63 -75v-137h-120v720h122v-442l192 222h146zM366 -56l-71 -177h-96l41 177h126z" />
    <glyph glyph-name="kcommaaccent.swsh_minus" horiz-adv-x="556" 
d="M543 500l-175 -206c118 -250 254 -440 508 -440c50 0 101 9 146 22v-107c-31 -13 -78 -28 -162 -28c-271 0 -455 199 -582 488l-78 -92v-137h-120v720h121v-447l197 227h145zM333 -56l-71 -177h-96l41 177h126z" />
    <glyph glyph-name="kgreenlandic" unicode="&#x138;" horiz-adv-x="573" 
d="M540 500l-174 -210l187 -290h-139l-141 226l-73 -81v-145h-120v500h122v-228l196 228h142z" />
    <glyph glyph-name="l" unicode="l" horiz-adv-x="322" 
d="M79 136v584h122v-558c0 -50 18 -69 54 -69c20 0 39 5 47 8v-102c-10 -4 -40 -12 -81 -12c-80 0 -142 41 -142 149z" />
    <glyph glyph-name="l.alt" horiz-adv-x="280" 
d="M79 720h122v-720h-122v720z" />
    <glyph glyph-name="lacute" unicode="&#x13a;" horiz-adv-x="322" 
d="M79 136v584h122v-558c0 -50 18 -69 54 -69c20 0 39 5 47 8v-102c-10 -4 -40 -12 -81 -12c-80 0 -142 41 -142 149zM81 767l89 171h156l-136 -171h-109z" />
    <glyph glyph-name="lacute.alt" horiz-adv-x="280" 
d="M79 720h122v-720h-122v720zM85 766l89 171h155l-136 -171h-108z" />
    <glyph glyph-name="lcaron" unicode="&#x13e;" horiz-adv-x="411" 
d="M79 136v584h122v-558c0 -50 18 -69 54 -69c20 0 39 5 47 8v-102c-10 -4 -40 -12 -81 -12c-80 0 -142 41 -142 149zM289 421v293h113v-293h-113z" />
    <glyph glyph-name="lcaron.alt" horiz-adv-x="410" 
d="M79 720h122v-720h-122v720zM288 420v294h113v-294h-113z" />
    <glyph glyph-name="lcommaaccent" unicode="&#x13c;" horiz-adv-x="322" 
d="M79 136v584h122v-558c0 -50 18 -69 54 -69c20 0 39 5 47 8v-102c-10 -4 -40 -12 -81 -12c-80 0 -142 41 -142 149zM257 -56l-71 -177h-96l41 177h126z" />
    <glyph glyph-name="lcommaaccent.alt" horiz-adv-x="280" 
d="M79 720h122v-720h-122v720zM204 -56l-71 -177h-96l40 177h127z" />
    <glyph glyph-name="ldot" unicode="&#x140;" horiz-adv-x="404" 
d="M79 136v584h122v-558c0 -50 18 -69 54 -69c20 0 39 5 47 8v-102c-10 -4 -40 -12 -81 -12c-80 0 -142 41 -142 149zM270 353c0 42 28 69 71 69c42 0 71 -27 71 -69c0 -41 -29 -68 -71 -68c-43 0 -71 27 -71 68z" />
    <glyph glyph-name="ldot.alt" horiz-adv-x="403" 
d="M79 720h122v-720h-122v720zM270 353c0 42 28 69 71 69c42 0 71 -27 71 -69c0 -41 -29 -68 -71 -68c-43 0 -71 27 -71 68z" />
    <glyph glyph-name="less" unicode="&#x3c;" horiz-adv-x="595" 
d="M55 360l450 276v-127l-251 -149l251 -149v-127z" />
    <glyph glyph-name="lessequal" unicode="&#x2264;" horiz-adv-x="595" 
d="M81 37v65h424v-65h-424zM55 430l450 276v-126l-251 -150l251 -148v-127z" />
    <glyph glyph-name="lira" unicode="&#x20a4;" horiz-adv-x="629" 
d="M482 249h-211v-31c0 -53 -15 -91 -32 -114h313v-104h-483c37 46 79 114 81 206c1 15 1 28 1 43h-91v73h91v76h-86v74h86v37c0 146 93 224 242 224c57 0 117 -13 145 -26v-110c-32 16 -83 29 -131 29c-86 0 -136 -46 -136 -128v-26h216v-74h-216v-76h211v-73z" />
    <glyph glyph-name="logicalnot" unicode="&#xac;" horiz-adv-x="652" 
d="M88 312v96h476v-250h-99v154h-377z" />
    <glyph glyph-name="lslash" unicode="&#x142;" horiz-adv-x="334" 
d="M8 239v85l80 52v344h122v-264l81 53v-85l-81 -53v-209c0 -50 18 -69 54 -69c20 0 39 5 47 8v-102c-10 -4 -40 -12 -81 -12c-80 0 -142 41 -142 149v155z" />
    <glyph glyph-name="lslash.alt" horiz-adv-x="299" 
d="M89 720h122v-264l80 53v-85l-80 -53v-371h-122v292l-81 -53v85l81 53v343z" />
    <glyph glyph-name="m" unicode="m" horiz-adv-x="929" 
d="M80 500h113l3 -64c0 -19 -4 -32 -4 -36h2c24 60 88 107 162 111c17 1 34 0 50 -4c53 -11 95 -45 111 -101c35 59 98 107 171 107c117 0 174 -70 174 -200v-313h-122v294c0 59 -17 108 -79 108c-96 0 -129 -89 -129 -177v-225h-122v294c0 57 -12 108 -77 108
c-94 0 -131 -88 -131 -177v-225h-122v500z" />
    <glyph glyph-name="macron" unicode="&#xaf;" horiz-adv-x="400" 
d="M42 599v91h315v-91h-315z" />
    <glyph glyph-name="macron.cap" horiz-adv-x="412" 
d="M42 608v93h328v-93h-328z" />
    <glyph glyph-name="minus" unicode="&#x2212;" horiz-adv-x="620" 
d="M88 312v96h445v-96h-445z" />
    <glyph glyph-name="mu" unicode="&#xb5;" 
d="M244 -13c-27 0 -49 5 -66 13c2 -16 5 -60 5 -80v-120h-113v700h122v-292c0 -45 9 -86 44 -101c13 -6 29 -8 47 -6c75 3 129 68 129 151v248h122v-500h-113l-3 63c-1 20 4 33 4 37h-2c-20 -46 -84 -112 -176 -113z" />
    <glyph glyph-name="multiply" unicode="&#xd7;" horiz-adv-x="610" 
d="M453 578l69 -69l-148 -148l148 -148l-69 -69l-148 148l-148 -148l-69 69l148 148l-148 148l69 69l148 -148z" />
    <glyph glyph-name="n" unicode="n" 
d="M80 500h113l3 -64c0 -19 -4 -32 -4 -36h2c20 46 86 113 181 113c118 0 173 -71 173 -200v-313h-122v292c0 58 -14 110 -82 110c-83 0 -142 -66 -142 -154v-248h-122v500z" />
    <glyph glyph-name="nacute" unicode="&#x144;" 
d="M80 500h113l3 -64c0 -19 -4 -32 -4 -36h2c20 46 86 113 181 113c118 0 173 -71 173 -200v-313h-122v292c0 58 -14 110 -82 110c-83 0 -142 -66 -142 -154v-248h-122v500zM266 562l89 171h156l-136 -171h-109z" />
    <glyph glyph-name="ncaron" unicode="&#x148;" 
d="M80 500h113l3 -64c0 -19 -4 -32 -4 -36h2c20 46 86 113 181 113c118 0 173 -71 173 -200v-313h-122v292c0 58 -14 110 -82 110c-83 0 -142 -66 -142 -154v-248h-122v500zM494 733l-102 -171h-117l-104 171h106l56 -99l56 99h105z" />
    <glyph glyph-name="ncommaaccent" unicode="&#x146;" 
d="M80 500h113l3 -64c0 -19 -4 -32 -4 -36h2c20 46 86 113 181 113c118 0 173 -71 173 -200v-313h-122v292c0 58 -14 110 -82 110c-83 0 -142 -66 -142 -154v-248h-122v500zM378 -56l-71 -177h-96l41 177h126z" />
    <glyph glyph-name="nine" unicode="9" horiz-adv-x="564" 
d="M266 249c-141 0 -239 111 -239 239c0 141 110 246 257 246c144 0 252 -106 252 -252c0 -182 -166 -392 -287 -482h-160c120 88 212 196 264 278c-14 -12 -45 -29 -87 -29zM284 630c-83 0 -141 -60 -141 -142c0 -81 58 -142 141 -142c82 0 141 61 141 140
c0 84 -59 144 -141 144z" />
    <glyph glyph-name="notequal" unicode="&#x2260;" horiz-adv-x="620" 
d="M88 411v98h263l83 172h48l-82 -172h133v-98h-175l-49 -102h224v-98h-265l-82 -172h-48l82 172h-132v98h173l49 102h-222z" />
    <glyph glyph-name="ntilde" unicode="&#xf1;" 
d="M80 500h113l3 -64c0 -19 -4 -32 -4 -36h2c20 46 86 113 181 113c118 0 173 -71 173 -200v-313h-122v292c0 58 -14 110 -82 110c-83 0 -142 -66 -142 -154v-248h-122v500zM253 711c55 0 101 -35 150 -35c37 0 68 17 89 40v-94c-13 -19 -49 -39 -91 -39
c-55 0 -102 36 -151 36c-38 0 -68 -18 -89 -41v95c14 19 50 38 92 38z" />
    <glyph glyph-name="numbersign" unicode="#" horiz-adv-x="753" 
d="M75 440l12 92h139l26 188h99l-26 -188h151l26 188h98l-25 -188h138l-13 -92h-138l-22 -161h138l-13 -92h-138l-25 -187h-99l25 187h-150l-25 -187h-99l26 187h-140l12 92h140l22 161h-139zM313 440l-22 -161h150l22 161h-150z" />
    <glyph glyph-name="o" unicode="o" horiz-adv-x="604" 
d="M302 513c152 0 262 -112 262 -263s-110 -263 -262 -263c-151 0 -262 112 -262 263s111 263 262 263zM302 91c84 0 146 65 146 159s-62 159 -146 159c-83 0 -146 -65 -146 -159s63 -159 146 -159z" />
    <glyph glyph-name="oacute" unicode="&#xf3;" horiz-adv-x="604" 
d="M302 513c152 0 262 -112 262 -263s-110 -263 -262 -263c-151 0 -262 112 -262 263s111 263 262 263zM302 91c84 0 146 65 146 159s-62 159 -146 159c-83 0 -146 -65 -146 -159s63 -159 146 -159zM240 562l89 171h156l-136 -171h-109z" />
    <glyph glyph-name="obreve" unicode="&#x14f;" horiz-adv-x="604" 
d="M302 513c152 0 262 -112 262 -263s-110 -263 -262 -263c-151 0 -262 112 -262 263s111 263 262 263zM302 91c84 0 146 65 146 159s-62 159 -146 159c-83 0 -146 -65 -146 -159s63 -159 146 -159zM356 725h91c1 -94 -48 -155 -145 -155s-146 61 -145 155h91
c0 -44 20 -70 54 -70c35 0 55 26 54 70z" />
    <glyph glyph-name="ocircumflex" unicode="&#xf4;" horiz-adv-x="604" 
d="M302 513c152 0 262 -112 262 -263s-110 -263 -262 -263c-151 0 -262 112 -262 263s111 263 262 263zM302 91c84 0 146 65 146 159s-62 159 -146 159c-83 0 -146 -65 -146 -159s63 -159 146 -159zM140 562l104 171h117l102 -171h-105l-56 99l-56 -99h-106z" />
    <glyph glyph-name="odieresis" unicode="&#xf6;" horiz-adv-x="604" 
d="M302 513c152 0 262 -112 262 -263s-110 -263 -262 -263c-151 0 -262 112 -262 263s111 263 262 263zM302 91c84 0 146 65 146 159s-62 159 -146 159c-83 0 -146 -65 -146 -159s63 -159 146 -159zM127 644c0 42 28 69 71 69c42 0 71 -27 71 -69c0 -41 -29 -68 -71 -68
c-43 0 -71 27 -71 68zM335 644c0 42 27 69 70 69s71 -27 71 -69c0 -41 -28 -68 -71 -68s-70 27 -70 68z" />
    <glyph glyph-name="oe" unicode="&#x153;" horiz-adv-x="850" 
d="M591 513c145 0 221 -110 221 -234c0 -23 -3 -45 -3 -54h-335c4 -84 61 -134 150 -134c66 0 135 21 168 42v-107c-33 -19 -97 -39 -178 -39c-63 0 -118 18 -162 51c-42 -33 -94 -51 -154 -51c-149 0 -258 112 -258 263s109 263 258 263c57 0 109 -19 151 -50
c39 31 87 50 142 50zM298 91c31 0 60 10 82 29c-22 49 -31 88 -31 131c0 48 11 92 31 129c-22 18 -51 29 -82 29c-81 0 -142 -65 -142 -159s61 -159 142 -159zM694 296c2 63 -33 119 -104 119s-110 -56 -115 -119h219z" />
    <glyph glyph-name="ogonek" unicode="&#x2db;" horiz-adv-x="275" 
d="M206 25l16 -25c-55 -35 -86 -74 -86 -112c0 -31 21 -44 48 -44c19 0 36 5 49 10v-76c-15 -5 -41 -11 -66 -11c-68 0 -125 31 -125 99c0 73 88 129 164 159z" />
    <glyph glyph-name="ograve" unicode="&#xf2;" horiz-adv-x="604" 
d="M302 513c152 0 262 -112 262 -263s-110 -263 -262 -263c-151 0 -262 112 -262 263s111 263 262 263zM302 91c84 0 146 65 146 159s-62 159 -146 159c-83 0 -146 -65 -146 -159s63 -159 146 -159zM282 733l89 -171h-107l-138 171h156z" />
    <glyph glyph-name="ohungarumlaut" unicode="&#x151;" horiz-adv-x="604" 
d="M302 513c152 0 262 -112 262 -263s-110 -263 -262 -263c-151 0 -262 112 -262 263s111 263 262 263zM302 91c84 0 146 65 146 159s-62 159 -146 159c-83 0 -146 -65 -146 -159s63 -159 146 -159zM156 562l75 171h136l-108 -171h-103zM335 562l103 171h143l-142 -171h-104
z" />
    <glyph glyph-name="omacron" unicode="&#x14d;" horiz-adv-x="604" 
d="M302 513c152 0 262 -112 262 -263s-110 -263 -262 -263c-151 0 -262 112 -262 263s111 263 262 263zM302 91c84 0 146 65 146 159s-62 159 -146 159c-83 0 -146 -65 -146 -159s63 -159 146 -159zM144 599v91h315v-91h-315z" />
    <glyph glyph-name="one" unicode="1" horiz-adv-x="348" 
d="M33 720h217v-720h-125v613h-92v107z" />
    <glyph glyph-name="onehalf" unicode="&#xbd;" horiz-adv-x="846" 
d="M62 720h164v-311h81v-73h-250v73h84v238h-79v73zM520 293v77c23 14 61 27 103 27c91 0 146 -54 146 -134c0 -70 -65 -137 -114 -190h133v-73h-289c104 111 186 197 186 255c0 40 -27 66 -72 66c-35 0 -71 -14 -93 -28zM113 0l513 720h79l-513 -720h-79z" />
    <glyph glyph-name="onehalf.001" horiz-adv-x="846" 
d="M62 720h164v-311h81v-73h-250v73h84v238h-79v73zM513 291v78c24 15 63 28 107 28c91 0 152 -53 152 -132c0 -78 -82 -149 -138 -190h157v-75h-280v65c82 62 167 126 172 181c2 15 0 28 -6 39c-11 23 -38 35 -70 35c-36 0 -71 -14 -94 -29zM114 0l513 720h78l-513 -720
h-78z" />
    <glyph glyph-name="onequarter" unicode="&#xbc;" horiz-adv-x="804" 
d="M694 0h-75v82h-191l143 314h83l-114 -246h81v95h73v-95h53v-68h-53v-82zM62 720h164v-311h81v-73h-250v73h84v238h-79v73zM113 0l513 720h79l-513 -720h-79z" />
    <glyph glyph-name="onequarter.001" horiz-adv-x="804" 
d="M62 720h164v-311h81v-73h-250v73h84v238h-79v73zM697 0h-77v73h-180v58l130 261h86l-125 -250h94v103h72v-103h53v-70h-53v-72zM114 0l513 720h78l-513 -720h-78z" />
    <glyph glyph-name="onesuperior" unicode="&#xb9;" horiz-adv-x="296" 
d="M30 720h169v-306h82v-77h-256v77h84v229h-79v77z" />
    <glyph glyph-name="onethird" unicode="&#x2153;" horiz-adv-x="834" 
d="M62 720h164v-311h81v-73h-250v73h84v238h-79v73zM687 279c0 28 -27 43 -70 43c-38 0 -73 -12 -92 -20v72c23 10 62 22 102 22c89 0 144 -45 144 -110c0 -41 -31 -72 -71 -88c45 -15 77 -46 77 -96c0 -70 -62 -115 -150 -115c-51 0 -84 11 -108 23v72
c22 -9 56 -21 103 -21c35 0 58 12 66 32c2 9 1 17 -4 24c-2 30 -32 49 -86 49h-21v63h25c49 0 85 20 85 50zM113 0l513 720h79l-513 -720h-79z" />
    <glyph glyph-name="ordfeminine" unicode="&#xaa;" horiz-adv-x="388" 
d="M45 615v89c23 12 76 29 141 29c115 0 172 -55 172 -153v-244h-92l-1 30c0 20 3 34 4 39v1c-11 -22 -52 -82 -129 -82c-67 0 -123 40 -123 112c0 84 77 132 184 132c19 0 43 -2 58 -5c1 65 -25 86 -88 86c-49 0 -100 -18 -126 -34zM258 507c-17 3 -33 4 -47 4
c-64 0 -100 -25 -100 -63c0 -28 22 -46 53 -46c53 0 92 48 94 105z" />
    <glyph glyph-name="ordmasculine" unicode="&#xba;" horiz-adv-x="453" 
d="M30 528c0 115 83 204 197 204c112 0 196 -87 196 -204c0 -114 -83 -203 -196 -203c-112 0 -197 86 -197 203zM124 528c0 -68 44 -120 103 -120c57 0 104 50 104 120c0 69 -46 121 -104 121c-56 0 -103 -50 -103 -121z" />
    <glyph glyph-name="oslash" unicode="&#xf8;" horiz-adv-x="604" 
d="M302 513c41 0 79 -8 112 -23l51 80h89l-76 -121c54 -47 86 -117 86 -199c0 -151 -110 -263 -262 -263c-37 0 -72 7 -103 19l-48 -76h-89l72 114c-59 47 -94 120 -94 206c0 151 111 263 262 263zM156 250c0 -45 14 -83 38 -111l163 259c-17 7 -36 11 -55 11
c-83 0 -146 -65 -146 -159zM302 91c84 0 146 65 146 159c0 40 -12 75 -31 102l-161 -254c14 -5 30 -7 46 -7z" />
    <glyph glyph-name="oslashacute" unicode="&#x1ff;" horiz-adv-x="604" 
d="M302 513c41 0 79 -8 112 -23l51 80h89l-76 -121c54 -47 86 -117 86 -199c0 -151 -110 -263 -262 -263c-37 0 -72 7 -103 19l-48 -76h-89l72 114c-59 47 -94 120 -94 206c0 151 111 263 262 263zM156 250c0 -45 14 -83 38 -111l163 259c-17 7 -36 11 -55 11
c-83 0 -146 -65 -146 -159zM302 91c84 0 146 65 146 159c0 40 -12 75 -31 102l-161 -254c14 -5 30 -7 46 -7zM240 562l89 171h156l-136 -171h-109z" />
    <glyph glyph-name="otilde" unicode="&#xf5;" horiz-adv-x="604" 
d="M302 513c152 0 262 -112 262 -263s-110 -263 -262 -263c-151 0 -262 112 -262 263s111 263 262 263zM302 91c84 0 146 65 146 159s-62 159 -146 159c-83 0 -146 -65 -146 -159s63 -159 146 -159zM228 711c55 0 101 -35 150 -35c37 0 68 17 89 40v-94
c-13 -19 -49 -39 -91 -39c-55 0 -102 36 -151 36c-38 0 -68 -18 -89 -41v95c14 19 50 38 92 38z" />
    <glyph glyph-name="p" unicode="p" horiz-adv-x="637" 
d="M81 -220v720h112l2 -47c1 -21 -3 -35 -2 -35h2c24 50 92 95 169 95c131 0 233 -104 233 -263c0 -161 -102 -263 -230 -263c-77 0 -139 41 -165 87h-2s3 -14 3 -41v-253h-122zM344 91c81 0 137 65 137 159c0 93 -56 159 -137 159c-67 0 -138 -51 -138 -159
s71 -159 138 -159z" />
    <glyph glyph-name="paragraph" unicode="&#xb6;" horiz-adv-x="596" 
d="M340 232h-43c-158 0 -265 98 -265 244c0 147 107 244 265 244h43v-488zM509 720v-762c0 -129 -68 -191 -178 -191c-43 0 -74 8 -88 12v104c12 -4 39 -10 68 -10c48 0 78 31 78 84v763h120z" />
    <glyph glyph-name="parenleft" unicode="(" horiz-adv-x="324" 
d="M177 -67c-70 116 -110 267 -110 427s40 311 110 427h124c-72 -121 -113 -276 -113 -427s41 -306 113 -427h-124z" />
    <glyph glyph-name="parenright" unicode=")" horiz-adv-x="324" 
d="M146 787c70 -116 110 -267 110 -427s-40 -311 -110 -427h-124c72 121 113 276 113 427s-41 306 -113 427h124z" />
    <glyph glyph-name="percent" unicode="%" horiz-adv-x="840" 
d="M50 557c0 98 75 176 172 176c98 0 173 -78 173 -176c0 -97 -75 -174 -173 -174c-97 0 -172 77 -172 174zM130 557c0 -60 41 -101 92 -101c52 0 93 41 93 101s-41 103 -93 103c-51 0 -92 -43 -92 -103zM445 161c0 99 75 176 172 176c98 0 173 -77 173 -176
c0 -96 -75 -174 -173 -174c-97 0 -172 78 -172 174zM526 161c0 -59 40 -101 91 -101c52 0 93 42 93 101c0 61 -41 103 -93 103c-51 0 -91 -42 -91 -103zM122 0l513 720h79l-513 -720h-79z" />
    <glyph glyph-name="period" unicode="." horiz-adv-x="226" 
d="M42 55c0 42 28 69 71 69c42 0 71 -27 71 -69c0 -41 -29 -68 -71 -68c-43 0 -71 27 -71 68z" />
    <glyph glyph-name="periodcentered" unicode="&#xb7;" horiz-adv-x="226" 
d="M42 247c0 42 28 69 71 69c42 0 71 -27 71 -69c0 -41 -29 -68 -71 -68c-43 0 -71 27 -71 68z" />
    <glyph glyph-name="perthousand" unicode="&#x2030;" horiz-adv-x="1081" 
d="M445 161c0 99 75 176 172 176c62 0 106 -30 135 -70c28 40 71 70 133 70c97 0 173 -77 173 -176c0 -96 -76 -174 -173 -174c-62 0 -105 30 -133 69c-29 -39 -73 -69 -135 -69c-97 0 -172 78 -172 174zM50 557c0 98 75 176 172 176c98 0 173 -78 173 -176
c0 -97 -75 -174 -173 -174c-97 0 -172 77 -172 174zM526 161c0 -59 40 -101 91 -101c52 0 93 42 93 101c0 61 -41 103 -93 103c-51 0 -91 -42 -91 -103zM130 557c0 -60 41 -101 92 -101c52 0 93 41 93 101s-41 103 -93 103c-51 0 -92 -43 -92 -103zM793 161
c0 -59 40 -101 92 -101c51 0 92 42 92 101c0 61 -41 103 -92 103c-52 0 -92 -42 -92 -103zM122 0l513 720h79l-513 -720h-79z" />
    <glyph glyph-name="pi" unicode="&#x3c0;" horiz-adv-x="761" 
d="M72 400v100h612v-100h-98v-244c0 -46 25 -69 66 -69c14 0 28 2 36 4v-95c-11 -5 -35 -9 -63 -9c-133 0 -154 91 -154 216v197h-185v-400h-115v400h-99z" />
    <glyph glyph-name="plus" unicode="+" horiz-adv-x="650" 
d="M88 312v96h187v190h99v-190h189v-96h-189v-190h-99v190h-187z" />
    <glyph glyph-name="plusminus" unicode="&#xb1;" horiz-adv-x="595" 
d="M83 412v98h165v174h99v-174h166v-98h-166v-174h-99v174h-165zM96 41v96h404v-96h-404z" />
    <glyph glyph-name="q" unicode="q" horiz-adv-x="637" 
d="M293 91c67 0 138 51 138 159s-71 159 -138 159c-81 0 -137 -66 -137 -159c0 -94 56 -159 137 -159zM556 500v-720h-122v253c0 27 3 41 3 41h-2c-27 -46 -88 -87 -165 -87c-128 0 -230 102 -230 263c0 159 102 263 233 263c77 0 145 -45 169 -95h2c1 0 -3 14 -2 35l2 47
h112z" />
    <glyph glyph-name="question" unicode="?" horiz-adv-x="463" 
d="M116 202v48c0 156 164 173 164 284c0 52 -37 91 -98 91c-44 0 -95 -13 -150 -47v112c34 20 92 43 159 43c119 0 210 -71 210 -185c0 -174 -178 -191 -178 -313v-33h-107zM100 55c0 42 28 69 71 69c42 0 70 -27 70 -69c0 -41 -28 -68 -70 -68c-43 0 -71 27 -71 68z" />
    <glyph glyph-name="questiondown" unicode="&#xbf;" horiz-adv-x="463" 
d="M347 297v-48c0 -156 -164 -173 -164 -284c0 -52 38 -90 99 -90c44 0 94 12 149 47v-112c-33 -20 -91 -44 -158 -44c-120 0 -211 72 -211 185c0 174 178 191 178 313v33h107zM223 444c0 42 27 69 71 69c42 0 70 -27 70 -69c0 -41 -28 -68 -70 -68c-44 0 -71 27 -71 68z
" />
    <glyph glyph-name="quotedbl" unicode="&#x22;" horiz-adv-x="399" 
d="M52 433l-10 293h113l-10 -293h-93zM248 433l-10 293h113l-10 -293h-93z" />
    <glyph glyph-name="quotedblbase" unicode="&#x201e;" horiz-adv-x="402" 
d="M397 137l-105 -282h-100l77 282h128zM210 137l-105 -282h-100l77 282h128z" />
    <glyph glyph-name="quotedblleft" unicode="&#x201c;" horiz-adv-x="400" 
d="M192 505l106 283h99l-77 -283h-128zM7 505l106 283h99l-77 -283h-128z" />
    <glyph glyph-name="quotedblright" unicode="&#x201d;" horiz-adv-x="402" 
d="M397 788l-105 -283h-100l77 283h128zM210 788l-105 -283h-100l77 283h128z" />
    <glyph glyph-name="quoteleft" unicode="&#x2018;" horiz-adv-x="215" 
d="M7 505l106 283h99l-77 -283h-128z" />
    <glyph glyph-name="quoteright" unicode="&#x2019;" horiz-adv-x="215" 
d="M210 788l-105 -283h-100l77 283h128z" />
    <glyph glyph-name="quotesinglbase" unicode="&#x201a;" horiz-adv-x="215" 
d="M210 137l-105 -282h-100l77 282h128z" />
    <glyph glyph-name="quotesingle" unicode="'" horiz-adv-x="197" 
d="M52 433l-10 293h113l-10 -293h-93z" />
    <glyph glyph-name="r" unicode="r" horiz-adv-x="392" 
d="M75 0v500h112c1 -20 2 -40 2 -59c0 -17 -1 -31 0 -35c31 61 83 107 152 107c15 0 28 -2 31 -3v-118c-3 0 -14 4 -30 4c-86 0 -145 -87 -145 -181v-215h-122z" />
    <glyph glyph-name="racute" unicode="&#x155;" horiz-adv-x="392" 
d="M75 0v500h112c1 -20 2 -40 2 -59c0 -17 -1 -31 0 -35c31 61 83 107 152 107c15 0 28 -2 31 -3v-118c-3 0 -14 4 -30 4c-86 0 -145 -87 -145 -181v-215h-122zM168 562l89 171h156l-136 -171h-109z" />
    <glyph glyph-name="rcaron" unicode="&#x159;" horiz-adv-x="392" 
d="M75 0v500h112c1 -20 2 -40 2 -59c0 -17 -1 -31 0 -35c31 61 83 107 152 107c15 0 28 -2 31 -3v-118c-3 0 -14 4 -30 4c-86 0 -145 -87 -145 -181v-215h-122zM394 733l-102 -171h-117l-104 171h106l56 -99l56 99h105z" />
    <glyph glyph-name="rcommaaccent" unicode="&#x157;" horiz-adv-x="392" 
d="M75 0v500h112c1 -20 2 -40 2 -59c0 -17 -1 -31 0 -35c31 61 83 107 152 107c15 0 28 -2 31 -3v-118c-3 0 -14 4 -30 4c-86 0 -145 -87 -145 -181v-215h-122zM202 -56l-71 -177h-96l41 177h126z" />
    <glyph glyph-name="registered" unicode="&#xae;" horiz-adv-x="828" 
d="M50 360c0 208 161 372 362 372c203 0 366 -164 366 -372c0 -209 -163 -372 -366 -372c-201 0 -362 163 -362 372zM125 360c0 -168 126 -298 287 -298c163 0 291 130 291 298c0 167 -128 298 -291 298c-161 0 -287 -131 -287 -298zM352 311v-150h-77v400h140
c83 0 143 -52 143 -129c0 -52 -31 -92 -79 -109l84 -162h-82l-72 150h-57zM404 492h-52v-119h52c48 0 74 18 74 59c0 42 -26 60 -74 60z" />
    <glyph glyph-name="ring" unicode="&#x2da;" horiz-adv-x="311" 
d="M42 644c0 63 49 99 114 99s113 -36 113 -99c0 -61 -48 -99 -113 -99s-114 38 -114 99zM115 644c0 -22 16 -38 41 -38s41 16 41 38c0 23 -16 39 -41 39s-41 -16 -41 -39z" />
    <glyph glyph-name="ring.cap" horiz-adv-x="312" 
d="M42 655c0 61 50 100 114 100c63 0 113 -39 113 -100c0 -62 -50 -101 -113 -101c-64 0 -114 39 -114 101zM115 655c0 -23 16 -41 41 -41s41 18 41 41c0 22 -16 39 -41 39s-41 -17 -41 -39z" />
    <glyph glyph-name="ringcomb" horiz-adv-x="309" 
d="M44 640c0 60 47 96 110 96c64 0 111 -36 111 -96c0 -61 -47 -97 -111 -97c-63 0 -110 36 -110 97zM116 640c0 -22 14 -37 38 -37s39 15 39 37c0 20 -15 35 -39 35s-38 -15 -38 -35z" />
    <glyph glyph-name="ringcomb.cap" horiz-adv-x="306" 
d="M42 640c0 60 48 96 111 96c64 0 111 -36 111 -96c0 -61 -47 -97 -111 -97c-63 0 -111 36 -111 97zM115 640c0 -22 14 -37 38 -37s38 15 38 37c0 20 -14 35 -38 35s-38 -15 -38 -35z" />
    <glyph glyph-name="s" unicode="s" horiz-adv-x="446" 
d="M297 137c0 35 -34 49 -99 69c-91 28 -155 66 -155 160c0 88 74 147 185 147c63 0 119 -16 151 -30v-107c-34 18 -84 34 -129 36c-17 0 -34 -1 -49 -4c-25 -7 -46 -21 -46 -47c0 -32 30 -49 91 -67c110 -34 163 -73 163 -160c0 -94 -77 -147 -194 -147
c-71 0 -129 16 -167 33v109c48 -25 116 -44 164 -44c44 0 85 14 85 52z" />
    <glyph glyph-name="sacute" unicode="&#x15b;" horiz-adv-x="453" 
d="M301 137c0 35 -34 49 -99 69c-91 28 -155 66 -155 160c0 88 74 147 185 147c63 0 119 -16 151 -30v-107c-34 18 -84 34 -129 36c-17 0 -34 -1 -49 -4c-25 -7 -46 -21 -46 -47c0 -32 30 -49 91 -67c110 -34 163 -73 163 -160c0 -94 -77 -147 -194 -147
c-71 0 -129 16 -167 33v109c48 -25 116 -44 164 -44c44 0 85 14 85 52zM163 562l89 171h156l-136 -171h-109z" />
    <glyph glyph-name="scaron" unicode="&#x161;" horiz-adv-x="453" 
d="M301 137c0 35 -34 49 -99 69c-91 28 -155 66 -155 160c0 88 74 147 185 147c63 0 119 -16 151 -30v-107c-34 18 -84 34 -129 36c-17 0 -34 -1 -49 -4c-25 -7 -46 -21 -46 -47c0 -32 30 -49 91 -67c110 -34 163 -73 163 -160c0 -94 -77 -147 -194 -147
c-71 0 -129 16 -167 33v109c48 -25 116 -44 164 -44c44 0 85 14 85 52zM389 733l-102 -171h-117l-104 171h106l56 -99l56 99h105z" />
    <glyph glyph-name="scedilla" unicode="&#x15f;" horiz-adv-x="453" 
d="M301 137c0 35 -34 49 -99 69c-91 28 -155 66 -155 160c0 88 74 147 185 147c63 0 119 -16 151 -30v-107c-34 18 -84 34 -129 36c-17 0 -34 -1 -49 -4c-25 -7 -46 -21 -46 -47c0 -32 30 -49 91 -67c110 -34 163 -73 163 -160s-65 -138 -167 -146l-15 -40
c44 -2 98 -30 98 -88c0 -64 -56 -93 -127 -93c-30 0 -59 5 -65 8v73c5 -2 23 -7 44 -7c24 0 53 10 53 35c0 32 -45 39 -84 34l32 79c-54 4 -99 17 -130 31v109c48 -25 116 -44 164 -44c44 0 85 14 85 52z" />
    <glyph glyph-name="scircumflex" unicode="&#x15d;" horiz-adv-x="453" 
d="M301 137c0 35 -34 49 -99 69c-91 28 -155 66 -155 160c0 88 74 147 185 147c63 0 119 -16 151 -30v-107c-34 18 -84 34 -129 36c-17 0 -34 -1 -49 -4c-25 -7 -46 -21 -46 -47c0 -32 30 -49 91 -67c110 -34 163 -73 163 -160c0 -94 -77 -147 -194 -147
c-71 0 -129 16 -167 33v109c48 -25 116 -44 164 -44c44 0 85 14 85 52zM71 562l104 171h117l102 -171h-105l-56 99l-56 -99h-106z" />
    <glyph glyph-name="scommaaccent" unicode="&#x219;" horiz-adv-x="453" 
d="M301 137c0 35 -34 49 -99 69c-91 28 -155 66 -155 160c0 88 74 147 185 147c63 0 119 -16 151 -30v-107c-34 18 -84 34 -129 36c-17 0 -34 -1 -49 -4c-25 -7 -46 -21 -46 -47c0 -32 30 -49 91 -67c110 -34 163 -73 163 -160c0 -94 -77 -147 -194 -147
c-71 0 -129 16 -167 33v109c48 -25 116 -44 164 -44c44 0 85 14 85 52zM289 -56l-71 -177h-96l41 177h126z" />
    <glyph glyph-name="section" unicode="&#xa7;" horiz-adv-x="602" 
d="M540 703c0 -34 1 -69 1 -102c-39 20 -86 38 -139 47c-29 -10 -45 -36 -45 -73c0 -39 27 -93 70 -179l66 -129c31 -61 48 -114 48 -153c0 -126 -103 -201 -254 -201c-85 0 -168 21 -225 49c0 34 -1 68 -1 102c38 -20 86 -38 139 -47c29 10 45 36 45 73s-26 92 -70 179
l-66 129c-30 59 -48 112 -48 150c0 129 102 204 255 204c84 0 167 -21 224 -49zM433 118c0 30 -14 74 -39 121l-101 193c-30 58 -46 100 -46 135c0 36 12 65 36 85c-73 -9 -114 -47 -114 -105c0 -31 14 -74 39 -121l89 -166c38 -72 59 -125 59 -164c0 -36 -14 -64 -38 -83
c74 9 115 46 115 105z" />
    <glyph glyph-name="semicolon" unicode=";" horiz-adv-x="222" 
d="M176 58l-83 -208h-91l60 208h114zM38 444c0 42 28 69 71 69s71 -27 71 -69c0 -41 -28 -68 -71 -68s-71 27 -71 68z" />
    <glyph glyph-name="seven" unicode="7" horiz-adv-x="498" 
d="M186 0h-132l267 613h-312v107h481z" />
    <glyph glyph-name="seven.001" horiz-adv-x="505" 
d="M186 0h-128l282 613h-331v107h458v-97z" />
    <glyph glyph-name="six" unicode="6" horiz-adv-x="587" 
d="M316 471c141 0 238 -111 238 -239c0 -141 -109 -245 -256 -245c-145 0 -253 104 -253 251c0 181 167 392 287 482h160c-120 -88 -211 -196 -264 -278c15 12 45 29 88 29zM298 90c82 0 141 60 141 142c0 81 -59 142 -141 142c-83 0 -141 -61 -141 -140
c0 -84 58 -144 141 -144z" />
    <glyph glyph-name="slash" unicode="/" horiz-adv-x="479" 
d="M-8 -67l366 854h129l-366 -854h-129z" />
    <glyph glyph-name="space" unicode=" " horiz-adv-x="260" 
 />
    <glyph glyph-name="sterling" unicode="&#xa3;" 
d="M144 509c0 146 91 224 235 224c57 0 117 -13 145 -26v-110c-32 16 -84 29 -131 29c-81 0 -128 -46 -128 -128v-92h201v-89h-201v-99c0 -53 -15 -91 -33 -114h306v-104h-475c39 49 81 123 81 222v95h-82v89h82v103z" />
    <glyph glyph-name="t" unicode="t" horiz-adv-x="379" 
d="M11 500h78v150h118v-150h142v-97h-142v-229c0 -62 32 -83 69 -83c31 0 65 10 90 21v-102c-23 -12 -66 -23 -120 -23c-76 0 -152 37 -158 145c0 16 -1 33 -1 50v221h-76v97z" />
    <glyph glyph-name="t.alt" horiz-adv-x="354" 
d="M15 500h98v170h121v-170h108v-97h-108v-403h-122v403h-97v97z" />
    <glyph glyph-name="tbar" unicode="&#x167;" horiz-adv-x="379" 
d="M13 500h78v150h118v-150h142v-97h-142v-94h135v-81h-135v-54c0 -62 32 -83 69 -83c31 0 65 10 90 21v-102c-23 -12 -66 -23 -120 -23c-76 0 -152 37 -158 145c0 16 -1 33 -1 50v46h-69v81h69v94h-76v97z" />
    <glyph glyph-name="tbar.alt" horiz-adv-x="354" 
d="M15 500h98v170h121v-170h108v-97h-108v-100h102v-81h-102v-222h-122v222h-91v81h91v100h-97v97z" />
    <glyph glyph-name="tcaron" unicode="&#x165;" horiz-adv-x="401" 
d="M267 558v288h112v-288h-112zM13 500h78v150h118v-150h142v-97h-142v-229c0 -62 32 -83 69 -83c31 0 65 10 90 21v-102c-23 -12 -66 -23 -120 -23c-76 0 -152 37 -158 145c0 16 -1 33 -1 50v221h-76v97z" />
    <glyph glyph-name="tcaron.alt" horiz-adv-x="410" 
d="M292 558v288h112v-288h-112zM15 500h98v170h121v-170h108v-97h-108v-403h-122v403h-97v97z" />
    <glyph glyph-name="tcommaaccent" unicode="&#x163;" horiz-adv-x="379" 
d="M13 500h78v150h118v-150h142v-97h-142v-229c0 -62 32 -83 69 -83c31 0 65 10 90 21v-102c-22 -11 -61 -22 -111 -23l-15 -39c44 -2 98 -30 98 -88c0 -64 -56 -93 -127 -93c-30 0 -59 5 -65 8v73c5 -2 23 -7 44 -7c24 0 53 10 53 35c0 32 -45 39 -84 34l34 84
c-55 14 -101 55 -105 138c0 16 -1 33 -1 50v221h-76v97z" />
    <glyph glyph-name="tcommaaccent.alt" horiz-adv-x="354" 
d="M15 500h98v170h121v-170h108v-97h-108v-403h-122v403h-97v97zM237 -56l-71 -177h-96l41 177h126z" />
    <glyph glyph-name="thorn" unicode="&#xfe;" horiz-adv-x="639" 
d="M80 -220v940h122v-248c0 -27 -4 -41 -4 -41h2c26 47 88 82 165 82c129 0 231 -104 231 -263c0 -161 -102 -263 -230 -263c-76 0 -138 41 -165 87h-2c2 -1 3 -51 3 -90v-204h-122zM343 91c81 0 137 65 137 159c0 93 -56 159 -137 159c-67 0 -138 -51 -138 -159
s71 -159 138 -159z" />
    <glyph glyph-name="three" unicode="3" horiz-adv-x="488" 
d="M304 522c0 64 -52 100 -130 100c-62 0 -116 -19 -149 -35v112c35 16 99 34 168 34c149 0 241 -80 241 -196c0 -82 -57 -142 -124 -167c73 -23 136 -86 136 -180c0 -124 -106 -203 -253 -203c-88 0 -141 20 -180 39v112c34 -17 87 -40 170 -40c80 0 133 42 133 105
c0 74 -62 118 -172 118h-24v96h31c86 0 153 41 153 105z" />
    <glyph glyph-name="threequarters" unicode="&#xbe;" horiz-adv-x="819" 
d="M709 -1h-75v83h-191l143 314h83l-114 -246h82v94h72v-94h53v-69h-53v-82zM225 616c0 28 -28 43 -71 43c-36 0 -72 -12 -91 -20v72c23 10 62 22 102 22c89 0 144 -45 144 -110c0 -41 -31 -72 -71 -88c45 -15 77 -46 77 -96c0 -70 -62 -115 -150 -115c-51 0 -84 11 -108 23
v72c22 -9 56 -21 103 -21c44 0 69 20 69 49c0 33 -32 56 -93 56h-21v63h24c50 0 86 20 86 50zM117 0l513 720h79l-513 -720h-79z" />
    <glyph glyph-name="threequarters.001" horiz-adv-x="819" 
d="M225 616c0 28 -28 43 -71 43c-36 0 -72 -12 -91 -20v72c23 10 62 22 102 22c89 0 144 -45 144 -110c0 -41 -31 -72 -71 -88c45 -15 77 -46 77 -96c0 -70 -62 -115 -150 -115c-51 0 -84 11 -108 23v72c22 -9 56 -21 103 -21c44 0 69 20 69 49c0 33 -32 56 -93 56h-21v63
h24c50 0 86 20 86 50zM703 0h-78v73h-180v58l130 261h87l-125 -250h93v102h73v-102h53v-71h-53v-71zM118 0l513 720h78l-513 -720h-78z" />
    <glyph glyph-name="threesuperior" unicode="&#xb3;" horiz-adv-x="320" 
d="M194 615c0 27 -27 42 -69 42c-36 0 -73 -13 -94 -22v75c24 11 64 23 105 23c89 0 145 -45 145 -110c0 -41 -31 -71 -72 -88c46 -15 78 -46 78 -95c0 -70 -62 -115 -151 -115c-52 0 -86 11 -111 23v75c23 -9 58 -22 106 -22c43 0 68 20 68 47c0 33 -32 55 -91 55h-25v63
h29c47 0 82 21 82 49z" />
    <glyph glyph-name="tilde" unicode="&#x2dc;" horiz-adv-x="416" 
d="M134 711c55 0 101 -35 150 -35c37 0 68 17 89 40v-94c-13 -19 -49 -39 -91 -39c-55 0 -102 36 -151 36c-38 0 -68 -18 -89 -41v95c14 19 50 38 92 38z" />
    <glyph glyph-name="tilde.cap" horiz-adv-x="417" 
d="M134 720c55 0 103 -36 152 -36c37 0 68 16 89 41v-97c-13 -19 -49 -39 -90 -39c-56 0 -105 36 -154 36c-38 0 -68 -17 -89 -40v96c14 19 50 39 92 39z" />
    <glyph glyph-name="trademark" unicode="&#x2122;" horiz-adv-x="660" 
d="M555 599l-85 -104l-84 105v-181h-74v301h62l96 -129l97 129h62v-301h-74v180zM276 649h-83v-230h-81v230h-81v71h245v-71z" />
    <glyph glyph-name="two" unicode="2" horiz-adv-x="519" 
d="M39 571v118c36 25 94 44 162 44c153 0 250 -99 250 -239c0 -139 -107 -254 -222 -387h255v-107h-483c184 212 305 342 317 469c3 28 0 53 -8 74c-17 47 -61 74 -124 74c-61 0 -115 -22 -147 -46z" />
    <glyph glyph-name="two.001" horiz-adv-x="533" 
d="M40 571v118c36 25 99 44 168 44c157 0 257 -98 257 -238c0 -144 -148 -275 -275 -385h304v-110h-468v101c193 174 298 255 307 370c3 27 0 51 -9 74c-18 45 -64 72 -130 72c-62 0 -120 -22 -154 -46z" />
    <glyph glyph-name="twosuperior" unicode="&#xb2;" horiz-adv-x="321" 
d="M23 625v80c23 15 62 29 107 29c91 0 144 -53 144 -132c0 -69 -65 -138 -114 -187h133v-78h-293c105 113 185 200 185 253c0 39 -26 64 -68 64c-36 0 -72 -15 -94 -29z" />
    <glyph glyph-name="twosuperior.001" horiz-adv-x="327" 
d="M22 625v80c23 15 63 29 107 29c91 0 152 -53 152 -132c0 -78 -83 -149 -134 -187h153v-78h-281v68c84 62 173 128 173 185c0 42 -34 64 -76 64c-36 0 -72 -15 -94 -29z" />
    <glyph glyph-name="twothirds" unicode="&#x2154;" horiz-adv-x="884" 
d="M78 629v77c23 15 61 28 103 28c91 0 146 -54 146 -134c0 -70 -65 -137 -114 -190h134v-74h-290c104 111 186 197 186 255c0 40 -27 67 -72 67c-35 0 -71 -14 -93 -29zM737 279c0 28 -27 43 -70 43c-38 0 -73 -12 -92 -20v72c23 10 62 22 102 22c89 0 145 -45 145 -110
c0 -41 -32 -72 -72 -88c45 -15 77 -46 77 -96c0 -70 -62 -115 -150 -115c-51 0 -84 11 -108 23v72c22 -9 56 -21 103 -21c35 0 58 12 66 32c2 9 1 17 -4 24c-2 30 -32 49 -86 49h-21v63h25c49 0 85 20 85 50zM163 0l513 720h79l-513 -720h-79z" />
    <glyph glyph-name="u" unicode="u" horiz-adv-x="612" 
d="M531 0h-112l-3 63c0 20 3 33 4 37h-2c-20 -46 -85 -113 -178 -113c-117 0 -172 71 -172 200v313h122v-292c0 -59 13 -110 81 -110c81 0 139 66 139 154v248h121v-500z" />
    <glyph glyph-name="u.alt" horiz-adv-x="598" 
d="M531 500v-271c0 -155 -85 -242 -232 -242s-233 87 -233 242v271h122v-240c0 -109 30 -163 111 -163c80 0 110 54 110 163v240h122z" />
    <glyph glyph-name="uacute" unicode="&#xfa;" 
d="M533 0h-112l-3 63c0 20 3 33 4 37h-2c-20 -46 -85 -113 -178 -113c-117 0 -172 71 -172 200v313h122v-292c0 -59 13 -110 81 -110c81 0 139 66 139 154v248h121v-500zM239 562l89 171h156l-136 -171h-109z" />
    <glyph glyph-name="uacute.alt" horiz-adv-x="598" 
d="M531 500v-271c0 -155 -85 -242 -232 -242s-233 87 -233 242v271h122v-240c0 -109 30 -163 111 -163c80 0 110 54 110 163v240h122zM229 562l89 171h156l-136 -171h-109z" />
    <glyph glyph-name="ubreve" unicode="&#x16d;" 
d="M533 0h-112l-3 63c0 20 3 33 4 37h-2c-20 -46 -85 -113 -178 -113c-117 0 -172 71 -172 200v313h122v-292c0 -59 13 -110 81 -110c81 0 139 66 139 154v248h121v-500zM354 725h91c1 -94 -48 -155 -145 -155s-146 61 -145 155h91c0 -44 20 -70 54 -70c35 0 55 26 54 70z
" />
    <glyph glyph-name="ubreve.alt" horiz-adv-x="598" 
d="M531 500v-271c0 -155 -85 -242 -232 -242s-233 87 -233 242v271h122v-240c0 -109 30 -163 111 -163c80 0 110 54 110 163v240h122zM352 725h90c2 -94 -47 -155 -144 -155s-147 61 -145 155h90c0 -44 20 -70 55 -70c34 0 54 26 54 70z" />
    <glyph glyph-name="ucircumflex" unicode="&#xfb;" 
d="M533 0h-112l-3 63c0 20 3 33 4 37h-2c-20 -46 -85 -113 -178 -113c-117 0 -172 71 -172 200v313h122v-292c0 -59 13 -110 81 -110c81 0 139 66 139 154v248h121v-500zM142 562l104 171h117l102 -171h-105l-56 99l-56 -99h-106z" />
    <glyph glyph-name="ucircumflex.alt" horiz-adv-x="598" 
d="M531 500v-271c0 -155 -85 -242 -232 -242s-233 87 -233 242v271h122v-240c0 -109 30 -163 111 -163c80 0 110 54 110 163v240h122zM138 562l103 171h117l103 -171h-106l-55 99l-57 -99h-105z" />
    <glyph glyph-name="udieresis" unicode="&#xfc;" 
d="M533 0h-112l-3 63c0 20 3 33 4 37h-2c-20 -46 -85 -113 -178 -113c-117 0 -172 71 -172 200v313h122v-292c0 -59 13 -110 81 -110c81 0 139 66 139 154v248h121v-500zM124 644c0 42 28 69 71 69c42 0 71 -27 71 -69c0 -41 -29 -68 -71 -68c-43 0 -71 27 -71 68zM332 644
c0 42 27 69 70 69s71 -27 71 -69c0 -41 -28 -68 -71 -68s-70 27 -70 68z" />
    <glyph glyph-name="udieresis.alt" horiz-adv-x="598" 
d="M531 500v-271c0 -155 -85 -242 -232 -242s-233 87 -233 242v271h122v-240c0 -109 30 -163 111 -163c80 0 110 54 110 163v240h122zM126 644c0 42 27 69 70 69s71 -27 71 -69c0 -41 -28 -68 -71 -68s-70 27 -70 68zM333 644c0 42 28 69 70 69c43 0 71 -27 71 -69
c0 -41 -28 -68 -71 -68c-42 0 -70 27 -70 68z" />
    <glyph glyph-name="ugrave" unicode="&#xf9;" 
d="M533 0h-112l-3 63c0 20 3 33 4 37h-2c-20 -46 -85 -113 -178 -113c-117 0 -172 71 -172 200v313h122v-292c0 -59 13 -110 81 -110c81 0 139 66 139 154v248h121v-500zM279 733l89 -171h-107l-138 171h156z" />
    <glyph glyph-name="ugrave.alt" horiz-adv-x="598" 
d="M531 500v-271c0 -155 -85 -242 -232 -242s-233 87 -233 242v271h122v-240c0 -109 30 -163 111 -163c80 0 110 54 110 163v240h122zM277 733l89 -171h-107l-137 171h155z" />
    <glyph glyph-name="uhungarumlaut" unicode="&#x171;" 
d="M533 0h-112l-3 63c0 20 3 33 4 37h-2c-20 -46 -85 -113 -178 -113c-117 0 -172 71 -172 200v313h122v-292c0 -59 13 -110 81 -110c81 0 139 66 139 154v248h121v-500zM152 562l75 171h136l-108 -171h-103zM331 562l103 171h143l-142 -171h-104z" />
    <glyph glyph-name="uhungarumlaut.alt" horiz-adv-x="616" 
d="M531 500v-271c0 -155 -85 -242 -232 -242s-233 87 -233 242v271h122v-240c0 -109 30 -163 111 -163c80 0 110 54 110 163v240h122zM150 562l75 171h136l-108 -171h-103zM329 562l103 171h143l-142 -171h-104z" />
    <glyph glyph-name="umacron" unicode="&#x16b;" 
d="M533 0h-112l-3 63c0 20 3 33 4 37h-2c-20 -46 -85 -113 -178 -113c-117 0 -172 71 -172 200v313h122v-292c0 -59 13 -110 81 -110c81 0 139 66 139 154v248h121v-500zM148 599v91h315v-91h-315z" />
    <glyph glyph-name="umacron.alt" horiz-adv-x="598" 
d="M531 500v-271c0 -155 -85 -242 -232 -242s-233 87 -233 242v271h122v-240c0 -109 30 -163 111 -163c80 0 110 54 110 163v240h122zM142 599v91h315v-91h-315z" />
    <glyph glyph-name="underscore" unicode="_" 
d="M42 0h531v-98h-531v98z" />
    <glyph glyph-name="uni00A0" unicode="&#xa0;" horiz-adv-x="260" 
 />
    <glyph glyph-name="uni00AD" unicode="&#xad;" horiz-adv-x="390" 
d="M42 234v97h311v-97h-311z" />
    <glyph glyph-name="uni021A" unicode="&#x21a;" horiz-adv-x="566" 
d="M556 614h-210v-614h-126v614h-210v106h546v-106zM345 -56l-71 -177h-96l41 177h126z" />
    <glyph glyph-name="uni021B" unicode="&#x21b;" horiz-adv-x="379" 
d="M13 500h78v150h118v-150h142v-97h-142v-229c0 -62 32 -83 69 -83c31 0 65 10 90 21v-102c-23 -12 -66 -23 -120 -23c-76 0 -152 37 -158 145c0 16 -1 33 -1 50v221h-76v97zM297 -56l-71 -177h-96l41 177h126z" />
    <glyph glyph-name="uni021B.alt" horiz-adv-x="354" 
d="M15 500h98v170h121v-170h108v-97h-108v-403h-35l-20 -52c43 -2 97 -30 97 -88c0 -64 -56 -93 -127 -93c-30 0 -58 5 -64 8v73c4 -2 23 -7 44 -7c23 0 53 10 53 35c0 32 -45 39 -85 34l38 90h-23v403h-97v97z" />
    <glyph glyph-name="uni1E9E" unicode="&#x1e9e;" horiz-adv-x="671" 
d="M194 0h-122v484c0 126 93 249 280 249c134 0 231 -67 270 -105l-183 -251l43 -17c103 -38 172 -92 172 -192c0 -110 -81 -181 -226 -181c-64 0 -124 15 -158 32v106c42 -20 95 -35 138 -37c27 -1 50 1 69 7c39 11 61 36 61 73c0 57 -58 91 -142 121l-108 38l185 261
c-16 13 -59 34 -124 34c-81 0 -155 -48 -155 -149v-473z" />
    <glyph glyph-name="uni2215" unicode="&#x2215;" horiz-adv-x="626" 
d="M17 0l513 720h79l-513 -720h-79z" />
    <glyph glyph-name="uni2219" unicode="&#x2219;" horiz-adv-x="226" 
d="M42 357c0 42 28 69 71 69c42 0 71 -27 71 -69c0 -41 -29 -68 -71 -68c-43 0 -71 27 -71 68z" />
    <glyph glyph-name="uogonek" unicode="&#x173;" 
d="M533 500v-499l1 -1c-55 -35 -86 -74 -86 -112c0 -31 21 -44 48 -44c19 0 36 5 49 10v-76c-15 -5 -41 -11 -66 -11c-68 0 -125 31 -125 99c0 56 51 102 110 134h-43l-3 63c0 20 3 33 4 37h-2c-20 -46 -85 -113 -178 -113c-117 0 -172 71 -172 200v313h122v-292
c0 -59 13 -110 81 -110c81 0 139 66 139 154v248h121z" />
    <glyph glyph-name="uogonek.alt" horiz-adv-x="598" 
d="M531 500v-271c0 -121 -52 -200 -143 -229c-55 -35 -86 -74 -86 -112c0 -32 20 -44 47 -44c20 0 37 5 49 10v-76c-14 -5 -41 -11 -65 -11c-68 0 -125 31 -125 99c0 49 39 90 87 121c-145 2 -229 88 -229 242v271h122v-240c0 -109 30 -163 111 -163c80 0 110 54 110 163
v240h122z" />
    <glyph glyph-name="uring" unicode="&#x16f;" 
d="M533 0h-112l-3 63c0 20 3 33 4 37h-2c-20 -46 -85 -113 -178 -113c-117 0 -172 71 -172 200v313h122v-292c0 -59 13 -110 81 -110c81 0 139 66 139 154v248h121v-500zM184 644c0 63 49 99 114 99s113 -36 113 -99c0 -61 -48 -99 -113 -99s-114 38 -114 99zM257 644
c0 -22 16 -38 41 -38s41 16 41 38c0 23 -16 39 -41 39s-41 -16 -41 -39z" />
    <glyph glyph-name="uring.alt" horiz-adv-x="598" 
d="M531 500v-271c0 -155 -85 -242 -232 -242s-233 87 -233 242v271h122v-240c0 -109 30 -163 111 -163c80 0 110 54 110 163v240h122zM185 644c0 63 49 99 113 99c65 0 113 -36 113 -99c0 -61 -48 -99 -113 -99c-64 0 -113 38 -113 99zM257 644c0 -22 16 -38 41 -38
s41 16 41 38c0 23 -16 39 -41 39s-41 -16 -41 -39z" />
    <glyph glyph-name="utilde" unicode="&#x169;" 
d="M533 0h-112l-3 63c0 20 3 33 4 37h-2c-20 -46 -85 -113 -178 -113c-117 0 -172 71 -172 200v313h122v-292c0 -59 13 -110 81 -110c81 0 139 66 139 154v248h121v-500zM228 711c55 0 101 -35 150 -35c37 0 68 17 89 40v-94c-13 -19 -49 -39 -91 -39c-55 0 -102 36 -151 36
c-38 0 -68 -18 -89 -41v95c14 19 50 38 92 38z" />
    <glyph glyph-name="utilde.alt" horiz-adv-x="598" 
d="M531 500v-271c0 -155 -85 -242 -232 -242s-233 87 -233 242v271h122v-240c0 -109 30 -163 111 -163c80 0 110 54 110 163v240h122zM226 711c55 0 102 -35 150 -35c37 0 68 17 89 40v-94c-13 -19 -49 -39 -91 -39c-55 0 -102 36 -151 36c-38 0 -67 -18 -88 -41v95
c14 19 49 38 91 38z" />
    <glyph glyph-name="v" unicode="v" horiz-adv-x="502" 
d="M382 500h128l-223 -509h-72l-223 509h128c45 -112 97 -235 131 -333c16 42 39 108 60 161z" />
    <glyph glyph-name="v.001" horiz-adv-x="512" 
d="M394 500h126l-204 -509h-120l-204 509h126l62 -166c30 -75 56 -153 76 -208c19 50 48 136 76 208z" />
    <glyph glyph-name="w" unicode="w" horiz-adv-x="778" 
d="M424 495l60 -171c19 -54 37 -111 53 -160c18 44 38 109 58 162l63 174h127l-209 -509h-75l-112 307l-112 -307h-75l-209 509h128c40 -114 84 -234 119 -336c31 88 80 231 114 331h70z" />
    <glyph glyph-name="w.001" horiz-adv-x="798" 
d="M675 500h125l-177 -509h-120c-30 95 -75 234 -104 339c-29 -105 -74 -244 -104 -339h-120l-177 509h126l51 -161c24 -75 49 -161 64 -216c24 83 81 277 111 377h98c33 -115 84 -275 111 -377c15 50 41 144 64 216z" />
    <glyph glyph-name="wacute" unicode="&#x1e83;" horiz-adv-x="778" 
d="M424 495l60 -171c19 -54 37 -111 53 -160c18 44 38 109 58 162l63 174h127l-209 -509h-75l-112 307l-112 -307h-75l-209 509h128c40 -114 84 -234 119 -336c31 88 80 231 114 331h70zM335 562l89 171h156l-136 -171h-109z" />
    <glyph glyph-name="wacute.001" horiz-adv-x="798" 
d="M675 500h125l-177 -509h-120c-30 95 -75 234 -104 339c-29 -105 -74 -244 -104 -339h-120l-177 509h126l51 -161c24 -75 49 -161 64 -216c24 83 81 277 111 377h98c33 -115 84 -275 111 -377c15 50 41 144 64 216zM344 562l89 171h155l-136 -171h-108z" />
    <glyph glyph-name="wcircumflex" unicode="&#x175;" horiz-adv-x="778" 
d="M424 495l60 -171c19 -54 37 -111 53 -160c18 44 38 109 58 162l63 174h127l-209 -509h-75l-112 307l-112 -307h-75l-209 509h128c40 -114 84 -234 119 -336c31 88 80 231 114 331h70zM228 562l104 171h117l102 -171h-105l-56 99l-56 -99h-106z" />
    <glyph glyph-name="wcircumflex.001" horiz-adv-x="798" 
d="M235 562l104 171h116l103 -171h-105l-56 99l-56 -99h-106zM675 500h125l-177 -509h-120c-30 95 -75 234 -104 339c-29 -105 -74 -244 -104 -339h-120l-177 509h126l51 -161c24 -75 49 -161 64 -216c24 83 81 277 111 377h98c33 -115 84 -275 111 -377
c15 50 41 144 64 216z" />
    <glyph glyph-name="wdieresis" unicode="&#x1e85;" horiz-adv-x="778" 
d="M424 495l60 -171c19 -54 37 -111 53 -160c18 44 38 109 58 162l63 174h127l-209 -509h-75l-112 307l-112 -307h-75l-209 509h128c40 -114 84 -234 119 -336c31 88 80 231 114 331h70zM215 644c0 42 28 69 71 69c42 0 71 -27 71 -69c0 -41 -29 -68 -71 -68
c-43 0 -71 27 -71 68zM423 644c0 42 27 69 70 69s71 -27 71 -69c0 -41 -28 -68 -71 -68s-70 27 -70 68z" />
    <glyph glyph-name="wdieresis.001" horiz-adv-x="798" 
d="M224 644c0 42 28 69 71 69c42 0 70 -27 70 -69c0 -41 -28 -68 -70 -68c-43 0 -71 27 -71 68zM431 644c0 42 28 69 70 69c43 0 71 -27 71 -69c0 -41 -28 -68 -71 -68c-42 0 -70 27 -70 68zM675 500h125l-177 -509h-120c-30 95 -75 234 -104 339
c-29 -105 -74 -244 -104 -339h-120l-177 509h126l51 -161c24 -75 49 -161 64 -216c24 83 81 277 111 377h98c33 -115 84 -275 111 -377c15 50 41 144 64 216z" />
    <glyph glyph-name="wgrave" unicode="&#x1e81;" horiz-adv-x="778" 
d="M424 495l60 -171c19 -54 37 -111 53 -160c18 44 38 109 58 162l63 174h127l-209 -509h-75l-112 307l-112 -307h-75l-209 509h128c40 -114 84 -234 119 -336c31 88 80 231 114 331h70zM349 733l89 -171h-107l-138 171h156z" />
    <glyph glyph-name="wgrave.001" horiz-adv-x="798" 
d="M359 733l89 -171h-107l-138 171h156zM675 500h125l-177 -509h-120c-30 95 -75 234 -104 339c-29 -105 -74 -244 -104 -339h-120l-177 509h126l51 -161c24 -75 49 -161 64 -216c24 83 81 277 111 377h98c33 -115 84 -275 111 -377c15 50 41 144 64 216z" />
    <glyph glyph-name="x" unicode="x" horiz-adv-x="530" 
d="M509 500l-171 -241l180 -259h-135l-118 171l-116 -171h-136l176 249l-170 251h137l106 -168l107 168h140z" />
    <glyph glyph-name="x.swsh_minus" horiz-adv-x="527" 
d="M509 500l-144 -205l-35 -48c133 -221 271 -393 489 -393c54 0 111 8 144 20v-110c-36 -14 -93 -23 -148 -23c-248 0 -411 169 -562 412l-104 -153h-136l168 238l-161 262h137l99 -177l113 177h140z" />
    <glyph glyph-name="y" unicode="y" horiz-adv-x="534" 
d="M6 -223v105c10 -3 30 -8 57 -8c72 0 109 55 142 129l-207 497h133l64 -177c25 -67 50 -135 72 -202c18 42 53 152 72 202l63 177h133l-195 -487c-57 -142 -119 -222 -217 -241c-21 -3 -41 -4 -61 -3c-24 0 -46 4 -56 8z" />
    <glyph glyph-name="y.alt" horiz-adv-x="533" 
d="M247 -220h-123l85 217l-211 503h133l61 -171c25 -68 52 -139 75 -208c21 56 52 149 74 208l61 171h133z" />
    <glyph glyph-name="y.alt.02" horiz-adv-x="522" 
d="M400 500h129l-207 -471v-249h-122v249l-208 471h129l73 -176c23 -56 49 -127 66 -174c18 42 46 121 68 174z" />
    <glyph glyph-name="yacute" unicode="&#xfd;" horiz-adv-x="533" 
d="M6 -223v105c10 -3 30 -8 57 -8c72 0 109 55 142 129l-207 497h133l64 -177c25 -67 50 -135 72 -202c18 42 53 152 72 202l63 177h133l-195 -487c-57 -142 -119 -222 -217 -241c-21 -3 -41 -4 -61 -3c-24 0 -46 4 -56 8zM206 562l89 171h156l-136 -171h-109z" />
    <glyph glyph-name="yacute.alt" horiz-adv-x="533" 
d="M247 -220h-123l85 217l-211 503h133l61 -171c25 -68 52 -139 75 -208c21 56 52 149 74 208l61 171h133zM206 562l89 171h156l-136 -171h-109z" />
    <glyph glyph-name="ycircumflex" unicode="&#x177;" horiz-adv-x="533" 
d="M6 -223v105c10 -3 30 -8 57 -8c72 0 109 55 142 129l-207 497h133l64 -177c25 -67 50 -135 72 -202c18 42 53 152 72 202l63 177h133l-195 -487c-57 -142 -119 -222 -217 -241c-21 -3 -41 -4 -61 -3c-24 0 -46 4 -56 8zM105 562l104 171h117l102 -171h-105l-56 99
l-56 -99h-106z" />
    <glyph glyph-name="ycircumflex.alt" horiz-adv-x="533" 
d="M247 -220h-123l85 217l-211 503h133l61 -171c25 -68 52 -139 75 -208c21 56 52 149 74 208l61 171h133zM105 562l104 171h117l102 -171h-105l-56 99l-56 -99h-106z" />
    <glyph glyph-name="ydieresis" unicode="&#xff;" horiz-adv-x="533" 
d="M6 -223v105c10 -3 30 -8 57 -8c72 0 109 55 142 129l-207 497h133l64 -177c25 -67 50 -135 72 -202c18 42 53 152 72 202l63 177h133l-195 -487c-57 -142 -119 -222 -217 -241c-21 -3 -41 -4 -61 -3c-24 0 -46 4 -56 8zM92 644c0 42 28 69 71 69c42 0 71 -27 71 -69
c0 -41 -29 -68 -71 -68c-43 0 -71 27 -71 68zM300 644c0 42 27 69 70 69s71 -27 71 -69c0 -41 -28 -68 -71 -68s-70 27 -70 68z" />
    <glyph glyph-name="ydieresis.alt" horiz-adv-x="533" 
d="M247 -220h-123l85 217l-211 503h133l61 -171c25 -68 52 -139 75 -208c21 56 52 149 74 208l61 171h133zM92 644c0 42 28 69 71 69s71 -27 71 -69c0 -41 -28 -68 -71 -68s-71 27 -71 68zM300 644c0 42 28 69 70 69c43 0 71 -27 71 -69c0 -41 -28 -68 -71 -68
c-42 0 -70 27 -70 68z" />
    <glyph glyph-name="yen" unicode="&#xa5;" horiz-adv-x="709" 
d="M40 720h141l172 -318l173 318h141l-138 -241h108v-81h-155l-43 -76h167v-81h-190v-241h-126v241h-190v81h167l-43 76h-154v81h108z" />
    <glyph glyph-name="ygrave" unicode="&#x1ef3;" horiz-adv-x="533" 
d="M6 -223v105c10 -3 30 -8 57 -8c72 0 109 55 142 129l-207 497h133l64 -177c25 -67 50 -135 72 -202c18 42 53 152 72 202l63 177h133l-195 -487c-57 -142 -119 -222 -217 -241c-21 -3 -41 -4 -61 -3c-24 0 -46 4 -56 8zM233 733l89 -171h-107l-138 171h156z" />
    <glyph glyph-name="ygrave.alt" horiz-adv-x="533" 
d="M247 -220h-123l85 217l-211 503h133l61 -171c25 -68 52 -139 75 -208c21 56 52 149 74 208l61 171h133zM237 733l89 -171h-107l-138 171h156z" />
    <glyph glyph-name="z" unicode="z" horiz-adv-x="478" 
d="M450 98v-98h-429l247 402h-227v98h409l-247 -402h247z" />
    <glyph glyph-name="z.001" horiz-adv-x="461" 
d="M439 100v-100h-399v92l249 308h-241v100h373v-92l-249 -308h267z" />
    <glyph glyph-name="z.swsh_minus" horiz-adv-x="472" 
d="M135 -4h-116l261 406h-234v98h412l-230 -358c20 -4 45 -16 69 -39c159 -146 301 -249 477 -249c80 0 161 20 207 45v-112c-40 -25 -118 -46 -203 -46c-198 0 -356 93 -532 264c-25 24 -49 47 -76 45z" />
    <glyph glyph-name="z.swsh_minus.001" horiz-adv-x="470" 
d="M135 -4h-117l281 406h-253v98h382v-92l-194 -266c21 -5 46 -17 70 -39c159 -147 294 -249 470 -249c80 0 161 20 207 45v-112c-40 -25 -118 -46 -203 -46c-198 0 -351 93 -527 264c-25 24 -50 47 -77 45z" />
    <glyph glyph-name="zacute" unicode="&#x17a;" horiz-adv-x="478" 
d="M450 98v-98h-429l247 402h-227v98h409l-247 -402h247zM180 562l89 171h156l-136 -171h-109z" />
    <glyph glyph-name="zacute.001" horiz-adv-x="464" 
d="M439 100v-100h-399v92l249 308h-241v100h373v-92l-249 -308h267zM166 562l89 171h156l-137 -171h-108z" />
    <glyph glyph-name="zacute.swsh_minus" horiz-adv-x="475" 
d="M135 -4h-116l261 406h-234v98h412l-230 -358c20 -4 45 -16 69 -39c159 -146 301 -249 477 -249c80 0 161 20 207 45v-112c-40 -25 -118 -46 -203 -46c-198 0 -356 93 -532 264c-25 24 -49 47 -76 45zM184 562l89 171h156l-136 -171h-109z" />
    <glyph glyph-name="zacute.swsh_minus.001" horiz-adv-x="475" 
d="M135 -4h-117l281 406h-253v98h382v-92l-194 -266c21 -5 46 -17 70 -39c159 -147 294 -249 470 -249c80 0 161 20 207 45v-112c-40 -25 -118 -46 -203 -46c-198 0 -351 93 -527 264c-25 24 -50 47 -77 45zM179 562l89 171h156l-137 -171h-108z" />
    <glyph glyph-name="zcaron" unicode="&#x17e;" horiz-adv-x="478" 
d="M450 98v-98h-429l247 402h-227v98h409l-247 -402h247zM404 733l-102 -171h-117l-104 171h106l56 -99l56 99h105z" />
    <glyph glyph-name="zcaron.001" horiz-adv-x="461" 
d="M395 733l-103 -171h-117l-103 171h105l56 -99l56 99h106zM439 100v-100h-399v92l249 308h-241v100h373v-92l-249 -308h267z" />
    <glyph glyph-name="zcaron.swsh_minus" horiz-adv-x="475" 
d="M135 -4h-116l261 406h-234v98h412l-230 -358c20 -4 45 -16 69 -39c159 -146 301 -249 477 -249c80 0 161 20 207 45v-112c-40 -25 -118 -46 -203 -46c-198 0 -356 93 -532 264c-25 24 -49 47 -76 45zM407 733l-103 -171h-116l-104 171h106l56 -99l56 99h105z" />
    <glyph glyph-name="zcaron.swsh_minus.001" horiz-adv-x="475" 
d="M135 -4h-117l281 406h-253v98h382v-92l-194 -266c21 -5 46 -17 70 -39c159 -147 294 -249 470 -249c80 0 161 20 207 45v-112c-40 -25 -118 -46 -203 -46c-198 0 -351 93 -527 264c-25 24 -50 47 -77 45zM398 733l-103 -171h-116l-104 171h106l56 -99l56 99h105z" />
    <glyph glyph-name="zdotaccent" unicode="&#x17c;" horiz-adv-x="478" 
d="M450 98v-98h-429l247 402h-227v98h409l-247 -402h247zM171 644c0 42 28 69 71 69c42 0 71 -27 71 -69c0 -41 -29 -68 -71 -68c-43 0 -71 27 -71 68z" />
    <glyph glyph-name="zdotaccent.001" horiz-adv-x="461" 
d="M161 644c0 42 27 69 70 69s71 -27 71 -69c0 -41 -28 -68 -71 -68s-70 27 -70 68zM439 100v-100h-399v92l249 308h-241v100h373v-92l-249 -308h267z" />
    <glyph glyph-name="zdotaccent.swsh_minus" horiz-adv-x="475" 
d="M135 -4h-116l261 406h-234v98h412l-230 -358c20 -4 45 -16 69 -39c159 -146 301 -249 477 -249c80 0 161 20 207 45v-112c-40 -25 -118 -46 -203 -46c-198 0 -356 93 -532 264c-25 24 -49 47 -76 45zM174 644c0 42 28 69 71 69c42 0 70 -27 70 -69c0 -41 -28 -68 -70 -68
c-43 0 -71 27 -71 68z" />
    <glyph glyph-name="zdotaccent.swsh_minus.001" horiz-adv-x="475" 
d="M135 -4h-117l281 406h-253v98h382v-92l-194 -266c21 -5 46 -17 70 -39c159 -147 294 -249 470 -249c80 0 161 20 207 45v-112c-40 -25 -118 -46 -203 -46c-198 0 -351 93 -527 264c-25 24 -50 47 -77 45zM163 644c0 42 28 69 71 69c42 0 71 -27 71 -69
c0 -41 -29 -68 -71 -68c-43 0 -71 27 -71 68z" />
    <glyph glyph-name="zero" unicode="0" horiz-adv-x="653" 
d="M43 360c0 210 110 373 283 373c174 0 283 -163 283 -373s-109 -373 -283 -373c-173 0 -283 163 -283 373zM170 360c0 -153 59 -257 156 -257c98 0 157 104 157 257s-59 257 -157 257c-97 0 -156 -104 -156 -257z" />
    <glyph glyph-name="zero.slash" horiz-adv-x="657" 
d="M54 360c0 210 110 373 283 373c50 0 95 -14 134 -39l61 112h80l-87 -158c61 -68 95 -171 95 -288c0 -210 -109 -373 -283 -373c-56 0 -106 17 -147 47l-65 -120h-80l93 170c-54 68 -84 165 -84 276zM494 360c0 67 -12 126 -33 169l-213 -389c24 -24 54 -37 89 -37
c98 0 157 104 157 257zM181 360c0 -59 9 -110 25 -151l208 381c-22 17 -48 27 -77 27c-97 0 -156 -104 -156 -257z" />
    <glyph glyph-name="zerosuperior" unicode="&#x2070;" horiz-adv-x="403" 
d="M30 529c0 114 67 205 171 205c105 0 172 -91 172 -205c0 -115 -67 -204 -172 -204c-104 0 -171 89 -171 204zM120 529c0 -73 33 -121 81 -121c50 0 82 48 82 121s-32 122 -82 122c-48 0 -81 -49 -81 -122z" />
    </font>
</defs>
</svg>
