<?xml version="1.0" standalone="no"?>
<!DOCTYPE svg PUBLIC "-//W3C//DTD SVG 1.1//EN" "http://www.w3.org/Graphics/SVG/1.1/DTD/svg11.dtd" >
<svg xmlns="http://www.w3.org/2000/svg" xmlns:xlink="http://www.w3.org/1999/xlink" version="1.1">
<metadata></metadata>
<defs>
<font id="brother_1816regular" horiz-adv-x="1363" >
<font-face units-per-em="2048" ascent="1638" descent="-410" />
<missing-glyph horiz-adv-x="540" />
<glyph unicode="&#xd;" horiz-adv-x="540" />
<glyph unicode=" "  horiz-adv-x="540" />
<glyph unicode="&#x09;" horiz-adv-x="540" />
<glyph unicode="&#xa0;" horiz-adv-x="540" />
<glyph unicode="!" horiz-adv-x="614" d="M188 90q0 53 32.5 85t86.5 32q53 0 86 -32.5t33 -84.5q0 -51 -33 -83t-86 -32q-54 0 -86.5 32t-32.5 83zM211 1475h192l-12 -1080h-168z" />
<glyph unicode="&#x22;" horiz-adv-x="720" d="M92 895v580h178v-580h-178zM451 895v580h178v-580h-178z" />
<glyph unicode="#" horiz-adv-x="1515" d="M82 403l18 150h299l50 367h-295l18 149h297l55 406h162l-55 -406h346l55 406h160l-53 -406h295l-23 -149h-295l-49 -367h295l-21 -150h-294l-56 -403h-162l56 403h-344l-56 -403h-161l55 403h-297zM561 553h344l49 367h-344z" />
<glyph unicode="$" horiz-adv-x="1210" d="M147 1104q0 171 120.5 275t316.5 118l8 248h96l-10 -248q176 -8 328 -74v-186q-64 34 -154.5 58.5t-179.5 27.5l-17 -506l9 -2q220 -79 319.5 -178t99.5 -260q0 -179 -122 -284t-336 -116l-9 -247h-94l8 247q-205 8 -376 84v195q188 -96 383 -104l18 516l-2 -6 q-213 75 -309.5 177t-96.5 265zM340 1110q0 -80 49 -140.5t172 -115.5l17 465q-109 -14 -173.5 -69.5t-64.5 -139.5zM631 154q118 12 189 66t71 142q0 90 -54.5 150t-189.5 115z" />
<glyph unicode="%" horiz-adv-x="1722" d="M109 1141q0 150 100 254t246 104t246 -104t100 -254q0 -148 -100 -252.5t-246 -104.5t-246 104.5t-100 252.5zM246 1141q0 -99 60.5 -165.5t148.5 -66.5t149.5 66.5t61.5 165.5t-61.5 166t-149.5 67t-148.5 -67t-60.5 -166zM266 0l1051 1475h139l-1050 -1475h-140z M922 332q0 150 100 254t246 104t246 -104t100 -254q0 -148 -100 -252.5t-246 -104.5t-246 104.5t-100 252.5zM1059 332q0 -99 60.5 -165.5t148.5 -66.5t149.5 66.5t61.5 165.5t-61.5 166t-149.5 67t-148.5 -67t-60.5 -166z" />
<glyph unicode="&#x26;" horiz-adv-x="1347" d="M61 371q0 60 19.5 114.5t49 95t74 79t83.5 64t88 52.5q-90 96 -134 178t-44 189q0 146 107 251t271 105q155 0 266 -99.5t111 -236.5q0 -66 -22 -126.5t-55 -104t-79 -82.5t-85 -63t-82 -44l354 -364q88 166 72 377h170q20 -290 -117 -508l240 -248h-224l-127 133 q-169 -158 -426 -158q-232 0 -371 113t-139 283zM246 387q0 -112 91 -183t236 -71q179 0 306 121l-402 416q-231 -118 -231 -283zM367 1147q0 -80 36.5 -144t118.5 -151q262 131 262 295q0 81 -61 137.5t-148 56.5t-147.5 -56.5t-60.5 -137.5z" />
<glyph unicode="'" horiz-adv-x="362" d="M92 895v580h178v-580h-178z" />
<glyph unicode="(" horiz-adv-x="618" d="M143 737q0 244 59 469.5t167 405.5h198q-110 -186 -170.5 -414.5t-60.5 -460.5t60.5 -460t170.5 -414h-198q-108 180 -167 405t-59 469z" />
<glyph unicode=")" horiz-adv-x="618" d="M51 -137q111 186 171.5 414.5t60.5 459.5t-61 460t-171 415h199q108 -180 166.5 -405.5t58.5 -469.5t-58.5 -469t-166.5 -405h-199z" />
<glyph unicode="*" horiz-adv-x="878" d="M82 1188l49 147l242 -92l-13 256h158l-12 -256l242 92l49 -147l-254 -70l162 -207l-117 -84l-150 209l-147 -209l-117 84l162 207z" />
<glyph unicode="+" horiz-adv-x="1349" d="M188 659v156h406v410h160v-410h407v-156h-407v-409h-160v409h-406z" />
<glyph unicode="," horiz-adv-x="417" d="M10 -307l125 426h189l-166 -426h-148z" />
<glyph unicode="-" horiz-adv-x="794" d="M92 500v157h610v-157h-610z" />
<glyph unicode="." horiz-adv-x="421" d="M92 90q0 53 32.5 85t86.5 32q53 0 86 -32.5t33 -84.5q0 -51 -33 -83t-86 -32q-54 0 -86.5 32t-32.5 83z" />
<glyph unicode="/" horiz-adv-x="929" d="M-10 -137l747 1749h203l-747 -1749h-203z" />
<glyph unicode="0" horiz-adv-x="1323" d="M102 737q0 217 68 389.5t196.5 272.5t295.5 100t295.5 -100t196 -272.5t67.5 -389.5t-67.5 -389.5t-196 -272.5t-295.5 -100t-295.5 100t-196.5 272.5t-68 389.5zM301 737q0 -260 98 -419.5t263 -159.5q164 0 262 159.5t98 419.5t-98 420t-262 160q-165 0 -263 -160 t-98 -420z" />
<glyph unicode="1" horiz-adv-x="696" d="M90 1305v170h381v-1475h-197v1305h-184z" />
<glyph unicode="2" horiz-adv-x="1048" d="M10 0q312 351 405 466q195 242 249 400q28 83 28 162q0 130 -79 209.5t-216 79.5q-171 0 -313 -103v189q141 96 332 96q216 0 347.5 -130t131.5 -337q0 -83 -28.5 -171.5t-62 -155t-112 -168.5t-125.5 -156.5t-154 -174.5q-21 -24 -32 -36h586v-170h-957z" />
<glyph unicode="3" horiz-adv-x="980" d="M23 57v181q50 -25 87.5 -40t110 -30.5t152.5 -15.5q136 0 219.5 69t83.5 178q0 132 -101.5 206.5t-283.5 74.5h-43v156h59q149 0 246.5 69.5t97.5 181.5q0 111 -79 173.5t-212 62.5q-159 0 -311 -76v180q61 30 151.5 51t184.5 21q215 0 343 -107.5t128 -283.5 q0 -124 -75 -216t-193 -132q127 -37 210 -136.5t83 -242.5q0 -181 -138.5 -293.5t-357.5 -112.5q-202 0 -362 82z" />
<glyph unicode="4" horiz-adv-x="1140" d="M41 354l508 1121h196l-428 -953h424v385h174v-385h205v-168h-205v-354h-176v354h-698z" />
<glyph unicode="5" horiz-adv-x="1028" d="M92 72v180q139 -100 332 -100q150 0 245 83.5t95 223.5q0 138 -98 218.5t-248 80.5q-160 0 -291 -60l31 777h719v-170h-545l-17 -406q78 27 170 27q206 0 344 -134.5t138 -349.5q0 -214 -146.5 -340.5t-378.5 -126.5q-207 0 -350 97z" />
<glyph unicode="6" horiz-adv-x="1193" d="M102 475q0 129 57.5 280.5t147.5 285.5t193.5 247t201.5 187h261q-181 -134 -325 -296.5t-230 -306.5q87 78 219 78q139 0 251 -65.5t173 -176t61 -241.5q0 -212 -145 -352t-363 -140q-217 0 -359.5 140t-142.5 360zM281 473q0 -147 90 -239.5t233 -92.5q142 0 233 92 t91 234q0 140 -91 233t-233 93q-141 0 -232 -92t-91 -228z" />
<glyph unicode="7" horiz-adv-x="1001" d="M10 1305v170h951l-637 -1475h-209l575 1305h-680z" />
<glyph unicode="8" horiz-adv-x="1107" d="M82 352q0 73 27.5 138.5t73.5 114.5t98.5 85t111.5 60q-51 21 -97.5 54.5t-88.5 80.5t-67 110t-25 133q0 160 125 266.5t315 106.5q189 0 314.5 -106.5t125.5 -266.5q0 -70 -25.5 -133t-67.5 -110t-88.5 -80.5t-96.5 -54.5q58 -25 109.5 -61t98 -84.5t74 -114 t27.5 -138.5q0 -163 -133 -271t-338 -108t-339 108t-134 271zM270 373q0 -98 81.5 -164t203.5 -66q121 0 202 66t81 164q0 94 -79.5 174.5t-203.5 126.5q-125 -47 -205 -127t-80 -174zM303 1112q0 -178 252 -283q252 107 252 283q0 94 -72.5 157.5t-179.5 63.5 q-108 0 -180 -63.5t-72 -157.5z" />
<glyph unicode="9" horiz-adv-x="1130" d="M61 1008q0 212 145 352.5t363 140.5q216 0 358 -141.5t142 -360.5q0 -130 -57 -281.5t-147 -285t-193 -246t-201 -186.5h-260q181 134 325 296t230 306q-87 -78 -219 -78q-139 0 -251 66t-173.5 176.5t-61.5 241.5zM246 1008q0 -141 90.5 -233.5t232.5 -92.5 q141 0 232.5 91.5t91.5 227.5q0 148 -90.5 241t-233.5 93q-142 0 -232.5 -92.5t-90.5 -234.5z" />
<glyph unicode=":" horiz-adv-x="421" d="M92 90q0 53 32.5 85t86.5 32q53 0 86 -32.5t33 -84.5q0 -51 -33 -83t-86 -32q-54 0 -86.5 32t-32.5 83zM92 932q0 53 32.5 85t86.5 32q53 0 86 -32.5t33 -84.5q0 -51 -33 -83t-86 -32q-54 0 -86.5 32t-32.5 83z" />
<glyph unicode=";" horiz-adv-x="421" d="M10 -307l125 426h189l-166 -426h-148zM92 932q0 53 32.5 85t86.5 32q53 0 86 -32.5t33 -84.5q0 -51 -33 -83t-86 -32q-54 0 -86.5 32t-32.5 83z" />
<glyph unicode="&#x3c;" horiz-adv-x="1193" d="M117 737l884 543v-203l-569 -340l569 -340v-202z" />
<glyph unicode="=" horiz-adv-x="1288" d="M188 465v158h912v-158h-912zM188 852v158h912v-158h-912z" />
<glyph unicode="&#x3e;" horiz-adv-x="1193" d="M193 195v202l569 340l-569 340v203l884 -543z" />
<glyph unicode="?" horiz-adv-x="925" d="M72 1239v178q52 32 133.5 57t169.5 25q186 0 302 -102t116 -267q0 -73 -20 -135t-52.5 -106t-71.5 -84t-78.5 -76t-72 -73t-52.5 -85t-20 -102v-76h-172v94q0 68 19 126t50 99.5t68 78.5t74 71.5t68 70t50 81.5t19 98q0 96 -63.5 155.5t-173.5 59.5q-154 0 -293 -88z M223 90q0 53 32.5 85t86.5 32q53 0 86 -32.5t33 -84.5q0 -51 -33 -83t-86 -32q-54 0 -86.5 32t-32.5 83z" />
<glyph unicode="@" horiz-adv-x="1787" d="M160 514q0 175 63.5 326.5t177.5 260.5t280 171.5t363 62.5q243 0 379 -109.5t136 -299.5v-633q-265 -129 -486 -129q-174 0 -287.5 96t-113.5 256q0 138 90 231t249 125.5t359 -0.5v54q0 116 -88.5 179.5t-247.5 63.5q-203 0 -359.5 -82.5t-241.5 -228.5t-85 -330 q0 -145 53 -272t146.5 -217t225.5 -141.5t284 -51.5q140 0 288.5 34t272.5 93v-166q-108 -56 -256.5 -90t-306.5 -34q-255 0 -459.5 106t-320 296t-115.5 429zM856 530q0 -98 62 -157.5t176 -59.5q126 0 272 66v371q-233 40 -371.5 -23t-138.5 -197z" />
<glyph unicode="A" d="M0 0l680 1499h4l680 -1499h-209l-145 328h-658l-143 -328h-209zM424 489h514q-159 359 -256 611q-102 -260 -258 -611z" />
<glyph unicode="B" horiz-adv-x="1292" d="M195 0v1475h452q220 0 351.5 -108.5t131.5 -295.5q0 -96 -49.5 -177t-134.5 -120q109 -40 176.5 -138.5t67.5 -219.5q0 -187 -135 -301.5t-355 -114.5h-505zM385 160h322q127 0 204.5 72.5t77.5 191.5q0 118 -67 188t-177 70h-360v-522zM385 836h391q70 19 112 78t42 147 q0 115 -71.5 184.5t-196.5 69.5h-277v-479z" />
<glyph unicode="C" horiz-adv-x="1368" d="M82 737q0 216 100.5 390.5t278 273t397.5 98.5q145 0 261.5 -35.5t176.5 -70.5v-187q-217 111 -438 111q-251 0 -414 -164.5t-163 -415.5t163 -415t414 -164q237 0 449 108v-186q-59 -35 -178 -70t-271 -35q-220 0 -397.5 98.5t-278 273t-100.5 390.5z" />
<glyph unicode="D" horiz-adv-x="1488" d="M195 0v1475h423q234 0 413.5 -92t277.5 -259.5t98 -386.5q0 -164 -56.5 -301.5t-157.5 -233t-246.5 -149t-319.5 -53.5h-432zM391 166h234q261 0 421 157t160 414t-162.5 414.5t-427.5 157.5h-225v-1143z" />
<glyph unicode="E" horiz-adv-x="1212" d="M195 0v1475h905v-166h-709v-480h598v-165h-598v-498h739v-166h-935z" />
<glyph unicode="F" horiz-adv-x="1126" d="M195 0v1475h860v-166h-664v-490h559v-166h-559v-653h-196z" />
<glyph unicode="G" horiz-adv-x="1443" d="M82 737q0 216 101.5 390.5t281.5 273t403 98.5q101 0 202 -22t151 -42t86 -40v-189q-217 111 -443 111q-260 0 -421.5 -163.5t-161.5 -416.5q0 -166 73.5 -298.5t205.5 -207.5t298 -75q78 0 160 15t131 38v444h192v-565q-93 -51 -223.5 -82t-259.5 -31 q-220 0 -397.5 98.5t-278 273t-100.5 390.5z" />
<glyph unicode="H" horiz-adv-x="1513" d="M195 0v1475h196v-646h731v646h197v-1475h-197v664h-731v-664h-196z" />
<glyph unicode="I" horiz-adv-x="585" d="M195 0v1475h196v-1475h-196z" />
<glyph unicode="J" horiz-adv-x="765" d="M20 16v179q71 -43 173 -43q89 0 135.5 49t46.5 143v1131h196v-1096q0 -200 -86.5 -302t-271.5 -102q-123 0 -193 41z" />
<glyph unicode="K" horiz-adv-x="1366" d="M195 0v1475h196v-789l703 789h243l-542 -592l551 -883h-230l-454 745l-271 -292v-453h-196z" />
<glyph unicode="L" horiz-adv-x="1067" d="M195 0v1475h196v-1309h635v-166h-831z" />
<glyph unicode="M" horiz-adv-x="1730" d="M195 0v1499h2l667 -817l670 817h2v-1499h-190v987l-39 -47l-443 -534l-440 534l-39 47v-987h-190z" />
<glyph unicode="N" horiz-adv-x="1550" d="M195 0v1499h2l915 -993l47 -51v1020h197v-1500h-2l-916 994l-47 51v-1020h-196z" />
<glyph unicode="O" horiz-adv-x="1675" d="M82 737q0 210 99 385t273 276t384 101q156 0 295.5 -59t240.5 -159.5t160 -242.5t59 -301t-58 -300.5t-158.5 -243t-240.5 -160t-298 -58.5t-298.5 58.5t-240.5 160t-158.5 243t-58.5 300.5zM281 737q0 -165 72.5 -297.5t199.5 -207t285 -74.5q239 0 397 164.5t158 414.5 t-158 415t-397 165q-157 0 -284.5 -75t-200 -207.5t-72.5 -297.5z" />
<glyph unicode="P" horiz-adv-x="1220" d="M195 0v1475h452q235 0 368.5 -119.5t133.5 -331.5t-133.5 -331.5t-368.5 -119.5h-256v-573h-196zM391 739h266q136 0 213.5 75.5t77.5 209.5t-81 209.5t-226 75.5h-250v-570z" />
<glyph unicode="Q" horiz-adv-x="1736" d="M113 737q0 157 58 298t158.5 243t240.5 161.5t298 59.5q156 0 296 -59t241 -159.5t160 -242.5t59 -301q0 -283 -169.5 -489t-436.5 -258q130 -111 300 -178.5t322 -67.5q124 0 211 23v-177q-81 -24 -227 -24q-221 0 -451 114t-385 300q-144 14 -269 77.5t-214.5 162.5 t-140.5 233t-51 284zM311 737q0 -165 72.5 -297.5t199.5 -207t285 -74.5q239 0 397 164.5t158 414.5t-158 415t-397 165q-157 0 -284.5 -75t-200 -207.5t-72.5 -297.5z" />
<glyph unicode="R" horiz-adv-x="1304" d="M195 0v1475h477q243 0 380.5 -119.5t137.5 -331.5q0 -157 -86.5 -265.5t-214.5 -148.5l334 -610h-219l-306 578h-307v-578h-196zM391 739h291q146 0 228.5 75.5t82.5 209.5t-86.5 209.5t-240.5 75.5h-275v-570z" />
<glyph unicode="S" horiz-adv-x="1089" d="M82 1104q0 184 137 289.5t354 105.5q102 0 199.5 -22t167.5 -54v-186q-68 35 -165 60.5t-191 25.5q-138 0 -224 -58t-86 -155q0 -95 71 -163t253 -132q221 -79 320.5 -178.5t99.5 -259.5q0 -188 -135.5 -295t-368.5 -107q-230 0 -426 86v195q212 -104 416 -104 q142 0 231.5 55.5t89.5 154.5q0 103 -71 168t-256 129q-218 75 -317 177.5t-99 267.5z" />
<glyph unicode="T" horiz-adv-x="1136" d="M20 1309v166h1096v-166h-450v-1309h-197v1309h-449z" />
<glyph unicode="U" horiz-adv-x="1464" d="M164 516v959h196v-945q0 -174 99 -273t272 -99q175 0 274 98.5t99 273.5v945h196v-959q0 -254 -151 -397.5t-418 -143.5q-266 0 -416.5 144t-150.5 397z" />
<glyph unicode="V" horiz-adv-x="1343" d="M-10 1475h211l202 -461q32 -73 90.5 -204t99.5 -225.5t79 -189.5q38 95 77.5 187.5t100.5 229.5t90 202l203 461h211l-680 -1500h-4z" />
<glyph unicode="W" horiz-adv-x="2043" d="M20 1475h213l236 -617q45 -119 143 -407q25 69 154 387l250 616h4l250 -616q121 -297 153 -387q89 263 144 407l235 617h213l-592 -1500h-4l-317 801q-62 153 -84 221q-16 -43 -84 -221l-318 -801h-4z" />
<glyph unicode="X" horiz-adv-x="1396" d="M72 0l518 748l-504 727h225l387 -576l389 576h226l-504 -727l518 -748h-227l-402 594l-401 -594h-225z" />
<glyph unicode="Y" horiz-adv-x="1241" d="M-10 1475h219l412 -701l411 701h219l-532 -889v-586h-197v586z" />
<glyph unicode="Z" horiz-adv-x="1251" d="M72 0l794 1309h-743v166h1046l-794 -1309h794v-166h-1097z" />
<glyph unicode="[" horiz-adv-x="677" d="M215 -137v1749h340v-166h-145v-1417h145v-166h-340z" />
<glyph unicode="\" horiz-adv-x="929" d="M-10 1612h203l747 -1749h-203z" />
<glyph unicode="]" horiz-adv-x="677" d="M123 29h145v1417h-145v166h340v-1749h-340v166z" />
<glyph unicode="^" horiz-adv-x="1116" d="M102 737l457 762l455 -760h-203l-252 445l-256 -447h-201z" />
<glyph unicode="_" horiz-adv-x="1245" d="M92 0h1061v-158h-1061v158z" />
<glyph unicode="`" horiz-adv-x="624" d="M92 1499h248l192 -346h-172z" />
<glyph unicode="a" horiz-adv-x="1095" d="M90 276q0 190 175 275q115 56 293 56q92 0 200 -15v51q0 240 -269 240q-96 0 -187.5 -26.5t-145.5 -59.5v176q53 29 149.5 52.5t210.5 23.5q215 0 322.5 -101t107.5 -295v-653h-176l-2 121q-1 22 0.5 42.5t3.5 30.5l2 9h-4q-5 -13 -19 -35t-45.5 -57.5t-69.5 -64 t-97.5 -50t-124.5 -21.5q-144 0 -234 81t-90 220zM279 283q0 -68 45.5 -111t121.5 -43q126 0 217 102.5t91 227.5q-102 16 -181 16q-107 0 -175 -29q-118 -51 -119 -163z" />
<glyph unicode="b" horiz-adv-x="1302" d="M186 0v1475h191v-529q0 -24 -1.5 -45t-3.5 -30l-1 -9h4q44 77 141 132t215 55q202 0 336.5 -149.5t134.5 -387.5q0 -236 -135.5 -386.5t-339.5 -150.5q-119 0 -219.5 65.5t-142.5 156.5h-5q7 -31 7 -76l-5 -121h-176zM379 512q0 -74 18.5 -136.5t50 -105t73 -72.5 t87 -43.5t92.5 -13.5q141 0 229.5 105t88.5 266q0 164 -88 267.5t-230 103.5q-47 0 -92.5 -13.5t-87 -43.5t-73 -72.5t-50 -105t-18.5 -136.5z" />
<glyph unicode="c" horiz-adv-x="1042" d="M100 512q0 233 150 385t385 152q167 0 315 -80v-181q-146 91 -305 91q-154 0 -252 -103t-98 -264q0 -162 97.5 -264.5t252.5 -102.5q164 0 311 91v-179q-152 -82 -321 -82q-235 0 -385 152t-150 385z" />
<glyph unicode="d" horiz-adv-x="1304" d="M100 512q0 238 134.5 387.5t336.5 149.5q118 0 215.5 -55t141.5 -132h4q-6 31 -6 84v529h190v-1475h-176l-4 121q0 20 1.5 39t2.5 28l2 9h-4q-42 -91 -143 -156.5t-220 -65.5q-204 0 -339.5 150.5t-135.5 386.5zM285 512q0 -161 88 -266t229 -105q60 0 116 22.5t102.5 66 t75 117t28.5 165.5t-28.5 165.5t-75 117t-102.5 66t-116 22.5q-142 0 -229.5 -103.5t-87.5 -267.5z" />
<glyph unicode="e" horiz-adv-x="1159" d="M100 512q0 231 144.5 384t357.5 153q109 0 198.5 -39t146.5 -105.5t87.5 -152t30.5 -181.5q0 -23 -2 -58t-2 -42h-762v-2q5 -151 100 -239.5t256 -88.5q102 0 203.5 27.5t167.5 69.5v-175q-67 -38 -167 -63t-216 -25q-242 0 -392.5 149.5t-150.5 387.5zM301 606h576v6 q-1 113 -73 194q-74 83 -204 83q-126 0 -206 -83t-93 -200z" />
<glyph unicode="f" horiz-adv-x="696" d="M63 868v156h158v115q0 164 99.5 262t271.5 98q77 0 125 -12v-166q-48 12 -107 12q-99 0 -155 -54.5t-56 -156.5v-98h273v-156h-266v-868h-191v868h-152z" />
<glyph unicode="g" horiz-adv-x="1095" d="M82 -172q0 89 81 158.5t202 93.5q-74 9 -116 44t-42 87q0 44 37.5 82.5t103.5 60.5q-111 40 -176.5 128.5t-65.5 203.5q0 159 119.5 261t296.5 102q89 0 162 -25h373v-143h-142q-12 0 -26 2t-23 4l-8 2l-12 2q90 -83 90 -205q0 -149 -106 -248t-269 -108h-2 q-70 -6 -118 -29.5t-48 -52.5q0 -37 52 -54.5t190 -33.5q204 -23 305.5 -91t101.5 -202q0 -146 -135 -231t-356 -85q-215 0 -342 72t-127 205zM266 -150q0 -79 78.5 -121t208.5 -42q137 0 218 46t81 122t-74.5 122t-238.5 46q-117 0 -195 -51t-78 -122zM285 682 q0 -96 66.5 -157.5t170.5 -61.5q107 0 173.5 61.5t66.5 157.5t-67 158.5t-173 62.5q-104 0 -170.5 -62.5t-66.5 -158.5z" />
<glyph unicode="h" horiz-adv-x="1261" d="M186 0v1475h189v-570q0 -27 -3 -62.5t-3 -39.5h2q18 39 49 78t77.5 79t114 64.5t144.5 24.5q183 0 266.5 -103.5t83.5 -302.5v-643h-191v604q0 60 -7 102.5t-26 83t-59.5 61.5t-101.5 21q-150 0 -247 -105t-97 -263v-504h-191z" />
<glyph unicode="i" horiz-adv-x="563" d="M162 1321q0 53 32.5 85t86.5 32q53 0 85.5 -32.5t32.5 -84.5q0 -51 -33 -83t-85 -32q-54 0 -86.5 32t-32.5 83zM186 0v1024h191v-1024h-191z" />
<glyph unicode="j" horiz-adv-x="563" d="M-72 -295q28 -8 70 -8q88 0 138 55t50 156v1116h191v-1143q0 -170 -89.5 -263t-252.5 -93q-72 0 -107 14v166zM162 1321q0 53 32.5 85t86.5 32q53 0 85.5 -32.5t32.5 -84.5q0 -51 -33 -83t-85 -32q-54 0 -86.5 32t-32.5 83z" />
<glyph unicode="k" horiz-adv-x="1153" d="M186 0v1475h191v-965l463 514h227l-371 -422l400 -602h-219l-324 496l-178 -193v-303h-189z" />
<glyph unicode="l" horiz-adv-x="634" d="M186 262v1213h191v-1174q0 -83 28 -119.5t91 -36.5q51 0 90 13v-164q-57 -19 -137 -19q-121 0 -192 69.5t-71 217.5z" />
<glyph unicode="m" horiz-adv-x="1916" d="M186 0v1024h179l4 -143q0 -60 -9 -78h5q42 108 144.5 177t229.5 69q115 0 199.5 -62t108.5 -172h2q50 100 146 167t210 67q186 0 272 -103.5t86 -302.5v-643h-190v606q0 47 -5 84.5t-18 72.5t-34.5 58t-55.5 37t-80 14q-79 0 -140 -34.5t-97 -92t-54 -126.5t-18 -144 v-475h-190v608q0 45 -4 80.5t-16 71t-32.5 59t-55 38.5t-81.5 15q-78 0 -139.5 -34t-99 -91t-57 -126.5t-19.5 -145.5v-475h-191z" />
<glyph unicode="n" horiz-adv-x="1261" d="M186 0v1024h179l4 -143q0 -60 -9 -78h5q16 38 48 78t80 79t117 64t146 25q183 0 266.5 -103.5t83.5 -302.5v-643h-191v604q0 60 -7 102.5t-26 83t-59.5 61.5t-101.5 21q-150 0 -247 -105t-97 -263v-504h-191z" />
<glyph unicode="o" horiz-adv-x="1255" d="M100 512q0 232 150 384.5t377 152.5q150 0 271 -69.5t189 -192t68 -275.5t-68 -275.5t-189 -192t-271 -69.5q-227 0 -377 152.5t-150 384.5zM285 512q0 -162 97 -266.5t245 -104.5q150 0 247 104.5t97 266.5t-97 266.5t-247 104.5q-148 0 -245 -104.5t-97 -266.5z" />
<glyph unicode="p" horiz-adv-x="1304" d="M188 -451v1475h177l4 -106q0 -20 -1.5 -39t-3.5 -28l-2 -9h5q42 84 142.5 145.5t219.5 61.5q204 0 339.5 -150.5t135.5 -386.5q0 -238 -134.5 -387.5t-336.5 -149.5q-118 0 -215 58.5t-141 142.5h-4q6 -31 6 -84v-543h-191zM381 512q0 -74 18.5 -136.5t50 -105t73 -72.5 t87 -43.5t92.5 -13.5q142 0 230 103.5t88 267.5q0 161 -88.5 266t-229.5 105q-47 0 -92.5 -13.5t-87 -43.5t-73 -72.5t-50 -105t-18.5 -136.5z" />
<glyph unicode="q" horiz-adv-x="1304" d="M100 512q0 236 135.5 386.5t339.5 150.5q119 0 220 -61.5t143 -145.5h4q-6 31 -6 76l4 106h176v-1475h-190v543q0 24 1.5 45t2.5 30l2 9h-4q-44 -83 -141.5 -142t-215.5 -59q-202 0 -336.5 149.5t-134.5 387.5zM285 512q0 -164 87.5 -267.5t229.5 -103.5q60 0 116 22.5 t102.5 66t75 117t28.5 165.5t-28.5 165.5t-75 117t-102.5 66t-116 22.5q-141 0 -229 -105t-88 -266z" />
<glyph unicode="r" horiz-adv-x="778" d="M172 0v1024h178l2 -143q1 -17 0 -35t-2 -28.5t0 -12.5h2q46 113 127.5 178.5t188.5 65.5q33 0 61 -7v-184q-24 6 -53 6q-95 0 -168.5 -64t-109.5 -158t-36 -196v-446h-190z" />
<glyph unicode="s" horiz-adv-x="901" d="M100 760q0 127 103.5 208t263.5 81q157 0 289 -62v-172q-137 72 -269 72q-93 0 -150.5 -33.5t-57.5 -99.5q0 -58 49 -94t161 -72q171 -57 247.5 -128.5t76.5 -195.5q0 -137 -102 -213t-271 -76q-191 0 -334 68v174q76 -37 166.5 -60.5t161.5 -23.5q87 0 145 32.5 t58 100.5q0 62 -51 97t-176 75q-153 49 -231.5 121.5t-78.5 200.5z" />
<glyph unicode="t" horiz-adv-x="761" d="M37 868v156h170v307h186v-307h309v-156h-309v-530q0 -195 152 -195q97 0 192 45v-165q-86 -48 -229 -48q-58 0 -109.5 16t-96.5 50.5t-71 96t-26 143.5v587h-168z" />
<glyph unicode="u" horiz-adv-x="1251" d="M156 381v643h190v-604q0 -60 7 -102.5t26.5 -83t60 -61.5t101.5 -21q145 0 239 105t94 263v504h191v-1024h-178l-4 143q0 19 2 37.5t4 29t2 11.5h-4q-16 -38 -47 -78t-78 -79t-114 -64t-142 -25q-183 0 -266.5 103.5t-83.5 302.5z" />
<glyph unicode="v" horiz-adv-x="1011" d="M-4 1024h203q236 -567 307 -748q71 181 307 748h203l-459 -1049h-102z" />
<glyph unicode="w" horiz-adv-x="1581" d="M-2 1024h203l278 -743l260 729h105l258 -729l280 743h201l-430 -1049h-104l-258 699l-259 -699h-104z" />
<glyph unicode="x" horiz-adv-x="1069" d="M47 0l371 516l-357 508h218l251 -377l254 377h222l-359 -496l377 -528h-215l-274 389l-273 -389h-215z" />
<glyph unicode="y" horiz-adv-x="1060" d="M-2 -299q46 -12 111 -12q59 0 107.5 23t87 70t67 99.5t61.5 130.5l-428 1012h211l143 -371q13 -35 77 -197.5t95 -250.5q19 43 175 448l141 371h211l-404 -977q-32 -78 -58.5 -135.5t-58.5 -114.5t-62.5 -97t-68.5 -75t-79 -56t-90.5 -32.5t-106.5 -11.5q-90 0 -131 18 v158z" />
<glyph unicode="z" horiz-adv-x="970" d="M51 0l547 864h-506v160h809l-547 -864h555v-160h-858z" />
<glyph unicode="{" horiz-adv-x="692" d="M92 664v147q75 6 118.5 63t43.5 150v254q0 157 84 245.5t233 88.5h70v-166h-43q-70 0 -109.5 -50t-39.5 -139v-253q0 -102 -43 -172t-119 -93v-4q76 -23 119 -92.5t43 -171.5v-254q0 -89 39 -138.5t110 -49.5h43v-166h-70q-149 0 -233 88.5t-84 245.5v254q0 93 -43.5 150 t-118.5 63z" />
<glyph unicode="|" horiz-adv-x="618" d="M215 -137v1749h188v-1749h-188z" />
<glyph unicode="}" horiz-adv-x="692" d="M51 29h43q71 0 110.5 49.5t39.5 138.5v254q0 102 43 171.5t119 92.5v4q-76 23 -119 93t-43 172v253q0 89 -39.5 139t-110.5 50h-43v166h70q149 0 233 -88.5t84 -245.5v-254q0 -93 43.5 -150t118.5 -63v-147q-75 -6 -118.5 -63t-43.5 -150v-254q0 -157 -84 -245.5 t-233 -88.5h-70v166z" />
<glyph unicode="~" horiz-adv-x="1099" d="M123 614v156q38 39 106 65.5t140 26.5q75 0 189 -45t181 -45t131 27.5t107 68.5v-153q-38 -41 -105.5 -67.5t-140.5 -26.5q-75 0 -189.5 45t-181.5 45q-66 0 -129.5 -28t-107.5 -69z" />
<glyph unicode="&#xa1;" horiz-adv-x="614" d="M188 932q0 53 32.5 85t86.5 32q53 0 86 -32.5t33 -84.5q0 -51 -33 -83t-86 -32q-54 0 -86.5 32t-32.5 83zM211 -451l12 1080h168l12 -1080h-192z" />
<glyph unicode="&#xa2;" horiz-adv-x="1150" d="M152 735q0 218 132 366t345 167v270h90v-266q147 -6 282 -80v-180q-137 83 -282 90v-733q148 5 289 90v-178q-139 -76 -289 -82v-267h-90v269q-214 20 -345.5 168t-131.5 366zM346 735q0 -142 77.5 -240.5t205.5 -121.5v723q-127 -23 -205 -121.5t-78 -239.5z" />
<glyph unicode="&#xa3;" horiz-adv-x="1253" d="M133 662v155h178v234q0 215 121 331.5t334 116.5q82 0 163 -16.5t132 -42.5v-178q-56 30 -131 47.5t-146 17.5q-135 0 -209.5 -76t-74.5 -215v-219h440v-155h-440v-232q0 -163 -74 -260h664v-170h-953q174 206 174 428v234h-178z" />
<glyph unicode="&#xa4;" horiz-adv-x="1566" d="M172 258l223 225q-86 123 -86 267t88 266l-225 225l119 121l227 -227q117 84 264 84q148 0 265 -84l229 227l119 -121l-226 -225q88 -122 88 -266q0 -145 -88 -267l226 -225l-119 -121l-232 228q-117 -84 -262 -84q-144 0 -264 84l-227 -228zM483 750q0 -127 87.5 -214 t211.5 -87q125 0 213 87t88 214q0 125 -87 213t-210 88q-126 0 -214.5 -86.5t-88.5 -214.5z" />
<glyph unicode="&#xa5;" horiz-adv-x="1415" d="M96 1475h219l392 -701l391 701h219l-295 -512h242v-136h-320l-104 -180h362v-135h-397v-512h-197v512h-397v135h360l-102 180h-319v136h241z" />
<glyph unicode="&#xa6;" horiz-adv-x="618" d="M215 -137v698h188v-698h-188zM215 913v699h188v-699h-188z" />
<glyph unicode="&#xa7;" horiz-adv-x="1185" d="M117 104q142 -78 301 -100q51 12 78.5 52t27.5 102q0 90 -121 329l-170 338q-100 202 -100 308q0 183 135 288t361 105q230 0 438 -101l2 -168q-159 81 -301 101q-51 -12 -78.5 -52t-27.5 -102q0 -96 120 -330l170 -337q101 -204 101 -314q0 -179 -136 -283t-360 -104 q-230 0 -438 101zM307 1135q0 -100 84 -258l182 -347q129 -245 129 -356q0 -116 -79 -176q121 14 188.5 73.5t67.5 155.5q0 100 -84 258l-170 326q-140 267 -140 373q0 119 76 180q-119 -14 -186.5 -74t-67.5 -155z" />
<glyph unicode="&#xa8;" horiz-adv-x="811" d="M92 1321q0 53 32.5 85t86.5 32q53 0 86 -32.5t33 -84.5q0 -51 -33 -83t-86 -32q-54 0 -86.5 32t-32.5 83zM483 1321q0 53 32.5 85t84.5 32q54 0 86.5 -32t32.5 -85q0 -51 -32.5 -83t-86.5 -32q-52 0 -84.5 32t-32.5 83z" />
<glyph unicode="&#xa9;" horiz-adv-x="1695" d="M102 737q0 209 99 384.5t269.5 276.5t373.5 101q205 0 377 -101t272 -276.5t100 -384.5q0 -210 -100 -385.5t-272 -276t-377 -100.5q-203 0 -373.5 100.5t-269.5 276t-99 385.5zM233 737q0 -175 81 -320.5t221 -229t309 -83.5q170 0 312 83.5t224 229t82 320.5 q0 174 -81.5 319.5t-224 229.5t-312.5 84q-168 0 -308.5 -84t-221.5 -229.5t-81 -319.5zM428 737q0 188 119.5 312.5t300.5 124.5q132 0 264 -72v-148q-115 78 -252 78q-123 0 -201.5 -83.5t-78.5 -211.5t78.5 -211.5t199.5 -83.5q79 0 147.5 25.5t110.5 54.5v-149 q-1 -1 -20.5 -10t-33 -15t-41 -16t-51.5 -16t-57 -10.5t-65 -4.5q-181 0 -300.5 124t-119.5 312z" />
<glyph unicode="&#xaa;" horiz-adv-x="774" d="M37 889q0 127 106 199.5t279 72.5q65 0 127 -12q0 118 -45 164.5t-152 46.5q-74 0 -146.5 -21t-115.5 -49v148q43 23 120 42t163 19q168 0 252 -78.5t84 -230.5v-500h-152v64q0 62 10 92v2q-8 -15 -19.5 -33t-37.5 -46t-55.5 -49.5t-74 -37.5t-93.5 -16q-108 0 -179 60.5 t-71 162.5zM193 907q0 -50 34.5 -81t91.5 -31q94 0 159.5 74.5t68.5 174.5q-56 11 -115 11q-113 0 -176 -40t-63 -108z" />
<glyph unicode="&#xab;" horiz-adv-x="1157" d="M113 512l323 512h211l-332 -512l332 -512h-211zM530 512l324 512h211l-332 -512l332 -512h-211z" />
<glyph unicode="&#xac;" horiz-adv-x="1345" d="M188 659v156h969v-481h-160v325h-809z" />
<glyph unicode="&#xad;" horiz-adv-x="794" d="M92 500v157h610v-157h-610z" />
<glyph unicode="&#xae;" horiz-adv-x="1695" d="M102 737q0 209 99 384.5t269.5 276.5t373.5 101q205 0 377 -101t272 -276.5t100 -384.5q0 -210 -100 -385.5t-272 -276t-377 -100.5q-203 0 -373.5 100.5t-269.5 276t-99 385.5zM233 737q0 -175 81 -320.5t221 -229t309 -83.5q170 0 312 83.5t224 229t82 320.5 q0 174 -81.5 319.5t-224 229.5t-312.5 84q-168 0 -308.5 -84t-221.5 -229.5t-81 -319.5zM567 324v831h277q129 0 211 -72.5t82 -187.5q0 -82 -45.5 -142t-124.5 -87l178 -342h-141l-160 321h-146v-321h-131zM698 754h127q174 0 174 141t-174 141h-127v-282z" />
<glyph unicode="&#xaf;" horiz-adv-x="800" d="M92 1247v150h617v-150h-617z" />
<glyph unicode="&#xb0;" horiz-adv-x="854" d="M86 1167q0 140 99 237t241 97q143 0 242.5 -97.5t99.5 -236.5t-99.5 -236t-242.5 -97q-142 0 -241 96.5t-99 236.5zM227 1167q0 -87 58 -145.5t141 -58.5q84 0 142.5 58.5t58.5 145.5t-58.5 146t-142.5 59q-83 0 -141 -59t-58 -146z" />
<glyph unicode="&#xb1;" horiz-adv-x="1226" d="M182 858v158h350v375h160v-375h352v-158h-352v-373h-160v373h-350zM207 113v155h813v-155h-813z" />
<glyph unicode="&#xb2;" horiz-adv-x="667" d="M14 690q111 114 169 176t120 136.5t87.5 125.5t25.5 93q0 68 -42.5 107.5t-115.5 39.5q-111 0 -203 -63v135q92 61 219 61q134 0 211.5 -71.5t77.5 -192.5q0 -51 -23 -107t-67.5 -114t-82 -99.5t-91.5 -95.5h307v-131h-592z" />
<glyph unicode="&#xb3;" horiz-adv-x="653" d="M55 713v127q110 -45 217 -45q74 0 117 31.5t43 80.5q0 61 -55.5 97t-157.5 36h-43v111h51q86 0 141.5 34t55.5 85q0 49 -42.5 74.5t-117.5 25.5q-94 0 -196 -45v127q100 47 211 47q133 0 211.5 -60t78.5 -159q0 -62 -42.5 -109t-114.5 -73q78 -24 123 -75.5t45 -125.5 q0 -103 -83 -167t-218 -64q-132 0 -224 47z" />
<glyph unicode="&#xb4;" horiz-adv-x="624" d="M92 1153l193 346h247l-266 -346h-174z" />
<glyph unicode="&#xb5;" horiz-adv-x="1259" d="M162 -410v1434h190v-604q0 -60 7 -102.5t26.5 -83t60 -61.5t101.5 -21q145 0 239.5 105t94.5 263v504h190v-1024h-178l-4 143q0 19 2 37.5t4 29t2 11.5h-4q-16 -38 -47 -78t-78 -79t-114 -64t-142 -25q-108 0 -180 35q8 -90 8 -170v-250h-178z" />
<glyph unicode="&#xb6;" horiz-adv-x="1177" d="M72 981q0 223 148.5 358.5t391.5 135.5h84v-986h-84q-243 0 -391.5 135.5t-148.5 356.5zM485 -279q74 -22 146 -22q75 0 118.5 49.5t43.5 134.5v1592h190v-1592q0 -172 -82.5 -265t-234.5 -93q-100 0 -181 26v170z" />
<glyph unicode="&#xb7;" horiz-adv-x="421" d="M92 508q0 53 32.5 85t86.5 32q53 0 86 -32.5t33 -84.5q0 -51 -33 -83t-86 -32q-54 0 -86.5 32t-32.5 83z" />
<glyph unicode="&#xb8;" horiz-adv-x="552" d="M92 -338q36 -12 92 -12q47 0 85 21t38 61q0 36 -30.5 57t-73 23.5t-86.5 -0.5l88 208h112l-55 -137q76 -2 137.5 -46.5t61.5 -125.5q0 -93 -70 -139.5t-178 -46.5q-73 0 -121 12v125z" />
<glyph unicode="&#xb9;" horiz-adv-x="606" d="M55 690v129h187v527h-176v129h325v-656h180v-129h-516z" />
<glyph unicode="&#xba;" horiz-adv-x="915" d="M66 1081q0 176 112 297t281 121q166 0 278.5 -119.5t112.5 -298.5q0 -175 -112 -295t-279 -120t-280 118t-113 297zM219 1081q0 -117 69 -197.5t171 -80.5q100 0 169.5 79t69.5 199q0 119 -69 200t-170 81q-100 0 -170 -80t-70 -201z" />
<glyph unicode="&#xbb;" horiz-adv-x="1157" d="M92 0l332 512l-332 512h211l324 -512l-324 -512h-211zM510 0l332 512l-332 512h211l323 -512l-323 -512h-211z" />
<glyph unicode="&#xbc;" horiz-adv-x="1675" d="M129 690v129h186v527h-176v129h326v-656h180v-129h-516zM262 0l1051 1475h139l-1051 -1475h-139zM907 176l303 633h150l-254 -514h197v205h127v-205h116v-121h-116v-174h-134v176h-389z" />
<glyph unicode="&#xbd;" horiz-adv-x="1757" d="M129 690v129h186v527h-176v129h326v-656h180v-129h-516zM262 0l1051 1475h139l-1051 -1475h-139zM1036 0q219 224 310.5 338t91.5 192q0 68 -42.5 108t-115.5 40q-110 0 -203 -64v136q92 61 219 61q134 0 211.5 -71.5t77.5 -192.5q0 -51 -23 -107t-67.5 -114t-82 -99.5 t-91.5 -95.5h307v-131h-592z" />
<glyph unicode="&#xbe;" horiz-adv-x="1687" d="M129 713v127q110 -45 217 -45q74 0 117 31.5t43 80.5q0 61 -55.5 97t-157.5 36h-43v111h51q86 0 141.5 34t55.5 85q0 49 -42.5 74.5t-117.5 25.5q-94 0 -197 -45v127q100 47 211 47q133 0 212 -60t79 -159q0 -62 -43 -109t-115 -73q78 -24 123 -75.5t45 -125.5 q0 -103 -83 -167t-218 -64q-131 0 -223 47zM274 0l1051 1475h139l-1050 -1475h-140zM920 176l303 633h149l-254 -514h197v205h127v-205h117v-121h-117v-174h-133v176h-389z" />
<glyph unicode="&#xbf;" horiz-adv-x="925" d="M133 -109q0 73 20 135t52.5 106.5t71.5 84t78.5 76t72 73.5t52.5 85t20 102v76h172v-94q0 -68 -19 -126t-50 -99.5t-68 -78.5t-74 -71.5t-68 -70t-50 -81.5t-19 -98q0 -96 63.5 -155.5t173.5 -59.5q154 0 293 88v-178q-52 -32 -133.5 -57t-169.5 -25q-187 0 -302.5 101.5 t-115.5 266.5zM467 932q0 53 32.5 85t86.5 32q53 0 86 -32.5t33 -84.5q0 -51 -33 -83t-86 -32q-54 0 -86.5 32t-32.5 83z" />
<glyph unicode="&#xc0;" d="M0 0l680 1499h4l680 -1499h-209l-145 328h-658l-143 -328h-209zM317 2011h246l219 -407h-164zM424 489h514q-159 359 -256 611q-102 -260 -258 -611z" />
<glyph unicode="&#xc1;" d="M0 0l680 1499h4l680 -1499h-209l-145 328h-658l-143 -328h-209zM424 489h514q-159 359 -256 611q-102 -260 -258 -611zM580 1604l219 407h245l-301 -407h-163z" />
<glyph unicode="&#xc2;" d="M0 0l680 1499h4l680 -1499h-209l-145 328h-658l-143 -328h-209zM334 1606l268 403h156l268 -403h-178l-168 260l-168 -260h-178zM424 489h514q-159 359 -256 611q-102 -260 -258 -611z" />
<glyph unicode="&#xc3;" d="M0 0l680 1499h4l680 -1499h-209l-145 328h-658l-143 -328h-209zM352 1661v162q24 32 72.5 56t105.5 24q58 0 156.5 -40t142.5 -40q104 0 175 88v-162q-22 -32 -70.5 -56t-106.5 -24t-157.5 40t-143.5 40q-103 0 -174 -88zM424 489h514q-159 359 -256 611 q-102 -260 -258 -611z" />
<glyph unicode="&#xc4;" d="M0 0l680 1499h4l680 -1499h-209l-145 328h-658l-143 -328h-209zM367 1786q0 53 32 84t86 31q53 0 86 -31.5t33 -83.5t-33 -84.5t-86 -32.5q-54 0 -86 32t-32 85zM424 489h514q-159 359 -256 611q-102 -260 -258 -611zM758 1786q0 52 32.5 83.5t86.5 31.5q53 0 85.5 -31.5 t32.5 -83.5t-32.5 -84.5t-85.5 -32.5q-54 0 -86.5 32t-32.5 85z" />
<glyph unicode="&#xc5;" d="M0 0l680 1499h4l680 -1499h-209l-145 328h-658l-143 -328h-209zM424 489h514q-159 359 -256 611q-102 -260 -258 -611zM465 1786q0 87 61 141.5t156 54.5q93 0 154 -54.5t61 -141.5t-61 -142t-154 -55q-94 0 -155.5 55t-61.5 142zM590 1786q0 -39 25 -64.5t67 -25.5 t67 25.5t25 64.5q0 38 -25 63t-67 25t-67 -25t-25 -63z" />
<glyph unicode="&#xc6;" horiz-adv-x="1816" d="M8 0l750 1475h882v-166h-761l159 -480h580v-165h-524l166 -498h505v-166h-641l-108 328h-637l-166 -328h-205zM451 485h516l-205 643z" />
<glyph unicode="&#xc7;" horiz-adv-x="1368" d="M82 737q0 216 100.5 390.5t278 273t397.5 98.5q145 0 261.5 -35.5t176.5 -70.5v-187q-217 111 -438 111q-251 0 -414 -164.5t-163 -415.5t163 -415t414 -164q237 0 449 108v-186q-58 -34 -171 -68t-259 -37l-37 -92q76 -2 137 -46.5t61 -125.5q0 -93 -69.5 -139.5 t-177.5 -46.5q-73 0 -121 12v125q36 -12 92 -12q47 0 85 21t38 61q0 36 -31 57t-73.5 23.5t-86.5 -0.5l70 168q-197 20 -352 122t-242.5 268t-87.5 367z" />
<glyph unicode="&#xc8;" horiz-adv-x="1212" d="M195 0v1475h905v-166h-709v-480h598v-165h-598v-498h739v-166h-935zM289 2011h246l219 -407h-164z" />
<glyph unicode="&#xc9;" horiz-adv-x="1212" d="M195 0v1475h905v-166h-709v-480h598v-165h-598v-498h739v-166h-935zM522 1604l219 407h246l-301 -407h-164z" />
<glyph unicode="&#xca;" horiz-adv-x="1212" d="M195 0v1475h905v-166h-709v-480h598v-165h-598v-498h739v-166h-935zM297 1606l268 403h156l268 -403h-178l-168 260l-168 -260h-178z" />
<glyph unicode="&#xcb;" horiz-adv-x="1212" d="M195 0v1475h905v-166h-709v-480h598v-165h-598v-498h739v-166h-935zM332 1786q0 52 32.5 83.5t86.5 31.5q53 0 85.5 -31.5t32.5 -83.5t-32.5 -84.5t-85.5 -32.5q-54 0 -86.5 32t-32.5 85zM723 1786q0 52 32.5 83.5t86.5 31.5q53 0 86 -31.5t33 -83.5t-33 -84.5t-86 -32.5 q-54 0 -86.5 32t-32.5 85z" />
<glyph unicode="&#xcc;" horiz-adv-x="585" d="M-76 2011h246l219 -407h-164zM195 0v1475h196v-1475h-196z" />
<glyph unicode="&#xcd;" horiz-adv-x="585" d="M195 0v1475h196v-1475h-196zM195 1604l219 407h245l-301 -407h-163z" />
<glyph unicode="&#xce;" horiz-adv-x="585" d="M-53 1606l268 403h156l268 -403h-178l-168 260l-168 -260h-178zM195 0v1475h196v-1475h-196z" />
<glyph unicode="&#xcf;" horiz-adv-x="585" d="M-20 1786q0 53 32 84t86 31q53 0 86 -31.5t33 -83.5t-33 -84.5t-86 -32.5q-54 0 -86 32t-32 85zM195 0v1475h196v-1475h-196zM371 1786q0 53 32 84t86 31q53 0 86 -31.5t33 -83.5t-33 -84.5t-86 -32.5q-54 0 -86 32t-32 85z" />
<glyph unicode="&#xd0;" horiz-adv-x="1529" d="M55 670v135h181v670h423q234 0 413.5 -92t277.5 -259.5t98 -386.5q0 -164 -56.5 -301.5t-157.5 -233t-246.5 -149t-319.5 -53.5h-432v670h-181zM432 166h234q261 0 421 157t160 414t-162.5 414.5t-427.5 157.5h-225v-504h402v-135h-402v-504z" />
<glyph unicode="&#xd1;" horiz-adv-x="1550" d="M195 0v1499h2l915 -993l47 -51v1020h197v-1500h-2l-916 994l-47 51v-1020h-196zM449 1661v162q24 32 72.5 56t105.5 24q58 0 156.5 -40t142.5 -40q103 0 174 88v-162q-22 -32 -70 -56t-106 -24t-157.5 40t-143.5 40q-103 0 -174 -88z" />
<glyph unicode="&#xd2;" horiz-adv-x="1675" d="M82 737q0 210 99 385t273 276t384 101q156 0 295.5 -59t240.5 -159.5t160 -242.5t59 -301t-58 -300.5t-158.5 -243t-240.5 -160t-298 -58.5t-298.5 58.5t-240.5 160t-158.5 243t-58.5 300.5zM281 737q0 -165 72.5 -297.5t199.5 -207t285 -74.5q239 0 397 164.5t158 414.5 t-158 415t-397 165q-157 0 -284.5 -75t-200 -207.5t-72.5 -297.5zM504 2011h246l219 -407h-164z" />
<glyph unicode="&#xd3;" horiz-adv-x="1675" d="M82 737q0 210 99 385t273 276t384 101q156 0 295.5 -59t240.5 -159.5t160 -242.5t59 -301t-58 -300.5t-158.5 -243t-240.5 -160t-298 -58.5t-298.5 58.5t-240.5 160t-158.5 243t-58.5 300.5zM281 737q0 -165 72.5 -297.5t199.5 -207t285 -74.5q239 0 397 164.5t158 414.5 t-158 415t-397 165q-157 0 -284.5 -75t-200 -207.5t-72.5 -297.5zM694 1604l219 407h246l-301 -407h-164z" />
<glyph unicode="&#xd4;" horiz-adv-x="1675" d="M82 737q0 210 99 385t273 276t384 101q156 0 295.5 -59t240.5 -159.5t160 -242.5t59 -301t-58 -300.5t-158.5 -243t-240.5 -160t-298 -58.5t-298.5 58.5t-240.5 160t-158.5 243t-58.5 300.5zM281 737q0 -165 72.5 -297.5t199.5 -207t285 -74.5q239 0 397 164.5t158 414.5 t-158 415t-397 165q-157 0 -284.5 -75t-200 -207.5t-72.5 -297.5zM492 1606l268 403h155l269 -403h-178l-168 260l-168 -260h-178z" />
<glyph unicode="&#xd5;" horiz-adv-x="1675" d="M82 737q0 210 99 385t273 276t384 101q156 0 295.5 -59t240.5 -159.5t160 -242.5t59 -301t-58 -300.5t-158.5 -243t-240.5 -160t-298 -58.5t-298.5 58.5t-240.5 160t-158.5 243t-58.5 300.5zM281 737q0 -165 72.5 -297.5t199.5 -207t285 -74.5q239 0 397 164.5t158 414.5 t-158 415t-397 165q-157 0 -284.5 -75t-200 -207.5t-72.5 -297.5zM512 1661v162q24 32 72.5 56t105.5 24q58 0 156.5 -40t142.5 -40q103 0 174 88v-162q-22 -32 -70 -56t-106 -24t-157.5 40t-143.5 40q-103 0 -174 -88z" />
<glyph unicode="&#xd6;" horiz-adv-x="1675" d="M82 737q0 210 99 385t273 276t384 101q156 0 295.5 -59t240.5 -159.5t160 -242.5t59 -301t-58 -300.5t-158.5 -243t-240.5 -160t-298 -58.5t-298.5 58.5t-240.5 160t-158.5 243t-58.5 300.5zM281 737q0 -165 72.5 -297.5t199.5 -207t285 -74.5q239 0 397 164.5t158 414.5 t-158 415t-397 165q-157 0 -284.5 -75t-200 -207.5t-72.5 -297.5zM522 1786q0 52 32.5 83.5t86.5 31.5q53 0 86 -31.5t33 -83.5t-33 -84.5t-86 -32.5q-54 0 -86.5 32t-32.5 85zM913 1786q0 52 32.5 83.5t86.5 31.5q53 0 86 -31.5t33 -83.5t-33 -84.5t-86 -32.5 q-54 0 -86.5 32t-32.5 85z" />
<glyph unicode="&#xd7;" horiz-adv-x="1236" d="M188 422l320 317l-320 318l113 112l317 -319l318 319l113 -112l-320 -318l320 -317l-113 -113l-318 320l-317 -320z" />
<glyph unicode="&#xd8;" horiz-adv-x="1675" d="M82 737q0 210 99 385t273 276t384 101q195 0 362 -90l141 209h177l-197 -291q127 -107 199.5 -259.5t72.5 -330.5q0 -159 -58 -300.5t-158.5 -243t-240.5 -160t-298 -58.5q-193 0 -367 91l-139 -209h-174l194 288q-128 104 -199 257.5t-71 334.5zM281 737 q0 -131 46.5 -243t131.5 -191l639 952q-124 62 -260 62q-157 0 -284.5 -75t-200 -207.5t-72.5 -297.5zM575 219q122 -61 263 -61q239 0 397 164.5t158 414.5q0 130 -46.5 241.5t-129.5 190.5z" />
<glyph unicode="&#xd9;" horiz-adv-x="1464" d="M164 516v959h196v-945q0 -174 99 -273t272 -99q175 0 274 98.5t99 273.5v945h196v-959q0 -254 -151 -397.5t-418 -143.5q-266 0 -416.5 144t-150.5 397zM369 2011h245l220 -407h-164z" />
<glyph unicode="&#xda;" horiz-adv-x="1464" d="M164 516v959h196v-945q0 -174 99 -273t272 -99q175 0 274 98.5t99 273.5v945h196v-959q0 -254 -151 -397.5t-418 -143.5q-266 0 -416.5 144t-150.5 397zM621 1604l219 407h245l-301 -407h-163z" />
<glyph unicode="&#xdb;" horiz-adv-x="1464" d="M164 516v959h196v-945q0 -174 99 -273t272 -99q175 0 274 98.5t99 273.5v945h196v-959q0 -254 -151 -397.5t-418 -143.5q-266 0 -416.5 144t-150.5 397zM385 1606l268 403h156l268 -403h-178l-168 260l-168 -260h-178z" />
<glyph unicode="&#xdc;" horiz-adv-x="1464" d="M164 516v959h196v-945q0 -174 99 -273t272 -99q175 0 274 98.5t99 273.5v945h196v-959q0 -254 -151 -397.5t-418 -143.5q-266 0 -416.5 144t-150.5 397zM418 1786q0 52 32.5 83.5t86.5 31.5q53 0 85.5 -31.5t32.5 -83.5t-32.5 -84.5t-85.5 -32.5q-54 0 -86.5 32t-32.5 85 zM809 1786q0 52 32.5 83.5t86.5 31.5q53 0 86 -31.5t33 -83.5t-33 -84.5t-86 -32.5q-54 0 -86.5 32t-32.5 85z" />
<glyph unicode="&#xdd;" horiz-adv-x="1241" d="M-10 1475h219l412 -701l411 701h219l-532 -889v-586h-197v586zM522 1604l219 407h246l-301 -407h-164z" />
<glyph unicode="&#xde;" horiz-adv-x="1138" d="M195 0v1475h196v-287h164q240 0 376 -119.5t136 -331.5t-136 -331t-376 -119h-164v-287h-196zM391 453h174q141 0 221 75.5t80 208.5q0 134 -84 209.5t-233 75.5h-158v-569z" />
<glyph unicode="&#xdf;" horiz-adv-x="1277" d="M186 0v1047q0 58 14 116.5t50 120t89.5 108.5t140 77t194.5 30q174 0 284.5 -89.5t110.5 -233.5q0 -73 -36 -137t-87 -107.5t-102 -80t-87 -72t-36 -66.5q0 -33 21.5 -56.5t46.5 -35.5t99 -41q21 -9 32 -13q51 -20 83 -34t69.5 -32.5t59.5 -35t44.5 -39t34 -47t19 -56 t7.5 -69.5q0 -134 -102.5 -206.5t-270.5 -72.5q-190 0 -323 68v174q75 -37 161.5 -60.5t155.5 -23.5q82 0 140.5 32.5t58.5 94.5q0 25 -10.5 45t-24 34t-48 31.5t-59 27.5t-81.5 32q-62 24 -97 39.5t-77 40.5t-63 50.5t-35.5 63.5t-14.5 85q0 56 35 107t84.5 89.5t99 76 t84.5 84.5t35 97q0 78 -58 124t-155 46q-135 0 -216 -84.5t-81 -222.5v-1026h-189z" />
<glyph unicode="&#xe0;" horiz-adv-x="1095" d="M90 276q0 190 175 275t493 41v51q0 240 -269 240q-96 0 -187.5 -26.5t-145.5 -59.5v176q53 29 149.5 52.5t210.5 23.5q215 0 322.5 -101t107.5 -295v-653h-176l-2 121q-1 22 0.5 42.5t3.5 30.5l2 9h-4q-5 -13 -19 -35t-45.5 -57.5t-69.5 -64t-97.5 -50t-124.5 -21.5 q-144 0 -234 81t-90 220zM190 1499h248l193 -346h-172zM279 283q0 -68 45.5 -111t121.5 -43q126 0 217 102.5t91 227.5q-238 38 -356.5 -13t-118.5 -163z" />
<glyph unicode="&#xe1;" horiz-adv-x="1095" d="M90 276q0 190 175 275t493 41v51q0 240 -269 240q-96 0 -187.5 -26.5t-145.5 -59.5v176q53 29 149.5 52.5t210.5 23.5q215 0 322.5 -101t107.5 -295v-653h-176l-2 121q-1 22 0.5 42.5t3.5 30.5l2 9h-4q-5 -13 -19 -35t-45.5 -57.5t-69.5 -64t-97.5 -50t-124.5 -21.5 q-144 0 -234 81t-90 220zM279 283q0 -68 45.5 -111t121.5 -43q126 0 217 102.5t91 227.5q-238 38 -356.5 -13t-118.5 -163zM418 1153l192 346h248l-266 -346h-174z" />
<glyph unicode="&#xe2;" horiz-adv-x="1095" d="M90 276q0 190 175 275t493 41v51q0 240 -269 240q-96 0 -187.5 -26.5t-145.5 -59.5v176q53 29 149.5 52.5t210.5 23.5q215 0 322.5 -101t107.5 -295v-653h-176l-2 121q-1 22 0.5 42.5t3.5 30.5l2 9h-4q-5 -13 -19 -35t-45.5 -57.5t-69.5 -64t-97.5 -50t-124.5 -21.5 q-144 0 -234 81t-90 220zM201 1153l229 346h160l227 -346h-174l-133 211l-135 -211h-174zM279 283q0 -68 45.5 -111t121.5 -43q126 0 217 102.5t91 227.5q-238 38 -356.5 -13t-118.5 -163z" />
<glyph unicode="&#xe3;" horiz-adv-x="1095" d="M90 276q0 190 175 275t493 41v51q0 240 -269 240q-96 0 -187.5 -26.5t-145.5 -59.5v176q53 29 149.5 52.5t210.5 23.5q215 0 322.5 -101t107.5 -295v-653h-176l-2 121q-1 22 0.5 42.5t3.5 30.5l2 9h-4q-5 -13 -19 -35t-45.5 -57.5t-69.5 -64t-97.5 -50t-124.5 -21.5 q-144 0 -234 81t-90 220zM195 1202v160q24 32 72 55t106 23t155.5 -39t141.5 -39q101 0 174 86v-158q-22 -32 -71 -56t-107 -24t-155.5 40t-141.5 40q-103 0 -174 -88zM279 283q0 -68 45.5 -111t121.5 -43q126 0 217 102.5t91 227.5q-238 38 -356.5 -13t-118.5 -163z" />
<glyph unicode="&#xe4;" horiz-adv-x="1095" d="M90 276q0 190 175 275t493 41v51q0 240 -269 240q-96 0 -187.5 -26.5t-145.5 -59.5v176q53 29 149.5 52.5t210.5 23.5q215 0 322.5 -101t107.5 -295v-653h-176l-2 121q-1 22 0.5 42.5t3.5 30.5l2 9h-4q-5 -13 -19 -35t-45.5 -57.5t-69.5 -64t-97.5 -50t-124.5 -21.5 q-144 0 -234 81t-90 220zM193 1321q0 53 32 85t86 32q53 0 86 -32.5t33 -84.5q0 -51 -33 -83t-86 -32q-54 0 -86 32t-32 83zM279 283q0 -68 45.5 -111t121.5 -43q126 0 217 102.5t91 227.5q-238 38 -356.5 -13t-118.5 -163zM584 1321q0 53 32 85t84 32q54 0 86.5 -32 t32.5 -85q0 -51 -32.5 -83t-86.5 -32q-52 0 -84 32t-32 83z" />
<glyph unicode="&#xe5;" horiz-adv-x="1095" d="M90 276q0 190 175 275t493 41v51q0 240 -269 240q-96 0 -187.5 -26.5t-145.5 -59.5v176q53 29 149.5 52.5t210.5 23.5q215 0 322.5 -101t107.5 -295v-653h-176l-2 121q-1 22 0.5 42.5t3.5 30.5l2 9h-4q-5 -13 -19 -35t-45.5 -57.5t-69.5 -64t-97.5 -50t-124.5 -21.5 q-144 0 -234 81t-90 220zM279 283q0 -68 45.5 -111t121.5 -43q126 0 217 102.5t91 227.5q-238 38 -356.5 -13t-118.5 -163zM299 1321q0 88 61 141.5t156 53.5t155 -53.5t60 -141.5q0 -87 -60.5 -141t-154.5 -54q-95 0 -156 54t-61 141zM424 1321q0 -38 25 -62t67 -24t67 24 t25 62q0 39 -25 63.5t-67 24.5t-67 -24.5t-25 -63.5z" />
<glyph unicode="&#xe6;" horiz-adv-x="1736" d="M90 276q0 183 166 269t469 51q10 72 33 129q-43 158 -269 158q-96 0 -187.5 -26.5t-145.5 -59.5v176q53 29 149.5 52.5t210.5 23.5q249 0 356 -140q134 140 330 140q105 0 190.5 -39t140 -105.5t83.5 -152t29 -181.5q0 -23 -2.5 -58t-2.5 -42h-725v-2q5 -151 96 -239.5 t244 -88.5q96 0 192 27.5t159 69.5v-175q-149 -88 -363 -88q-142 0 -254.5 58.5t-181.5 163.5q-19 -31 -49 -63.5t-78.5 -71t-118.5 -63t-147 -24.5q-144 0 -234 81t-90 220zM279 283q0 -68 45.5 -111t121.5 -43q99 0 179.5 62t115.5 155q-15 56 -18 119q-224 28 -334 -24 t-110 -158zM918 606h538q2 118 -65 200.5t-191 82.5q-122 0 -196.5 -82t-85.5 -201z" />
<glyph unicode="&#xe7;" horiz-adv-x="1042" d="M100 512q0 233 150 385t385 152q167 0 315 -80v-181q-146 91 -305 91q-154 0 -252 -103t-98 -264q0 -162 97.5 -264.5t252.5 -102.5q164 0 311 91v-179q-139 -78 -307 -82l-37 -92q76 -2 137.5 -46.5t61.5 -125.5q0 -93 -70 -139.5t-178 -46.5q-73 0 -121 12v125 q36 -12 93 -12q47 0 84.5 20.5t37.5 61.5q0 36 -30.5 57t-73 23.5t-86.5 -0.5l72 172q-197 31 -318 175.5t-121 352.5z" />
<glyph unicode="&#xe8;" horiz-adv-x="1159" d="M100 512q0 231 144.5 384t357.5 153q109 0 198.5 -39t146.5 -105.5t87.5 -152t30.5 -181.5q0 -23 -2 -58t-2 -42h-762v-2q5 -151 100 -239.5t256 -88.5q102 0 203.5 27.5t167.5 69.5v-175q-67 -38 -167 -63t-216 -25q-242 0 -392.5 149.5t-150.5 387.5zM301 606h576 q2 117 -72.5 200t-204.5 83q-126 0 -206 -83t-93 -200zM305 1499h248l192 -346h-172z" />
<glyph unicode="&#xe9;" horiz-adv-x="1159" d="M100 512q0 231 144.5 384t357.5 153q109 0 198.5 -39t146.5 -105.5t87.5 -152t30.5 -181.5q0 -23 -2 -58t-2 -42h-762v-2q5 -151 100 -239.5t256 -88.5q102 0 203.5 27.5t167.5 69.5v-175q-67 -38 -167 -63t-216 -25q-242 0 -392.5 149.5t-150.5 387.5zM301 606h576 q2 117 -72.5 200t-204.5 83q-126 0 -206 -83t-93 -200zM500 1153l192 346h248l-266 -346h-174z" />
<glyph unicode="&#xea;" horiz-adv-x="1159" d="M100 512q0 231 144.5 384t357.5 153q109 0 198.5 -39t146.5 -105.5t87.5 -152t30.5 -181.5q0 -23 -2 -58t-2 -42h-762v-2q5 -151 100 -239.5t256 -88.5q102 0 203.5 27.5t167.5 69.5v-175q-67 -38 -167 -63t-216 -25q-242 0 -392.5 149.5t-150.5 387.5zM301 606h576 q2 117 -72.5 200t-204.5 83q-126 0 -206 -83t-93 -200zM301 1153l229 346h160l228 -346h-175l-133 211l-135 -211h-174z" />
<glyph unicode="&#xeb;" horiz-adv-x="1159" d="M100 512q0 231 144.5 384t357.5 153q109 0 198.5 -39t146.5 -105.5t87.5 -152t30.5 -181.5q0 -23 -2 -58t-2 -42h-762v-2q5 -151 100 -239.5t256 -88.5q102 0 203.5 27.5t167.5 69.5v-175q-67 -38 -167 -63t-216 -25q-242 0 -392.5 149.5t-150.5 387.5zM297 1321 q0 53 32.5 85t86.5 32q53 0 86 -32.5t33 -84.5q0 -51 -33 -83t-86 -32q-54 0 -86.5 32t-32.5 83zM301 606h576q2 117 -72.5 200t-204.5 83q-126 0 -206 -83t-93 -200zM688 1321q0 53 32 85t85 32q54 0 86.5 -32t32.5 -85q0 -51 -32.5 -83t-86.5 -32q-52 0 -84.5 32t-32.5 83 z" />
<glyph unicode="&#xec;" horiz-adv-x="563" d="M-63 1499h247l193 -346h-172zM186 0v1024h191v-1024h-191z" />
<glyph unicode="&#xed;" horiz-adv-x="563" d="M186 0v1024h191v-1024h-191zM186 1153l193 346h248l-267 -346h-174z" />
<glyph unicode="&#xee;" horiz-adv-x="563" d="M-27 1153l230 346h159l228 -346h-174l-133 211l-136 -211h-174zM186 0v1024h191v-1024h-191z" />
<glyph unicode="&#xef;" horiz-adv-x="563" d="M-33 1321q0 53 32.5 85t86.5 32q53 0 86 -32.5t33 -84.5q0 -51 -33 -83t-86 -32q-54 0 -86.5 32t-32.5 83zM186 0v1024h191v-1024h-191zM358 1321q0 53 32 85t85 32q54 0 86.5 -32t32.5 -85q0 -51 -32.5 -83t-86.5 -32q-52 0 -84.5 32t-32.5 83z" />
<glyph unicode="&#xf0;" horiz-adv-x="1206" d="M100 512q0 102 35.5 198.5t97.5 172t154.5 121t198.5 45.5q99 0 157 -48q-79 120 -202 228l-217 -129l-68 102l195 117q-70 67 -175 156h246q54 -46 76 -68l227 131l68 -100l-203 -119q173 -163 279 -340q137 -227 137 -455q0 -150 -61 -274.5t-177.5 -199.5t-265.5 -75 q-148 0 -264 73.5t-177 195.5t-61 268zM285 512q0 -160 86 -265.5t231 -105.5q147 0 233.5 108.5t86.5 274.5q0 150 -88 255.5t-232 105.5q-145 0 -231 -106.5t-86 -266.5z" />
<glyph unicode="&#xf1;" horiz-adv-x="1261" d="M186 0v1024h179l4 -143q0 -60 -9 -78h5q16 38 48 78t80 79t117 64t146 25q183 0 266.5 -103.5t83.5 -302.5v-643h-191v604q0 60 -7 102.5t-26 83t-59.5 61.5t-101.5 21q-150 0 -247 -105t-97 -263v-504h-191zM358 1202v160q24 32 72.5 55t106.5 23t155.5 -39t141.5 -39 q101 0 174 86v-158q-22 -32 -71.5 -56t-107.5 -24t-155.5 40t-141.5 40q-103 0 -174 -88z" />
<glyph unicode="&#xf2;" horiz-adv-x="1255" d="M100 512q0 232 150 384.5t377 152.5q150 0 271 -69.5t189 -192t68 -275.5t-68 -275.5t-189 -192t-271 -69.5q-227 0 -377 152.5t-150 384.5zM285 512q0 -162 97 -266.5t245 -104.5q150 0 247 104.5t97 266.5t-97 266.5t-247 104.5q-148 0 -245 -104.5t-97 -266.5z M303 1499h248l192 -346h-172z" />
<glyph unicode="&#xf3;" horiz-adv-x="1255" d="M100 512q0 232 150 384.5t377 152.5q150 0 271 -69.5t189 -192t68 -275.5t-68 -275.5t-189 -192t-271 -69.5q-227 0 -377 152.5t-150 384.5zM285 512q0 -162 97 -266.5t245 -104.5q150 0 247 104.5t97 266.5t-97 266.5t-247 104.5q-148 0 -245 -104.5t-97 -266.5z M532 1153l193 346h248l-266 -346h-175z" />
<glyph unicode="&#xf4;" horiz-adv-x="1255" d="M100 512q0 232 150 384.5t377 152.5q150 0 271 -69.5t189 -192t68 -275.5t-68 -275.5t-189 -192t-271 -69.5q-227 0 -377 152.5t-150 384.5zM285 512q0 -162 97 -266.5t245 -104.5q150 0 247 104.5t97 266.5t-97 266.5t-247 104.5q-148 0 -245 -104.5t-97 -266.5z M317 1153l230 346h160l227 -346h-174l-133 211l-135 -211h-175z" />
<glyph unicode="&#xf5;" horiz-adv-x="1255" d="M100 512q0 232 150 384.5t377 152.5q150 0 271 -69.5t189 -192t68 -275.5t-68 -275.5t-189 -192t-271 -69.5q-227 0 -377 152.5t-150 384.5zM285 512q0 -162 97 -266.5t245 -104.5q150 0 247 104.5t97 266.5t-97 266.5t-247 104.5q-148 0 -245 -104.5t-97 -266.5z M303 1202v160q24 32 72 55t106 23t155.5 -39t141.5 -39q101 0 174 86v-158q-22 -32 -71 -56t-107 -24t-155.5 40t-141.5 40q-103 0 -174 -88z" />
<glyph unicode="&#xf6;" horiz-adv-x="1255" d="M100 512q0 232 150 384.5t377 152.5q150 0 271 -69.5t189 -192t68 -275.5t-68 -275.5t-189 -192t-271 -69.5q-227 0 -377 152.5t-150 384.5zM285 512q0 -162 97 -266.5t245 -104.5q150 0 247 104.5t97 266.5t-97 266.5t-247 104.5q-148 0 -245 -104.5t-97 -266.5z M313 1321q0 53 32.5 85t86.5 32q53 0 86 -32.5t33 -84.5q0 -51 -33 -83t-86 -32q-54 0 -86.5 32t-32.5 83zM705 1321q0 53 32 85t84 32q54 0 86.5 -32t32.5 -85q0 -51 -32.5 -83t-86.5 -32q-52 0 -84 32t-32 83z" />
<glyph unicode="&#xf7;" horiz-adv-x="1300" d="M188 659v156h924v-156h-924zM532 328q0 52 32 83t85 31q54 0 86.5 -31t32.5 -83t-32.5 -83.5t-86.5 -31.5q-53 0 -85 31.5t-32 83.5zM532 1147q0 52 32 83.5t85 31.5q54 0 86.5 -31.5t32.5 -83.5t-32.5 -83.5t-86.5 -31.5q-53 0 -85 31.5t-32 83.5z" />
<glyph unicode="&#xf8;" horiz-adv-x="1255" d="M100 512q0 232 150 384.5t377 152.5q121 0 231 -50l107 168h182l-160 -254q80 -73 124 -176.5t44 -224.5q0 -153 -68 -275.5t-189 -192t-271 -69.5q-109 0 -207 39l-98 -157h-183l148 235q-88 73 -137.5 182.5t-49.5 237.5zM285 512q0 -162 98 -268l383 610 q-66 29 -139 29q-148 0 -245 -104.5t-97 -266.5zM512 160q55 -19 115 -19q150 0 247 104.5t97 266.5q0 147 -82 248z" />
<glyph unicode="&#xf9;" horiz-adv-x="1259" d="M162 381v643h190v-604q0 -60 7 -102.5t26.5 -83t60 -61.5t101.5 -21q145 0 239.5 105t94.5 263v504h190v-1024h-178l-4 143q0 19 2 37.5t4 29t2 11.5h-4q-16 -38 -47 -78t-78 -79t-114 -64t-142 -25q-183 0 -266.5 103.5t-83.5 302.5zM291 1499h248l192 -346h-172z" />
<glyph unicode="&#xfa;" horiz-adv-x="1259" d="M162 381v643h190v-604q0 -60 7 -102.5t26.5 -83t60 -61.5t101.5 -21q145 0 239.5 105t94.5 263v504h190v-1024h-178l-4 143q0 19 2 37.5t4 29t2 11.5h-4q-16 -38 -47 -78t-78 -79t-114 -64t-142 -25q-183 0 -266.5 103.5t-83.5 302.5zM516 1153l193 346h247l-266 -346 h-174z" />
<glyph unicode="&#xfb;" horiz-adv-x="1259" d="M162 381v643h190v-604q0 -60 7 -102.5t26.5 -83t60 -61.5t101.5 -21q145 0 239.5 105t94.5 263v504h190v-1024h-178l-4 143q0 19 2 37.5t4 29t2 11.5h-4q-16 -38 -47 -78t-78 -79t-114 -64t-142 -25q-183 0 -266.5 103.5t-83.5 302.5zM311 1153l230 346h159l228 -346 h-174l-133 211l-136 -211h-174z" />
<glyph unicode="&#xfc;" horiz-adv-x="1259" d="M162 381v643h190v-604q0 -60 7 -102.5t26.5 -83t60 -61.5t101.5 -21q145 0 239.5 105t94.5 263v504h190v-1024h-178l-4 143q0 19 2 37.5t4 29t2 11.5h-4q-16 -38 -47 -78t-78 -79t-114 -64t-142 -25q-183 0 -266.5 103.5t-83.5 302.5zM293 1321q0 53 32.5 85t86.5 32 q53 0 85.5 -32.5t32.5 -84.5q0 -51 -33 -83t-85 -32q-54 0 -86.5 32t-32.5 83zM684 1321q0 53 32 85t85 32q54 0 86.5 -32t32.5 -85q0 -51 -32.5 -83t-86.5 -32q-52 0 -84.5 32t-32.5 83z" />
<glyph unicode="&#xfd;" horiz-adv-x="1060" d="M-2 -299q46 -12 111 -12q59 0 107.5 23t87 70t67 99.5t61.5 130.5l-428 1012h211l143 -371q13 -35 77 -197.5t95 -250.5q19 43 175 448l141 371h211l-404 -977q-32 -78 -58.5 -135.5t-58.5 -114.5t-62.5 -97t-68.5 -75t-79 -56t-90.5 -32.5t-106.5 -11.5q-90 0 -131 18 v158zM430 1153l193 346h247l-266 -346h-174z" />
<glyph unicode="&#xfe;" horiz-adv-x="1306" d="M186 -451v1926h191v-529q0 -24 -2 -45t-4 -30l-2 -9h4q41 82 137 134.5t217 52.5q204 0 339.5 -150.5t135.5 -386.5q0 -238 -134.5 -387.5t-336.5 -149.5q-118 0 -215 58.5t-141 142.5h-4q6 -31 6 -84v-543h-191zM379 512q0 -74 18.5 -136.5t50 -105t73 -72.5t87 -43.5 t92.5 -13.5q142 0 230 103.5t88 267.5q0 161 -88.5 266t-229.5 105q-47 0 -92.5 -13.5t-87 -43.5t-73 -72.5t-50 -105t-18.5 -136.5z" />
<glyph unicode="&#xff;" horiz-adv-x="1060" d="M-2 -299q46 -12 111 -12q59 0 107.5 23t87 70t67 99.5t61.5 130.5l-428 1012h211l143 -371q13 -35 77 -197.5t95 -250.5q19 43 175 448l141 371h211l-404 -977q-32 -78 -58.5 -135.5t-58.5 -114.5t-62.5 -97t-68.5 -75t-79 -56t-90.5 -32.5t-106.5 -11.5q-90 0 -131 18 v158zM217 1321q0 53 32.5 85t86.5 32q53 0 86 -32.5t33 -84.5q0 -51 -33 -83t-86 -32q-54 0 -86.5 32t-32.5 83zM608 1321q0 53 32 85t85 32q54 0 86.5 -32t32.5 -85q0 -51 -32.5 -83t-86.5 -32q-52 0 -84.5 32t-32.5 83z" />
<glyph unicode="&#x100;" d="M0 0l680 1499h4l680 -1499h-209l-145 328h-658l-143 -328h-209zM365 1710v152h632v-152h-632zM424 489h514q-159 359 -256 611q-102 -260 -258 -611z" />
<glyph unicode="&#x101;" horiz-adv-x="1095" d="M90 276q0 190 175 275t493 41v51q0 240 -269 240q-96 0 -187.5 -26.5t-145.5 -59.5v176q53 29 149.5 52.5t210.5 23.5q215 0 322.5 -101t107.5 -295v-653h-176l-2 121q-1 22 0.5 42.5t3.5 30.5l2 9h-4q-5 -13 -19 -35t-45.5 -57.5t-69.5 -64t-97.5 -50t-124.5 -21.5 q-144 0 -234 81t-90 220zM209 1247v150h616v-150h-616zM279 283q0 -68 45.5 -111t121.5 -43q126 0 217 102.5t91 227.5q-238 38 -356.5 -13t-118.5 -163z" />
<glyph unicode="&#x102;" d="M0 0l680 1499h4l680 -1499h-209l-145 328h-658l-143 -328h-209zM395 1939h148q0 -83 36.5 -128.5t102.5 -45.5q65 0 101 45.5t36 128.5h150q0 -145 -74 -229t-213 -84t-214 84t-73 229zM424 489h514q-159 359 -256 611q-102 -260 -258 -611z" />
<glyph unicode="&#x103;" horiz-adv-x="1095" d="M90 276q0 190 175 275t493 41v51q0 240 -269 240q-96 0 -187.5 -26.5t-145.5 -59.5v176q53 29 149.5 52.5t210.5 23.5q215 0 322.5 -101t107.5 -295v-653h-176l-2 121q-1 22 0.5 42.5t3.5 30.5l2 9h-4q-5 -13 -19 -35t-45.5 -57.5t-69.5 -64t-97.5 -50t-124.5 -21.5 q-144 0 -234 81t-90 220zM240 1477h147q0 -76 34.5 -119t96.5 -43t96.5 43t34.5 119h148q2 -139 -70.5 -220t-208.5 -81t-208 81t-70 220zM279 283q0 -68 45.5 -111t121.5 -43q126 0 217 102.5t91 227.5q-238 38 -356.5 -13t-118.5 -163z" />
<glyph unicode="&#x104;" d="M0 0l680 1499h4l680 -1499h-2q-193 -118 -193 -244q0 -52 30.5 -77t80.5 -25q47 0 111 22v-127q-66 -24 -136 -24q-102 0 -170.5 50.5t-68.5 145.5q0 152 211 279h-72l-145 328h-658l-143 -328h-209zM424 489h514q-159 359 -256 611q-102 -260 -258 -611z" />
<glyph unicode="&#x105;" horiz-adv-x="1095" d="M90 276q0 190 175 275t493 41v51q0 240 -269 240q-96 0 -187.5 -26.5t-145.5 -59.5v176q53 29 149.5 52.5t210.5 23.5q215 0 322.5 -101t107.5 -295v-653q-192 -117 -192 -244q0 -52 30 -77t80 -25q47 0 111 22v-127q-66 -24 -135 -24q-102 0 -171 50.5t-69 145.5 q0 152 211 279h-41l-2 121q-1 22 0.5 42.5t3.5 30.5l2 9h-4q-5 -13 -19 -35t-45.5 -57.5t-69.5 -64t-97.5 -50t-124.5 -21.5q-144 0 -234 81t-90 220zM279 283q0 -68 45.5 -111t121.5 -43q126 0 217 102.5t91 227.5q-238 38 -356.5 -13t-118.5 -163z" />
<glyph unicode="&#x106;" horiz-adv-x="1368" d="M82 737q0 216 100.5 390.5t278 273t397.5 98.5q145 0 261.5 -35.5t176.5 -70.5v-187q-217 111 -438 111q-251 0 -414 -164.5t-163 -415.5t163 -415t414 -164q237 0 449 108v-186q-59 -35 -178 -70t-271 -35q-220 0 -397.5 98.5t-278 273t-100.5 390.5zM684 1604l219 407 h246l-301 -407h-164z" />
<glyph unicode="&#x107;" horiz-adv-x="1042" d="M100 512q0 233 150 385t385 152q167 0 315 -80v-181q-146 91 -305 91q-154 0 -252 -103t-98 -264q0 -162 97.5 -264.5t252.5 -102.5q164 0 311 91v-179q-152 -82 -321 -82q-235 0 -385 152t-150 385zM551 1153l192 346h248l-266 -346h-174z" />
<glyph unicode="&#x108;" horiz-adv-x="1368" d="M82 737q0 216 100.5 390.5t278 273t397.5 98.5q145 0 261.5 -35.5t176.5 -70.5v-187q-217 111 -438 111q-251 0 -414 -164.5t-163 -415.5t163 -415t414 -164q237 0 449 108v-186q-59 -35 -178 -70t-271 -35q-220 0 -397.5 98.5t-278 273t-100.5 390.5zM475 1606l268 403 h156l268 -403h-178l-168 260l-168 -260h-178z" />
<glyph unicode="&#x109;" horiz-adv-x="1042" d="M100 512q0 233 150 385t385 152q167 0 315 -80v-181q-146 91 -305 91q-154 0 -252 -103t-98 -264q0 -162 97.5 -264.5t252.5 -102.5q164 0 311 91v-179q-152 -82 -321 -82q-235 0 -385 152t-150 385zM317 1153l230 346h160l227 -346h-174l-133 211l-135 -211h-175z" />
<glyph unicode="&#x10a;" horiz-adv-x="1368" d="M82 737q0 216 100.5 390.5t278 273t397.5 98.5q145 0 261.5 -35.5t176.5 -70.5v-187q-217 111 -438 111q-251 0 -414 -164.5t-163 -415.5t163 -415t414 -164q237 0 449 108v-186q-59 -35 -178 -70t-271 -35q-220 0 -397.5 98.5t-278 273t-100.5 390.5zM709 1786 q0 53 32 84t86 31q53 0 86 -31.5t33 -83.5t-33 -84.5t-86 -32.5q-54 0 -86 32t-32 85z" />
<glyph unicode="&#x10b;" horiz-adv-x="1042" d="M100 512q0 233 150 385t385 152q167 0 315 -80v-181q-146 91 -305 91q-154 0 -252 -103t-98 -264q0 -162 97.5 -264.5t252.5 -102.5q164 0 311 91v-179q-152 -82 -321 -82q-235 0 -385 152t-150 385zM522 1321q0 53 32.5 85t86.5 32q53 0 86 -32.5t33 -84.5 q0 -51 -33 -83t-86 -32q-54 0 -86.5 32t-32.5 83z" />
<glyph unicode="&#x10c;" horiz-adv-x="1368" d="M82 737q0 216 100.5 390.5t278 273t397.5 98.5q145 0 261.5 -35.5t176.5 -70.5v-187q-217 111 -438 111q-251 0 -414 -164.5t-163 -415.5t163 -415t414 -164q237 0 449 108v-186q-59 -35 -178 -70t-271 -35q-220 0 -397.5 98.5t-278 273t-100.5 390.5zM479 2009h178 l168 -262l168 262h178l-268 -403h-155z" />
<glyph unicode="&#x10d;" horiz-adv-x="1042" d="M100 512q0 233 150 385t385 152q167 0 315 -80v-181q-146 91 -305 91q-154 0 -252 -103t-98 -264q0 -162 97.5 -264.5t252.5 -102.5q164 0 311 91v-179q-152 -82 -321 -82q-235 0 -385 152t-150 385zM305 1499h174l135 -211l134 211h174l-228 -346h-159z" />
<glyph unicode="&#x10e;" horiz-adv-x="1488" d="M195 0v1475h423q234 0 413.5 -92t277.5 -259.5t98 -386.5q0 -164 -56.5 -301.5t-157.5 -233t-246.5 -149t-319.5 -53.5h-432zM305 2009h178l168 -262l168 262h178l-268 -403h-156zM391 166h234q261 0 421 157t160 414t-162.5 414.5t-427.5 157.5h-225v-1143z" />
<glyph unicode="&#x10f;" horiz-adv-x="1472" d="M100 512q0 238 134.5 387.5t336.5 149.5q118 0 215.5 -59t141.5 -142h4q-6 31 -6 84v543h190v-1475h-176l-4 106q0 20 1.5 39t2.5 28l2 9h-4q-42 -84 -143 -145.5t-220 -61.5q-204 0 -339.5 150.5t-135.5 386.5zM285 512q0 -161 88 -266t229 -105q60 0 116 22.5t102.5 66 t75 117t28.5 165.5t-28.5 165.5t-75 117t-102.5 66t-116 22.5q-142 0 -229.5 -103.5t-87.5 -267.5zM1294 879v579h179v-579h-179z" />
<glyph unicode="&#x110;" horiz-adv-x="1529" d="M55 670v135h181v670h423q234 0 413.5 -92t277.5 -259.5t98 -386.5q0 -164 -56.5 -301.5t-157.5 -233t-246.5 -149t-319.5 -53.5h-432v670h-181zM432 166h234q261 0 421 157t160 414t-162.5 414.5t-427.5 157.5h-225v-504h402v-135h-402v-504z" />
<glyph unicode="&#x111;" horiz-adv-x="1304" d="M100 512q0 238 134.5 387.5t336.5 149.5q118 0 215.5 -59t141.5 -142h4q-6 31 -6 84v254h-326v135h326v154h190v-154h172v-135h-172v-1186h-176l-4 106q0 20 1.5 39t2.5 28l2 9h-4q-42 -84 -143 -145.5t-220 -61.5q-204 0 -339.5 150.5t-135.5 386.5zM285 512 q0 -161 88 -266t229 -105q60 0 116 22.5t102.5 66t75 117t28.5 165.5t-28.5 165.5t-75 117t-102.5 66t-116 22.5q-142 0 -229.5 -103.5t-87.5 -267.5z" />
<glyph unicode="&#x112;" horiz-adv-x="1212" d="M195 0v1475h905v-166h-709v-480h598v-165h-598v-498h739v-166h-935zM324 1710v152h632v-152h-632z" />
<glyph unicode="&#x113;" horiz-adv-x="1159" d="M100 512q0 231 144.5 384t357.5 153q109 0 198.5 -39t146.5 -105.5t87.5 -152t30.5 -181.5q0 -23 -2 -58t-2 -42h-762v-2q5 -151 100 -239.5t256 -88.5q102 0 203.5 27.5t167.5 69.5v-175q-67 -38 -167 -63t-216 -25q-242 0 -392.5 149.5t-150.5 387.5zM301 606h576 q2 117 -72.5 200t-204.5 83q-126 0 -206 -83t-93 -200zM305 1247v150h617v-150h-617z" />
<glyph unicode="&#x114;" horiz-adv-x="1212" d="M195 0v1475h905v-166h-709v-480h598v-165h-598v-498h739v-166h-935zM356 1939h148q0 -83 36.5 -128.5t102.5 -45.5q65 0 101 45.5t36 128.5h150q0 -145 -74 -229t-213 -84t-214 84t-73 229z" />
<glyph unicode="&#x115;" horiz-adv-x="1159" d="M100 512q0 231 144.5 384t357.5 153q109 0 198.5 -39t146.5 -105.5t87.5 -152t30.5 -181.5q0 -23 -2 -58t-2 -42h-762v-2q5 -151 100 -239.5t256 -88.5q102 0 203.5 27.5t167.5 69.5v-175q-67 -38 -167 -63t-216 -25q-242 0 -392.5 149.5t-150.5 387.5zM301 606h576 q2 117 -72.5 200t-204.5 83q-126 0 -206 -83t-93 -200zM338 1477h147q0 -76 34.5 -119t96.5 -43t97 43t35 119h147q2 -139 -70.5 -220t-208.5 -81t-208 81t-70 220z" />
<glyph unicode="&#x116;" horiz-adv-x="1212" d="M195 0v1475h905v-166h-709v-480h598v-165h-598v-498h739v-166h-935zM514 1786q0 52 32.5 83.5t86.5 31.5q53 0 86 -31.5t33 -83.5t-33 -84.5t-86 -32.5q-54 0 -86.5 32t-32.5 85z" />
<glyph unicode="&#x117;" horiz-adv-x="1159" d="M100 512q0 231 144.5 384t357.5 153q109 0 198.5 -39t146.5 -105.5t87.5 -152t30.5 -181.5q0 -23 -2 -58t-2 -42h-762v-2q5 -151 100 -239.5t256 -88.5q102 0 203.5 27.5t167.5 69.5v-175q-67 -38 -167 -63t-216 -25q-242 0 -392.5 149.5t-150.5 387.5zM301 606h576 q2 117 -72.5 200t-204.5 83q-126 0 -206 -83t-93 -200zM489 1321q0 53 32.5 85t86.5 32q53 0 86 -32.5t33 -84.5q0 -51 -33 -83t-86 -32q-54 0 -86.5 32t-32.5 83z" />
<glyph unicode="&#x118;" horiz-adv-x="1212" d="M195 0v1475h905v-166h-709v-480h598v-165h-598v-498h739v-166h-20q-192 -117 -192 -244q0 -52 30 -77t80 -25q47 0 111 22v-127q-66 -24 -135 -24q-102 0 -171 50.5t-69 145.5q0 152 211 279h-780z" />
<glyph unicode="&#x119;" horiz-adv-x="1159" d="M100 512q0 231 144.5 384t357.5 153q109 0 198.5 -39t146.5 -105.5t87.5 -152t30.5 -181.5q0 -23 -2 -58t-2 -42h-762v-2q5 -151 100 -239.5t256 -88.5q102 0 203.5 27.5t167.5 69.5v-175q-68 -40 -170 -63q-192 -117 -192 -244q0 -52 30 -77t80 -25q47 0 111 22v-127 q-66 -24 -135 -24q-102 0 -171 50.5t-69 145.5q0 136 174 256q-12 -2 -41 -2q-242 0 -392.5 149.5t-150.5 387.5zM301 606h576q2 117 -72.5 200t-204.5 83q-126 0 -206 -83t-93 -200z" />
<glyph unicode="&#x11a;" horiz-adv-x="1212" d="M195 0v1475h905v-166h-709v-480h598v-165h-598v-498h739v-166h-935zM297 2009h178l168 -262l168 262h178l-268 -403h-156z" />
<glyph unicode="&#x11b;" horiz-adv-x="1159" d="M100 512q0 231 144.5 384t357.5 153q109 0 198.5 -39t146.5 -105.5t87.5 -152t30.5 -181.5q0 -23 -2 -58t-2 -42h-762v-2q5 -151 100 -239.5t256 -88.5q102 0 203.5 27.5t167.5 69.5v-175q-67 -38 -167 -63t-216 -25q-242 0 -392.5 149.5t-150.5 387.5zM301 606h576 q2 117 -72.5 200t-204.5 83q-126 0 -206 -83t-93 -200zM301 1499h174l135 -211l133 211h175l-228 -346h-160z" />
<glyph unicode="&#x11c;" horiz-adv-x="1443" d="M82 737q0 216 101.5 390.5t281.5 273t403 98.5q101 0 202 -22t151 -42t86 -40v-189q-217 111 -443 111q-260 0 -421.5 -163.5t-161.5 -416.5q0 -166 73.5 -298.5t205.5 -207.5t298 -75q78 0 160 15t131 38v444h192v-565q-93 -51 -223.5 -82t-259.5 -31 q-220 0 -397.5 98.5t-278 273t-100.5 390.5zM487 1606l269 403h155l269 -403h-179l-167 260l-168 -260h-179z" />
<glyph unicode="&#x11d;" horiz-adv-x="1095" d="M82 -172q0 89 81 158.5t202 93.5q-74 9 -116 44t-42 87q0 44 37.5 82.5t103.5 60.5q-111 40 -176.5 128.5t-65.5 203.5q0 159 119.5 261t296.5 102q89 0 162 -25h373v-143h-142q-12 0 -26 2t-23 4l-8 2l-12 2q90 -83 90 -205q0 -149 -106 -248t-269 -108h-2 q-70 -6 -118 -29.5t-48 -52.5q0 -37 52 -54.5t190 -33.5q204 -23 305.5 -91t101.5 -202q0 -146 -135 -231t-356 -85q-215 0 -342 72t-127 205zM236 1153l229 346h160l227 -346h-174l-133 211l-135 -211h-174zM266 -150q0 -79 78.5 -121t208.5 -42q137 0 218 46t81 122 t-74.5 122t-238.5 46q-117 0 -195 -51t-78 -122zM285 682q0 -96 66.5 -157.5t170.5 -61.5q107 0 173.5 61.5t66.5 157.5t-67 158.5t-173 62.5q-104 0 -170.5 -62.5t-66.5 -158.5z" />
<glyph unicode="&#x11e;" horiz-adv-x="1443" d="M82 737q0 216 101.5 390.5t281.5 273t403 98.5q101 0 202 -22t151 -42t86 -40v-189q-217 111 -443 111q-260 0 -421.5 -163.5t-161.5 -416.5q0 -166 73.5 -298.5t205.5 -207.5t298 -75q78 0 160 15t131 38v444h192v-565q-93 -51 -223.5 -82t-259.5 -31 q-220 0 -397.5 98.5t-278 273t-100.5 390.5zM551 1939h147q0 -83 37 -128.5t103 -45.5q65 0 101 45.5t36 128.5h149q0 -145 -74 -229t-212 -84q-139 0 -214 84t-73 229z" />
<glyph unicode="&#x11f;" horiz-adv-x="1095" d="M82 -172q0 89 81 158.5t202 93.5q-74 9 -116 44t-42 87q0 44 37.5 82.5t103.5 60.5q-111 40 -176.5 128.5t-65.5 203.5q0 159 119.5 261t296.5 102q89 0 162 -25h373v-143h-142q-12 0 -26 2t-23 4l-8 2l-12 2q90 -83 90 -205q0 -149 -106 -248t-269 -108h-2 q-70 -6 -118 -29.5t-48 -52.5q0 -37 52 -54.5t190 -33.5q204 -23 305.5 -91t101.5 -202q0 -146 -135 -231t-356 -85q-215 0 -342 72t-127 205zM262 1477h148q0 -76 34.5 -119t96.5 -43t96.5 43t34.5 119h147q2 -139 -70 -220t-208 -81t-208.5 81t-70.5 220zM266 -150 q0 -79 78.5 -121t208.5 -42q137 0 218 46t81 122t-74.5 122t-238.5 46q-117 0 -195 -51t-78 -122zM285 682q0 -96 66.5 -157.5t170.5 -61.5q107 0 173.5 61.5t66.5 157.5t-67 158.5t-173 62.5q-104 0 -170.5 -62.5t-66.5 -158.5z" />
<glyph unicode="&#x120;" horiz-adv-x="1443" d="M82 737q0 216 101.5 390.5t281.5 273t403 98.5q101 0 202 -22t151 -42t86 -40v-189q-217 111 -443 111q-260 0 -421.5 -163.5t-161.5 -416.5q0 -166 73.5 -298.5t205.5 -207.5t298 -75q78 0 160 15t131 38v444h192v-565q-93 -51 -223.5 -82t-259.5 -31 q-220 0 -397.5 98.5t-278 273t-100.5 390.5zM713 1786q0 53 32 84t86 31q53 0 86 -31.5t33 -83.5t-33 -84.5t-86 -32.5q-54 0 -86 32t-32 85z" />
<glyph unicode="&#x121;" horiz-adv-x="1095" d="M82 -172q0 89 81 158.5t202 93.5q-74 9 -116 44t-42 87q0 44 37.5 82.5t103.5 60.5q-111 40 -176.5 128.5t-65.5 203.5q0 159 119.5 261t296.5 102q89 0 162 -25h373v-143h-142q-12 0 -26 2t-23 4l-8 2l-12 2q90 -83 90 -205q0 -149 -106 -248t-269 -108h-2 q-70 -6 -118 -29.5t-48 -52.5q0 -37 52 -54.5t190 -33.5q204 -23 305.5 -91t101.5 -202q0 -146 -135 -231t-356 -85q-215 0 -342 72t-127 205zM266 -150q0 -79 78.5 -121t208.5 -42q137 0 218 46t81 122t-74.5 122t-238.5 46q-117 0 -195 -51t-78 -122zM285 682 q0 -96 66.5 -157.5t170.5 -61.5q107 0 173.5 61.5t66.5 157.5t-67 158.5t-173 62.5q-104 0 -170.5 -62.5t-66.5 -158.5zM424 1321q0 53 32.5 85t86.5 32q53 0 86 -32.5t33 -84.5q0 -51 -33 -83t-86 -32q-54 0 -86.5 32t-32.5 83z" />
<glyph unicode="&#x122;" horiz-adv-x="1443" d="M82 737q0 216 101.5 390.5t281.5 273t403 98.5q101 0 202 -22t151 -42t86 -40v-189q-217 111 -443 111q-260 0 -421.5 -163.5t-161.5 -416.5q0 -166 73.5 -298.5t205.5 -207.5t298 -75q78 0 160 15t131 38v444h192v-565q-93 -51 -223.5 -82t-259.5 -31 q-220 0 -397.5 98.5t-278 273t-100.5 390.5zM643 -475l90 354h205l-141 -354h-154z" />
<glyph unicode="&#x123;" horiz-adv-x="1095" d="M82 -172q0 89 81 158.5t202 93.5q-74 9 -116 44t-42 87q0 44 37.5 82.5t103.5 60.5q-111 40 -176.5 128.5t-65.5 203.5q0 159 119.5 261t296.5 102q89 0 162 -25h373v-143h-142q-12 0 -26 2t-23 4l-8 2l-12 2q90 -83 90 -205q0 -149 -106 -248t-269 -108h-2 q-70 -6 -118 -29.5t-48 -52.5q0 -37 52 -54.5t190 -33.5q204 -23 305.5 -91t101.5 -202q0 -146 -135 -231t-356 -85q-215 0 -342 72t-127 205zM266 -150q0 -79 78.5 -121t208.5 -42q137 0 218 46t81 122t-74.5 122t-238.5 46q-117 0 -195 -51t-78 -122zM285 682 q0 -96 66.5 -157.5t170.5 -61.5q107 0 173.5 61.5t66.5 157.5t-67 158.5t-173 62.5q-104 0 -170.5 -62.5t-66.5 -158.5zM401 1145l142 354h153l-90 -354h-205z" />
<glyph unicode="&#x124;" horiz-adv-x="1513" d="M195 0v1475h196v-646h731v646h197v-1475h-197v664h-731v-664h-196zM401 1606l269 403h155l269 -403h-179l-167 260l-168 -260h-179z" />
<glyph unicode="&#x125;" horiz-adv-x="1261" d="M-27 1573l230 346h159l228 -346h-174l-133 211l-136 -211h-174zM186 0v1475h189v-570q0 -27 -3 -62.5t-3 -39.5h2q18 39 49 78t77.5 79t114 64.5t144.5 24.5q183 0 266.5 -103.5t83.5 -302.5v-643h-191v604q0 60 -7 102.5t-26 83t-59.5 61.5t-101.5 21q-150 0 -247 -105 t-97 -263v-504h-191z" />
<glyph unicode="&#x126;" horiz-adv-x="1632" d="M61 1087v136h193v252h197v-252h731v252h196v-252h193v-136h-193v-1087h-196v664h-731v-664h-197v1087h-193zM451 829h731v258h-731v-258z" />
<glyph unicode="&#x127;" horiz-adv-x="1261" d="M14 1186v135h172v154h189v-154h317v-135h-317v-281q0 -27 -3 -62.5t-3 -39.5h2q18 39 49 78t77.5 79t114 64.5t144.5 24.5q183 0 266.5 -103.5t83.5 -302.5v-643h-191v604q0 60 -7 102.5t-26 83t-59.5 61.5t-101.5 21q-150 0 -247 -105t-97 -263v-504h-191v1186h-172z " />
<glyph unicode="&#x128;" horiz-adv-x="585" d="M-35 1661v162q24 32 72.5 56t105.5 24q58 0 156.5 -40t142.5 -40q103 0 174 88v-162q-22 -32 -70 -56t-106 -24t-157.5 40t-143.5 40q-103 0 -174 -88zM195 0v1475h196v-1475h-196z" />
<glyph unicode="&#x129;" horiz-adv-x="563" d="M-43 1202v160q24 32 72 55t106 23t155.5 -39t141.5 -39q101 0 174 86v-158q-22 -32 -71 -56t-107 -24t-155.5 40t-141.5 40q-103 0 -174 -88zM186 0v1024h191v-1024h-191z" />
<glyph unicode="&#x12a;" horiz-adv-x="585" d="M-23 1710v152h633v-152h-633zM195 0v1475h196v-1475h-196z" />
<glyph unicode="&#x12b;" horiz-adv-x="563" d="M-27 1247v150h617v-150h-617zM186 0v1024h191v-1024h-191z" />
<glyph unicode="&#x12c;" horiz-adv-x="585" d="M6 1939h148q0 -83 36.5 -128.5t102.5 -45.5q65 0 101 45.5t36 128.5h150q0 -145 -74 -229t-213 -84t-214 84t-73 229zM195 0v1475h196v-1475h-196z" />
<glyph unicode="&#x12d;" horiz-adv-x="563" d="M2 1477h148q0 -76 34.5 -119t96.5 -43t96.5 43t34.5 119h147q2 -139 -70 -220t-208 -81t-208.5 81t-70.5 220zM186 0v1024h191v-1024h-191z" />
<glyph unicode="&#x12e;" horiz-adv-x="585" d="M45 -279q0 152 211 279h-61v1475h196v-1475q-192 -117 -192 -244q0 -52 30 -77t80 -25q47 0 111 22v-127q-66 -24 -135 -24q-102 0 -171 50.5t-69 145.5z" />
<glyph unicode="&#x12f;" horiz-adv-x="563" d="M31 -279q0 152 211 279h-56v1024h191v-1024q-193 -118 -193 -244q0 -52 30.5 -77t80.5 -25q47 0 111 22v-127q-66 -24 -136 -24q-102 0 -170.5 50.5t-68.5 145.5zM162 1321q0 53 32.5 85t86.5 32q53 0 85.5 -32.5t32.5 -84.5q0 -51 -33 -83t-85 -32q-54 0 -86.5 32 t-32.5 83z" />
<glyph unicode="&#x130;" horiz-adv-x="585" d="M172 1786q0 52 32.5 83.5t86.5 31.5q53 0 86 -31.5t33 -83.5t-33 -84.5t-86 -32.5q-54 0 -86.5 32t-32.5 85zM195 0v1475h196v-1475h-196z" />
<glyph unicode="&#x131;" horiz-adv-x="563" d="M186 0v1024h191v-1024h-191z" />
<glyph unicode="&#x132;" horiz-adv-x="1351" d="M195 0v1475h196v-1475h-196zM606 16v179q71 -43 172 -43q89 0 136 49t47 143v1131h196v-1096q0 -200 -86.5 -302t-271.5 -102q-123 0 -193 41z" />
<glyph unicode="&#x133;" horiz-adv-x="1126" d="M162 1321q0 53 32.5 85t86.5 32q53 0 85.5 -32.5t32.5 -84.5q0 -51 -33 -83t-85 -32q-54 0 -86.5 32t-32.5 83zM186 0v1024h191v-1024h-191zM492 -295q28 -8 69 -8q88 0 138.5 55.5t50.5 155.5v1116h190v-1143q0 -170 -89.5 -263t-252.5 -93q-71 0 -106 14v166zM725 1321 q0 53 32.5 85t86.5 32q53 0 86 -32.5t33 -84.5q0 -51 -33 -83t-86 -32q-54 0 -86.5 32t-32.5 83z" />
<glyph unicode="&#x134;" horiz-adv-x="765" d="M20 16v179q71 -43 173 -43q89 0 135.5 49t46.5 143v1131h196v-1096q0 -200 -86.5 -302t-271.5 -102q-123 0 -193 41zM127 1606l268 403h156l268 -403h-178l-168 260l-168 -260h-178z" />
<glyph unicode="&#x135;" horiz-adv-x="563" d="M-72 -295q28 -8 70 -8q88 0 138 55t50 156v1116h191v-1143q0 -170 -89.5 -263t-252.5 -93q-72 0 -107 14v166zM-25 1153l230 346h160l227 -346h-174l-133 211l-135 -211h-175z" />
<glyph unicode="&#x136;" horiz-adv-x="1366" d="M195 0v1475h196v-789l703 789h243l-542 -592l551 -883h-230l-454 745l-271 -292v-453h-196zM537 -475l90 354h204l-141 -354h-153z" />
<glyph unicode="&#x137;" horiz-adv-x="1153" d="M186 0v1475h191v-965l463 514h227l-371 -422l400 -602h-219l-324 496l-178 -193v-303h-189zM412 -475l90 354h205l-142 -354h-153z" />
<glyph unicode="&#x138;" horiz-adv-x="1153" d="M186 0v1024h191v-514l463 514h227l-371 -422l400 -602h-219l-324 496l-178 -193v-303h-189z" />
<glyph unicode="&#x139;" horiz-adv-x="1067" d="M195 0v1475h196v-1309h635v-166h-831zM207 1604l219 407h246l-301 -407h-164z" />
<glyph unicode="&#x13a;" horiz-adv-x="634" d="M186 262v1213h191v-1174q0 -83 28 -119.5t91 -36.5q51 0 90 13v-164q-57 -19 -137 -19q-121 0 -192 69.5t-71 217.5zM186 1573l193 346h248l-267 -346h-174z" />
<glyph unicode="&#x13b;" horiz-adv-x="1067" d="M195 0v1475h196v-1309h635v-166h-831zM430 -475l90 354h205l-141 -354h-154z" />
<glyph unicode="&#x13c;" horiz-adv-x="634" d="M186 262v1213h191v-1174q0 -83 28 -119.5t91 -36.5q51 0 90 13v-164q-57 -19 -137 -19q-121 0 -192 69.5t-71 217.5zM197 -475l90 354h205l-142 -354h-153z" />
<glyph unicode="&#x13d;" horiz-adv-x="1067" d="M195 0v1475h196v-1309h635v-166h-831zM698 995v580h179v-580h-179z" />
<glyph unicode="&#x13e;" horiz-adv-x="786" d="M186 262v1213h191v-1174q0 -83 28 -119.5t91 -36.5q51 0 90 13v-164q-57 -19 -137 -19q-121 0 -192 69.5t-71 217.5zM586 879v579h178v-579h-178z" />
<glyph unicode="&#x13f;" horiz-adv-x="1067" d="M195 0v1475h196v-1309h635v-166h-831zM682 721q0 53 32.5 85t86.5 32q53 0 86 -32.5t33 -84.5q0 -51 -33 -83t-86 -32q-54 0 -86.5 32t-32.5 83z" />
<glyph unicode="&#x140;" horiz-adv-x="745" d="M186 262v1213h191v-1174q0 -83 28 -119.5t91 -36.5q51 0 90 13v-164q-57 -19 -137 -19q-121 0 -192 69.5t-71 217.5zM535 723q0 53 32 85t86 32q53 0 86 -32.5t33 -84.5q0 -51 -33 -83t-86 -32q-54 0 -86 32t-32 83z" />
<glyph unicode="&#x141;" horiz-adv-x="1073" d="M20 471v172l181 121v711h196v-578l258 176v-170l-258 -176v-561h635v-166h-831v594z" />
<glyph unicode="&#x142;" horiz-adv-x="653" d="M29 504v176l176 113v682h190v-562l178 115v-176l-178 -115v-436q0 -83 28 -119.5t91 -36.5q51 0 90 13v-164q-57 -19 -137 -19q-121 0 -191.5 69.5t-70.5 217.5v354z" />
<glyph unicode="&#x143;" horiz-adv-x="1550" d="M195 0v1499h2l915 -993l47 -51v1020h197v-1500h-2l-916 994l-47 51v-1020h-196zM639 1604l219 407h246l-301 -407h-164z" />
<glyph unicode="&#x144;" horiz-adv-x="1261" d="M186 0v1024h179l4 -143q0 -60 -9 -78h5q16 38 48 78t80 79t117 64t146 25q183 0 266.5 -103.5t83.5 -302.5v-643h-191v604q0 60 -7 102.5t-26 83t-59.5 61.5t-101.5 21q-150 0 -247 -105t-97 -263v-504h-191zM592 1153l192 346h248l-266 -346h-174z" />
<glyph unicode="&#x145;" horiz-adv-x="1550" d="M195 0v1499h2l915 -993l47 -51v1020h197v-1500h-2l-916 994l-47 51v-1020h-196zM614 -475l91 354h204l-141 -354h-154z" />
<glyph unicode="&#x146;" horiz-adv-x="1261" d="M186 0v1024h179l4 -143q0 -60 -9 -78h5q16 38 48 78t80 79t117 64t146 25q183 0 266.5 -103.5t83.5 -302.5v-643h-191v604q0 60 -7 102.5t-26 83t-59.5 61.5t-101.5 21q-150 0 -247 -105t-97 -263v-504h-191zM449 -475l90 354h204l-141 -354h-153z" />
<glyph unicode="&#x147;" horiz-adv-x="1550" d="M195 0v1499h2l915 -993l47 -51v1020h197v-1500h-2l-916 994l-47 51v-1020h-196zM434 2009h178l168 -262l168 262h178l-268 -403h-156z" />
<glyph unicode="&#x148;" horiz-adv-x="1261" d="M186 0v1024h179l4 -143q0 -60 -9 -78h5q16 38 48 78t80 79t117 64t146 25q183 0 266.5 -103.5t83.5 -302.5v-643h-191v604q0 60 -7 102.5t-26 83t-59.5 61.5t-101.5 21q-150 0 -247 -105t-97 -263v-504h-191zM391 1499h174l135 -211l134 211h174l-228 -346h-159z" />
<glyph unicode="&#x14c;" horiz-adv-x="1675" d="M82 737q0 210 99 385t273 276t384 101q156 0 295.5 -59t240.5 -159.5t160 -242.5t59 -301t-58 -300.5t-158.5 -243t-240.5 -160t-298 -58.5t-298.5 58.5t-240.5 160t-158.5 243t-58.5 300.5zM281 737q0 -165 72.5 -297.5t199.5 -207t285 -74.5q239 0 397 164.5t158 414.5 t-158 415t-397 165q-157 0 -284.5 -75t-200 -207.5t-72.5 -297.5zM522 1710v152h633v-152h-633z" />
<glyph unicode="&#x14d;" horiz-adv-x="1255" d="M100 512q0 232 150 384.5t377 152.5q150 0 271 -69.5t189 -192t68 -275.5t-68 -275.5t-189 -192t-271 -69.5q-227 0 -377 152.5t-150 384.5zM285 512q0 -162 97 -266.5t245 -104.5q150 0 247 104.5t97 266.5t-97 266.5t-247 104.5q-148 0 -245 -104.5t-97 -266.5z M319 1247v150h617v-150h-617z" />
<glyph unicode="&#x14e;" horiz-adv-x="1675" d="M82 737q0 210 99 385t273 276t384 101q156 0 295.5 -59t240.5 -159.5t160 -242.5t59 -301t-58 -300.5t-158.5 -243t-240.5 -160t-298 -58.5t-298.5 58.5t-240.5 160t-158.5 243t-58.5 300.5zM281 737q0 -165 72.5 -297.5t199.5 -207t285 -74.5q239 0 397 164.5t158 414.5 t-158 415t-397 165q-157 0 -284.5 -75t-200 -207.5t-72.5 -297.5zM551 1939h147q0 -83 37 -128.5t103 -45.5q65 0 101 45.5t36 128.5h149q0 -145 -74 -229t-212 -84q-139 0 -214 84t-73 229z" />
<glyph unicode="&#x14f;" horiz-adv-x="1255" d="M100 512q0 232 150 384.5t377 152.5q150 0 271 -69.5t189 -192t68 -275.5t-68 -275.5t-189 -192t-271 -69.5q-227 0 -377 152.5t-150 384.5zM285 512q0 -162 97 -266.5t245 -104.5q150 0 247 104.5t97 266.5t-97 266.5t-247 104.5q-148 0 -245 -104.5t-97 -266.5z M348 1477h148q0 -76 34.5 -119t96.5 -43t96.5 43t34.5 119h147q2 -139 -70 -220t-208 -81t-208.5 81t-70.5 220z" />
<glyph unicode="&#x150;" horiz-adv-x="1675" d="M82 737q0 210 99 385t273 276t384 101q156 0 295.5 -59t240.5 -159.5t160 -242.5t59 -301t-58 -300.5t-158.5 -243t-240.5 -160t-298 -58.5t-298.5 58.5t-240.5 160t-158.5 243t-58.5 300.5zM281 737q0 -165 72.5 -297.5t199.5 -207t285 -74.5q239 0 397 164.5t158 414.5 t-158 415t-397 165q-157 0 -284.5 -75t-200 -207.5t-72.5 -297.5zM569 1604l174 364h222l-230 -364h-166zM905 1604l211 364h230l-273 -364h-168z" />
<glyph unicode="&#x151;" horiz-adv-x="1255" d="M100 512q0 232 150 384.5t377 152.5q150 0 271 -69.5t189 -192t68 -275.5t-68 -275.5t-189 -192t-271 -69.5q-227 0 -377 152.5t-150 384.5zM285 512q0 -162 97 -266.5t245 -104.5q150 0 247 104.5t97 266.5t-97 266.5t-247 104.5q-148 0 -245 -104.5t-97 -266.5z M373 1153l174 346h221l-229 -346h-166zM709 1153l211 346h229l-272 -346h-168z" />
<glyph unicode="&#x152;" horiz-adv-x="2127" d="M82 737q0 157 57 298t154.5 243t234 161.5t289.5 59.5q229 0 395 -121v97h803v-166h-606v-480h475v-165h-475v-498h637v-166h-834v94q-167 -119 -395 -119q-154 0 -290 58.5t-233.5 160t-154.5 243t-57 300.5zM281 737q0 -165 69.5 -297.5t192 -207t274.5 -74.5 q249 0 395 155v846q-148 158 -395 158q-152 0 -274.5 -75t-192 -207.5t-69.5 -297.5z" />
<glyph unicode="&#x153;" horiz-adv-x="1769" d="M100 512q0 232 146.5 384.5t369.5 152.5q182 0 318 -111q127 111 299 111q105 0 190.5 -39t139.5 -105.5t83 -152t29 -181.5q0 -23 -2 -58t-2 -42h-725v-2q5 -151 96 -239.5t244 -88.5q96 0 191.5 27t158.5 70v-175q-149 -88 -362 -88q-202 0 -338 111 q-133 -111 -320 -111q-223 0 -369.5 152.5t-146.5 384.5zM285 512q0 -162 94 -266.5t237 -104.5q119 0 207 78q-71 154 -71 297q0 160 71 289q-88 78 -207 78q-143 0 -237 -104.5t-94 -266.5zM948 606h539q2 118 -65 200.5t-191 82.5q-122 0 -197 -82.5t-86 -200.5z" />
<glyph unicode="&#x154;" horiz-adv-x="1304" d="M195 0v1475h477q243 0 380.5 -119.5t137.5 -331.5q0 -157 -86.5 -265.5t-214.5 -148.5l334 -610h-219l-306 578h-307v-578h-196zM391 739h291q146 0 228.5 75.5t82.5 209.5t-86.5 209.5t-240.5 75.5h-275v-570zM506 1604l219 407h246l-301 -407h-164z" />
<glyph unicode="&#x155;" horiz-adv-x="778" d="M172 0v1024h178l2 -143q1 -17 0 -35t-2 -28.5t0 -12.5h2q46 113 127.5 178.5t188.5 65.5q33 0 61 -7v-184q-24 6 -53 6q-95 0 -168.5 -64t-109.5 -158t-36 -196v-446h-190zM373 1153l192 346h248l-266 -346h-174z" />
<glyph unicode="&#x156;" horiz-adv-x="1304" d="M195 0v1475h477q243 0 380.5 -119.5t137.5 -331.5q0 -157 -86.5 -265.5t-214.5 -148.5l334 -610h-219l-306 578h-307v-578h-196zM391 739h291q146 0 228.5 75.5t82.5 209.5t-86.5 209.5t-240.5 75.5h-275v-570zM487 -475l91 354h204l-141 -354h-154z" />
<glyph unicode="&#x157;" horiz-adv-x="778" d="M78 -475l90 354h205l-142 -354h-153zM172 0v1024h178l2 -143q1 -17 0 -35t-2 -28.5t0 -12.5h2q46 113 127.5 178.5t188.5 65.5q33 0 61 -7v-184q-24 6 -53 6q-95 0 -168.5 -64t-109.5 -158t-36 -196v-446h-190z" />
<glyph unicode="&#x158;" horiz-adv-x="1304" d="M195 0v1475h477q243 0 380.5 -119.5t137.5 -331.5q0 -157 -86.5 -265.5t-214.5 -148.5l334 -610h-219l-306 578h-307v-578h-196zM279 2009h178l168 -262l168 262h178l-269 -403h-155zM391 739h291q146 0 228.5 75.5t82.5 209.5t-86.5 209.5t-240.5 75.5h-275v-570z" />
<glyph unicode="&#x159;" horiz-adv-x="778" d="M172 0v1024h178l2 -143q1 -17 0 -35t-2 -28.5t0 -12.5h2q46 113 127.5 178.5t188.5 65.5q33 0 61 -7v-184q-24 6 -53 6q-95 0 -168.5 -64t-109.5 -158t-36 -196v-446h-190zM182 1499h174l136 -211l133 211h174l-228 -346h-159z" />
<glyph unicode="&#x15a;" horiz-adv-x="1089" d="M82 1104q0 184 137 289.5t354 105.5q102 0 199.5 -22t167.5 -54v-186q-68 35 -165 60.5t-191 25.5q-138 0 -224 -58t-86 -155q0 -95 71 -163t253 -132q221 -79 320.5 -178.5t99.5 -259.5q0 -188 -135.5 -295t-368.5 -107q-230 0 -426 86v195q212 -104 416 -104 q142 0 231.5 55.5t89.5 154.5q0 103 -71 168t-256 129q-218 75 -317 177.5t-99 267.5zM430 1604l219 407h246l-301 -407h-164z" />
<glyph unicode="&#x15b;" horiz-adv-x="921" d="M111 760q0 127 103 208t263 81q157 0 289 -62v-172q-137 72 -268 72q-93 0 -151 -33.5t-58 -99.5q0 -58 49.5 -94t161.5 -72q171 -57 247 -128.5t76 -195.5q0 -137 -101.5 -213t-270.5 -76q-191 0 -334 68v174q76 -37 166 -60.5t161 -23.5q87 0 145 32.5t58 100.5 q0 62 -51 97t-176 75q-74 24 -126 50t-95.5 63.5t-65.5 89.5t-22 119zM360 1153l193 346h248l-266 -346h-175z" />
<glyph unicode="&#x15c;" horiz-adv-x="1089" d="M82 1104q0 184 137 289.5t354 105.5q102 0 199.5 -22t167.5 -54v-186q-68 35 -165 60.5t-191 25.5q-138 0 -224 -58t-86 -155q0 -95 71 -163t253 -132q221 -79 320.5 -178.5t99.5 -259.5q0 -188 -135.5 -295t-368.5 -107q-230 0 -426 86v195q212 -104 416 -104 q142 0 231.5 55.5t89.5 154.5q0 103 -71 168t-256 129q-218 75 -317 177.5t-99 267.5zM188 1606l269 403h155l269 -403h-179l-167 260l-168 -260h-179z" />
<glyph unicode="&#x15d;" horiz-adv-x="921" d="M111 760q0 127 103 208t263 81q157 0 289 -62v-172q-137 72 -268 72q-93 0 -151 -33.5t-58 -99.5q0 -58 49.5 -94t161.5 -72q171 -57 247 -128.5t76 -195.5q0 -137 -101.5 -213t-270.5 -76q-191 0 -334 68v174q76 -37 166 -60.5t161 -23.5q87 0 145 32.5t58 100.5 q0 62 -51 97t-176 75q-74 24 -126 50t-95.5 63.5t-65.5 89.5t-22 119zM170 1153l229 346h160l227 -346h-174l-133 211l-135 -211h-174z" />
<glyph unicode="&#x15e;" horiz-adv-x="1089" d="M82 1104q0 184 137 289.5t354 105.5q102 0 199.5 -22t167.5 -54v-186q-68 35 -165 60.5t-191 25.5q-138 0 -224 -58t-86 -155q0 -95 71 -163t253 -132q221 -79 320.5 -178.5t99.5 -259.5q0 -174 -117.5 -279.5t-322.5 -120.5l-37 -94q76 -2 137 -46.5t61 -125.5 q0 -93 -69.5 -139.5t-177.5 -46.5q-73 0 -121 12v125q36 -12 92 -12q47 0 85 21t38 61q0 36 -31 57t-73.5 23.5t-86.5 -0.5l70 165q-206 8 -377 84v195q212 -104 416 -104q142 0 231.5 55.5t89.5 154.5q0 103 -71 168t-256 129q-218 75 -317 177.5t-99 267.5z" />
<glyph unicode="&#x15f;" horiz-adv-x="921" d="M111 760q0 127 103 208t263 81q157 0 289 -62v-172q-137 72 -268 72q-93 0 -151 -33.5t-58 -99.5q0 -58 49.5 -94t161.5 -72q171 -57 247 -128.5t76 -195.5q0 -128 -89.5 -203t-241.5 -84l-37 -94q76 -2 137 -46.5t61 -125.5q0 -93 -69.5 -139.5t-177.5 -46.5 q-73 0 -121 12v125q36 -12 92 -12q47 0 85 21t38 61q0 36 -31 57t-73.5 23.5t-86.5 -0.5l70 165q-154 12 -262 66v174q76 -37 166 -60.5t161 -23.5q87 0 145 32.5t58 100.5q0 62 -51 97t-176 75q-74 24 -126 50t-95.5 63.5t-65.5 89.5t-22 119z" />
<glyph unicode="&#x160;" horiz-adv-x="1089" d="M82 1104q0 184 137 289.5t354 105.5q102 0 199.5 -22t167.5 -54v-186q-68 35 -165 60.5t-191 25.5q-138 0 -224 -58t-86 -155q0 -95 71 -163t253 -132q221 -79 320.5 -178.5t99.5 -259.5q0 -188 -135.5 -295t-368.5 -107q-230 0 -426 86v195q212 -104 416 -104 q142 0 231.5 55.5t89.5 154.5q0 103 -71 168t-256 129q-218 75 -317 177.5t-99 267.5zM203 2009h178l168 -262l168 262h178l-268 -403h-156z" />
<glyph unicode="&#x161;" horiz-adv-x="921" d="M111 760q0 127 103 208t263 81q157 0 289 -62v-172q-137 72 -268 72q-93 0 -151 -33.5t-58 -99.5q0 -58 49.5 -94t161.5 -72q171 -57 247 -128.5t76 -195.5q0 -137 -101.5 -213t-270.5 -76q-191 0 -334 68v174q76 -37 166 -60.5t161 -23.5q87 0 145 32.5t58 100.5 q0 62 -51 97t-176 75q-74 24 -126 50t-95.5 63.5t-65.5 89.5t-22 119zM160 1499h174l135 -211l133 211h174l-227 -346h-160z" />
<glyph unicode="&#x162;" horiz-adv-x="1136" d="M20 1309v166h1096v-166h-450v-1309h-41l-47 -117q76 -2 137 -46.5t61 -125.5q0 -93 -70 -139.5t-178 -46.5q-72 0 -120 12v125q36 -12 92 -12q47 0 85 21t38 61q0 36 -31 57t-73.5 23.5t-86.5 -0.5l80 188h-43v1309h-449z" />
<glyph unicode="&#x163;" horiz-adv-x="761" d="M37 868v156h170v307h186v-307h309v-156h-309v-530q0 -195 152 -195q97 0 192 45v-165q-84 -45 -217 -48l-37 -92q76 -2 137.5 -46.5t61.5 -125.5q0 -93 -70 -139.5t-178 -46.5q-73 0 -121 12v125q36 -12 93 -12q47 0 84.5 20.5t37.5 61.5q0 36 -30.5 57t-73 23.5 t-86.5 -0.5l74 176q-93 22 -150 94t-57 199v587h-168z" />
<glyph unicode="&#x164;" horiz-adv-x="1136" d="M20 1309v166h1096v-166h-450v-1309h-197v1309h-449zM221 2009h178l168 -262l168 262h178l-268 -403h-156z" />
<glyph unicode="&#x165;" horiz-adv-x="761" d="M37 868v156h170v307h186v-307h309v-156h-309v-530q0 -195 152 -195q97 0 192 45v-165q-86 -48 -229 -48q-58 0 -109.5 16t-96.5 50.5t-71 96t-26 143.5v587h-168zM524 1157v574h178v-574h-178z" />
<glyph unicode="&#x166;" horiz-adv-x="1136" d="M20 1309v166h1096v-166h-450v-428h270v-136h-270v-745h-197v745h-270v136h270v428h-449z" />
<glyph unicode="&#x167;" horiz-adv-x="761" d="M37 868v156h170v307h186v-307h309v-156h-309v-243h295v-136h-295v-151q0 -195 152 -195q97 0 192 45v-165q-86 -48 -229 -48q-58 0 -109.5 16t-96.5 50.5t-71 96t-26 143.5v208h-154v136h154v243h-168z" />
<glyph unicode="&#x168;" horiz-adv-x="1464" d="M164 516v959h196v-945q0 -174 99 -273t272 -99q175 0 274 98.5t99 273.5v945h196v-959q0 -254 -151 -397.5t-418 -143.5q-266 0 -416.5 144t-150.5 397zM406 1661v162q24 32 72.5 56t105.5 24q58 0 156.5 -40t142.5 -40q103 0 174 88v-162q-22 -32 -70 -56t-106 -24 t-157.5 40t-143.5 40q-103 0 -174 -88z" />
<glyph unicode="&#x169;" horiz-adv-x="1259" d="M162 381v643h190v-604q0 -60 7 -102.5t26.5 -83t60 -61.5t101.5 -21q145 0 239.5 105t94.5 263v504h190v-1024h-178l-4 143q0 19 2 37.5t4 29t2 11.5h-4q-16 -38 -47 -78t-78 -79t-114 -64t-142 -25q-183 0 -266.5 103.5t-83.5 302.5zM291 1202v160q24 32 72 55t106 23 t155.5 -39t141.5 -39q101 0 174 86v-158q-22 -32 -71 -56t-107 -24t-155.5 40t-141.5 40q-103 0 -174 -88z" />
<glyph unicode="&#x16a;" horiz-adv-x="1464" d="M164 516v959h196v-945q0 -174 99 -273t272 -99q175 0 274 98.5t99 273.5v945h196v-959q0 -254 -151 -397.5t-418 -143.5q-266 0 -416.5 144t-150.5 397zM418 1710v152h633v-152h-633z" />
<glyph unicode="&#x16b;" horiz-adv-x="1259" d="M162 381v643h190v-604q0 -60 7 -102.5t26.5 -83t60 -61.5t101.5 -21q145 0 239.5 105t94.5 263v504h190v-1024h-178l-4 143q0 19 2 37.5t4 29t2 11.5h-4q-16 -38 -47 -78t-78 -79t-114 -64t-142 -25q-183 0 -266.5 103.5t-83.5 302.5zM317 1247v150h617v-150h-617z" />
<glyph unicode="&#x16c;" horiz-adv-x="1464" d="M164 516v959h196v-945q0 -174 99 -273t272 -99q175 0 274 98.5t99 273.5v945h196v-959q0 -254 -151 -397.5t-418 -143.5q-266 0 -416.5 144t-150.5 397zM449 1939h147q0 -83 36.5 -128.5t102.5 -45.5q65 0 101 45.5t36 128.5h150q0 -145 -74 -229t-213 -84t-213.5 84 t-72.5 229z" />
<glyph unicode="&#x16d;" horiz-adv-x="1259" d="M162 381v643h190v-604q0 -60 7 -102.5t26.5 -83t60 -61.5t101.5 -21q145 0 239.5 105t94.5 263v504h190v-1024h-178l-4 143q0 19 2 37.5t4 29t2 11.5h-4q-16 -38 -47 -78t-78 -79t-114 -64t-142 -25q-183 0 -266.5 103.5t-83.5 302.5zM334 1477h147q0 -76 34.5 -119 t96.5 -43t96.5 43t34.5 119h148q2 -139 -70.5 -220t-208.5 -81t-208 81t-70 220z" />
<glyph unicode="&#x16e;" horiz-adv-x="1464" d="M164 516v959h196v-945q0 -174 99 -273t272 -99q175 0 274 98.5t99 273.5v945h196v-959q0 -254 -151 -397.5t-418 -143.5q-266 0 -416.5 144t-150.5 397zM516 1786q0 87 61 141.5t156 54.5q93 0 154 -54.5t61 -141.5t-61 -142t-154 -55q-94 0 -155.5 55t-61.5 142z M641 1786q0 -39 25 -64.5t67 -25.5t67 25.5t25 64.5q0 38 -25 63t-67 25t-67 -25t-25 -63z" />
<glyph unicode="&#x16f;" horiz-adv-x="1259" d="M162 381v643h190v-604q0 -60 7 -102.5t26.5 -83t60 -61.5t101.5 -21q145 0 239.5 105t94.5 263v504h190v-1024h-178l-4 143q0 19 2 37.5t4 29t2 11.5h-4q-16 -38 -47 -78t-78 -79t-114 -64t-142 -25q-183 0 -266.5 103.5t-83.5 302.5zM391 1321q0 88 61 141.5t156 53.5 t155 -53.5t60 -141.5q0 -87 -60.5 -141t-154.5 -54q-95 0 -156 54t-61 141zM516 1321q0 -38 25 -62t67 -24t67 24t25 62q0 39 -25 63.5t-67 24.5t-67 -24.5t-25 -63.5z" />
<glyph unicode="&#x170;" horiz-adv-x="1464" d="M164 516v959h196v-945q0 -174 99 -273t272 -99q175 0 274 98.5t99 273.5v945h196v-959q0 -254 -151 -397.5t-418 -143.5q-266 0 -416.5 144t-150.5 397zM455 1604l174 364h221l-229 -364h-166zM791 1604l210 364h230l-273 -364h-167z" />
<glyph unicode="&#x171;" horiz-adv-x="1259" d="M162 381v643h190v-604q0 -60 7 -102.5t26.5 -83t60 -61.5t101.5 -21q145 0 239.5 105t94.5 263v504h190v-1024h-178l-4 143q0 19 2 37.5t4 29t2 11.5h-4q-16 -38 -47 -78t-78 -79t-114 -64t-142 -25q-183 0 -266.5 103.5t-83.5 302.5zM346 1153l174 346h221l-229 -346 h-166zM682 1153l211 346h229l-272 -346h-168z" />
<glyph unicode="&#x172;" horiz-adv-x="1464" d="M164 516v959h196v-945q0 -174 99 -273t272 -99q175 0 274 98.5t99 273.5v945h196v-959q0 -200 -95 -333t-271 -183h2q-193 -118 -193 -244q0 -52 30.5 -77t80.5 -25q47 0 111 22v-127q-66 -24 -136 -24q-102 0 -170.5 50.5t-68.5 145.5q0 134 174 254h-33 q-266 0 -416.5 144t-150.5 397z" />
<glyph unicode="&#x173;" horiz-adv-x="1259" d="M162 381v643h190v-604q0 -60 7 -102.5t26.5 -83t60 -61.5t101.5 -21q145 0 239.5 105t94.5 263v504h190v-1024q-192 -117 -192 -244q0 -52 30 -77t80 -25q47 0 111 22v-127q-66 -24 -135 -24q-102 0 -171 50.5t-69 145.5q0 152 211 279h-43l-4 143q0 19 2 37.5t4 29 t2 11.5h-4q-16 -38 -47 -78t-78 -79t-114 -64t-142 -25q-183 0 -266.5 103.5t-83.5 302.5z" />
<glyph unicode="&#x174;" horiz-adv-x="2043" d="M20 1475h213l236 -617q45 -119 143 -407q25 69 154 387l250 616h4l250 -616q121 -297 153 -387q89 263 144 407l235 617h213l-592 -1500h-4l-317 801q-62 153 -84 221q-16 -43 -84 -221l-318 -801h-4zM672 1606l268 403h156l268 -403h-178l-168 260l-168 -260h-178z" />
<glyph unicode="&#x175;" horiz-adv-x="1581" d="M-2 1024h203l278 -743l260 729h105l258 -729l280 743h201l-430 -1049h-104l-258 699l-259 -699h-104zM485 1153l230 346h159l228 -346h-174l-133 211l-136 -211h-174z" />
<glyph unicode="&#x176;" horiz-adv-x="1241" d="M-10 1475h219l412 -701l411 701h219l-532 -889v-586h-197v586zM272 1606l269 403h155l269 -403h-179l-168 260l-167 -260h-179z" />
<glyph unicode="&#x177;" horiz-adv-x="1060" d="M-2 -299q46 -12 111 -12q59 0 107.5 23t87 70t67 99.5t61.5 130.5l-428 1012h211l143 -371q13 -35 77 -197.5t95 -250.5q19 43 175 448l141 371h211l-404 -977q-32 -78 -58.5 -135.5t-58.5 -114.5t-62.5 -97t-68.5 -75t-79 -56t-90.5 -32.5t-106.5 -11.5q-90 0 -131 18 v158zM223 1153l230 346h159l228 -346h-174l-134 211l-135 -211h-174z" />
<glyph unicode="&#x178;" horiz-adv-x="1241" d="M-10 1475h219l412 -701l411 701h219l-532 -889v-586h-197v586zM305 1786q0 52 32.5 83.5t86.5 31.5q53 0 86 -31.5t33 -83.5t-33 -84.5t-86 -32.5q-54 0 -86.5 32t-32.5 85zM696 1786q0 52 32.5 83.5t86.5 31.5q53 0 86 -31.5t33 -83.5t-33 -84.5t-86 -32.5 q-54 0 -86.5 32t-32.5 85z" />
<glyph unicode="&#x179;" horiz-adv-x="1251" d="M72 0l794 1309h-743v166h1046l-794 -1309h794v-166h-1097zM506 1604l219 407h246l-301 -407h-164z" />
<glyph unicode="&#x17a;" horiz-adv-x="970" d="M51 0l547 864h-506v160h809l-547 -864h555v-160h-858zM393 1153l193 346h248l-267 -346h-174z" />
<glyph unicode="&#x17b;" horiz-adv-x="1251" d="M72 0l794 1309h-743v166h1046l-794 -1309h794v-166h-1097zM506 1786q0 52 32.5 83.5t86.5 31.5q53 0 85.5 -31.5t32.5 -83.5t-32.5 -84.5t-85.5 -32.5q-54 0 -86.5 32t-32.5 85z" />
<glyph unicode="&#x17c;" horiz-adv-x="970" d="M51 0l547 864h-506v160h809l-547 -864h555v-160h-858zM375 1321q0 53 32.5 85t86.5 32q53 0 85.5 -32.5t32.5 -84.5q0 -51 -33 -83t-85 -32q-54 0 -86.5 32t-32.5 83z" />
<glyph unicode="&#x17d;" horiz-adv-x="1251" d="M72 0l794 1309h-743v166h1046l-794 -1309h794v-166h-1097zM289 2009h178l168 -262l168 262h178l-268 -403h-156z" />
<glyph unicode="&#x17e;" horiz-adv-x="970" d="M51 0l547 864h-506v160h809l-547 -864h555v-160h-858zM188 1499h174l136 -211l133 211h174l-227 -346h-160z" />
<glyph unicode="&#x192;" horiz-adv-x="1032" d="M-96 -299q45 -10 119 -10q86 0 143 58.5t72 164.5l114 758h-198v151h223l51 316q26 160 134 260t288 100q60 0 123 -14v-164q-36 12 -117 12q-99 0 -162 -58.5t-80 -164.5l-45 -287h269v-151h-291l-123 -787q-26 -167 -135.5 -263.5t-261.5 -96.5q-76 0 -123 14v162z" />
<glyph unicode="&#x1fa;" d="M0 0l680 1499h4l680 -1499h-209l-145 328h-658l-143 -328h-209zM424 489h514q-159 359 -256 611q-102 -260 -258 -611zM467 1759q0 85 60 138t153 53q94 0 153.5 -52.5t59.5 -138.5q0 -87 -59 -139.5t-154 -52.5q-93 0 -153 52.5t-60 139.5zM588 2007l141 254h232 l-199 -254h-174zM592 1759q0 -38 24 -62t64 -24t64 24t24 62q0 36 -24 59t-64 23t-64 -23t-24 -59z" />
<glyph unicode="&#x1fb;" horiz-adv-x="1095" d="M90 276q0 190 175 275t493 41v51q0 240 -269 240q-96 0 -187.5 -26.5t-145.5 -59.5v176q53 29 149.5 52.5t210.5 23.5q215 0 322.5 -101t107.5 -295v-653h-176l-2 121q-1 22 0.5 42.5t3.5 30.5l2 9h-4q-5 -13 -19 -35t-45.5 -57.5t-69.5 -64t-97.5 -50t-124.5 -21.5 q-144 0 -234 81t-90 220zM279 283q0 -68 45.5 -111t121.5 -43q126 0 217 102.5t91 227.5q-238 38 -356.5 -13t-118.5 -163zM299 1309q0 86 59.5 138t153.5 52q93 0 153 -52.5t60 -137.5q0 -87 -60 -140t-153 -53q-94 0 -153.5 53t-59.5 140zM422 1556l141 254h232l-199 -254 h-174zM424 1309q0 -38 23 -62t65 -24q40 0 64 24t24 62q0 36 -24 59t-64 23q-42 0 -65 -23t-23 -59z" />
<glyph unicode="&#x1fc;" horiz-adv-x="1816" d="M8 0l750 1475h882v-166h-761l159 -480h580v-165h-524l166 -498h505v-166h-641l-108 328h-637l-166 -328h-205zM451 485h516l-205 643zM1083 1604l220 407h245l-301 -407h-164z" />
<glyph unicode="&#x1fd;" horiz-adv-x="1736" d="M90 276q0 183 166 269t469 51q10 72 33 129q-43 158 -269 158q-96 0 -187.5 -26.5t-145.5 -59.5v176q53 29 149.5 52.5t210.5 23.5q249 0 356 -140q134 140 330 140q105 0 190.5 -39t140 -105.5t83.5 -152t29 -181.5q0 -23 -2.5 -58t-2.5 -42h-725v-2q5 -151 96 -239.5 t244 -88.5q96 0 192 27.5t159 69.5v-175q-149 -88 -363 -88q-142 0 -254.5 58.5t-181.5 163.5q-19 -31 -49 -63.5t-78.5 -71t-118.5 -63t-147 -24.5q-144 0 -234 81t-90 220zM279 283q0 -68 45.5 -111t121.5 -43q99 0 179.5 62t115.5 155q-15 56 -18 119q-224 28 -334 -24 t-110 -158zM741 1153l193 346h248l-267 -346h-174zM918 606h538q2 118 -65 200.5t-191 82.5q-122 0 -196.5 -82t-85.5 -201z" />
<glyph unicode="&#x1fe;" horiz-adv-x="1675" d="M82 737q0 210 99 385t273 276t384 101q195 0 362 -90l141 209h177l-197 -291q127 -107 199.5 -259.5t72.5 -330.5q0 -159 -58 -300.5t-158.5 -243t-240.5 -160t-298 -58.5q-193 0 -367 91l-139 -209h-174l194 288q-128 104 -199 257.5t-71 334.5zM281 737 q0 -131 46.5 -243t131.5 -191l639 952q-124 62 -260 62q-157 0 -284.5 -75t-200 -207.5t-72.5 -297.5zM575 219q122 -61 263 -61q239 0 397 164.5t158 414.5q0 130 -46.5 241.5t-129.5 190.5zM694 1604l219 407h246l-301 -407h-164z" />
<glyph unicode="&#x1ff;" horiz-adv-x="1255" d="M100 512q0 232 150 384.5t377 152.5q121 0 231 -50l107 168h182l-160 -254q80 -73 124 -176.5t44 -224.5q0 -153 -68 -275.5t-189 -192t-271 -69.5q-109 0 -207 39l-98 -157h-183l148 235q-88 73 -137.5 182.5t-49.5 237.5zM285 512q0 -162 98 -268l383 610 q-66 29 -139 29q-148 0 -245 -104.5t-97 -266.5zM512 160q55 -19 115 -19q150 0 247 104.5t97 266.5q0 147 -82 248zM532 1153l193 346h248l-266 -346h-175z" />
<glyph unicode="&#x218;" horiz-adv-x="1089" d="M82 1104q0 184 137 289.5t354 105.5q102 0 199.5 -22t167.5 -54v-186q-68 35 -165 60.5t-191 25.5q-138 0 -224 -58t-86 -155q0 -95 71 -163t253 -132q221 -79 320.5 -178.5t99.5 -259.5q0 -188 -135.5 -295t-368.5 -107q-230 0 -426 86v195q212 -104 416 -104 q142 0 231.5 55.5t89.5 154.5q0 103 -71 168t-256 129q-218 75 -317 177.5t-99 267.5zM360 -475l91 354h204l-141 -354h-154z" />
<glyph unicode="&#x219;" horiz-adv-x="921" d="M111 760q0 127 103 208t263 81q157 0 289 -62v-172q-137 72 -268 72q-93 0 -151 -33.5t-58 -99.5q0 -58 49.5 -94t161.5 -72q171 -57 247 -128.5t76 -195.5q0 -137 -101.5 -213t-270.5 -76q-191 0 -334 68v174q76 -37 166 -60.5t161 -23.5q87 0 145 32.5t58 100.5 q0 62 -51 97t-176 75q-74 24 -126 50t-95.5 63.5t-65.5 89.5t-22 119zM266 -475l90 354h205l-141 -354h-154z" />
<glyph unicode="&#x21a;" horiz-adv-x="1136" d="M20 1309v166h1096v-166h-450v-1309h-197v1309h-449zM371 -475l90 354h205l-142 -354h-153z" />
<glyph unicode="&#x21b;" horiz-adv-x="761" d="M37 868v156h170v307h186v-307h309v-156h-309v-530q0 -195 152 -195q97 0 192 45v-165q-86 -48 -229 -48q-58 0 -109.5 16t-96.5 50.5t-71 96t-26 143.5v587h-168zM291 -475l90 354h205l-142 -354h-153z" />
<glyph unicode="&#x237;" horiz-adv-x="563" d="M-72 -295q28 -8 70 -8q88 0 138 55t50 156v1116h191v-1143q0 -170 -89.5 -263t-252.5 -93q-72 0 -107 14v166z" />
<glyph unicode="&#x2c6;" horiz-adv-x="800" d="M92 1153l230 346h159l228 -346h-174l-134 211l-135 -211h-174z" />
<glyph unicode="&#x2c7;" horiz-adv-x="800" d="M92 1499h174l135 -211l134 211h174l-228 -346h-159z" />
<glyph unicode="&#x2d8;" horiz-adv-x="745" d="M94 1477h148q0 -76 34.5 -119t96.5 -43t96.5 43t34.5 119h147q2 -139 -70 -220t-208 -81t-208.5 81t-70.5 220z" />
<glyph unicode="&#x2d9;" horiz-adv-x="421" d="M92 1321q0 53 32.5 85t86.5 32q53 0 86 -32.5t33 -84.5q0 -51 -33 -83t-86 -32q-54 0 -86.5 32t-32.5 83z" />
<glyph unicode="&#x2da;" horiz-adv-x="616" d="M92 1321q0 88 61 141.5t156 53.5t155 -53.5t60 -141.5q0 -87 -60.5 -141t-154.5 -54q-95 0 -156 54t-61 141zM217 1321q0 -38 25 -62t67 -24t67 24t25 62q0 39 -25 63.5t-67 24.5t-67 -24.5t-25 -63.5z" />
<glyph unicode="&#x2db;" horiz-adv-x="559" d="M92 -279q0 54 27.5 105t74.5 92.5t98.5 73.5t110.5 59l35 -51q-192 -117 -192 -244q0 -52 30 -77t80 -25q47 0 111 22v-127q-66 -24 -135 -24q-102 0 -171 50.5t-69 145.5z" />
<glyph unicode="&#x2dc;" horiz-adv-x="833" d="M92 1202v160q24 32 72 55t106 23t155.5 -39t141.5 -39q101 0 174 86v-158q-22 -32 -71 -56t-107 -24t-155.5 40t-141.5 40q-103 0 -174 -88z" />
<glyph unicode="&#x2dd;" horiz-adv-x="960" d="M92 1153l174 346h221l-229 -346h-166zM428 1153l211 346h229l-272 -346h-168z" />
<glyph unicode="&#x301;" horiz-adv-x="618" d="M102 1153l142 254h231l-199 -254h-174z" />
<glyph unicode="&#x3c0;" horiz-adv-x="1542" d="M154 864v160h1222v-160h-205v-575q0 -74 39 -115t107 -41q36 0 72 8v-151q-43 -15 -109 -15q-151 0 -221 87t-70 237v565h-446v-864h-183v864h-206z" />
<glyph unicode="&#x1e80;" horiz-adv-x="2043" d="M20 1475h213l236 -617q45 -119 143 -407q25 69 154 387l250 616h4l250 -616q121 -297 153 -387q89 263 144 407l235 617h213l-592 -1500h-4l-317 801q-62 153 -84 221q-16 -43 -84 -221l-318 -801h-4zM639 2011h246l219 -407h-164z" />
<glyph unicode="&#x1e81;" horiz-adv-x="1581" d="M-2 1024h203l278 -743l260 729h105l258 -729l280 743h201l-430 -1049h-104l-258 699l-259 -699h-104zM424 1499h248l192 -346h-172z" />
<glyph unicode="&#x1e82;" horiz-adv-x="2043" d="M20 1475h213l236 -617q45 -119 143 -407q25 69 154 387l250 616h4l250 -616q121 -297 153 -387q89 263 144 407l235 617h213l-592 -1500h-4l-317 801q-62 153 -84 221q-16 -43 -84 -221l-318 -801h-4zM922 1604l219 407h245l-301 -407h-163z" />
<glyph unicode="&#x1e83;" horiz-adv-x="1581" d="M-2 1024h203l278 -743l260 729h105l258 -729l280 743h201l-430 -1049h-104l-258 699l-259 -699h-104zM707 1153l192 346h248l-266 -346h-174z" />
<glyph unicode="&#x1e84;" horiz-adv-x="2043" d="M20 1475h213l236 -617q45 -119 143 -407q25 69 154 387l250 616h4l250 -616q121 -297 153 -387q89 263 144 407l235 617h213l-592 -1500h-4l-317 801q-62 153 -84 221q-16 -43 -84 -221l-318 -801h-4zM705 1786q0 53 32 84t86 31q53 0 86 -31.5t33 -83.5t-33 -84.5 t-86 -32.5q-54 0 -86 32t-32 85zM1096 1786q0 53 32 84t86 31q53 0 86 -31.5t33 -83.5t-33 -84.5t-86 -32.5q-54 0 -86 32t-32 85z" />
<glyph unicode="&#x1e85;" horiz-adv-x="1581" d="M-2 1024h203l278 -743l260 729h105l258 -729l280 743h201l-430 -1049h-104l-258 699l-259 -699h-104zM477 1321q0 53 32.5 85t86.5 32q53 0 86 -32.5t33 -84.5q0 -51 -33 -83t-86 -32q-54 0 -86.5 32t-32.5 83zM868 1321q0 53 32 85t85 32q54 0 86.5 -32t32.5 -85 q0 -51 -32.5 -83t-86.5 -32q-52 0 -84.5 32t-32.5 83z" />
<glyph unicode="&#x1e9e;" horiz-adv-x="1345" d="M164 0v1006q0 92 34 178.5t99 157.5t171.5 114t238.5 43q93 0 180.5 -20t154 -53t112 -63t81.5 -63l-397 -528l96 -33q186 -63 278.5 -156t92.5 -241q0 -170 -120 -268.5t-335 -98.5q-90 0 -177 18.5t-147 47.5v172q162 -76 308 -76q134 0 211 53t77 150t-78 161.5 t-235 114.5l-225 72l407 553q-38 31 -112.5 55.5t-178.5 24.5q-67 0 -128 -20.5t-110 -60t-78.5 -105t-29.5 -148.5v-987h-190z" />
<glyph unicode="&#x1ef2;" horiz-adv-x="1241" d="M-10 1475h219l412 -701l411 701h219l-532 -889v-586h-197v586zM229 2011h246l219 -407h-164z" />
<glyph unicode="&#x1ef3;" horiz-adv-x="1060" d="M-2 -299q46 -12 111 -12q59 0 107.5 23t87 70t67 99.5t61.5 130.5l-428 1012h211l143 -371q13 -35 77 -197.5t95 -250.5q19 43 175 448l141 371h211l-404 -977q-32 -78 -58.5 -135.5t-58.5 -114.5t-62.5 -97t-68.5 -75t-79 -56t-90.5 -32.5t-106.5 -11.5q-90 0 -131 18 v158zM184 1499h248l193 -346h-172z" />
<glyph unicode="&#x2000;" horiz-adv-x="1130" />
<glyph unicode="&#x2001;" horiz-adv-x="2261" />
<glyph unicode="&#x2002;" horiz-adv-x="1130" />
<glyph unicode="&#x2003;" horiz-adv-x="2261" />
<glyph unicode="&#x2004;" horiz-adv-x="753" />
<glyph unicode="&#x2005;" horiz-adv-x="565" />
<glyph unicode="&#x2006;" horiz-adv-x="376" />
<glyph unicode="&#x2007;" horiz-adv-x="376" />
<glyph unicode="&#x2008;" horiz-adv-x="282" />
<glyph unicode="&#x2009;" horiz-adv-x="452" />
<glyph unicode="&#x200a;" horiz-adv-x="125" />
<glyph unicode="&#x2010;" horiz-adv-x="794" d="M92 500v157h610v-157h-610z" />
<glyph unicode="&#x2011;" horiz-adv-x="794" d="M92 500v157h610v-157h-610z" />
<glyph unicode="&#x2012;" horiz-adv-x="794" d="M92 500v157h610v-157h-610z" />
<glyph unicode="&#x2013;" horiz-adv-x="1191" d="M92 500v157h1008v-157h-1008z" />
<glyph unicode="&#x2014;" horiz-adv-x="1634" d="M92 500v157h1450v-157h-1450z" />
<glyph unicode="&#x2018;" horiz-adv-x="397" d="M20 1049l209 561h158l-158 -561h-209z" />
<glyph unicode="&#x2019;" horiz-adv-x="397" d="M10 1049l158 561h209l-209 -561h-158z" />
<glyph unicode="&#x201a;" horiz-adv-x="397" d="M10 -289l158 561h209l-209 -561h-158z" />
<glyph unicode="&#x201c;" horiz-adv-x="739" d="M20 1049l209 561h158l-158 -561h-209zM362 1049l209 561h158l-158 -561h-209z" />
<glyph unicode="&#x201d;" horiz-adv-x="745" d="M10 1049l158 561h209l-209 -561h-158zM358 1049l158 561h209l-209 -561h-158z" />
<glyph unicode="&#x201e;" horiz-adv-x="745" d="M10 -289l158 561h209l-209 -561h-158zM358 -289l158 561h209l-209 -561h-158z" />
<glyph unicode="&#x2020;" horiz-adv-x="1169" d="M86 897v172h397v543h193v-543h407v-172h-407v-1034h-193v1034h-397z" />
<glyph unicode="&#x2021;" horiz-adv-x="1148" d="M86 289v172h391v553h-391v172h391v426h187v-426h399v-172h-399v-553h399v-172h-399v-426h-187v426h-391z" />
<glyph unicode="&#x2022;" horiz-adv-x="559" d="M92 735q0 83 51 134t136 51q84 0 136 -51t52 -134q0 -80 -52.5 -130t-135.5 -50q-84 0 -135.5 50t-51.5 130z" />
<glyph unicode="&#x2026;" horiz-adv-x="1280" d="M92 90q0 53 32.5 85t86.5 32q53 0 86 -32.5t33 -84.5q0 -51 -33 -83t-86 -32q-54 0 -86.5 32t-32.5 83zM520 90q0 53 32.5 85t86.5 32q53 0 86 -32.5t33 -84.5q0 -51 -33 -83t-86 -32q-54 0 -86.5 32t-32.5 83zM950 90q0 53 32.5 85t86.5 32q53 0 86 -32.5t33 -84.5 q0 -51 -33 -83t-86 -32q-54 0 -86.5 32t-32.5 83z" />
<glyph unicode="&#x202f;" horiz-adv-x="452" />
<glyph unicode="&#x2030;" horiz-adv-x="2228" d="M109 1141q0 150 100 254t246 104t246 -104t100 -254q0 -148 -100 -252.5t-246 -104.5t-246 104.5t-100 252.5zM246 1141q0 -99 60.5 -165.5t148.5 -66.5t149.5 66.5t61.5 165.5t-61.5 166t-149.5 67t-148.5 -67t-60.5 -166zM266 0l1051 1475h139l-1050 -1475h-140z M922 332q0 150 100 254t246 104q180 0 282 -158q99 158 281 158q146 0 246 -104t100 -254q0 -148 -100 -252.5t-246 -104.5q-181 0 -281 156q-103 -156 -282 -156q-146 0 -246 104.5t-100 252.5zM1059 332q0 -99 60.5 -165.5t148.5 -66.5t149.5 66.5t61.5 165.5t-61.5 166 t-149.5 67t-148.5 -67t-60.5 -166zM1622 332q0 -99 60.5 -165.5t148.5 -66.5t149.5 66.5t61.5 165.5t-61.5 166t-149.5 67t-148.5 -67t-60.5 -166z" />
<glyph unicode="&#x2039;" horiz-adv-x="739" d="M113 512l323 512h211l-332 -512l332 -512h-211z" />
<glyph unicode="&#x203a;" horiz-adv-x="739" d="M92 0l332 512l-332 512h211l324 -512l-324 -512h-211z" />
<glyph unicode="&#x2044;" horiz-adv-x="1271" d="M41 0l1051 1475h139l-1051 -1475h-139z" />
<glyph unicode="&#x205f;" horiz-adv-x="565" />
<glyph unicode="&#x2070;" horiz-adv-x="819" d="M66 1083q0 179 96 298.5t248 119.5q153 0 249.5 -119t96.5 -299q0 -181 -96 -299t-250 -118q-152 0 -248 118.5t-96 298.5zM215 1083q0 -124 54.5 -202t140.5 -78q88 0 142 77.5t54 202.5t-54 203t-142 78q-86 0 -140.5 -78.5t-54.5 -202.5z" />
<glyph unicode="&#x2074;" horiz-adv-x="702" d="M33 866l303 633h149l-254 -514h197v205h127v-205h117v-121h-117v-174h-133v176h-389z" />
<glyph unicode="&#x20a4;" horiz-adv-x="1286" d="M131 512v135h193v182h-183v136h183v86q0 214 126.5 331t348.5 117q82 0 163 -16.5t132 -42.5v-178q-123 65 -277 65q-145 0 -225 -76t-80 -215v-71h477v-136h-477v-182h467v-135h-467v-82q0 -163 -74 -260h684v-170h-972q174 206 174 428v84h-193z" />
<glyph unicode="&#x20ac;" horiz-adv-x="1638" d="M82 512v135h223q-4 29 -4 90q0 59 4 90h-203v138h230q68 240 264.5 387t460.5 147q139 0 249.5 -35t168.5 -71v-187q-208 111 -418 111q-182 0 -319.5 -95.5t-198.5 -256.5h735v-138h-768q-6 -47 -6 -90q0 -47 6 -90h747v-135h-714q61 -162 198.5 -258t319.5 -96 q225 0 428 108v-186q-57 -35 -170 -70t-258 -35q-264 0 -460.5 147.5t-264.5 389.5h-250z" />
<glyph unicode="&#x2122;" horiz-adv-x="1345" d="M72 1354v121h493v-121h-180v-496h-137v496h-176zM647 858v617h92l219 -297l224 297h92v-617h-127v381l-189 -231l-184 233v-383h-127z" />
<glyph unicode="&#x212e;" horiz-adv-x="2101" d="M205 735q0 208 113.5 384t308 278t424.5 102q229 0 424 -105t308 -283t113 -386v-25h-1370q-12 0 -12 -10v-391q0 -27 18 -51q98 -95 232 -144t289 -49q164 0 305 56t239 161h123q-114 -136 -288.5 -216.5t-380.5 -80.5q-176 0 -333.5 60t-269.5 161.5t-177.5 242 t-65.5 296.5zM514 788q0 -14 12 -14h1053q6 0 6 14v390q0 27 -18 51q-95 92 -229.5 141t-284.5 49q-319 0 -518 -190q-21 -27 -21 -58v-383z" />
<glyph unicode="&#x2153;" horiz-adv-x="1732" d="M129 690v129h186v527h-176v129h326v-656h180v-129h-516zM262 0l1051 1475h139l-1051 -1475h-139zM1079 23v127q113 -46 217 -46q74 0 117 32t43 81q0 61 -55.5 97t-157.5 36h-43v111h51q86 0 141.5 34t55.5 85q0 49 -42.5 74.5t-117.5 25.5q-93 0 -196 -45v127 q100 47 211 47q133 0 211.5 -60t78.5 -159q0 -62 -42.5 -109t-114.5 -73q78 -24 123 -75.5t45 -125.5q0 -103 -83 -167.5t-218 -64.5q-130 0 -224 48z" />
<glyph unicode="&#x2154;" horiz-adv-x="1820" d="M129 690q110 112 169 175.5t120 137.5t86.5 125t25.5 93q0 68 -42 107.5t-115 39.5q-111 0 -203 -63v135q92 61 219 61q134 0 211.5 -71.5t77.5 -192.5q0 -51 -23 -107t-67.5 -114t-82 -99.5t-91.5 -95.5h307v-131h-592zM350 0l1051 1475h139l-1051 -1475h-139zM1167 23 v127q113 -46 217 -46q74 0 117 32t43 81q0 61 -55.5 97t-157.5 36h-43v111h51q86 0 141.5 34t55.5 85q0 49 -42.5 74.5t-117.5 25.5q-94 0 -196 -45v127q100 47 211 47q133 0 211.5 -60t78.5 -159q0 -62 -42.5 -109t-114.5 -73q78 -24 123 -75.5t45 -125.5 q0 -103 -83 -167.5t-218 -64.5q-130 0 -224 48z" />
<glyph unicode="&#x2212;" horiz-adv-x="1288" d="M188 659v156h912v-156h-912z" />
<glyph unicode="&#x2215;" horiz-adv-x="1271" d="M41 0l1051 1475h139l-1051 -1475h-139z" />
<glyph unicode="&#x2219;" horiz-adv-x="421" d="M92 733q0 53 32.5 85t86.5 32q53 0 86 -32.5t33 -84.5q0 -51 -33 -83t-86 -32q-54 0 -86.5 32t-32.5 83z" />
<glyph unicode="&#x2248;" horiz-adv-x="1239" d="M188 795v153q39 36 106 59t138 23q69 0 188 -40t185 -40q64 0 129 24.5t110 61.5v-153q-39 -36 -105.5 -59t-137.5 -23q-69 0 -188.5 40t-184.5 40q-64 0 -130 -25t-110 -61zM197 438v154q38 36 104.5 60t136.5 24q69 0 188.5 -40t184.5 -40t130.5 24t109.5 60v-152 q-39 -36 -106 -60t-136 -24q-70 0 -189.5 40t-185.5 40q-64 0 -129 -24.5t-108 -61.5z" />
<glyph unicode="&#x2260;" horiz-adv-x="1288" d="M188 465v158h351l114 229h-465v158h535l188 374h95l-187 -374h281v-158h-352l-115 -229h467v-158h-537l-186 -375h-94l186 375h-281z" />
<glyph unicode="&#x2264;" horiz-adv-x="1193" d="M117 883l884 542v-200l-569 -342l569 -340v-201zM174 102v115h827v-115h-827z" />
<glyph unicode="&#x2265;" horiz-adv-x="1193" d="M193 102v115h827v-115h-827zM193 342v201l569 340l-569 342v200l884 -542z" />
<glyph unicode="&#x25fc;" horiz-adv-x="1024" d="M0 0v1024h1024v-1024h-1024z" />
<glyph unicode="&#xf6c3;" horiz-adv-x="479" d="M92 -475l90 354h205l-141 -354h-154z" />
<glyph d="M0 0l598 1475h168l598 -1475h-207l-139 358h-672l-139 -358h-207zM410 520h544l-272 692z" />
<glyph d="M0 0l598 1475h168l598 -1475h-207l-139 358h-672l-139 -358h-207zM410 520h544l-272 692zM618 1604l220 407h245l-301 -407h-164z" />
<glyph d="M0 0l598 1475h168l598 -1475h-207l-139 358h-672l-139 -358h-207zM399 1939h148q0 -83 36.5 -128.5t102.5 -45.5q65 0 101 45.5t36 128.5h150q0 -145 -74 -229t-213 -84t-214 84t-73 229zM410 520h544l-272 692z" />
<glyph d="M0 0l598 1475h168l598 -1475h-207l-139 358h-672l-139 -358h-207zM336 1606l268 403h156l268 -403h-178l-168 260l-168 -260h-178zM410 520h544l-272 692z" />
<glyph d="M0 0l598 1475h168l598 -1475h-207l-139 358h-672l-139 -358h-207zM371 1786q0 53 32 84t86 31q53 0 86 -31.5t33 -83.5t-33 -84.5t-86 -32.5q-54 0 -86 32t-32 85zM410 520h544l-272 692zM762 1786q0 52 32.5 83.5t86.5 31.5q53 0 85.5 -31.5t32.5 -83.5t-32.5 -84.5 t-85.5 -32.5q-54 0 -86.5 32t-32.5 85z" />
<glyph d="M0 0l598 1475h168l598 -1475h-207l-139 358h-672l-139 -358h-207zM297 2011h246l219 -407h-164zM410 520h544l-272 692z" />
<glyph d="M0 0l598 1475h168l598 -1475h-207l-139 358h-672l-139 -358h-207zM369 1710v152h632v-152h-632zM410 520h544l-272 692z" />
<glyph d="M0 0l598 1475h168l598 -1475h-21q-192 -117 -192 -244q0 -52 30.5 -77t80.5 -25q46 0 110 22v-127q-66 -24 -135 -24q-102 0 -171 50.5t-69 145.5q0 152 211 279h-51l-139 358h-672l-139 -358h-207zM410 520h544l-272 692z" />
<glyph d="M0 0l598 1475h168l598 -1475h-207l-139 358h-672l-139 -358h-207zM410 520h544l-272 692zM467 1786q0 87 61 141.5t156 54.5q93 0 154 -54.5t61 -141.5t-61 -142t-154 -55q-94 0 -155.5 55t-61.5 142zM592 1786q0 -39 25 -64.5t67 -25.5t67 25.5t25 64.5q0 38 -25 63 t-67 25t-67 -25t-25 -63z" />
<glyph d="M0 0l598 1475h168l598 -1475h-207l-139 358h-672l-139 -358h-207zM410 520h544l-272 692zM469 1749q0 85 60 137.5t153 52.5q94 0 153.5 -52t59.5 -138q0 -87 -59.5 -140t-153.5 -53q-93 0 -153 53t-60 140zM594 1749q0 -38 24 -62t64 -24t64 24t24 62q0 36 -24 59 t-64 23t-64 -23t-24 -59zM594 1991l141 254h232l-199 -254h-174z" />
<glyph d="M0 0l598 1475h168l598 -1475h-207l-139 358h-672l-139 -358h-207zM356 1661v162q24 32 72.5 56t106.5 24t156.5 -40t142.5 -40q103 0 174 88v-162q-22 -32 -70.5 -56t-106.5 -24t-157.5 40t-143.5 40q-103 0 -174 -88zM410 520h544l-272 692z" />
<glyph horiz-adv-x="585" d="M-160 -256q71 -43 172 -43q89 0 136 49.5t47 143.5v1581h196v-1547q0 -200 -86.5 -301.5t-271.5 -101.5q-123 0 -193 41v178z" />
<glyph horiz-adv-x="585" d="M-160 -256q71 -43 172 -43q89 0 136 49.5t47 143.5v1581h196v-1547q0 -200 -86.5 -301.5t-271.5 -101.5q-123 0 -193 41v178zM-53 1606l268 403h156l268 -403h-178l-168 260l-168 -260h-178z" />
<glyph horiz-adv-x="1431" d="M195 0v1475h196v-789l703 789h243l-551 -601l334 -614q61 -110 176 -110q54 0 95 12v-170q-59 -17 -127 -17q-103 0 -181.5 54t-142.5 172l-289 534l-260 -282v-453h-196z" />
<glyph horiz-adv-x="1361" d="M195 0v1475h196v-789l703 789h243l-528 -576q94 -263 219 -476t267 -362t303.5 -249t327.5 -147t341 -48q136 0 262 21v-175q-92 -28 -272 -28q-190 0 -370 47.5t-355.5 150t-329.5 255.5t-291.5 374.5t-240.5 495.5l-279 -305v-453h-196z" />
<glyph horiz-adv-x="1269" d="M195 0v1475h196v-789l703 789h243l-540 -588l127 -301q196 -469 434 -688t561 -220q138 0 262 31v-172q-95 -37 -276 -37q-180 0 -334 53t-297 169t-269.5 307t-238.5 460l-107 254l-268 -290v-453h-196z" />
<glyph horiz-adv-x="1431" d="M195 0v1475h196v-789l703 789h243l-551 -601l334 -614q61 -110 176 -110q54 0 95 12v-170q-59 -17 -127 -17q-103 0 -181.5 54t-142.5 172l-289 534l-260 -282v-453h-196zM518 -475l90 354h205l-141 -354h-154z" />
<glyph horiz-adv-x="1304" d="M195 0v1475h196v-789l703 789h243l-528 -576q94 -263 219 -476t267 -362t303.5 -249t327.5 -147t341 -48q136 0 262 21v-175q-92 -28 -272 -28q-190 0 -370 47.5t-355.5 150t-329.5 255.5t-291.5 374.5t-240.5 495.5l-279 -305v-453h-196zM498 -475l90 354h205l-142 -354 h-153z" />
<glyph horiz-adv-x="1249" d="M195 0v1475h196v-789l703 789h243l-540 -588l127 -301q196 -469 434 -688t561 -220q138 0 262 31v-172q-95 -37 -276 -37q-180 0 -334 53t-297 169t-269.5 307t-238.5 460l-107 254l-268 -290v-453h-196zM477 -475l90 354h205l-141 -354h-154z" />
<glyph horiz-adv-x="1812" d="M195 0v1475h200l510 -773l512 773h201v-1475h-191v1149l-522 -764l-520 764v-1149h-190z" />
<glyph horiz-adv-x="1591" d="M195 0v1475h186l819 -1137v1137h197v-1475h-187l-819 1137v-1137h-196z" />
<glyph horiz-adv-x="1591" d="M195 0v1475h186l819 -1137v1137h197v-1475h-187l-819 1137v-1137h-196zM698 1604l220 407h245l-301 -407h-164z" />
<glyph horiz-adv-x="1591" d="M195 0v1475h186l819 -1137v1137h197v-1475h-187l-819 1137v-1137h-196zM446 2009h179l168 -262l168 262h178l-269 -403h-155z" />
<glyph horiz-adv-x="1591" d="M195 0v1475h186l819 -1137v1137h197v-1475h-187l-819 1137v-1137h-196zM592 -475l90 354h205l-142 -354h-153z" />
<glyph horiz-adv-x="1591" d="M195 0v1475h186l819 -1137v1137h197v-1475h-187l-819 1137v-1137h-196zM446 1661v162q24 32 72.5 56t106.5 24t156.5 -40t142.5 -40q103 0 174 88v-162q-22 -32 -70 -56t-106 -24t-157.5 40t-143.5 40q-104 0 -175 -88z" />
<glyph horiz-adv-x="1705" d="M82 737q0 210 99 385t273 276t384 101q156 0 295.5 -59t240.5 -159.5t160 -242.5t59 -301q0 -212 -98.5 -385.5t-267.5 -271.5q261 -266 578 -395t655 -129q311 0 557 129v-187q-78 -46 -244.5 -85.5t-323.5 -39.5q-377 0 -740.5 162.5t-661.5 466.5q-111 -27 -209 -27 q-158 0 -298.5 58.5t-240.5 160t-158.5 243t-58.5 300.5zM281 737q0 -165 72.5 -297.5t199.5 -207t285 -74.5q239 0 397 164.5t158 414.5t-158 415t-397 165q-157 0 -284.5 -75t-200 -207.5t-72.5 -297.5z" />
<glyph horiz-adv-x="1705" d="M82 737q0 210 99 385t273 276t384 101q156 0 295.5 -59t240.5 -159.5t160 -242.5t59 -301q0 -220 -104.5 -397t-284.5 -274q208 -227 457 -338t510 -111q267 0 495 104v-182q-73 -38 -213 -71t-290 -33q-302 0 -600 145t-543 416q-103 -21 -182 -21q-158 0 -298.5 58.5 t-240.5 160t-158.5 243t-58.5 300.5zM281 737q0 -165 72.5 -297.5t199.5 -207t285 -74.5q239 0 397 164.5t158 414.5t-158 415t-397 165q-157 0 -284.5 -75t-200 -207.5t-72.5 -297.5z" />
<glyph horiz-adv-x="1300" d="M195 0v1475h477q243 0 380.5 -119.5t137.5 -331.5q0 -156 -88 -266.5t-219 -151.5l145 -346q47 -115 141 -115q36 0 80 11v-164q-53 -17 -119 -17q-176 0 -272 224l-160 379h-307v-578h-196zM391 739h291q146 0 228.5 75.5t82.5 209.5t-86.5 209.5t-240.5 75.5h-275v-570 z" />
<glyph horiz-adv-x="1296" d="M195 0v1475h477q243 0 380.5 -119.5t137.5 -331.5q0 -162 -93 -273.5t-225 -146.5l113 -223q209 -388 515 -577.5t753 -190.5q163 0 323 41v-174q-53 -19 -145.5 -32t-192.5 -13q-335 0 -605 104t-469.5 299.5t-350.5 487.5l-123 252h-299v-578h-196zM391 739h291 q146 0 228.5 75.5t82.5 209.5t-86.5 209.5t-240.5 75.5h-275v-570z" />
<glyph horiz-adv-x="1234" d="M195 0v1475h477q243 0 380.5 -119.5t137.5 -331.5q0 -155 -97 -267.5t-235 -152.5l74 -170q326 -757 981 -760q143 0 282 41v-174q-98 -45 -297 -45q-380 0 -670 225t-468 658l-82 199h-287v-578h-196zM391 739h291q146 0 228.5 75.5t82.5 209.5t-86.5 209.5t-240.5 75.5 h-275v-570z" />
<glyph horiz-adv-x="1300" d="M195 0v1475h477q243 0 380.5 -119.5t137.5 -331.5q0 -156 -88 -266.5t-219 -151.5l145 -346q47 -115 141 -115q36 0 80 11v-164q-53 -17 -119 -17q-176 0 -272 224l-160 379h-307v-578h-196zM391 739h291q146 0 228.5 75.5t82.5 209.5t-86.5 209.5t-240.5 75.5h-275v-570 zM496 1604l219 407h246l-302 -407h-163z" />
<glyph horiz-adv-x="1296" d="M195 0v1475h477q243 0 380.5 -119.5t137.5 -331.5q0 -162 -93 -273.5t-225 -146.5l113 -223q209 -388 515 -577.5t753 -190.5q163 0 323 41v-174q-53 -19 -145.5 -32t-192.5 -13q-335 0 -605 104t-469.5 299.5t-350.5 487.5l-123 252h-299v-578h-196zM391 739h291 q146 0 228.5 75.5t82.5 209.5t-86.5 209.5t-240.5 75.5h-275v-570zM506 1604l219 407h246l-301 -407h-164z" />
<glyph horiz-adv-x="1234" d="M195 0v1475h477q243 0 380.5 -119.5t137.5 -331.5q0 -155 -97 -267.5t-235 -152.5l74 -170q326 -757 981 -760q143 0 282 41v-174q-98 -45 -297 -45q-380 0 -670 225t-468 658l-82 199h-287v-578h-196zM391 739h291q146 0 228.5 75.5t82.5 209.5t-86.5 209.5t-240.5 75.5 h-275v-570zM506 1604l219 407h246l-301 -407h-164z" />
<glyph horiz-adv-x="1300" d="M195 0v1475h477q243 0 380.5 -119.5t137.5 -331.5q0 -156 -88 -266.5t-219 -151.5l145 -346q47 -115 141 -115q36 0 80 11v-164q-53 -17 -119 -17q-176 0 -272 224l-160 379h-307v-578h-196zM279 2009h178l168 -262l168 262h178l-269 -403h-155zM391 739h291 q146 0 228.5 75.5t82.5 209.5t-86.5 209.5t-240.5 75.5h-275v-570z" />
<glyph horiz-adv-x="1296" d="M195 0v1475h477q243 0 380.5 -119.5t137.5 -331.5q0 -162 -93 -273.5t-225 -146.5l113 -223q209 -388 515 -577.5t753 -190.5q163 0 323 41v-174q-53 -19 -145.5 -32t-192.5 -13q-335 0 -605 104t-469.5 299.5t-350.5 487.5l-123 252h-299v-578h-196zM268 2009h178 l168 -262l168 262h179l-269 -403h-155zM391 739h291q146 0 228.5 75.5t82.5 209.5t-86.5 209.5t-240.5 75.5h-275v-570z" />
<glyph horiz-adv-x="1234" d="M195 0v1475h477q243 0 380.5 -119.5t137.5 -331.5q0 -155 -97 -267.5t-235 -152.5l74 -170q326 -757 981 -760q143 0 282 41v-174q-98 -45 -297 -45q-380 0 -670 225t-468 658l-82 199h-287v-578h-196zM268 2009h178l168 -262l168 262h179l-269 -403h-155zM391 739h291 q146 0 228.5 75.5t82.5 209.5t-86.5 209.5t-240.5 75.5h-275v-570z" />
<glyph horiz-adv-x="1300" d="M195 0v1475h477q243 0 380.5 -119.5t137.5 -331.5q0 -156 -88 -266.5t-219 -151.5l145 -346q47 -115 141 -115q36 0 80 11v-164q-53 -17 -119 -17q-176 0 -272 224l-160 379h-307v-578h-196zM391 739h291q146 0 228.5 75.5t82.5 209.5t-86.5 209.5t-240.5 75.5h-275v-570 zM487 -475l91 354h204l-141 -354h-154z" />
<glyph horiz-adv-x="1296" d="M195 0v1475h477q243 0 380.5 -119.5t137.5 -331.5q0 -162 -93 -273.5t-225 -146.5l113 -223q209 -388 515 -577.5t753 -190.5q163 0 323 41v-174q-53 -19 -145.5 -32t-192.5 -13q-335 0 -605 104t-469.5 299.5t-350.5 487.5l-123 252h-299v-578h-196zM391 739h291 q146 0 228.5 75.5t82.5 209.5t-86.5 209.5t-240.5 75.5h-275v-570zM467 -475l90 354h205l-141 -354h-154z" />
<glyph horiz-adv-x="1234" d="M195 0v1475h477q243 0 380.5 -119.5t137.5 -331.5q0 -155 -97 -267.5t-235 -152.5l74 -170q326 -757 981 -760q143 0 282 41v-174q-98 -45 -297 -45q-380 0 -670 225t-468 658l-82 199h-287v-578h-196zM391 739h291q146 0 228.5 75.5t82.5 209.5t-86.5 209.5t-240.5 75.5 h-275v-570zM457 -475l90 354h205l-142 -354h-153z" />
<glyph horiz-adv-x="1351" d="M0 1475h217l459 -1182l459 1182h217l-594 -1475h-164z" />
<glyph horiz-adv-x="2119" d="M0 1475h217l383 -1151l387 1151h127l406 -1151l383 1151h217l-518 -1475h-168l-383 1073l-365 -1073h-168z" />
<glyph horiz-adv-x="2119" d="M0 1475h217l383 -1151l387 1151h127l406 -1151l383 1151h217l-518 -1475h-168l-383 1073l-365 -1073h-168zM971 1604l219 407h246l-301 -407h-164z" />
<glyph horiz-adv-x="2119" d="M0 1475h217l383 -1151l387 1151h127l406 -1151l383 1151h217l-518 -1475h-168l-383 1073l-365 -1073h-168zM711 1606l268 403h156l268 -403h-178l-168 260l-168 -260h-178z" />
<glyph horiz-adv-x="2119" d="M0 1475h217l383 -1151l387 1151h127l406 -1151l383 1151h217l-518 -1475h-168l-383 1073l-365 -1073h-168zM743 1786q0 52 32.5 83.5t86.5 31.5q53 0 86 -31.5t33 -83.5t-33 -84.5t-86 -32.5q-54 0 -86.5 32t-32.5 85zM1135 1786q0 53 32 84t86 31q53 0 86 -31.5 t33 -83.5t-33 -84.5t-86 -32.5q-54 0 -86 32t-32 85z" />
<glyph horiz-adv-x="2119" d="M0 1475h217l383 -1151l387 1151h127l406 -1151l383 1151h217l-518 -1475h-168l-383 1073l-365 -1073h-168zM651 2011h246l219 -407h-164z" />
<glyph horiz-adv-x="1159" d="M82 0v160l768 1145h-729v170h946v-160l-768 -1145h799v-170h-1016z" />
<glyph horiz-adv-x="1105" d="M57 -25l809 1334h-743v166h1046l-720 -1184q109 -19 270 -129q74 -47 194 -130.5t201.5 -139.5t201.5 -125t222 -110t233.5 -70t264.5 -29q156 0 323 36t260 95l2 -189q-88 -54 -254.5 -89.5t-338.5 -35.5q-122 0 -242 22t-232.5 65t-209.5 89.5t-204.5 115t-183.5 120.5 t-180.5 126t-163.5 114q-154 108 -260 116l-102 -168h-193z" />
<glyph horiz-adv-x="1105" d="M57 -25l854 1330h-788v170h1005v-160l-679 -1024q109 -19 270 -129q74 -47 194 -130.5t201.5 -139.5t201.5 -125t222 -110t233.5 -70t264.5 -29q156 0 323 36t260 95l2 -189q-88 -54 -254.5 -89.5t-338.5 -35.5q-122 0 -242 22t-232.5 65t-209.5 89.5t-204.5 115 t-183.5 120.5t-180.5 126t-163.5 114q-154 108 -260 116l-102 -168h-193z" />
<glyph horiz-adv-x="1075" d="M57 -25l809 1334h-743v166h1046l-735 -1211q95 -21 244 -125q61 -42 151.5 -111t155.5 -119t157 -109t173 -96t184 -62t209 -25q123 0 260 32t221 77l2 -189q-77 -41 -216.5 -71.5t-274.5 -30.5q-114 0 -230 28.5t-206.5 69t-197 106.5t-175.5 117t-168.5 127t-151.5 113 q-142 104 -239 117l-82 -138h-193z" />
<glyph horiz-adv-x="1075" d="M57 -25l856 1330h-790v170h1005v-160l-694 -1051q95 -21 244 -125q61 -42 151.5 -111t155.5 -119t157 -109t173 -96t184 -62t209 -25q123 0 260 32t221 77l2 -189q-77 -41 -216.5 -71.5t-274.5 -30.5q-114 0 -230 28.5t-206.5 69t-197 106.5t-175.5 117t-168.5 127 t-151.5 113q-142 104 -239 117l-82 -138h-193z" />
<glyph horiz-adv-x="1159" d="M82 0v160l768 1145h-729v170h946v-160l-768 -1145h799v-170h-1016zM485 1604l220 407h245l-301 -407h-164z" />
<glyph horiz-adv-x="1105" d="M57 -25l809 1334h-743v166h1046l-720 -1184q109 -19 270 -129q74 -47 194 -130.5t201.5 -139.5t201.5 -125t222 -110t233.5 -70t264.5 -29q156 0 323 36t260 95l2 -189q-88 -54 -254.5 -89.5t-338.5 -35.5q-122 0 -242 22t-232.5 65t-209.5 89.5t-204.5 115t-183.5 120.5 t-180.5 126t-163.5 114q-154 108 -260 116l-102 -168h-193zM506 1604l219 407h246l-301 -407h-164z" />
<glyph horiz-adv-x="1105" d="M57 -25l854 1330h-788v170h1005v-160l-679 -1024q109 -19 270 -129q74 -47 194 -130.5t201.5 -139.5t201.5 -125t222 -110t233.5 -70t264.5 -29q156 0 323 36t260 95l2 -189q-88 -54 -254.5 -89.5t-338.5 -35.5q-122 0 -242 22t-232.5 65t-209.5 89.5t-204.5 115 t-183.5 120.5t-180.5 126t-163.5 114q-154 108 -260 116l-102 -168h-193zM506 1604l219 407h246l-301 -407h-164z" />
<glyph horiz-adv-x="1075" d="M57 -25l809 1334h-743v166h1046l-735 -1211q95 -21 244 -125q61 -42 151.5 -111t155.5 -119t157 -109t173 -96t184 -62t209 -25q123 0 260 32t221 77l2 -189q-77 -41 -216.5 -71.5t-274.5 -30.5q-114 0 -230 28.5t-206.5 69t-197 106.5t-175.5 117t-168.5 127t-151.5 113 q-142 104 -239 117l-82 -138h-193zM506 1604l219 407h246l-301 -407h-164z" />
<glyph horiz-adv-x="1075" d="M57 -25l856 1330h-790v170h1005v-160l-694 -1051q95 -21 244 -125q61 -42 151.5 -111t155.5 -119t157 -109t173 -96t184 -62t209 -25q123 0 260 32t221 77l2 -189q-77 -41 -216.5 -71.5t-274.5 -30.5q-114 0 -230 28.5t-206.5 69t-197 106.5t-175.5 117t-168.5 127 t-151.5 113q-142 104 -239 117l-82 -138h-193zM506 1604l219 407h246l-301 -407h-164z" />
<glyph horiz-adv-x="1159" d="M82 0v160l768 1145h-729v170h946v-160l-768 -1145h799v-170h-1016zM262 2009h178l168 -262l168 262h178l-268 -403h-156z" />
<glyph horiz-adv-x="1105" d="M57 -25l809 1334h-743v166h1046l-720 -1184q109 -19 270 -129q74 -47 194 -130.5t201.5 -139.5t201.5 -125t222 -110t233.5 -70t264.5 -29q156 0 323 36t260 95l2 -189q-88 -54 -254.5 -89.5t-338.5 -35.5q-122 0 -242 22t-232.5 65t-209.5 89.5t-204.5 115t-183.5 120.5 t-180.5 126t-163.5 114q-154 108 -260 116l-102 -168h-193zM289 2009h178l168 -262l168 262h178l-268 -403h-156z" />
<glyph horiz-adv-x="1105" d="M57 -25l854 1330h-788v170h1005v-160l-679 -1024q109 -19 270 -129q74 -47 194 -130.5t201.5 -139.5t201.5 -125t222 -110t233.5 -70t264.5 -29q156 0 323 36t260 95l2 -189q-88 -54 -254.5 -89.5t-338.5 -35.5q-122 0 -242 22t-232.5 65t-209.5 89.5t-204.5 115 t-183.5 120.5t-180.5 126t-163.5 114q-154 108 -260 116l-102 -168h-193zM289 2009h178l168 -262l168 262h178l-268 -403h-156z" />
<glyph horiz-adv-x="1075" d="M57 -25l809 1334h-743v166h1046l-735 -1211q95 -21 244 -125q61 -42 151.5 -111t155.5 -119t157 -109t173 -96t184 -62t209 -25q123 0 260 32t221 77l2 -189q-77 -41 -216.5 -71.5t-274.5 -30.5q-114 0 -230 28.5t-206.5 69t-197 106.5t-175.5 117t-168.5 127t-151.5 113 q-142 104 -239 117l-82 -138h-193zM289 2009h178l168 -262l168 262h178l-268 -403h-156z" />
<glyph horiz-adv-x="1075" d="M57 -25l856 1330h-790v170h1005v-160l-694 -1051q95 -21 244 -125q61 -42 151.5 -111t155.5 -119t157 -109t173 -96t184 -62t209 -25q123 0 260 32t221 77l2 -189q-77 -41 -216.5 -71.5t-274.5 -30.5q-114 0 -230 28.5t-206.5 69t-197 106.5t-175.5 117t-168.5 127 t-151.5 113q-142 104 -239 117l-82 -138h-193zM289 2009h178l168 -262l168 262h178l-268 -403h-156z" />
<glyph horiz-adv-x="1159" d="M82 0v160l768 1145h-729v170h946v-160l-768 -1145h799v-170h-1016zM461 1786q0 52 32.5 83.5t86.5 31.5q53 0 85.5 -31.5t32.5 -83.5t-32.5 -84.5t-85.5 -32.5q-54 0 -86.5 32t-32.5 85z" />
<glyph horiz-adv-x="1105" d="M57 -25l809 1334h-743v166h1046l-720 -1184q109 -19 270 -129q74 -47 194 -130.5t201.5 -139.5t201.5 -125t222 -110t233.5 -70t264.5 -29q156 0 323 36t260 95l2 -189q-88 -54 -254.5 -89.5t-338.5 -35.5q-122 0 -242 22t-232.5 65t-209.5 89.5t-204.5 115t-183.5 120.5 t-180.5 126t-163.5 114q-154 108 -260 116l-102 -168h-193zM506 1786q0 52 32.5 83.5t86.5 31.5q53 0 85.5 -31.5t32.5 -83.5t-32.5 -84.5t-85.5 -32.5q-54 0 -86.5 32t-32.5 85z" />
<glyph horiz-adv-x="1105" d="M57 -25l854 1330h-788v170h1005v-160l-679 -1024q109 -19 270 -129q74 -47 194 -130.5t201.5 -139.5t201.5 -125t222 -110t233.5 -70t264.5 -29q156 0 323 36t260 95l2 -189q-88 -54 -254.5 -89.5t-338.5 -35.5q-122 0 -242 22t-232.5 65t-209.5 89.5t-204.5 115 t-183.5 120.5t-180.5 126t-163.5 114q-154 108 -260 116l-102 -168h-193zM506 1786q0 52 32.5 83.5t86.5 31.5q53 0 85.5 -31.5t32.5 -83.5t-32.5 -84.5t-85.5 -32.5q-54 0 -86.5 32t-32.5 85z" />
<glyph horiz-adv-x="1075" d="M57 -25l809 1334h-743v166h1046l-735 -1211q95 -21 244 -125q61 -42 151.5 -111t155.5 -119t157 -109t173 -96t184 -62t209 -25q123 0 260 32t221 77l2 -189q-77 -41 -216.5 -71.5t-274.5 -30.5q-114 0 -230 28.5t-206.5 69t-197 106.5t-175.5 117t-168.5 127t-151.5 113 q-142 104 -239 117l-82 -138h-193zM506 1786q0 52 32.5 83.5t86.5 31.5q53 0 85.5 -31.5t32.5 -83.5t-32.5 -84.5t-85.5 -32.5q-54 0 -86.5 32t-32.5 85z" />
<glyph horiz-adv-x="1075" d="M57 -25l856 1330h-790v170h1005v-160l-694 -1051q95 -21 244 -125q61 -42 151.5 -111t155.5 -119t157 -109t173 -96t184 -62t209 -25q123 0 260 32t221 77l2 -189q-77 -41 -216.5 -71.5t-274.5 -30.5q-114 0 -230 28.5t-206.5 69t-197 106.5t-175.5 117t-168.5 127 t-151.5 113q-142 104 -239 117l-82 -138h-193zM506 1786q0 52 32.5 83.5t86.5 31.5q53 0 85.5 -31.5t32.5 -83.5t-32.5 -84.5t-85.5 -32.5q-54 0 -86.5 32t-32.5 85z" />
<glyph horiz-adv-x="1302" d="M100 512q0 238 134.5 387.5t336.5 149.5q119 0 222 -61.5t145 -145.5h4q-1 3 -2 9.5t-3 26.5t-1 40l4 106h176v-1024h-176l-4 121q0 20 1.5 39t2.5 28l2 9h-4q-42 -91 -143 -156.5t-220 -65.5q-204 0 -339.5 150.5t-135.5 386.5zM285 512q0 -161 88 -266t229 -105 q60 0 116 22.5t102.5 66t75 117t28.5 165.5t-28.5 165.5t-75 117t-102.5 66t-116 22.5q-142 0 -229.5 -103.5t-87.5 -267.5z" />
<glyph horiz-adv-x="1308" d="M104 512q0 238 134.5 387.5t336.5 149.5q119 0 222 -61.5t145 -145.5h4q-1 3 -2 9.5t-3 26.5t-1 40l4 106h176v-1024h-176l-4 121q0 20 1.5 39t2.5 28l2 9h-4q-42 -91 -142.5 -156.5t-219.5 -65.5q-204 0 -340 150.5t-136 386.5zM289 512q0 -161 88 -266t229 -105 q60 0 116 22.5t102.5 66t75 117t28.5 165.5t-28.5 165.5t-75 117t-102.5 66t-116 22.5q-142 0 -229.5 -103.5t-87.5 -267.5zM492 1153l192 346h248l-266 -346h-174z" />
<glyph horiz-adv-x="1308" d="M104 512q0 238 134.5 387.5t336.5 149.5q119 0 222 -61.5t145 -145.5h4q-1 3 -2 9.5t-3 26.5t-1 40l4 106h176v-1024h-176l-4 121q0 20 1.5 39t2.5 28l2 9h-4q-42 -91 -142.5 -156.5t-219.5 -65.5q-204 0 -340 150.5t-136 386.5zM289 512q0 -161 88 -266t229 -105 q60 0 116 22.5t102.5 66t75 117t28.5 165.5t-28.5 165.5t-75 117t-102.5 66t-116 22.5q-142 0 -229.5 -103.5t-87.5 -267.5zM309 1477h148q0 -76 34.5 -119t96.5 -43t96.5 43t34.5 119h147q2 -139 -70 -220t-208 -81t-208.5 81t-70.5 220z" />
<glyph horiz-adv-x="1308" d="M104 512q0 238 134.5 387.5t336.5 149.5q119 0 222 -61.5t145 -145.5h4q-1 3 -2 9.5t-3 26.5t-1 40l4 106h176v-1024h-176l-4 121q0 20 1.5 39t2.5 28l2 9h-4q-42 -91 -142.5 -156.5t-219.5 -65.5q-204 0 -340 150.5t-136 386.5zM289 512q0 -161 88 -266t229 -105 q60 0 116 22.5t102.5 66t75 117t28.5 165.5t-28.5 165.5t-75 117t-102.5 66t-116 22.5q-142 0 -229.5 -103.5t-87.5 -267.5zM297 1153l229 346h160l227 -346h-174l-133 211l-135 -211h-174z" />
<glyph horiz-adv-x="649" d="M92 1153l219 408h246l-301 -408h-164z" />
<glyph horiz-adv-x="618" d="M102 1153l142 254h231l-199 -254h-174z" />
<glyph horiz-adv-x="1308" d="M104 512q0 238 134.5 387.5t336.5 149.5q119 0 222 -61.5t145 -145.5h4q-1 3 -2 9.5t-3 26.5t-1 40l4 106h176v-1024h-176l-4 121q0 20 1.5 39t2.5 28l2 9h-4q-42 -91 -142.5 -156.5t-219.5 -65.5q-204 0 -340 150.5t-136 386.5zM283 1321q0 53 32 85t86 32 q53 0 86 -32.5t33 -84.5q0 -51 -33 -83t-86 -32q-54 0 -86 32t-32 83zM289 512q0 -161 88 -266t229 -105q60 0 116 22.5t102.5 66t75 117t28.5 165.5t-28.5 165.5t-75 117t-102.5 66t-116 22.5q-142 0 -229.5 -103.5t-87.5 -267.5zM674 1321q0 53 32 85t85 32q54 0 86 -32 t32 -85q0 -51 -32 -83t-86 -32q-52 0 -84.5 32t-32.5 83z" />
<glyph horiz-adv-x="1308" d="M104 512q0 238 134.5 387.5t336.5 149.5q119 0 222 -61.5t145 -145.5h4q-1 3 -2 9.5t-3 26.5t-1 40l4 106h176v-1024h-176l-4 121q0 20 1.5 39t2.5 28l2 9h-4q-42 -91 -142.5 -156.5t-219.5 -65.5q-204 0 -340 150.5t-136 386.5zM268 1499h248l193 -346h-172zM289 512 q0 -161 88 -266t229 -105q60 0 116 22.5t102.5 66t75 117t28.5 165.5t-28.5 165.5t-75 117t-102.5 66t-116 22.5q-142 0 -229.5 -103.5t-87.5 -267.5z" />
<glyph horiz-adv-x="1308" d="M104 512q0 238 134.5 387.5t336.5 149.5q119 0 222 -61.5t145 -145.5h4q-1 3 -2 9.5t-3 26.5t-1 40l4 106h176v-1024h-176l-4 121q0 20 1.5 39t2.5 28l2 9h-4q-42 -91 -142.5 -156.5t-219.5 -65.5q-204 0 -340 150.5t-136 386.5zM276 1247v150h617v-150h-617zM289 512 q0 -161 88 -266t229 -105q60 0 116 22.5t102.5 66t75 117t28.5 165.5t-28.5 165.5t-75 117t-102.5 66t-116 22.5q-142 0 -229.5 -103.5t-87.5 -267.5z" />
<glyph horiz-adv-x="1503" d="M61 371q0 60 19.5 114.5t49 95t74 79t83.5 64t88 52.5q-90 96 -134 178t-44 189q0 146 107 251t271 105q155 0 266 -99.5t111 -236.5q0 -66 -22 -126.5t-55 -104t-79 -82.5t-85 -63t-82 -44l354 -364q93 188 72 377h170q14 -132 -14.5 -261.5t-96.5 -236.5 q37 -36 73.5 -61t59.5 -36.5t56 -17.5t43 -6h40q40 0 80 15v-156q-65 -21 -118 -21q-177 0 -351 158q-169 -158 -426 -158q-232 0 -371 113t-139 283zM246 387q0 -112 91 -183t236 -71q179 0 306 121l-402 416q-231 -118 -231 -283zM367 1147q0 -80 36.5 -144t118.5 -151 q262 131 262 295q0 81 -61 137.5t-148 56.5t-147.5 -56.5t-60.5 -137.5z" />
<glyph horiz-adv-x="1308" d="M104 512q0 238 134.5 387.5t336.5 149.5q119 0 222 -61.5t145 -145.5h4q-1 3 -2 9.5t-3 26.5t-1 40l4 106h176v-1024q-192 -117 -192 -244q0 -52 30 -77t80 -25q47 0 111 22v-127q-66 -24 -135 -24q-102 0 -171 50.5t-69 145.5q0 152 211 279h-41l-4 121q0 20 1.5 39 t2.5 28l2 9h-4q-42 -91 -142.5 -156.5t-219.5 -65.5q-204 0 -340 150.5t-136 386.5zM289 512q0 -161 88 -266t229 -105q60 0 116 22.5t102.5 66t75 117t28.5 165.5t-28.5 165.5t-75 117t-102.5 66t-116 22.5q-142 0 -229.5 -103.5t-87.5 -267.5z" />
<glyph horiz-adv-x="1308" d="M104 512q0 238 134.5 387.5t336.5 149.5q119 0 222 -61.5t145 -145.5h4q-1 3 -2 9.5t-3 26.5t-1 40l4 106h176v-1024h-176l-4 121q0 20 1.5 39t2.5 28l2 9h-4q-42 -91 -142.5 -156.5t-219.5 -65.5q-204 0 -340 150.5t-136 386.5zM289 512q0 -161 88 -266t229 -105 q60 0 116 22.5t102.5 66t75 117t28.5 165.5t-28.5 165.5t-75 117t-102.5 66t-116 22.5q-142 0 -229.5 -103.5t-87.5 -267.5zM377 1321q0 88 61 141.5t156 53.5t155 -53.5t60 -141.5q0 -87 -60.5 -141t-154.5 -54q-95 0 -156 54t-61 141zM502 1321q0 -38 25 -62t67 -24t67 24 t25 62q0 39 -25 63.5t-67 24.5t-67 -24.5t-25 -63.5z" />
<glyph horiz-adv-x="1308" d="M104 512q0 238 134.5 387.5t336.5 149.5q119 0 222 -61.5t145 -145.5h4q-1 3 -2 9.5t-3 26.5t-1 40l4 106h176v-1024h-176l-4 121q0 20 1.5 39t2.5 28l2 9h-4q-42 -91 -142.5 -156.5t-219.5 -65.5q-204 0 -340 150.5t-136 386.5zM289 512q0 -161 88 -266t229 -105 q60 0 116 22.5t102.5 66t75 117t28.5 165.5t-28.5 165.5t-75 117t-102.5 66t-116 22.5q-142 0 -229.5 -103.5t-87.5 -267.5zM387 1309q0 86 59.5 138t153.5 52q93 0 153 -52.5t60 -137.5q0 -87 -60 -140t-153 -53q-94 0 -153.5 53t-59.5 140zM496 1554l141 254h231 l-198 -254h-174zM512 1309q0 -38 23 -62t65 -24q40 0 64 24t24 62q0 36 -24 59t-64 23q-42 0 -65 -23t-23 -59z" />
<glyph horiz-adv-x="1157" d="M102 737l398 762h159l396 -760h-203l-272 551l-277 -553h-201z" />
<glyph horiz-adv-x="1308" d="M104 512q0 238 134.5 387.5t336.5 149.5q119 0 222 -61.5t145 -145.5h4q-1 3 -2 9.5t-3 26.5t-1 40l4 106h176v-1024h-176l-4 121q0 20 1.5 39t2.5 28l2 9h-4q-42 -91 -142.5 -156.5t-219.5 -65.5q-204 0 -340 150.5t-136 386.5zM272 1202v160q24 32 72.5 55t106.5 23 t155.5 -39t141.5 -39q101 0 174 86v-158q-22 -32 -71.5 -56t-107.5 -24t-155.5 40t-141.5 40q-103 0 -174 -88zM289 512q0 -161 88 -266t229 -105q60 0 116 22.5t102.5 66t75 117t28.5 165.5t-28.5 165.5t-75 117t-102.5 66t-116 22.5q-142 0 -229.5 -103.5t-87.5 -267.5z " />
<glyph horiz-adv-x="821" d="M125 1489h147q0 -83 37 -128.5t103 -45.5q65 0 101 45.5t36 128.5h149q0 -145 -74 -229t-212 -84q-139 0 -214 84t-73 229z" />
<glyph horiz-adv-x="876" d="M92 1559h178l168 -263l168 263h178l-268 -404h-156z" />
<glyph horiz-adv-x="876" d="M92 1155l268 404h156l268 -404h-178l-168 260l-168 -260h-178z" />
<glyph horiz-adv-x="813" d="M92 1335q0 52 32.5 83.5t86.5 31.5q53 0 86 -31.5t33 -83.5t-33 -84t-86 -32q-54 0 -86.5 31.5t-32.5 84.5zM483 1335q0 52 32.5 83.5t86.5 31.5q53 0 86 -31.5t33 -83.5t-33 -84t-86 -32q-54 0 -86.5 31.5t-32.5 84.5z" />
<glyph horiz-adv-x="421" d="M92 1335q0 52 32.5 83.5t86.5 31.5q53 0 86 -31.5t33 -83.5t-33 -84t-86 -32q-54 0 -86.5 31.5t-32.5 84.5z" />
<glyph horiz-adv-x="696" d="M63 868v156h158v115q0 164 99.5 262t271.5 98q77 0 125 -12v-166q-48 12 -107 12q-99 0 -155 -54.5t-56 -156.5v-98h273v-156h-266v-1319h-191v1319h-152z" />
<glyph horiz-adv-x="2310" d="M205 944v72h295v-72h-113v-301h-80v301h-102zM238 430h12l37 -106l39 102h8l39 -102l37 106h12l-43 -119h-12l-37 101l-39 -101h-10zM428 430h8l39 -106l37 102h10l39 -102l35 106h12l-43 -119h-10l-39 101l-35 -101h-10zM453 643v252h82v-252h-82zM598 547v348h66l8 -23 l8 7q6 8 21.5 15t35.5 7q50 0 77.5 -34.5t27.5 -94.5t-33 -96.5t-88 -36.5q-24 0 -41 10v-102h-82zM614 430h13l37 -106l36 102h11l37 -102l38 106h11l-43 -119h-13l-36 101l-37 -101h-11zM680 709q9 -9 31 -9q47 0 47 68q0 70 -45 70q-20 0 -33 -13v-116zM801 317q0 9 10 9 q4 0 4 -9q0 -10 -6 -10q-8 0 -8 10zM836 424v6h90v-6h-39v-113h-10v113h-41zM879 768q0 61 34 97t93 36q61 0 95 -35t34 -94q0 -61 -35 -97t-96 -36q-59 0 -92 35t-33 94zM948 311v119h13v-119h-13zM961 772q0 -76 45 -76t45 72q0 76 -45 76t-45 -72zM999 311v119h37 q43 0 43 -35q0 -17 -12.5 -27t-32.5 -10h-24v-47h-11zM1010 367h26q33 0 33 26q0 31 -35 31h-24v-57zM1081 944v72h285v-72h-102v-301h-80v301h-103zM1096 371q0 28 15.5 44.5t43.5 16.5q26 0 41.5 -16.5t15.5 -44.5t-15.5 -46t-43.5 -18q-24 0 -40.5 18.5t-16.5 45.5z M1108 371q0 -24 12 -39t35 -15q21 0 34 14t13 38q0 55 -49 55q-45 0 -45 -53zM1223 424v6h90v-6h-39v-113h-10v113h-41zM1300 895h91l51 -172h2l41 172h88l-80 -256q-20 -55 -49 -78.5t-76 -23.5q-33 0 -61 14l10 57q1 0 7.5 -1.5t17 -3t20.5 -1.5q32 0 37 31l-8 26z M1319 430h10l41 -65l41 65h10l-47 -74v-45h-10v45zM1444 311v119h37q43 0 43 -35q0 -17 -12 -27t-31 -10h-27v-47h-10zM1454 367h27q30 0 30 26q0 31 -30 31h-27v-57zM1548 311v119h72v-6h-61v-49h59v-8h-59v-48h63v-8h-74zM1597 547v348h66l8 -23l6 7q22 22 62 22 q47 0 74.5 -35t27.5 -94q0 -60 -33 -96.5t-88 -36.5q-23 0 -43 10v-102h-80zM1651 317q0 9 8 9t8 -9q0 -10 -8 -10t-8 10zM1677 709q18 -9 33 -9q23 0 35 19t12 49q0 70 -47 70q-16 0 -33 -13v-116zM1694 371q0 28 16 44.5t45 16.5q18 0 27 -6l-2 -6q-12 4 -27 4 q-47 0 -47 -53q0 -54 53 -54q15 0 25 5l4 -9q-24 -6 -31 -6q-28 0 -45.5 18.5t-17.5 45.5zM1804 371q0 28 16 44.5t44 16.5q25 0 42 -17t17 -44t-17 -45.5t-44 -18.5q-26 0 -42 18.5t-16 45.5zM1815 371q0 -24 13 -39t36 -15q20 0 33.5 14t13.5 38q0 26 -13.5 40.5 t-35.5 14.5q-21 0 -34 -14t-13 -39zM1876 768q0 61 34 97t95 36q46 0 73 -26.5t27 -67.5q0 -29 -8 -53h-139q6 -49 55 -49q33 0 70 14l16 -60q-35 -20 -94 -20q-61 0 -95 35t-34 94zM1952 311v119h14l51 -90l47 90h17v-119h-10v109l-50 -92h-8l-49 92v-109h-12zM1958 797h70 q5 20 -3.5 33.5t-25.5 13.5q-20 0 -29 -11.5t-12 -35.5z" />
<glyph horiz-adv-x="1136" d="M51 313v160l494 1002h205l-498 -994h475v426h174v-426h205v-168h-205v-313h-176v313h-674z" />
<glyph horiz-adv-x="702" d="M53 846v98l283 555h149l-274 -534h217v225h127v-225h117v-121h-117v-154h-133v156h-369z" />
<glyph horiz-adv-x="1302" d="M100 512q0 236 135.5 386.5t339.5 150.5q119 0 220 -61.5t143 -145.5h4q-6 31 -6 76l4 106h176v-1024q0 -119 -40 -211t-112.5 -149t-169 -86t-212.5 -29q-223 0 -367 86v182q153 -92 363 -92q158 0 253 81t95 228v80q0 24 1.5 45.5t2.5 30.5l2 10h-4 q-44 -83 -141.5 -142t-215.5 -59q-202 0 -336.5 149.5t-134.5 387.5zM285 512q0 -164 87.5 -267.5t229.5 -103.5q60 0 116 22.5t102.5 66t75 117t28.5 165.5t-28.5 165.5t-75 117t-102.5 66t-116 22.5q-141 0 -229 -105t-88 -266z" />
<glyph horiz-adv-x="1308" d="M104 512q0 236 136 386.5t340 150.5q119 0 219.5 -61.5t142.5 -145.5h4q-6 31 -6 76l4 106h176v-1024q0 -119 -40 -211t-112.5 -149t-169 -86t-212.5 -29q-223 0 -367 86v182q153 -92 363 -92q158 0 253 81t95 228v80q0 24 1.5 45.5t2.5 30.5l2 10h-4 q-44 -83 -141.5 -142t-215.5 -59q-202 0 -336.5 149.5t-134.5 387.5zM289 512q0 -164 87.5 -267.5t229.5 -103.5q60 0 116 22.5t102.5 66t75 117t28.5 165.5t-28.5 165.5t-75 117t-102.5 66t-116 22.5q-141 0 -229 -105t-88 -266zM315 1477h148q0 -76 34.5 -119t96.5 -43 t96.5 43t34.5 119h147q2 -139 -70 -220t-208 -81t-208.5 81t-70.5 220z" />
<glyph horiz-adv-x="1308" d="M104 512q0 236 136 386.5t340 150.5q119 0 219.5 -61.5t142.5 -145.5h4q-6 31 -6 76l4 106h176v-1024q0 -119 -40 -211t-112.5 -149t-169 -86t-212.5 -29q-223 0 -367 86v182q153 -92 363 -92q158 0 253 81t95 228v80q0 24 1.5 45.5t2.5 30.5l2 10h-4 q-44 -83 -141.5 -142t-215.5 -59q-202 0 -336.5 149.5t-134.5 387.5zM285 1153l229 346h160l227 -346h-174l-133 211l-135 -211h-174zM289 512q0 -164 87.5 -267.5t229.5 -103.5q60 0 116 22.5t102.5 66t75 117t28.5 165.5t-28.5 165.5t-75 117t-102.5 66t-116 22.5 q-141 0 -229 -105t-88 -266z" />
<glyph horiz-adv-x="1308" d="M104 512q0 236 136 386.5t340 150.5q119 0 219.5 -61.5t142.5 -145.5h4q-6 31 -6 76l4 106h176v-1024q0 -119 -40 -211t-112.5 -149t-169 -86t-212.5 -29q-223 0 -367 86v182q153 -92 363 -92q158 0 253 81t95 228v80q0 24 1.5 45.5t2.5 30.5l2 10h-4 q-44 -83 -141.5 -142t-215.5 -59q-202 0 -336.5 149.5t-134.5 387.5zM289 512q0 -164 87.5 -267.5t229.5 -103.5q60 0 116 22.5t102.5 66t75 117t28.5 165.5t-28.5 165.5t-75 117t-102.5 66t-116 22.5q-141 0 -229 -105t-88 -266zM479 1149l142 354h153l-90 -354h-205z" />
<glyph horiz-adv-x="1308" d="M104 512q0 236 136 386.5t340 150.5q119 0 219.5 -61.5t142.5 -145.5h4q-6 31 -6 76l4 106h176v-1024q0 -119 -40 -211t-112.5 -149t-169 -86t-212.5 -29q-223 0 -367 86v182q153 -92 363 -92q158 0 253 81t95 228v80q0 24 1.5 45.5t2.5 30.5l2 10h-4 q-44 -83 -141.5 -142t-215.5 -59q-202 0 -336.5 149.5t-134.5 387.5zM289 512q0 -164 87.5 -267.5t229.5 -103.5q60 0 116 22.5t102.5 66t75 117t28.5 165.5t-28.5 165.5t-75 117t-102.5 66t-116 22.5q-141 0 -229 -105t-88 -266zM479 1321q0 53 32.5 85t86.5 32 q53 0 86 -32.5t33 -84.5q0 -51 -33 -83t-86 -32q-54 0 -86.5 32t-32.5 83z" />
<glyph horiz-adv-x="1277" d="M186 -451v1498q0 58 14 116.5t50 120t89.5 108.5t140 77t194.5 30q174 0 284.5 -89.5t110.5 -233.5q0 -73 -36 -137t-87 -107.5t-102 -80t-87 -72t-36 -66.5q0 -33 21.5 -56.5t46.5 -35.5t99 -41q21 -9 32 -13q51 -20 83 -34t69.5 -32.5t59.5 -35t44.5 -39t34 -47t19 -56 t7.5 -69.5q0 -134 -102.5 -206.5t-270.5 -72.5q-190 0 -323 68v174q75 -37 161.5 -60.5t155.5 -23.5q82 0 140.5 32.5t58.5 94.5q0 25 -10.5 45t-24 34t-48 31.5t-59 27.5t-81.5 32q-62 24 -97 39.5t-77 40.5t-63 50.5t-35.5 63.5t-14.5 85q0 56 35 107t84.5 89.5t99 76 t84.5 84.5t35 97q0 78 -58 124t-155 46q-135 0 -216 -84.5t-81 -222.5v-1477h-189z" />
<glyph horiz-adv-x="649" d="M92 1561h246l219 -408h-164z" />
<glyph horiz-adv-x="960" d="M92 1153l174 365h221l-229 -365h-166zM428 1153l211 365h229l-272 -365h-168z" />
<glyph horiz-adv-x="563" d="M162 1321q0 53 32.5 85t86.5 32q53 0 85.5 -32.5t32.5 -84.5q0 -51 -33 -83t-85 -32q-54 0 -86.5 32t-32.5 83zM186 0v1024h191v-1024h-191z" />
<glyph horiz-adv-x="563" d="M162 1321q0 53 32.5 85t86.5 32q53 0 85.5 -32.5t32.5 -84.5q0 -51 -33 -83t-85 -32q-54 0 -86.5 32t-32.5 83zM186 -451v1475h191v-1475h-191z" />
<glyph horiz-adv-x="563" d="M-27 1153l230 346h159l228 -346h-174l-133 211l-136 -211h-174zM186 -451v1475h191v-1475h-191z" />
<glyph horiz-adv-x="1128" d="M186 0v1475h191v-1475h-191zM424 526l420 498h227l-434 -498l434 -526h-227z" />
<glyph horiz-adv-x="1064" d="M186 0v1475h191v-1475h-191zM424 526l420 498h227l-438 -504q65 -137 143.5 -258t180.5 -231.5t215 -189.5t252 -126t286 -47q160 0 326 49v-170q-124 -57 -328 -57q-410 0 -730.5 268t-553.5 768z" />
<glyph horiz-adv-x="1144" d="M186 0v1475h191v-957l450 506h232l-393 -449l206 -327q38 -60 68.5 -81.5t77.5 -21.5q56 0 96 15v-160q-50 -25 -135 -25q-45 0 -79.5 9.5t-61 24.5t-55 49t-51 68t-60.5 97l-146 242l-151 -172v-293h-189z" />
<glyph horiz-adv-x="1146" d="M186 0v1475h191v-965l463 514h227l-369 -418q56 -117 109.5 -213.5t119.5 -195.5t132.5 -175.5t148.5 -145t169.5 -113t192 -70t218.5 -25.5q154 0 309 49v-170q-124 -57 -328 -57q-142 0 -272 34.5t-241 101t-210 155t-186 204.5t-160 241.5t-141 273.5l-184 -207v-293 h-189z" />
<glyph horiz-adv-x="1128" d="M186 0v1475h191v-1475h-191zM401 -475l91 354h204l-141 -354h-154zM424 526l420 498h227l-434 -498l434 -526h-227z" />
<glyph horiz-adv-x="1144" d="M186 0v1475h191v-957l450 506h232l-393 -449l206 -327q38 -60 68.5 -81.5t77.5 -21.5q56 0 96 15v-160q-50 -25 -135 -25q-45 0 -79.5 9.5t-61 24.5t-55 49t-51 68t-60.5 97l-146 242l-151 -172v-293h-189zM414 -475l90 354h205l-142 -354h-153z" />
<glyph horiz-adv-x="1146" d="M186 0v1475h191v-965l463 514h227l-369 -418q56 -117 109.5 -213.5t119.5 -195.5t132.5 -175.5t148.5 -145t169.5 -113t192 -70t218.5 -25.5q154 0 309 49v-170q-124 -57 -328 -57q-142 0 -272 34.5t-241 101t-210 155t-186 204.5t-160 241.5t-141 273.5l-184 -207v-293 h-189zM385 -475l90 354h205l-141 -354h-154z" />
<glyph horiz-adv-x="563" d="M186 0v1475h191v-1475h-191z" />
<glyph horiz-adv-x="563" d="M186 0v1475h191v-1475h-191zM195 1571l192 346h248l-266 -346h-174z" />
<glyph horiz-adv-x="784" d="M186 0v1475h191v-1475h-191zM584 879v579h178v-579h-178z" />
<glyph horiz-adv-x="563" d="M90 -475l90 354h205l-141 -354h-154zM186 0v1475h191v-1475h-191z" />
<glyph horiz-adv-x="743" d="M186 0v1475h191v-1475h-191zM532 723q0 53 32.5 85t86.5 32q53 0 86 -32.5t33 -84.5q0 -51 -33 -83t-86 -32q-54 0 -86.5 32t-32.5 83z" />
<glyph horiz-adv-x="602" d="M29 504v176l178 113v682h190v-560l176 113v-176l-176 -113v-739h-190v616z" />
<glyph horiz-adv-x="817" d="M92 1260v151h633v-151h-633z" />
<glyph horiz-adv-x="1757" d="M129 690v129h186v527h-176v129h326v-656h180v-129h-516zM262 0l1051 1475h139l-1051 -1475h-139zM1065 0v111q179 142 230 189q150 139 151 230q0 69 -50.5 108.5t-127.5 39.5q-110 0 -203 -64v136q92 61 219 61q136 0 222.5 -72.5t86.5 -191.5q0 -183 -305 -416h348 v-131h-571z" />
<glyph horiz-adv-x="1675" d="M129 690v129h186v527h-176v129h326v-656h180v-129h-516zM262 0l1051 1475h139l-1051 -1475h-139zM928 156v98l282 555h150l-275 -535h218v226h127v-226h116v-120h-116v-154h-134v156h-368z" />
<glyph horiz-adv-x="618" d="M92 1335q0 87 61.5 142t155.5 55q93 0 154 -55t61 -142t-61 -141.5t-154 -54.5q-95 0 -156 54.5t-61 141.5zM217 1335q0 -39 25 -64.5t67 -25.5t67 25.5t25 64.5q0 38 -25 63t-67 25t-67 -25t-25 -63z" />
<glyph horiz-adv-x="610" d="M92 1309q0 86 59.5 138t153.5 52q93 0 153 -52.5t60 -137.5q0 -87 -60 -140t-153 -53q-94 0 -153.5 53t-59.5 140zM217 1309q0 -38 23 -62t65 -24q40 0 64 24t24 62q0 36 -24 59t-64 23q-42 0 -65 -23t-23 -59z" />
<glyph horiz-adv-x="610" d="M92 1309q0 85 60 137.5t153 52.5q94 0 153.5 -52t59.5 -138q0 -87 -59.5 -140t-153.5 -53q-93 0 -153 53t-60 140zM217 1309q0 -38 24 -62t64 -24t64 24t24 62q0 36 -24 59t-64 23t-64 -23t-24 -59z" />
<glyph horiz-adv-x="1001" d="M10 1305v170h910v-150l-596 -1325h-199l596 1305h-711z" />
<glyph horiz-adv-x="702" d="M41 868v156h207v348h188v-348h234v-156h-234v-868h-190v868h-205z" />
<glyph horiz-adv-x="702" d="M41 868v156h207v348h188v-348h234v-156h-234v-243h223v-136h-223v-489h-190v489h-195v136h195v243h-205z" />
<glyph horiz-adv-x="770" d="M41 868v156h207v348h188v-348h234v-156h-234v-868h-190v868h-205zM567 1157v574h178v-574h-178z" />
<glyph horiz-adv-x="702" d="M41 868v156h207v348h188v-348h234v-156h-234v-868h-190v868h-205zM150 -475l90 354h204l-141 -354h-153z" />
<glyph horiz-adv-x="1687" d="M129 713v127q110 -45 217 -45q74 0 117 31.5t43 80.5q0 61 -55.5 97t-157.5 36h-43v111h51q86 0 141.5 34t55.5 85q0 49 -42.5 74.5t-117.5 25.5q-94 0 -197 -45v127q100 47 211 47q133 0 212 -60t79 -159q0 -62 -43 -109t-115 -73q78 -24 123 -75.5t45 -125.5 q0 -103 -83 -167t-218 -64q-131 0 -223 47zM274 0l1051 1475h139l-1050 -1475h-140zM940 156v98l283 555h149l-274 -535h217v226h127v-226h117v-120h-117v-154h-133v156h-369z" />
<glyph horiz-adv-x="835" d="M92 1210v162q24 32 72.5 56t105.5 24q58 0 156.5 -40t142.5 -40q103 0 174 88v-162q-22 -32 -70 -55.5t-106 -23.5t-157.5 39.5t-143.5 39.5q-103 0 -174 -88z" />
<glyph horiz-adv-x="1089" d="M61 0v160q52 50 125 118.5t114.5 108t98.5 94.5t89 89t73 79.5t63 78t46.5 73t36 75t19 73.5t7.5 79q0 131 -84.5 210t-230.5 79q-90 0 -175 -29t-147 -74v189q63 44 153 70t187 26q226 0 363 -130t137 -337q0 -60 -18.5 -123.5t-48.5 -121t-77 -121.5t-95 -119 t-112 -118.5t-118 -114.5t-122 -113q-23 -21 -34 -31h686v-170h-936z" />
<glyph horiz-adv-x="667" d="M35 690v111q180 143 234 194q147 136 147 226q0 69 -50.5 108t-127.5 39q-111 0 -203 -63v135q92 61 219 61q136 0 222.5 -72.5t86.5 -191.5q0 -183 -305 -416h348v-131h-571z" />
<glyph horiz-adv-x="1216" d="M152 473v551h190v-520q0 -181 64.5 -266.5t201.5 -85.5t201.5 85.5t64.5 266.5v520h191v-551q0 -237 -120.5 -367.5t-336.5 -130.5q-215 0 -335.5 130.5t-120.5 367.5z" />
<glyph horiz-adv-x="1216" d="M152 473v551h190v-520q0 -181 64.5 -266.5t201.5 -85.5t201.5 85.5t64.5 266.5v520h191v-551q0 -237 -120.5 -367.5t-336.5 -130.5q-215 0 -335.5 130.5t-120.5 367.5zM489 1153l193 346h248l-266 -346h-175z" />
<glyph horiz-adv-x="1216" d="M152 473v551h190v-520q0 -181 64.5 -266.5t201.5 -85.5t201.5 85.5t64.5 266.5v520h191v-551q0 -237 -120.5 -367.5t-336.5 -130.5q-215 0 -335.5 130.5t-120.5 367.5zM328 1477h147q0 -76 34.5 -119t96.5 -43t96.5 43t34.5 119h148q2 -139 -70.5 -220t-208.5 -81 t-208 81t-70 220z" />
<glyph horiz-adv-x="1216" d="M152 473v551h190v-520q0 -181 64.5 -266.5t201.5 -85.5t201.5 85.5t64.5 266.5v520h191v-551q0 -237 -120.5 -367.5t-336.5 -130.5q-215 0 -335.5 130.5t-120.5 367.5zM299 1153l229 346h160l227 -346h-174l-133 211l-135 -211h-174z" />
<glyph horiz-adv-x="1216" d="M152 473v551h190v-520q0 -181 64.5 -266.5t201.5 -85.5t201.5 85.5t64.5 266.5v520h191v-551q0 -237 -120.5 -367.5t-336.5 -130.5q-215 0 -335.5 130.5t-120.5 367.5zM295 1321q0 53 32.5 85t86.5 32q53 0 85.5 -32.5t32.5 -84.5q0 -51 -33 -83t-85 -32q-54 0 -86.5 32 t-32.5 83zM686 1321q0 53 32 85t85 32q54 0 86.5 -32t32.5 -85q0 -51 -32.5 -83t-86.5 -32q-52 0 -84.5 32t-32.5 83z" />
<glyph horiz-adv-x="1216" d="M152 473v551h190v-520q0 -181 64.5 -266.5t201.5 -85.5t201.5 85.5t64.5 266.5v520h191v-551q0 -237 -120.5 -367.5t-336.5 -130.5q-215 0 -335.5 130.5t-120.5 367.5zM285 1499h247l193 -346h-172z" />
<glyph horiz-adv-x="1267" d="M152 473v551h190v-520q0 -181 64.5 -266.5t201.5 -85.5t201.5 85.5t64.5 266.5v520h191v-551q0 -237 -120.5 -367.5t-336.5 -130.5q-215 0 -335.5 130.5t-120.5 367.5zM340 1153l174 346h221l-229 -346h-166zM676 1153l211 346h229l-272 -346h-168z" />
<glyph horiz-adv-x="1216" d="M152 473v551h190v-520q0 -181 64.5 -266.5t201.5 -85.5t201.5 85.5t64.5 266.5v520h191v-551q0 -237 -120.5 -367.5t-336.5 -130.5q-215 0 -335.5 130.5t-120.5 367.5zM299 1247v150h616v-150h-616z" />
<glyph horiz-adv-x="702" d="M41 868v156h207v348h188v-348h234v-156h-234v-868h-45l-47 -117q76 -2 137.5 -46.5t61.5 -125.5q0 -93 -70 -139.5t-178 -46.5q-73 0 -121 12v125q36 -12 92 -12q47 0 85 21t38 61q0 36 -30.5 57t-73 23.5t-86.5 -0.5l80 188h-33v868h-205z" />
<glyph horiz-adv-x="1216" d="M152 473v551h190v-520q0 -181 64.5 -266.5t201.5 -85.5t201.5 85.5t64.5 266.5v520h191v-551q0 -187 -76 -308.5t-217 -164.5q-190 -116 -190 -244q0 -52 30 -77t80 -25q47 0 111 22v-127q-66 -24 -135 -24q-102 0 -171 50.5t-69 145.5q0 136 172 254q-212 3 -330 133 t-118 365z" />
<glyph horiz-adv-x="1216" d="M152 473v551h190v-520q0 -181 64.5 -266.5t201.5 -85.5t201.5 85.5t64.5 266.5v520h191v-551q0 -237 -120.5 -367.5t-336.5 -130.5q-215 0 -335.5 130.5t-120.5 367.5zM391 1321q0 88 61 141.5t156 53.5t155 -53.5t60 -141.5q0 -87 -60.5 -141t-154.5 -54q-95 0 -156 54 t-61 141zM516 1321q0 -38 25 -62t67 -24t67 24t25 62q0 39 -25 63.5t-67 24.5t-67 -24.5t-25 -63.5z" />
<glyph horiz-adv-x="1216" d="M152 473v551h190v-520q0 -181 64.5 -266.5t201.5 -85.5t201.5 85.5t64.5 266.5v520h191v-551q0 -237 -120.5 -367.5t-336.5 -130.5q-215 0 -335.5 130.5t-120.5 367.5zM285 1202v160q24 32 72 55t106 23t155.5 -39t141.5 -39q101 0 174 86v-158q-22 -32 -71 -56t-107 -24 t-155.5 40t-141.5 40q-103 0 -174 -88z" />
<glyph horiz-adv-x="1040" d="M-4 1024h199q161 -388 325 -834q156 426 326 834h198l-432 -1049h-184z" />
<glyph horiz-adv-x="1636" d="M12 1024h199q227 -709 264 -834q39 131 139 442t125 392h158q25 -81 125 -392t139 -442q37 125 264 834h199l-369 -1049h-186q-155 450 -252 777q-90 -314 -250 -777h-186z" />
<glyph horiz-adv-x="1636" d="M12 1024h199q227 -709 264 -834q39 131 139 442t125 392h158q25 -81 125 -392t139 -442q37 125 264 834h199l-369 -1049h-186q-155 450 -252 777q-90 -314 -250 -777h-186zM729 1153l193 346h247l-266 -346h-174z" />
<glyph horiz-adv-x="1636" d="M12 1024h199q227 -709 264 -834q39 131 139 442t125 392h158q25 -81 125 -392t139 -442q37 125 264 834h199l-369 -1049h-186q-155 450 -252 777q-90 -314 -250 -777h-186zM504 1153l229 346h160l227 -346h-174l-133 211l-135 -211h-174z" />
<glyph horiz-adv-x="1636" d="M12 1024h199q227 -709 264 -834q39 131 139 442t125 392h158q25 -81 125 -392t139 -442q37 125 264 834h199l-369 -1049h-186q-155 450 -252 777q-90 -314 -250 -777h-186zM502 1321q0 53 32.5 85t86.5 32q53 0 85.5 -32.5t32.5 -84.5q0 -51 -33 -83t-85 -32 q-54 0 -86.5 32t-32.5 83zM893 1321q0 53 32.5 85t84.5 32q54 0 86 -32t32 -85q0 -51 -32 -83t-86 -32q-52 0 -84.5 32t-32.5 83z" />
<glyph horiz-adv-x="1636" d="M12 1024h199q227 -709 264 -834q39 131 139 442t125 392h158q25 -81 125 -392t139 -442q37 125 264 834h199l-369 -1049h-186q-155 450 -252 777q-90 -314 -250 -777h-186zM453 1499h247l193 -346h-172z" />
<glyph horiz-adv-x="1064" d="M47 0l348 485l-329 539h215l233 -401l270 401h222l-379 -526q65 -106 123 -191t127 -173.5t135 -155.5t143.5 -127.5t156.5 -99t170.5 -61t188.5 -22.5q193 0 309 43v-174q-124 -47 -313 -47q-150 0 -288 43t-252.5 116t-226.5 185.5t-203.5 234t-190.5 279.5l-244 -348 h-215z" />
<glyph horiz-adv-x="1060" d="M4 1024h211l135 -352q13 -33 80 -204t100 -263q33 90 98.5 255.5t82.5 211.5l135 352h211l-404 -977l-202 -498h-195l182 455z" />
<glyph horiz-adv-x="1067" d="M4 1024h203l168 -391q77 -184 157 -389q111 271 160 389l166 391h205l-434 -979v-496h-191v496z" />
<glyph horiz-adv-x="1060" d="M4 1024h211l135 -352q13 -33 80 -204t100 -263q33 90 98.5 255.5t82.5 211.5l135 352h211l-404 -977l-202 -498h-195l182 455zM428 1153l193 346h247l-266 -346h-174z" />
<glyph horiz-adv-x="1060" d="M4 1024h211l135 -352q13 -33 80 -204t100 -263q33 90 98.5 255.5t82.5 211.5l135 352h211l-404 -977l-202 -498h-195l182 455zM223 1153l230 346h159l228 -346h-174l-134 211l-135 -211h-174z" />
<glyph horiz-adv-x="1060" d="M4 1024h211l135 -352q13 -33 80 -204t100 -263q33 90 98.5 255.5t82.5 211.5l135 352h211l-404 -977l-202 -498h-195l182 455zM217 1321q0 53 32.5 85t86.5 32q53 0 86 -32.5t33 -84.5q0 -51 -33 -83t-86 -32q-54 0 -86.5 32t-32.5 83zM608 1321q0 53 32 85t85 32 q54 0 86.5 -32t32.5 -85q0 -51 -32.5 -83t-86.5 -32q-52 0 -84.5 32t-32.5 83z" />
<glyph horiz-adv-x="1060" d="M4 1024h211l135 -352q13 -33 80 -204t100 -263q33 90 98.5 255.5t82.5 211.5l135 352h211l-404 -977l-202 -498h-195l182 455zM195 1499h247l193 -346h-172z" />
<glyph horiz-adv-x="950" d="M92 0v143l557 721h-536v160h751v-143l-557 -721h592v-160h-807z" />
<glyph horiz-adv-x="970" d="M57 0l576 864h-529v160h818l-512 -770q80 -15 155 -82q297 -264 538.5 -384t495.5 -120q123 0 246 30.5t197 72.5v-179q-65 -42 -184 -72t-250 -30q-289 0 -558.5 126.5t-566.5 401.5q-34 32 -55.5 49t-53 31.5t-59.5 10.5l-71 -109h-187z" />
<glyph horiz-adv-x="964" d="M59 0l609 864h-564v160h777v-150l-453 -622q81 -15 156 -82q200 -178 360 -284.5t322 -162t333 -55.5q123 0 246 30.5t197 72.5v-179q-65 -42 -184 -72t-250 -30q-288 0 -550.5 126t-561.5 402q-34 32 -55.5 49t-53 31.5t-59.5 10.5l-84 -109h-185z" />
<glyph horiz-adv-x="950" d="M92 0v143l557 721h-536v160h751v-143l-557 -721h592v-160h-807zM367 1153l192 346h248l-266 -346h-174z" />
<glyph horiz-adv-x="970" d="M57 0l576 864h-529v160h818l-512 -770q80 -15 155 -82q297 -264 538.5 -384t495.5 -120q123 0 246 30.5t197 72.5v-179q-65 -42 -184 -72t-250 -30q-289 0 -558.5 126.5t-566.5 401.5q-34 32 -55.5 49t-53 31.5t-59.5 10.5l-71 -109h-187zM393 1153l193 346h248 l-267 -346h-174z" />
<glyph horiz-adv-x="970" d="M59 0l609 864h-564v160h777v-150l-453 -622q81 -15 156 -82q200 -178 360 -284.5t322 -162t333 -55.5q123 0 246 30.5t197 72.5v-179q-65 -42 -184 -72t-250 -30q-288 0 -550.5 126t-561.5 402q-34 32 -55.5 49t-53 31.5t-59.5 10.5l-84 -109h-185zM393 1153l193 346h248 l-267 -346h-174z" />
<glyph horiz-adv-x="950" d="M92 0v143l557 721h-536v160h751v-143l-557 -721h592v-160h-807zM172 1499h174l135 -211l133 211h174l-227 -346h-160z" />
<glyph horiz-adv-x="970" d="M57 0l576 864h-529v160h818l-512 -770q80 -15 155 -82q297 -264 538.5 -384t495.5 -120q123 0 246 30.5t197 72.5v-179q-65 -42 -184 -72t-250 -30q-289 0 -558.5 126.5t-566.5 401.5q-34 32 -55.5 49t-53 31.5t-59.5 10.5l-71 -109h-187zM188 1499h174l136 -211l133 211 h174l-227 -346h-160z" />
<glyph horiz-adv-x="970" d="M59 0l609 864h-564v160h777v-150l-453 -622q81 -15 156 -82q200 -178 360 -284.5t322 -162t333 -55.5q123 0 246 30.5t197 72.5v-179q-65 -42 -184 -72t-250 -30q-288 0 -550.5 126t-561.5 402q-34 32 -55.5 49t-53 31.5t-59.5 10.5l-84 -109h-185zM178 1499h174 l135 -211l134 211h174l-228 -346h-159z" />
<glyph horiz-adv-x="950" d="M92 0v143l557 721h-536v160h751v-143l-557 -721h592v-160h-807zM358 1321q0 53 32.5 85t86.5 32q53 0 86 -32.5t33 -84.5q0 -51 -33 -83t-86 -32q-54 0 -86.5 32t-32.5 83z" />
<glyph horiz-adv-x="970" d="M57 0l576 864h-529v160h818l-512 -770q80 -15 155 -82q297 -264 538.5 -384t495.5 -120q123 0 246 30.5t197 72.5v-179q-65 -42 -184 -72t-250 -30q-289 0 -558.5 126.5t-566.5 401.5q-34 32 -55.5 49t-53 31.5t-59.5 10.5l-71 -109h-187zM375 1321q0 53 32.5 85t86.5 32 q53 0 85.5 -32.5t32.5 -84.5q0 -51 -33 -83t-85 -32q-54 0 -86.5 32t-32.5 83z" />
<glyph horiz-adv-x="970" d="M59 0l609 864h-564v160h777v-150l-453 -622q81 -15 156 -82q200 -178 360 -284.5t322 -162t333 -55.5q123 0 246 30.5t197 72.5v-179q-65 -42 -184 -72t-250 -30q-288 0 -550.5 126t-561.5 402q-34 32 -55.5 49t-53 31.5t-59.5 10.5l-84 -109h-185zM365 1321q0 53 32 85 t86 32q53 0 86 -32.5t33 -84.5q0 -51 -33 -83t-86 -32q-54 0 -86 32t-32 83z" />
<glyph horiz-adv-x="1335" d="M111 -186l186 360q-79 104 -121.5 249t-42.5 314q0 217 67.5 389.5t196 272.5t295.5 100q141 0 254 -72l121 234h158l-170 -326q94 -103 145 -258t51 -340q0 -217 -67.5 -389.5t-196 -272.5t-295.5 -100q-163 0 -293 97l-133 -258h-155zM332 737q0 -214 67 -364l461 889 q-77 55 -168 55q-164 0 -262 -160t-98 -420zM487 242q84 -84 205 -84q165 0 263 159.5t98 419.5q0 256 -95 412z" />
</font>
</defs>
</svg>
