<?xml version="1.0" standalone="no"?>
<!DOCTYPE svg PUBLIC "-//W3C//DTD SVG 1.1//EN" "http://www.w3.org/Graphics/SVG/1.1/DTD/svg11.dtd" >
<svg xmlns="http://www.w3.org/2000/svg" xmlns:xlink="http://www.w3.org/1999/xlink" version="1.1">
<metadata></metadata>
<defs>
<font id="brother_1816light" horiz-adv-x="1355" >
<font-face units-per-em="2048" ascent="1638" descent="-410" />
<missing-glyph horiz-adv-x="548" />
<glyph unicode="&#xd;" horiz-adv-x="548" />
<glyph unicode=" "  horiz-adv-x="548" />
<glyph unicode="&#x09;" horiz-adv-x="548" />
<glyph unicode="&#xa0;" horiz-adv-x="548" />
<glyph unicode="!" horiz-adv-x="559" d="M197 57q0 37 23.5 60.5t60.5 23.5q36 0 60 -24t24 -60q0 -35 -24.5 -58.5t-59.5 -23.5q-37 0 -60.5 23.5t-23.5 58.5zM221 1475h117l-2 -1106h-111z" />
<glyph unicode="&#x22;" horiz-adv-x="608" d="M100 907v568h109v-568h-109zM399 907v568h111v-568h-111z" />
<glyph unicode="#" horiz-adv-x="1478" d="M82 430l12 100h314l55 414h-311l12 98h313l58 433h108l-57 -433h393l57 433h109l-58 -433h310l-15 -98h-309l-55 -414h309l-14 -100h-309l-60 -430h-108l57 430h-391l-60 -430h-108l59 430h-311zM516 530h391l56 414h-392z" />
<glyph unicode="$" horiz-adv-x="1196" d="M160 63v121q200 -95 383 -100l10 610q-214 81 -303.5 182t-89.5 252q0 160 115.5 258t291.5 111l4 248h84l-4 -248q171 -8 316 -76v-116q-172 77 -318 84l-10 -607q219 -79 310 -178.5t91 -255.5q0 -160 -114 -258.5t-299 -112.5l-4 -247h-86l4 245q-214 8 -381 88z M279 1133q0 -105 60 -179.5t216 -138.5l10 571q-129 -12 -207.5 -79.5t-78.5 -173.5zM629 86q130 14 211.5 81.5t81.5 174.5q0 112 -61.5 183.5t-221.5 136.5z" />
<glyph unicode="%" horiz-adv-x="1730" d="M119 1143q0 148 98.5 252t239.5 104q139 0 237.5 -104t98.5 -252t-98.5 -252.5t-237.5 -104.5q-141 0 -239.5 104.5t-98.5 252.5zM219 1143q0 -110 69.5 -187t168.5 -77q98 0 167.5 77t69.5 187q0 109 -69.5 186.5t-167.5 77.5t-168 -77.5t-70 -186.5zM285 0l1050 1475 h111l-1051 -1475h-110zM936 330q0 149 99 253.5t239 104.5t239 -104.5t99 -253.5q0 -146 -99.5 -250.5t-238.5 -104.5t-238.5 104.5t-99.5 250.5zM1038 330q0 -109 69 -185.5t167 -76.5t167.5 76.5t69.5 185.5q0 110 -69.5 188t-167.5 78t-167 -78t-69 -188z" />
<glyph unicode="&#x26;" horiz-adv-x="1329" d="M70 362q0 63 21.5 120t52.5 98t79.5 81t87 64.5t90.5 52.5q-105 108 -151.5 192.5t-46.5 198.5q0 135 104 232.5t252 97.5q147 0 251.5 -95.5t104.5 -229.5q0 -64 -24 -123.5t-59.5 -103t-85 -83.5t-91.5 -65t-88 -47l424 -435q112 184 94 447h107q24 -306 -125 -524 l231 -240h-147l-152 160q-176 -185 -448 -185q-211 0 -346 110t-135 277zM184 373q0 -128 104 -211.5t263 -83.5q111 0 207 41t166 117l-455 471q-285 -137 -285 -334zM315 1169q0 -94 42 -167t139 -177q309 145 309 344q0 94 -72.5 161t-173.5 67t-172.5 -67t-71.5 -161z " />
<glyph unicode="'" horiz-adv-x="309" d="M100 907v568h109v-568h-109z" />
<glyph unicode="(" horiz-adv-x="561" d="M152 737q0 244 58.5 469.5t166.5 405.5h125q-110 -186 -171 -415t-61 -460t60.5 -459.5t171.5 -414.5h-125q-108 180 -166.5 405t-58.5 469z" />
<glyph unicode=")" horiz-adv-x="561" d="M59 -137q111 186 171.5 414.5t60.5 459.5t-61 460t-171 415h125q108 -180 167 -405.5t59 -469.5t-59 -469t-167 -405h-125z" />
<glyph unicode="*" horiz-adv-x="845" d="M96 1210q5 16 16.5 47.5t16.5 47.5l250 -91l-8 267h104l-8 -264l250 88l33 -95l-258 -75l163 -215l-77 -56l-154 217l-154 -217l-77 56l163 213z" />
<glyph unicode="+" horiz-adv-x="1374" d="M201 686v102h432v437h106v-437h435v-102h-435v-436h-106v436h-432z" />
<glyph unicode="," horiz-adv-x="376" d="M18 -307l127 426h131l-161 -426h-97z" />
<glyph unicode="-" horiz-adv-x="776" d="M100 528v103h576v-103h-576z" />
<glyph unicode="." horiz-adv-x="366" d="M100 57q0 37 23.5 60.5t60.5 23.5q36 0 60 -24t24 -60q0 -35 -24.5 -58.5t-59.5 -23.5q-37 0 -60.5 23.5t-23.5 58.5z" />
<glyph unicode="/" horiz-adv-x="862" d="M-2 -137l743 1749h125l-745 -1749h-123z" />
<glyph unicode="0" horiz-adv-x="1298" d="M117 737q0 217 64.5 389.5t186.5 272.5t281 100q160 0 282 -100t186.5 -272.5t64.5 -389.5q0 -219 -64.5 -391.5t-186.5 -271.5t-282 -99q-159 0 -281 99t-186.5 272t-64.5 391zM240 737q0 -291 111.5 -471t297.5 -180t298 180t112 471q0 190 -50 337.5t-143.5 231 t-216.5 83.5t-216.5 -83.5t-143 -231t-49.5 -337.5z" />
<glyph unicode="1" horiz-adv-x="641" d="M104 1368v107h297v-1475h-118v1368h-179z" />
<glyph unicode="2" horiz-adv-x="1034" d="M25 0q344 380 455 516q190 235 242 389q26 79 26 156q0 146 -90.5 237t-235.5 91q-179 0 -328 -115v119q153 106 332 106q195 0 318.5 -122.5t123.5 -315.5q0 -102 -32.5 -198t-127 -226t-158.5 -205.5t-232 -262.5q-37 -42 -56 -63h676v-106h-913z" />
<glyph unicode="3" horiz-adv-x="972" d="M37 59v119q51 -28 89 -45t110 -33t153 -16q153 0 248.5 83.5t95.5 209.5q0 157 -113.5 244.5t-314.5 87.5h-37v102h56q165 0 275 84.5t110 216.5q0 129 -89 204t-233 75q-162 0 -321 -84v118q62 31 150 52.5t177 21.5q198 0 318 -105t120 -278q0 -127 -78.5 -220.5 t-205.5 -133.5q137 -37 223 -139t86 -250q0 -172 -129 -285t-334 -113q-120 0 -199.5 22.5t-156.5 61.5z" />
<glyph unicode="4" horiz-adv-x="1105" d="M55 377l516 1098h125l-463 -992h508v416h113v-416h217v-106h-217v-377h-113v377h-686z" />
<glyph unicode="5" horiz-adv-x="1032" d="M106 78v119q148 -113 338 -113q171 0 280.5 98t109.5 260q0 161 -110.5 263t-272.5 102q-160 0 -304 -66l31 734h680v-107h-569l-23 -489q85 34 205 34q206 0 345.5 -133t139.5 -342t-142 -336t-363 -127q-200 0 -345 103z" />
<glyph unicode="6" horiz-adv-x="1185" d="M117 465q0 122 59 272t151.5 287t201 256t210.5 195h170q-193 -143 -342 -319.5t-231 -326.5q113 103 272 103q206 0 344 -137.5t138 -339.5q0 -204 -139.5 -342t-348.5 -138q-208 0 -346.5 138t-138.5 352zM233 465q0 -170 103 -276.5t266 -106.5t266 105.5t103 267.5 q0 161 -103 266.5t-266 105.5q-161 0 -265 -104t-104 -258z" />
<glyph unicode="7" horiz-adv-x="987" d="M25 1368v107h907l-656 -1475h-129l613 1368h-735z" />
<glyph unicode="8" horiz-adv-x="1097" d="M96 344q0 125 94.5 232t251.5 174q-137 58 -222 159.5t-85 227.5q0 157 117.5 259.5t296.5 102.5t296.5 -102.5t117.5 -259.5q0 -125 -86 -226.5t-222 -160.5q157 -66 250.5 -173t93.5 -233q0 -159 -127.5 -264t-322.5 -105t-324 105.5t-129 263.5zM215 348 q0 -114 95.5 -190t238.5 -76q142 0 237 76t95 190q0 103 -89 195t-243 149q-154 -58 -244 -149.5t-90 -194.5zM254 1133q0 -107 75 -184.5t220 -139.5q145 62 220 139.5t75 184.5q0 111 -84 185.5t-211 74.5t-211 -74.5t-84 -185.5z" />
<glyph unicode="9" horiz-adv-x="1124" d="M76 1020q0 204 139 341.5t348 137.5q210 0 348 -137.5t138 -351.5q0 -122 -59.5 -272t-152 -287t-200 -256t-209.5 -195h-172q195 143 344 319.5t229 325.5q-107 -102 -272 -102q-206 0 -343.5 137.5t-137.5 339.5zM195 1020q0 -161 103 -267t265 -106q161 0 265 104.5 t104 258.5q0 170 -103 276.5t-266 106.5q-162 0 -265 -106t-103 -267z" />
<glyph unicode=":" horiz-adv-x="366" d="M100 57q0 37 23.5 60.5t60.5 23.5q36 0 60 -24t24 -60q0 -35 -24.5 -58.5t-59.5 -23.5q-37 0 -60.5 23.5t-23.5 58.5zM100 965q0 37 23.5 60.5t60.5 23.5q36 0 60 -24t24 -60q0 -35 -24.5 -58.5t-59.5 -23.5q-37 0 -60.5 23.5t-23.5 58.5z" />
<glyph unicode=";" horiz-adv-x="378" d="M18 -307l127 426h131l-161 -426h-97zM113 965q0 37 23.5 60.5t60.5 23.5q36 0 60 -24t24 -60q0 -35 -24.5 -58.5t-59.5 -23.5q-37 0 -60.5 23.5t-23.5 58.5z" />
<glyph unicode="&#x3c;" horiz-adv-x="1161" d="M121 737l837 512v-125l-641 -387l641 -387v-125z" />
<glyph unicode="=" horiz-adv-x="1312" d="M201 508v100h911v-100h-911zM201 866v101h911v-101h-911z" />
<glyph unicode="&#x3e;" horiz-adv-x="1161" d="M201 223v125l641 387l-641 387v125l837 -512z" />
<glyph unicode="?" horiz-adv-x="894" d="M80 1315v110q37 26 115 50t159 24q187 0 293.5 -98.5t106.5 -257.5q0 -73 -20.5 -135t-53 -107t-71.5 -85.5t-78.5 -78.5t-72 -77.5t-53 -92t-20.5 -112.5v-88h-111v92q0 71 20 131.5t52.5 104t71 83t77.5 77.5t71.5 77.5t52.5 92.5t20 114q0 113 -76 183.5t-209 70.5 q-81 0 -157 -24.5t-117 -53.5zM248 57q0 37 23.5 60.5t60.5 23.5q36 0 60 -24t24 -60q0 -35 -24.5 -58.5t-59.5 -23.5q-37 0 -60.5 23.5t-23.5 58.5z" />
<glyph unicode="@" horiz-adv-x="1755" d="M156 516q0 175 63 326t175.5 260t277 171t358.5 62q225 0 352 -103.5t127 -285.5v-661q-237 -121 -454 -121q-183 0 -290.5 97t-107.5 253q0 141 96 236t260.5 125.5t383.5 -3.5v72q0 137 -98.5 212t-278.5 75q-166 0 -306.5 -53.5t-236.5 -147.5t-149.5 -224t-53.5 -280 q0 -211 98 -380t271 -264t387 -95q275 0 559 129v-106q-265 -127 -565 -127q-248 0 -446.5 107t-310 297.5t-111.5 428.5zM772 522q0 -116 75 -187t216 -71q153 0 334 80v438q-281 52 -453 -22.5t-172 -237.5z" />
<glyph unicode="A" d="M14 0l664 1499h4l659 -1499h-124l-168 383h-742l-166 -383h-127zM350 483h656q-207 473 -326 760q-100 -235 -330 -760z" />
<glyph unicode="B" horiz-adv-x="1284" d="M217 0v1475h451q202 0 322 -109.5t120 -284.5q0 -105 -50 -186.5t-134 -120.5q102 -39 176 -137.5t74 -233.5q0 -184 -127 -293.5t-320 -109.5h-512zM334 98h379q150 0 245 85t95 229q0 132 -83.5 217.5t-203.5 85.5h-432v-617zM334 809h469q79 20 131.5 89.5t52.5 176.5 q0 142 -86 221.5t-237 79.5h-330v-567z" />
<glyph unicode="C" horiz-adv-x="1409" d="M104 737q0 157 58.5 297.5t159.5 242.5t244 162t304 60q245 0 453 -113v-116q-236 119 -453 119q-186 0 -334 -86.5t-229.5 -235.5t-81.5 -330q0 -182 81.5 -330.5t229.5 -234.5t334 -86q231 0 463 117v-117q-208 -111 -463 -111q-161 0 -304 59.5t-244 161t-159.5 242.5 t-58.5 299z" />
<glyph unicode="D" horiz-adv-x="1482" d="M217 0v1475h393q155 0 294 -50.5t244.5 -142.5t167.5 -233.5t62 -311.5q0 -169 -62 -310.5t-166.5 -233.5t-241 -142.5t-287.5 -50.5h-404zM336 100h285q129 0 244 44.5t202 124.5t137.5 201.5t50.5 266.5t-51.5 266.5t-139.5 201.5t-205.5 124.5t-250.5 44.5h-272v-1274 z" />
<glyph unicode="E" horiz-adv-x="1210" d="M217 0v1475h875v-101h-756v-577h643v-101h-643v-596h786v-100h-905z" />
<glyph unicode="F" horiz-adv-x="1128" d="M217 0v1475h832v-101h-713v-581h600v-101h-600v-692h-119z" />
<glyph unicode="G" horiz-adv-x="1458" d="M104 737q0 157 58.5 297.5t160 242.5t244.5 162t305 60q245 0 453 -113v-116q-236 119 -453 119q-141 0 -262.5 -51t-205.5 -138t-131.5 -207t-47.5 -256q0 -183 81.5 -331.5t229.5 -234t334 -85.5q193 0 357 70v479h114v-547q-213 -113 -471 -113q-161 0 -304 59.5 t-244 161t-159.5 242.5t-58.5 299z" />
<glyph unicode="H" horiz-adv-x="1482" d="M217 0v1475h119v-678h813v678h117v-1475h-117v696h-813v-696h-119z" />
<glyph unicode="I" horiz-adv-x="552" d="M217 0v1475h119v-1475h-119z" />
<glyph unicode="J" horiz-adv-x="716" d="M6 25v114q84 -55 178 -55q93 0 145 59t52 164v1168h117v-1158q0 -164 -80 -253t-230 -89q-106 0 -182 50z" />
<glyph unicode="K" horiz-adv-x="1320" d="M217 0v1475h119v-908l807 908h147l-540 -601l571 -874h-141l-510 788l-334 -372v-416h-119z" />
<glyph unicode="L" horiz-adv-x="1040" d="M217 0v1475h119v-1375h663v-100h-782z" />
<glyph unicode="M" horiz-adv-x="1726" d="M217 0v1499h2l643 -899l645 899h2v-1499h-116v1057q0 69 2 110q-11 -19 -117 -174l-416 -577l-489 686l-43 65q4 -41 4 -110v-1057h-117z" />
<glyph unicode="N" horiz-adv-x="1554" d="M217 0v1499h2l963 -1165q5 -7 20.5 -25.5t20.5 -25.5q-2 23 -2 94v1096h116v-1498h-2l-962 1166q-34 39 -41 51q4 -50 4 -94v-1098h-119z" />
<glyph unicode="O" horiz-adv-x="1699" d="M104 737q0 155 57 295.5t155.5 243t237.5 163t296 60.5q208 0 379.5 -102t268.5 -276.5t97 -383.5q0 -158 -57 -298.5t-155.5 -242.5t-237 -161.5t-295.5 -59.5q-209 0 -380.5 101t-268.5 276t-97 385zM225 737q0 -182 79.5 -330.5t223 -234.5t322.5 -86q180 0 323 86 t221.5 234.5t78.5 330.5q0 181 -78.5 330t-221.5 235.5t-323 86.5q-179 0 -322.5 -86.5t-223 -235.5t-79.5 -330z" />
<glyph unicode="P" horiz-adv-x="1183" d="M217 0v1475h406q224 0 353.5 -114.5t129.5 -313.5t-129.5 -314t-353.5 -115h-287v-618h-119zM336 719h287q169 0 264.5 87.5t95.5 240.5q0 154 -96.5 240.5t-268.5 86.5h-282v-655z" />
<glyph unicode="Q" horiz-adv-x="1716" d="M113 737q0 208 96.5 382.5t268 277t380.5 102.5q156 0 295 -60t237.5 -162.5t156 -243t57.5 -296.5q0 -194 -83.5 -359t-232 -269.5t-334.5 -126.5q145 -124 325.5 -199.5t352.5 -75.5q102 0 191 21v-109q-77 -22 -201 -22q-203 0 -424 103.5t-397 276.5 q-196 14 -353.5 117.5t-246 272.5t-88.5 370zM233 737q0 -182 79.5 -330.5t223 -234.5t322.5 -86q180 0 323 86t221.5 234.5t78.5 330.5q0 181 -78.5 330t-221.5 235.5t-323 86.5q-179 0 -322.5 -86.5t-223 -235.5t-79.5 -330z" />
<glyph unicode="R" horiz-adv-x="1265" d="M217 0v1475h457q227 0 357 -114t130 -314q0 -165 -92 -273t-250 -139l357 -635h-132l-344 621h-364v-621h-119zM336 719h338q172 0 269 87.5t97 240.5q0 154 -97.5 240.5t-272.5 86.5h-334v-655z" />
<glyph unicode="S" horiz-adv-x="1050" d="M90 63v121q214 -100 408 -100q154 0 254 69t100 189q0 123 -74.5 198.5t-275.5 147.5q-224 81 -318 183t-94 257q0 172 131.5 271.5t325.5 99.5q190 0 350 -78v-116q-186 86 -348 86q-150 0 -245 -70.5t-95 -187.5q0 -114 74 -193.5t272 -151.5q228 -81 322 -181t94 -259 q0 -173 -131.5 -273t-339.5 -100q-222 0 -410 88z" />
<glyph unicode="T" horiz-adv-x="1105" d="M35 1374v101h1036v-101h-461v-1374h-116v1374h-459z" />
<glyph unicode="U" horiz-adv-x="1431" d="M178 500v975h119v-971q0 -196 111.5 -307t308.5 -111t308.5 111t111.5 307v971h116v-975q0 -247 -142 -386t-394 -139q-254 0 -396.5 139t-142.5 386z" />
<glyph unicode="V" horiz-adv-x="1290" d="M-2 1475h127l350 -832q23 -55 81 -190.5t89 -210.5q56 138 170 401l348 832h129l-645 -1500h-4z" />
<glyph unicode="W" horiz-adv-x="2023" d="M35 1475h127l311 -873l111 -313q65 183 112 307l312 858h4l313 -858l113 -307q64 189 108 313l312 873h127l-547 -1500h-4l-224 607l-200 557q-160 -446 -201 -557l-223 -607h-4z" />
<glyph unicode="X" horiz-adv-x="1357" d="M94 0l516 750l-497 725h135l430 -635l432 635h135l-500 -725l519 -750h-136l-450 662l-449 -662h-135z" />
<glyph unicode="Y" horiz-adv-x="1216" d="M4 1475h133l471 -766l471 766h133l-544 -881v-594h-119v594z" />
<glyph unicode="Z" horiz-adv-x="1210" d="M80 0l848 1374h-805v101h991l-850 -1375h864v-100h-1048z" />
<glyph unicode="[" horiz-adv-x="604" d="M223 -137v1749h252v-105h-135v-1540h135v-104h-252z" />
<glyph unicode="\" horiz-adv-x="862" d="M-2 1612h123l745 -1749h-125z" />
<glyph unicode="]" horiz-adv-x="604" d="M131 -33h135v1540h-135v105h252v-1749h-252v104z" />
<glyph unicode="^" horiz-adv-x="999" d="M102 827l398 672l397 -670h-127l-270 474l-273 -476h-125z" />
<glyph unicode="_" horiz-adv-x="1226" d="M100 0h1026v-102h-1026v102z" />
<glyph unicode="`" horiz-adv-x="559" d="M100 1497h154l205 -342h-109z" />
<glyph unicode="a" horiz-adv-x="1095" d="M106 256q0 193 192 281q125 57 303 58q95 0 206 -17v77q0 154 -78 221.5t-221 67.5q-102 0 -195 -27.5t-143 -58.5v113q54 29 147 53.5t201 24.5q402 0 402 -390v-659h-109v139q-1 24 0.5 46.5t3.5 32.5l2 11h-4q0 -4 -14.5 -29.5t-47.5 -63.5t-76.5 -74t-111 -61.5 t-141.5 -25.5q-141 0 -228.5 78t-87.5 203zM223 262q0 -82 57.5 -133t153.5 -51q103 0 190.5 61.5t135 154.5t47.5 191q-110 18 -201 18q-133 1 -226 -37q-157 -62 -157 -204z" />
<glyph unicode="b" horiz-adv-x="1304" d="M215 0v1475h113v-578q0 -21 -1.5 -41.5t-2.5 -30.5l-2 -10h4q46 96 151 165t230 69q204 0 338.5 -152t134.5 -385q0 -229 -135 -383t-338 -154q-127 0 -233 72t-150 170h-5q7 -33 7 -80l-2 -137h-109zM328 512q0 -108 33 -193.5t87 -136t118 -76.5t132 -26q165 0 266 123 t101 309q0 190 -101 311t-266 121q-68 0 -132 -26t-118 -76.5t-87 -136t-33 -193.5z" />
<glyph unicode="c" horiz-adv-x="1075" d="M125 512q0 231 146.5 384t371.5 153q73 0 140 -14.5t103 -29.5t85 -40v-117q-72 44 -147.5 69t-176.5 25q-179 0 -292 -121.5t-113 -308.5t113 -308.5t292 -121.5q178 0 330 94v-117q-48 -25 -86 -40.5t-106 -29.5t-142 -14q-225 0 -371.5 153t-146.5 384z" />
<glyph unicode="d" horiz-adv-x="1304" d="M125 512q0 233 134.5 385t338.5 152q126 0 230.5 -69.5t148.5 -164.5h4q-6 35 -6 82v578h115v-1475h-111v137q0 21 1.5 41t3.5 30l1 9h-4q-46 -99 -151.5 -170.5t-231.5 -71.5q-203 0 -338 154t-135 383zM240 512q0 -186 100.5 -309t263.5 -123q68 0 132.5 26t119.5 76.5 t88 136t33 193.5t-33 193.5t-88 136t-119.5 76.5t-132.5 26q-164 0 -264 -121t-100 -311z" />
<glyph unicode="e" horiz-adv-x="1181" d="M125 512q0 231 140.5 384t348.5 153q140 0 245 -68t156.5 -175.5t51.5 -236.5q0 -12 -1 -33t-1 -28h-821v-14q0 -185 111.5 -299.5t291.5 -114.5q103 0 203 28.5t178 79.5v-114q-168 -99 -383 -99q-228 0 -374 149.5t-146 387.5zM248 596h700q0 91 -37.5 169 t-115.5 128.5t-183 50.5q-151 0 -248 -102t-116 -246z" />
<glyph unicode="f" horiz-adv-x="669" d="M78 928v96h166v131q0 160 89 252t247 92q68 0 116 -12v-105q-52 13 -106 13q-116 0 -176 -61.5t-60 -182.5v-127h293v-96h-291v-928h-114v928h-164z" />
<glyph unicode="g" horiz-adv-x="1095" d="M113 -158q0 93 86 165.5t213 96.5q-78 7 -121 41t-43 84q0 41 34.5 75.5t92.5 53.5q-110 39 -176 127.5t-66 204.5q0 156 113 257.5t284 101.5q82 0 152 -25h369v-94h-158q-16 0 -35 3t-30 6l-11 3h-8q119 -95 119 -252q0 -151 -110 -251t-277 -103h-13 q-69 -4 -117.5 -31t-48.5 -59q0 -41 54 -60.5t205 -33.5q198 -20 302.5 -88t104.5 -201q0 -137 -128 -219t-335 -82q-208 0 -330 73t-122 207zM227 -147q0 -93 92 -143t248 -50q162 0 254 54t92 143q0 41 -18.5 75t-58.5 62.5t-112.5 44.5t-172.5 16q-141 0 -232.5 -60 t-91.5 -142zM246 690q0 -113 79.5 -185.5t204.5 -72.5q126 0 206.5 72.5t80.5 185.5q0 111 -81 184.5t-206 73.5t-204.5 -73.5t-79.5 -184.5z" />
<glyph unicode="h" horiz-adv-x="1263" d="M215 0v1475h113v-615q0 -21 -2 -42t-4.5 -34t-2.5 -14h5q16 41 48 85t82.5 89.5t127 75t163.5 29.5q187 0 263.5 -102.5t76.5 -299.5v-647h-112v614q0 58 -4 99.5t-18 87t-39 74t-70 47t-107 18.5q-173 0 -290 -126t-117 -312v-502h-113z" />
<glyph unicode="i" horiz-adv-x="542" d="M188 1323q0 37 23.5 60.5t60.5 23.5q36 0 60 -24t24 -60q0 -35 -24.5 -58.5t-59.5 -23.5q-37 0 -60.5 23.5t-23.5 58.5zM215 0v1024h113v-1024h-113z" />
<glyph unicode="j" horiz-adv-x="542" d="M-68 -367q32 -4 68 -4q101 0 158 64.5t57 181.5v1149h113v-1157q0 -161 -83 -251.5t-231 -90.5q-42 0 -82 8v100zM188 1323q0 37 23.5 60.5t60.5 23.5q36 0 60 -24t24 -60q0 -35 -24.5 -58.5t-59.5 -23.5q-37 0 -60.5 23.5t-23.5 58.5z" />
<glyph unicode="k" horiz-adv-x="1124" d="M215 0v1475h113v-1026l544 575h144l-387 -414l420 -610h-136l-368 539l-217 -228v-311h-113z" />
<glyph unicode="l" horiz-adv-x="600" d="M215 240v1235h113v-1215q0 -94 30 -138t101 -44q64 0 84 10v-100l-13 -3q-14 -3 -38 -6.5t-50 -3.5q-227 0 -227 265z" />
<glyph unicode="m" horiz-adv-x="1937" d="M215 0v1024h111v-170q0 -21 -2 -41.5t-4 -31t-3 -11.5h5q40 115 153.5 197t235.5 82q281 0 319 -267h4q45 110 151 188.5t228 78.5q188 0 268 -102.5t80 -299.5v-647h-114v614q0 59 -5.5 104t-21 88.5t-41.5 71.5t-69.5 45t-102.5 17q-84 0 -154.5 -40t-115 -105 t-69 -143t-24.5 -158v-494h-112v616q0 56 -4 98t-18.5 87t-39 73.5t-68 47t-104.5 18.5q-110 0 -197 -68t-130 -168.5t-43 -209.5v-494h-113z" />
<glyph unicode="n" horiz-adv-x="1263" d="M215 0v1024h111v-170q0 -21 -2 -41.5t-4 -31t-3 -11.5h5q16 41 48.5 85t83.5 89.5t127.5 75t163.5 29.5q187 0 263.5 -102.5t76.5 -299.5v-647h-112v614q0 58 -4 99.5t-18 87t-39 74t-70 47t-107 18.5q-173 0 -290 -126t-117 -312v-502h-113z" />
<glyph unicode="o" horiz-adv-x="1277" d="M125 512q0 230 146.5 383.5t367.5 153.5t367.5 -153.5t146.5 -383.5t-146.5 -383.5t-367.5 -153.5t-367.5 153.5t-146.5 383.5zM240 512q0 -188 112.5 -310t286.5 -122t286.5 122t112.5 310t-112.5 310t-286.5 122t-286.5 -122t-112.5 -310z" />
<glyph unicode="p" horiz-adv-x="1304" d="M215 -451v1475h111v-133q0 -21 -2 -41.5t-4 -30.5l-1 -10h5q46 98 151.5 169t231.5 71q203 0 338 -154t135 -383q0 -233 -134.5 -385t-338.5 -152q-126 0 -230.5 70.5t-148.5 167.5h-4q6 -35 6 -84v-580h-115zM328 512q0 -108 33 -193.5t87.5 -136t119 -76.5t132.5 -26 q164 0 264.5 121t100.5 311q0 186 -101 309t-264 123q-68 0 -132.5 -26t-119 -76.5t-87.5 -136t-33 -193.5z" />
<glyph unicode="q" horiz-adv-x="1304" d="M125 512q0 229 135 383t338 154q126 0 231.5 -71t151.5 -169h4q-6 35 -6 82v133h111v-1475h-115v580q0 22 1.5 43t3.5 31l1 10h-4q-44 -97 -148.5 -167.5t-230.5 -70.5q-204 0 -338.5 152t-134.5 385zM240 512q0 -190 100 -311t264 -121q68 0 132.5 26t119.5 76.5t88 136 t33 193.5t-33 193.5t-88 136t-119.5 76.5t-132.5 26q-163 0 -263.5 -123t-100.5 -309z" />
<glyph unicode="r" horiz-adv-x="745" d="M197 0v1024h110v-170q0 -19 -2 -39.5t-3.5 -31t-0.5 -11.5h2q42 123 127 200t199 77q13 0 27 -1.5t23 -3.5l9 -2v-110l-8 1q-7 1 -18.5 2t-22.5 1q-82 0 -147.5 -45.5t-104 -118t-58.5 -154.5t-20 -163v-455h-112z" />
<glyph unicode="s" horiz-adv-x="907" d="M115 774q0 126 98 200.5t254 74.5q152 0 283 -62v-110q-135 69 -273 69q-118 0 -185 -45.5t-67 -126.5q0 -75 60 -122t192 -89q173 -55 252.5 -125.5t79.5 -187.5q0 -134 -99 -204.5t-257 -70.5q-188 0 -334 68v113q169 -78 327 -78q107 0 179.5 43t72.5 127 q0 82 -61 127.5t-207 89.5q-147 46 -231 119.5t-84 189.5z" />
<glyph unicode="t" horiz-adv-x="743" d="M55 928v96h185v307h112v-307h334v-96h-334v-623q0 -227 168 -227q109 0 203 49v-102q-87 -50 -217 -50q-54 0 -99 16t-84 50t-61 96t-22 146v645h-185z" />
<glyph unicode="u" horiz-adv-x="1259" d="M184 377v647h113v-614q0 -58 4 -100t17.5 -87.5t38.5 -73.5t69 -46.5t106 -18.5q116 0 208.5 61.5t141 161t48.5 215.5v502h114v-1024h-110l-2 170q0 13 1 26.5t2 23t2 17.5t2 13l1 4h-4q-11 -31 -33 -66t-59 -73.5t-82 -69t-107.5 -50.5t-130.5 -20q-183 0 -261.5 99.5 t-78.5 302.5z" />
<glyph unicode="v" horiz-adv-x="993" d="M14 1024h125l359 -825q139 326 354 825h127l-467 -1049h-31z" />
<glyph unicode="w" horiz-adv-x="1564" d="M14 1024h125l322 -807l307 789h31l305 -789l323 807h123l-430 -1049h-30l-308 781l-305 -781h-31z" />
<glyph unicode="x" horiz-adv-x="1048" d="M74 0l383 524l-365 500h133l297 -418l299 418h135l-368 -498l387 -526h-133l-318 440l-317 -440h-133z" />
<glyph unicode="y" horiz-adv-x="1021" d="M-20 -360q54 -13 106 -13q66 0 119 27t96.5 85t75.5 120.5t72 160.5l-433 1004h127l160 -379q148 -351 207 -495q38 89 110.5 262t98.5 233l158 379h129l-408 -950q-25 -60 -40 -95t-38 -86.5t-39.5 -81.5t-40 -70.5t-44 -64t-47 -51.5t-53.5 -43.5t-59.5 -30t-69 -20.5 t-77.5 -6q-70 0 -110 16v99z" />
<glyph unicode="z" horiz-adv-x="974" d="M74 0l626 926h-585v98h782l-633 -924h649v-100h-839z" />
<glyph unicode="{" horiz-adv-x="634" d="M100 688v98q11 1 27.5 6.5t42.5 22t47.5 40.5t37 68t15.5 99v258q0 162 58.5 247t187.5 85h76v-105h-70q-74 0 -104.5 -58.5t-30.5 -174.5v-273q0 -54 -15 -99.5t-35.5 -73t-46 -48.5t-42 -29.5t-27.5 -11.5v-4q10 -3 25 -10t40 -26.5t45.5 -44.5t36.5 -67.5t17 -92.5 q2 -23 2 -72v-272q0 -86 36 -134.5t99 -48.5h70v-104h-76q-129 0 -187.5 85t-58.5 247v258q0 55 -15.5 99t-37 68t-47.5 40.5t-42.5 21.5t-27.5 6z" />
<glyph unicode="|" horiz-adv-x="561" d="M223 -137v1749h115v-1749h-115z" />
<glyph unicode="}" horiz-adv-x="634" d="M43 -33h70q73 0 103 59t30 175v272q0 54 15 99.5t36 73t46.5 48.5t42 29.5t28.5 11.5v4q-10 3 -25 10t-40 26.5t-45.5 45t-36.5 68t-17 92.5q-4 46 -4 72v272q0 86 -35 134t-98 48h-70v105h76q246 0 246 -332v-258q0 -55 15.5 -99t36.5 -68t47 -40.5t43 -22t28 -6.5v-98 q-11 -1 -28 -6t-43 -21.5t-47 -40.5t-36.5 -68t-15.5 -99v-258q0 -332 -246 -332h-76v104z" />
<glyph unicode="~" horiz-adv-x="1054" d="M109 635v108q42 44 107 71.5t132 27.5q52 0 103 -16t86.5 -34.5t84 -34.5t93.5 -16q62 0 125.5 31t105.5 76v-109q-42 -44 -106.5 -71t-132.5 -27q-65 0 -128 25t-122.5 50t-116.5 25q-62 0 -125 -30.5t-106 -75.5z" />
<glyph unicode="&#xa1;" horiz-adv-x="559" d="M197 965q0 37 23.5 60.5t60.5 23.5q36 0 60 -24t24 -60q0 -35 -24.5 -58.5t-59.5 -23.5q-37 0 -60.5 23.5t-23.5 58.5zM221 -451l4 1106h111l2 -1106h-117z" />
<glyph unicode="&#xa2;" horiz-adv-x="1165" d="M168 735q0 213 126 360.5t327 170.5v272h84v-266q68 -2 131 -16.5t97 -29t83 -38.5v-117q-75 43 -145.5 68t-165.5 26v-860q162 2 317 94v-116q-151 -79 -317 -84v-267h-84v271q-201 23 -327 170.5t-126 361.5zM285 735q0 -167 92.5 -284t243.5 -142v850 q-151 -23 -243.5 -140t-92.5 -284z" />
<glyph unicode="&#xa3;" horiz-adv-x="1239" d="M141 688v100h191v277q0 205 111.5 319.5t308.5 114.5q168 0 292 -67v-113q-138 74 -286 74t-231 -87.5t-83 -244.5v-273h478v-100h-478v-258q0 -191 -100 -326h731v-104h-925q36 40 62 76t56.5 91t47 122t16.5 141v258h-191z" />
<glyph unicode="&#xa4;" horiz-adv-x="1531" d="M180 238l223 225q-100 127 -100 287q0 155 103 286l-226 226l74 73l225 -227q127 100 287 100q161 0 285 -100l227 227l74 -73l-226 -226q103 -131 103 -286q0 -156 -103 -287l226 -225l-74 -74l-229 227q-124 -100 -283 -100q-160 0 -287 100l-225 -227zM416 750 q0 -147 102.5 -250t247.5 -103t247.5 103t102.5 250q0 146 -102.5 249t-247.5 103t-247.5 -102.5t-102.5 -249.5z" />
<glyph unicode="&#xa5;" horiz-adv-x="1368" d="M117 1475h131l436 -766l434 766h133l-309 -535h268v-96h-323l-125 -213h387v-96h-406v-535h-118v535h-406v96h385l-125 213h-321v96h266z" />
<glyph unicode="&#xa6;" horiz-adv-x="561" d="M223 -137v698h115v-698h-115zM223 913v699h115v-699h-115z" />
<glyph unicode="&#xa7;" horiz-adv-x="1124" d="M106 68q162 -87 320 -105q60 9 93.5 51t33.5 111q0 94 -131 362l-176 353q-103 201 -103 311q0 164 126 259t337 95q217 0 410 -100l2 -111q-176 88 -324 105q-59 -9 -91 -51t-32 -111q0 -98 131 -363l177 -352q100 -205 100 -313q0 -163 -126 -257.5t-335 -94.5 q-216 0 -409 100zM258 1155q0 -108 86 -274l184 -353q138 -270 138 -385q0 -122 -82 -182q131 14 206.5 78.5t75.5 167.5q0 102 -86 274l-182 348q-139 272 -139 388q0 121 78 184q-129 -14 -204 -79t-75 -167z" />
<glyph unicode="&#xa8;" horiz-adv-x="712" d="M100 1323q0 37 23.5 60.5t60.5 23.5q36 0 60 -24t24 -60q0 -35 -24.5 -58.5t-59.5 -23.5q-37 0 -60.5 23.5t-23.5 58.5zM444 1323q0 36 24 60t60 24q37 0 60.5 -23.5t23.5 -60.5q0 -35 -23.5 -58.5t-60.5 -23.5q-35 0 -59.5 23.5t-24.5 58.5z" />
<glyph unicode="&#xa9;" horiz-adv-x="1695" d="M102 737q0 209 99 384.5t269.5 276.5t373.5 101q205 0 377 -101t272 -276.5t100 -384.5q0 -210 -100 -385.5t-272 -276t-377 -100.5q-203 0 -373.5 100.5t-269.5 276t-99 385.5zM203 737q0 -183 85 -335.5t232.5 -240t323.5 -87.5q178 0 327.5 87.5t235.5 240t86 335.5 q0 137 -51 260t-137.5 211.5t-207 140.5t-253.5 52q-176 0 -323.5 -88t-232.5 -240.5t-85 -335.5zM426 737q0 188 119.5 312.5t300.5 124.5q130 0 270 -72v-105q-122 78 -266 78q-140 0 -230 -95t-90 -243q0 -147 90 -242.5t228 -95.5q147 0 272 80v-106q-1 0 -26.5 -12 t-46 -20t-53.5 -18.5t-71 -16t-77 -5.5q-181 0 -300.5 124t-119.5 312z" />
<glyph unicode="&#xaa;" horiz-adv-x="747" d="M39 883q0 127 106.5 198.5t286.5 71.5q65 0 139 -12q0 147 -48.5 204.5t-168.5 57.5q-77 0 -151.5 -21.5t-114.5 -48.5v101q43 25 117.5 45t156.5 20q314 0 314 -307v-508h-103v76q0 37 7.5 72t7.5 38q-6 -13 -17 -31t-38.5 -51t-59.5 -58t-81.5 -44.5t-102.5 -19.5 q-110 0 -180 61t-70 156zM145 893q0 -59 42 -97t112 -38q111 0 190 93.5t82 207.5q-64 10 -139 10q-133 0 -210 -48t-77 -128z" />
<glyph unicode="&#xab;" horiz-adv-x="1036" d="M121 512l323 512h131l-327 -512l327 -512h-131zM481 512l324 512h131l-328 -512l328 -512h-131z" />
<glyph unicode="&#xac;" horiz-adv-x="1359" d="M201 686v102h958v-440h-104v338h-854z" />
<glyph unicode="&#xad;" horiz-adv-x="776" d="M100 528v103h576v-103h-576z" />
<glyph unicode="&#xae;" horiz-adv-x="1695" d="M102 737q0 209 99 384.5t269.5 276.5t373.5 101q205 0 377 -101t272 -276.5t100 -384.5q0 -210 -100 -385.5t-272 -276t-377 -100.5q-203 0 -373.5 100.5t-269.5 276t-99 385.5zM203 737q0 -183 85 -335.5t232.5 -240t323.5 -87.5q178 0 327.5 87.5t235.5 240t86 335.5 q0 137 -51 260t-137.5 211.5t-207 140.5t-253.5 52q-176 0 -323.5 -88t-232.5 -240.5t-85 -335.5zM571 317v844h265q131 0 211.5 -70.5t80.5 -183.5q0 -86 -48.5 -148t-133.5 -87l191 -355h-109l-176 338h-184v-338h-97zM668 739h155q205 0 205 168q0 86 -51.5 126 t-153.5 40h-155v-334z" />
<glyph unicode="&#xaf;" horiz-adv-x="778" d="M100 1274v100h578v-100h-578z" />
<glyph unicode="&#xb0;" horiz-adv-x="870" d="M98 1167q0 138 99 235t237 97q140 0 239 -97t99 -235t-99 -234.5t-239 -96.5q-138 0 -237 96.5t-99 234.5zM201 1167q0 -98 68.5 -167.5t164.5 -69.5q97 0 166.5 69.5t69.5 167.5t-69.5 168t-166.5 70q-95 0 -164 -70t-69 -168z" />
<glyph unicode="&#xb1;" horiz-adv-x="1234" d="M199 879v100h366v397h105v-397h366v-100h-366v-398h-105v398h-366zM221 150v102h795v-102h-795z" />
<glyph unicode="&#xb2;" horiz-adv-x="681" d="M35 690q234 230 299 305q117 133 128 220q1 11 1 22q0 79 -47.5 123.5t-132.5 44.5q-117 0 -215 -68v99q95 63 219 63q128 0 203 -70t75 -188q0 -42 -18 -88.5t-42.5 -85.5t-73 -93t-85 -91.5t-102.5 -100.5h368v-92h-577z" />
<glyph unicode="&#xb3;" horiz-adv-x="651" d="M59 711v96q104 -49 220 -49q88 0 137 38t49 97q0 75 -64.5 118.5t-183.5 43.5h-33v84h41q102 0 167 41.5t65 103.5q0 58 -48 90.5t-133 32.5q-106 0 -202 -49v94q92 47 207 47q127 0 203.5 -58.5t76.5 -154.5q0 -66 -46.5 -115t-123.5 -71q83 -24 131.5 -78t48.5 -131 q0 -98 -80 -161.5t-210 -63.5t-222 45z" />
<glyph unicode="&#xb4;" horiz-adv-x="559" d="M100 1155l205 342h154l-248 -342h-111z" />
<glyph unicode="&#xb5;" horiz-adv-x="1261" d="M186 -410v1434h111v-614q0 -58 4 -100t18.5 -87.5t39.5 -73.5t69.5 -46.5t106.5 -18.5q116 0 208 61.5t140.5 161t48.5 215.5v502h112v-1024h-108l-2 170q0 13 1 26.5t2 23t2 17.5t2 13l1 4h-4q-11 -31 -33 -66t-59 -73.5t-82 -69t-107.5 -50.5t-130.5 -20 q-162 0 -241 82q12 -50 12 -213v-254h-111z" />
<glyph unicode="&#xb6;" horiz-adv-x="1122" d="M80 989q0 218 147.5 352t388.5 134h80v-969h-80q-241 0 -388.5 133t-147.5 350zM471 -332q72 -35 156 -35q76 0 118.5 50.5t42.5 140.5v1651h117v-1651q0 -142 -71 -220.5t-199 -78.5q-87 0 -164 29v114z" />
<glyph unicode="&#xb7;" horiz-adv-x="366" d="M100 510q0 37 23.5 60.5t60.5 23.5q36 0 60 -24t24 -60q0 -35 -24.5 -58.5t-59.5 -23.5q-37 0 -60.5 23.5t-23.5 58.5z" />
<glyph unicode="&#xb8;" horiz-adv-x="538" d="M100 -375q48 -10 93 -10q56 0 99.5 23.5t43.5 72.5q0 41 -36.5 65.5t-82.5 30.5t-94 0l92 213h88l-63 -151q46 0 89.5 -16t76 -54.5t32.5 -91.5q0 -92 -67 -137t-166 -45q-25 0 -50.5 2t-39.5 4.5t-15 3.5v90z" />
<glyph unicode="&#xb9;" horiz-adv-x="606" d="M59 690v90h207v602h-196v93h299v-695h198v-90h-508z" />
<glyph unicode="&#xba;" horiz-adv-x="899" d="M70 1081q0 175 109 296.5t272 121.5q158 0 268 -120t110 -298q0 -173 -108.5 -294t-269.5 -121q-160 0 -270.5 118.5t-110.5 296.5zM176 1081q0 -134 78.5 -227.5t196.5 -93.5q115 0 194.5 92t79.5 229q0 135 -78.5 229.5t-195.5 94.5q-115 0 -195 -93t-80 -231z" />
<glyph unicode="&#xbb;" horiz-adv-x="1036" d="M100 0l328 512l-328 512h131l324 -512l-324 -512h-131zM461 0l327 512l-327 512h131l323 -512l-323 -512h-131z" />
<glyph unicode="&#xbc;" horiz-adv-x="1716" d="M156 690v90h204v602h-194v93h297v-695h199v-90h-506zM301 0l1051 1475h110l-1050 -1475h-111zM954 195l320 614h110l-280 -528h231v219h97v-219h129v-86h-129v-195h-99v195h-379z" />
<glyph unicode="&#xbd;" horiz-adv-x="1796" d="M156 690v90h204v602h-194v93h297v-695h199v-90h-506zM301 0l1051 1475h110l-1050 -1475h-111zM1063 0q233 230 296 300q119 134 132 220q2 13 2 27q0 79 -47.5 123.5t-132.5 44.5q-55 0 -113.5 -18.5t-101.5 -49.5v98q97 64 219 64q127 0 201.5 -69.5t74.5 -188.5 q0 -52 -22.5 -106t-73.5 -117t-96.5 -110.5t-126.5 -125.5h368v-92h-579z" />
<glyph unicode="&#xbe;" horiz-adv-x="1738" d="M156 711v96q100 -49 217 -49q88 0 138 38t50 97q0 75 -65 118.5t-185 43.5h-30v84h41q102 0 166.5 41.5t64.5 103.5q0 58 -48.5 90.5t-133.5 32.5q-103 0 -203 -49v94q92 47 207 47q127 0 203.5 -58.5t76.5 -154.5q0 -66 -46 -115t-122 -71q82 -24 130.5 -78t48.5 -131 q0 -98 -79.5 -161.5t-211.5 -63.5q-127 0 -219 45zM319 0l1051 1475h111l-1051 -1475h-111zM977 195l319 614h111l-281 -528h232v219h98v-219h129v-86h-129v-195h-98v195h-381z" />
<glyph unicode="&#xbf;" horiz-adv-x="894" d="M141 -119q0 73 20.5 135t53 107t71.5 85.5t78.5 78.5t72 77.5t53 92t20.5 112.5v86h113v-90q0 -71 -20 -131.5t-52.5 -104t-71.5 -83t-78.5 -77.5t-72 -77.5t-52.5 -92.5t-20 -114q0 -115 75.5 -184.5t209.5 -69.5q81 0 157 24.5t117 53.5v-112q-38 -25 -116 -48.5 t-158 -23.5q-186 0 -293 99t-107 257zM481 965q0 37 23.5 60.5t60.5 23.5q36 0 60 -24t24 -60q0 -35 -24.5 -58.5t-59.5 -23.5q-37 0 -60.5 23.5t-23.5 58.5z" />
<glyph unicode="&#xc0;" d="M14 0l664 1499h4l659 -1499h-124l-168 383h-742l-166 -383h-127zM350 483h656q-207 473 -326 760q-100 -235 -330 -760zM350 2009h158l240 -403h-107z" />
<glyph unicode="&#xc1;" d="M14 0l664 1499h4l659 -1499h-124l-168 383h-742l-166 -383h-127zM350 483h656q-207 473 -326 760q-100 -235 -330 -760zM610 1606l240 403h158l-291 -403h-107z" />
<glyph unicode="&#xc2;" d="M14 0l664 1499h4l659 -1499h-124l-168 383h-742l-166 -383h-127zM350 483h656q-207 473 -326 760q-100 -235 -330 -760zM356 1608l295 399h56l294 -399h-120l-201 278l-203 -278h-121z" />
<glyph unicode="&#xc3;" d="M14 0l664 1499h4l659 -1499h-124l-168 383h-742l-166 -383h-127zM350 483h656q-207 473 -326 760q-100 -235 -330 -760zM373 1677v115q23 33 67 56.5t99 23.5q56 0 150 -44t132 -44q45 0 88 25.5t74 68.5v-115q-23 -33 -67 -56.5t-97 -23.5q-46 0 -99.5 22.5t-101.5 44.5 t-81 22q-46 0 -89.5 -25.5t-74.5 -69.5z" />
<glyph unicode="&#xc4;" d="M14 0l664 1499h4l659 -1499h-124l-168 383h-742l-166 -383h-127zM350 483h656q-207 473 -326 760q-100 -235 -330 -760zM424 1778q0 37 23.5 60.5t60.5 23.5q36 0 60 -24t24 -60q0 -35 -24.5 -58.5t-59.5 -23.5q-37 0 -60.5 23.5t-23.5 58.5zM768 1778q0 36 24 60t60 24 q37 0 60.5 -23.5t23.5 -60.5q0 -35 -23.5 -58.5t-60.5 -23.5q-35 0 -59.5 23.5t-24.5 58.5z" />
<glyph unicode="&#xc5;" d="M14 0l664 1499h4l659 -1499h-124l-168 383h-742l-166 -383h-127zM350 483h656q-207 473 -326 760q-100 -235 -330 -760zM483 1778q0 79 55 131.5t140 52.5q87 0 141.5 -52.5t54.5 -131.5t-54.5 -132t-141.5 -53q-85 0 -140 53t-55 132zM575 1778q0 -42 28.5 -70.5 t74.5 -28.5q48 0 76 28t28 71t-28 70.5t-76 27.5q-46 0 -74.5 -28t-28.5 -70z" />
<glyph unicode="&#xc6;" horiz-adv-x="1810" d="M16 0l734 1475h856v-101h-787l189 -577h583v-101h-551l193 -596h518v-100h-602l-123 383h-696l-189 -383h-125zM377 483h618l-243 774z" />
<glyph unicode="&#xc7;" horiz-adv-x="1423" d="M104 737q0 157 58.5 297.5t159.5 242.5t244 162t304 60q245 0 453 -113v-116q-236 119 -453 119q-186 0 -334 -86.5t-229.5 -235.5t-81.5 -330q0 -182 81.5 -330.5t229.5 -234.5t334 -86q231 0 463 117v-117q-195 -106 -448 -111l-45 -106q46 0 89.5 -16t76 -54.5 t32.5 -91.5q0 -92 -67 -137t-166 -45q-25 0 -50.5 2t-39.5 4.5t-15 3.5v90q48 -10 93 -10q56 0 99.5 23.5t43.5 72.5q0 41 -36.5 65.5t-82.5 30.5t-94 0l74 173q-198 16 -356.5 119.5t-247.5 271t-89 366.5z" />
<glyph unicode="&#xc8;" horiz-adv-x="1210" d="M217 0v1475h875v-101h-756v-577h643v-101h-643v-596h786v-100h-905zM336 2009h158l239 -403h-106z" />
<glyph unicode="&#xc9;" horiz-adv-x="1210" d="M217 0v1475h875v-101h-756v-577h643v-101h-643v-596h786v-100h-905zM569 1606l240 403h158l-291 -403h-107z" />
<glyph unicode="&#xca;" horiz-adv-x="1210" d="M217 0v1475h875v-101h-756v-577h643v-101h-643v-596h786v-100h-905zM338 1608l295 399h55l295 -399h-121l-200 278l-203 -278h-121z" />
<glyph unicode="&#xcb;" horiz-adv-x="1210" d="M217 0v1475h875v-101h-756v-577h643v-101h-643v-596h786v-100h-905zM408 1778q0 37 23.5 60.5t60.5 23.5q36 0 59.5 -24t23.5 -60q0 -35 -24 -58.5t-59 -23.5q-37 0 -60.5 23.5t-23.5 58.5zM752 1778q0 36 24 60t60 24q37 0 60.5 -23.5t23.5 -60.5q0 -35 -23.5 -58.5 t-60.5 -23.5q-35 0 -59.5 23.5t-24.5 58.5z" />
<glyph unicode="&#xcc;" horiz-adv-x="552" d="M-49 2009h158l239 -403h-106zM217 0v1475h119v-1475h-119z" />
<glyph unicode="&#xcd;" horiz-adv-x="552" d="M205 1606l239 403h158l-291 -403h-106zM217 0v1475h119v-1475h-119z" />
<glyph unicode="&#xce;" horiz-adv-x="552" d="M-47 1608l295 399h55l295 -399h-121l-201 278l-202 -278h-121zM217 0v1475h119v-1475h-119z" />
<glyph unicode="&#xcf;" horiz-adv-x="552" d="M20 1778q0 37 23.5 60.5t60.5 23.5q36 0 60 -24t24 -60q0 -35 -24.5 -58.5t-59.5 -23.5q-37 0 -60.5 23.5t-23.5 58.5zM217 0v1475h119v-1475h-119zM365 1778q0 36 24 60t60 24q37 0 60 -23.5t23 -60.5q0 -36 -23 -59t-60 -23q-35 0 -59.5 23.5t-24.5 58.5z" />
<glyph unicode="&#xd0;" horiz-adv-x="1523" d="M59 690v94h199v691h393q155 0 294 -50.5t244.5 -142.5t167.5 -233.5t62 -311.5q0 -169 -62 -310.5t-166.5 -233.5t-241 -142.5t-287.5 -50.5h-404v690h-199zM377 100h285q129 0 244 44.5t202 124.5t137.5 201.5t50.5 266.5t-51.5 266.5t-139.5 201.5t-205.5 124.5 t-250.5 44.5h-272v-590h452v-94h-452v-590z" />
<glyph unicode="&#xd1;" horiz-adv-x="1554" d="M217 0v1499h2l963 -1165q5 -7 20.5 -25.5t20.5 -25.5q-2 23 -2 94v1096h116v-1498h-2l-962 1166q-34 39 -41 51q4 -50 4 -94v-1098h-119zM471 1677v115q23 33 67 56.5t99 23.5q56 0 150.5 -44t132.5 -44q93 0 161 94v-115q-23 -33 -66.5 -56.5t-96.5 -23.5 q-46 0 -100 22.5t-102 44.5t-81 22q-46 0 -89.5 -25.5t-74.5 -69.5z" />
<glyph unicode="&#xd2;" horiz-adv-x="1699" d="M104 737q0 155 57 295.5t155.5 243t237.5 163t296 60.5q208 0 379.5 -102t268.5 -276.5t97 -383.5q0 -158 -57 -298.5t-155.5 -242.5t-237 -161.5t-295.5 -59.5q-209 0 -380.5 101t-268.5 276t-97 385zM225 737q0 -182 79.5 -330.5t223 -234.5t322.5 -86q180 0 323 86 t221.5 234.5t78.5 330.5q0 181 -78.5 330t-221.5 235.5t-323 86.5q-179 0 -322.5 -86.5t-223 -235.5t-79.5 -330zM575 2009h158l240 -403h-107z" />
<glyph unicode="&#xd3;" horiz-adv-x="1699" d="M104 737q0 155 57 295.5t155.5 243t237.5 163t296 60.5q208 0 379.5 -102t268.5 -276.5t97 -383.5q0 -158 -57 -298.5t-155.5 -242.5t-237 -161.5t-295.5 -59.5q-209 0 -380.5 101t-268.5 276t-97 385zM225 737q0 -182 79.5 -330.5t223 -234.5t322.5 -86q180 0 323 86 t221.5 234.5t78.5 330.5q0 181 -78.5 330t-221.5 235.5t-323 86.5q-179 0 -322.5 -86.5t-223 -235.5t-79.5 -330zM723 1606l240 403h157l-291 -403h-106z" />
<glyph unicode="&#xd4;" horiz-adv-x="1699" d="M104 737q0 155 57 295.5t155.5 243t237.5 163t296 60.5q208 0 379.5 -102t268.5 -276.5t97 -383.5q0 -158 -57 -298.5t-155.5 -242.5t-237 -161.5t-295.5 -59.5q-209 0 -380.5 101t-268.5 276t-97 385zM225 737q0 -182 79.5 -330.5t223 -234.5t322.5 -86q180 0 323 86 t221.5 234.5t78.5 330.5q0 181 -78.5 330t-221.5 235.5t-323 86.5q-179 0 -322.5 -86.5t-223 -235.5t-79.5 -330zM526 1608l295 399h56l294 -399h-120l-201 278l-203 -278h-121z" />
<glyph unicode="&#xd5;" horiz-adv-x="1699" d="M104 737q0 155 57 295.5t155.5 243t237.5 163t296 60.5q208 0 379.5 -102t268.5 -276.5t97 -383.5q0 -158 -57 -298.5t-155.5 -242.5t-237 -161.5t-295.5 -59.5q-209 0 -380.5 101t-268.5 276t-97 385zM225 737q0 -182 79.5 -330.5t223 -234.5t322.5 -86q180 0 323 86 t221.5 234.5t78.5 330.5q0 181 -78.5 330t-221.5 235.5t-323 86.5q-179 0 -322.5 -86.5t-223 -235.5t-79.5 -330zM545 1677v115q23 33 67 56.5t99 23.5q56 0 150 -44t132 -44q45 0 88 25.5t74 68.5v-115q-23 -33 -67 -56.5t-97 -23.5q-46 0 -99.5 22.5t-101.5 44.5t-81 22 q-46 0 -89.5 -25.5t-74.5 -69.5z" />
<glyph unicode="&#xd6;" horiz-adv-x="1699" d="M104 737q0 155 57 295.5t155.5 243t237.5 163t296 60.5q208 0 379.5 -102t268.5 -276.5t97 -383.5q0 -158 -57 -298.5t-155.5 -242.5t-237 -161.5t-295.5 -59.5q-209 0 -380.5 101t-268.5 276t-97 385zM225 737q0 -182 79.5 -330.5t223 -234.5t322.5 -86q180 0 323 86 t221.5 234.5t78.5 330.5q0 181 -78.5 330t-221.5 235.5t-323 86.5q-179 0 -322.5 -86.5t-223 -235.5t-79.5 -330zM592 1778q0 37 23.5 60.5t60.5 23.5q36 0 60 -24t24 -60q0 -35 -24.5 -58.5t-59.5 -23.5q-37 0 -60.5 23.5t-23.5 58.5zM936 1778q0 36 24 60t60 24 q37 0 60.5 -23.5t23.5 -60.5q0 -35 -23.5 -58.5t-60.5 -23.5q-35 0 -59.5 23.5t-24.5 58.5z" />
<glyph unicode="&#xd7;" horiz-adv-x="1222" d="M201 401l340 338l-340 338l73 72l336 -338l338 338l74 -72l-340 -338l340 -338l-74 -71l-338 338l-336 -338z" />
<glyph unicode="&#xd8;" horiz-adv-x="1699" d="M104 737q0 155 57 295.5t155.5 243t237.5 163t296 60.5q210 0 389 -108l156 227h121l-197 -287q130 -106 203 -260.5t73 -333.5q0 -158 -57 -298.5t-155.5 -242.5t-237 -161.5t-295.5 -59.5q-214 0 -389 107l-156 -225h-121l195 282q-129 106 -202 261.5t-73 336.5z M225 737q0 -153 57 -283t160 -221l734 1065q-147 91 -326 91t-322.5 -86.5t-223 -235.5t-79.5 -330zM524 174q142 -88 326 -88q180 0 323 86t221.5 234.5t78.5 330.5q0 151 -57.5 281t-160.5 221z" />
<glyph unicode="&#xd9;" horiz-adv-x="1431" d="M178 500v975h119v-971q0 -196 111.5 -307t308.5 -111t308.5 111t111.5 307v971h116v-975q0 -247 -142 -386t-394 -139q-254 0 -396.5 139t-142.5 386zM393 2009h158l240 -403h-107z" />
<glyph unicode="&#xda;" horiz-adv-x="1431" d="M178 500v975h119v-971q0 -196 111.5 -307t308.5 -111t308.5 111t111.5 307v971h116v-975q0 -247 -142 -386t-394 -139q-254 0 -396.5 139t-142.5 386zM631 1606l239 403h158l-291 -403h-106z" />
<glyph unicode="&#xdb;" horiz-adv-x="1431" d="M178 500v975h119v-971q0 -196 111.5 -307t308.5 -111t308.5 111t111.5 307v971h116v-975q0 -247 -142 -386t-394 -139q-254 0 -396.5 139t-142.5 386zM393 1608l295 399h55l295 -399h-120l-201 278l-203 -278h-121z" />
<glyph unicode="&#xdc;" horiz-adv-x="1431" d="M178 500v975h119v-971q0 -196 111.5 -307t308.5 -111t308.5 111t111.5 307v971h116v-975q0 -247 -142 -386t-394 -139q-254 0 -396.5 139t-142.5 386zM459 1778q0 37 23.5 60.5t60.5 23.5q36 0 60 -24t24 -60q0 -35 -24.5 -58.5t-59.5 -23.5q-37 0 -60.5 23.5t-23.5 58.5 zM803 1778q0 36 24 60t60 24q37 0 60.5 -23.5t23.5 -60.5q0 -35 -23.5 -58.5t-60.5 -23.5q-35 0 -59.5 23.5t-24.5 58.5z" />
<glyph unicode="&#xdd;" horiz-adv-x="1216" d="M4 1475h133l471 -766l471 766h133l-544 -881v-594h-119v594zM543 1606l239 403h158l-291 -403h-106z" />
<glyph unicode="&#xde;" horiz-adv-x="1101" d="M217 0v1475h119v-310h203q226 0 355.5 -114.5t129.5 -313.5t-129.5 -313.5t-355.5 -114.5h-203v-309h-119zM336 410h203q171 0 266.5 86.5t95.5 240.5t-96.5 241t-269.5 87h-199v-655z" />
<glyph unicode="&#xdf;" horiz-adv-x="1275" d="M215 0v1063q0 121 49 218.5t150 157.5t239 60q160 0 259.5 -82t99.5 -215q0 -56 -20.5 -105.5t-53 -85.5t-71.5 -68.5t-78.5 -60t-72 -53.5t-53 -55.5t-20.5 -60.5q0 -65 45.5 -95.5t179.5 -74.5q169 -57 245.5 -124.5t76.5 -178.5q0 -127 -97 -196t-251 -69 q-185 0 -324 68v113q166 -78 318 -78q102 0 171.5 42t69.5 120q0 73 -59.5 118.5t-198.5 90.5q-48 16 -80.5 28t-68.5 29.5t-58.5 36t-42 43t-28.5 56t-9 69.5q0 44 20 83.5t52.5 69.5t71.5 58.5t78.5 57.5t72 60t52.5 71.5t20 86.5q0 89 -68 143t-180 54 q-146 0 -234.5 -92.5t-88.5 -243.5v-1059h-113z" />
<glyph unicode="&#xe0;" horiz-adv-x="1095" d="M106 256q0 193 192 281t509 41v77q0 154 -78 221.5t-221 67.5q-102 0 -195 -27.5t-143 -58.5v113q54 29 147 53.5t201 24.5q402 0 402 -390v-659h-109v139q-1 24 0.5 46.5t3.5 32.5l2 11h-4q0 -4 -14.5 -29.5t-47.5 -63.5t-76.5 -74t-111 -61.5t-141.5 -25.5 q-141 0 -228.5 78t-87.5 203zM223 262q0 -82 57.5 -133t153.5 -51q103 0 190.5 61.5t135 154.5t47.5 191q-270 43 -427 -19.5t-157 -203.5zM229 1497h154l205 -342h-109z" />
<glyph unicode="&#xe1;" horiz-adv-x="1095" d="M106 256q0 193 192 281t509 41v77q0 154 -78 221.5t-221 67.5q-102 0 -195 -27.5t-143 -58.5v113q54 29 147 53.5t201 24.5q402 0 402 -390v-659h-109v139q-1 24 0.5 46.5t3.5 32.5l2 11h-4q0 -4 -14.5 -29.5t-47.5 -63.5t-76.5 -74t-111 -61.5t-141.5 -25.5 q-141 0 -228.5 78t-87.5 203zM223 262q0 -82 57.5 -133t153.5 -51q103 0 190.5 61.5t135 154.5t47.5 191q-270 43 -427 -19.5t-157 -203.5zM457 1155l205 342h153l-248 -342h-110z" />
<glyph unicode="&#xe2;" horiz-adv-x="1095" d="M106 256q0 193 192 281t509 41v77q0 154 -78 221.5t-221 67.5q-102 0 -195 -27.5t-143 -58.5v113q54 29 147 53.5t201 24.5q402 0 402 -390v-659h-109v139q-1 24 0.5 46.5t3.5 32.5l2 11h-4q0 -4 -14.5 -29.5t-47.5 -63.5t-76.5 -74t-111 -61.5t-141.5 -25.5 q-141 0 -228.5 78t-87.5 203zM223 262q0 -82 57.5 -133t153.5 -51q103 0 190.5 61.5t135 154.5t47.5 191q-270 43 -427 -19.5t-157 -203.5zM240 1155l249 342h58l250 -342h-121l-158 223l-160 -223h-118z" />
<glyph unicode="&#xe3;" horiz-adv-x="1095" d="M106 256q0 193 192 281t509 41v77q0 154 -78 221.5t-221 67.5q-102 0 -195 -27.5t-143 -58.5v113q54 29 147 53.5t201 24.5q402 0 402 -390v-659h-109v139q-1 24 0.5 46.5t3.5 32.5l2 11h-4q0 -4 -14.5 -29.5t-47.5 -63.5t-76.5 -74t-111 -61.5t-141.5 -25.5 q-141 0 -228.5 78t-87.5 203zM217 1225v114q23 33 67 56.5t99 23.5q56 0 150 -44t131 -44q95 0 163 94v-114q-23 -33 -67 -56.5t-98 -23.5q-56 0 -150 44t-131 44q-96 0 -164 -94zM223 262q0 -82 57.5 -133t153.5 -51q103 0 190.5 61.5t135 154.5t47.5 191 q-270 43 -427 -19.5t-157 -203.5z" />
<glyph unicode="&#xe4;" horiz-adv-x="1095" d="M106 256q0 193 192 281t509 41v77q0 154 -78 221.5t-221 67.5q-102 0 -195 -27.5t-143 -58.5v113q54 29 147 53.5t201 24.5q402 0 402 -390v-659h-109v139q-1 24 0.5 46.5t3.5 32.5l2 11h-4q0 -4 -14.5 -29.5t-47.5 -63.5t-76.5 -74t-111 -61.5t-141.5 -25.5 q-141 0 -228.5 78t-87.5 203zM223 262q0 -82 57.5 -133t153.5 -51q103 0 190.5 61.5t135 154.5t47.5 191q-270 43 -427 -19.5t-157 -203.5zM262 1323q0 37 23.5 60.5t60.5 23.5q36 0 60 -24t24 -60q0 -35 -24.5 -58.5t-59.5 -23.5q-37 0 -60.5 23.5t-23.5 58.5zM606 1323 q0 36 24 60t60 24q37 0 60.5 -23.5t23.5 -60.5q0 -35 -23.5 -58.5t-60.5 -23.5q-35 0 -59.5 23.5t-24.5 58.5z" />
<glyph unicode="&#xe5;" horiz-adv-x="1095" d="M106 256q0 193 192 281t509 41v77q0 154 -78 221.5t-221 67.5q-102 0 -195 -27.5t-143 -58.5v113q54 29 147 53.5t201 24.5q402 0 402 -390v-659h-109v139q-1 24 0.5 46.5t3.5 32.5l2 11h-4q0 -4 -14.5 -29.5t-47.5 -63.5t-76.5 -74t-111 -61.5t-141.5 -25.5 q-141 0 -228.5 78t-87.5 203zM223 262q0 -82 57.5 -133t153.5 -51q103 0 190.5 61.5t135 154.5t47.5 191q-270 43 -427 -19.5t-157 -203.5zM322 1323q0 80 54 132t140 52q87 0 142 -52t55 -132q0 -79 -55 -130.5t-142 -51.5q-86 0 -140 51.5t-54 130.5zM414 1323 q0 -41 28 -68.5t74 -27.5q48 0 76.5 27.5t28.5 68.5q0 44 -28.5 72t-76.5 28q-46 0 -74 -28t-28 -72z" />
<glyph unicode="&#xe6;" horiz-adv-x="1779" d="M106 260q0 122 81.5 202.5t226.5 112t338 13.5q12 103 53 186q-25 83 -105 126.5t-192 43.5q-102 0 -195 -27.5t-143 -58.5v113q54 29 147 53.5t201 24.5q129 0 221 -43.5t135 -122.5q65 79 156 122.5t195 43.5q103 0 187.5 -40t139 -107.5t84 -154.5t29.5 -184 q0 -12 -1 -33t-1 -28h-797q0 -189 107 -305.5t284 -116.5q98 0 195 28.5t174 79.5v-114q-164 -99 -369 -99q-134 0 -241.5 55t-175.5 156q-74 -91 -184 -151t-234 -60q-140 0 -228 80.5t-88 204.5zM223 266q0 -81 58 -134.5t153 -53.5q108 0 203.5 52t157.5 142 q-45 106 -45 226q-257 23 -392 -38t-135 -194zM870 590h676q0 93 -35.5 172t-110.5 130.5t-177 51.5q-99 0 -177.5 -52t-121 -130.5t-54.5 -171.5z" />
<glyph unicode="&#xe7;" horiz-adv-x="1075" d="M125 512q0 231 146.5 384t371.5 153q73 0 140 -14.5t103 -29.5t85 -40v-117q-72 44 -147.5 69t-176.5 25q-179 0 -292 -121.5t-113 -308.5t113 -308.5t292 -121.5q178 0 330 94v-117q-74 -38 -148.5 -60.5t-179.5 -23.5l-45 -106q46 0 90 -16t76.5 -54.5t32.5 -91.5 q0 -92 -67.5 -137t-166.5 -45q-25 0 -50 2t-39 4.5t-15 3.5v90q47 -10 92 -10q56 0 99.5 23.5t43.5 72.5q0 41 -36.5 65.5t-82.5 30.5t-94 0l76 175q-196 28 -317 174t-121 356z" />
<glyph unicode="&#xe8;" horiz-adv-x="1181" d="M125 512q0 231 140.5 384t348.5 153q140 0 245 -68t156.5 -175.5t51.5 -236.5q0 -12 -1 -33t-1 -28h-821v-14q0 -185 111.5 -299.5t291.5 -114.5q103 0 203 28.5t178 79.5v-114q-168 -99 -383 -99q-228 0 -374 149.5t-146 387.5zM248 596h700q0 91 -37.5 169 t-115.5 128.5t-183 50.5q-151 0 -248 -102t-116 -246zM344 1497h154l204 -342h-108z" />
<glyph unicode="&#xe9;" horiz-adv-x="1181" d="M125 512q0 231 140.5 384t348.5 153q140 0 245 -68t156.5 -175.5t51.5 -236.5q0 -12 -1 -33t-1 -28h-821v-14q0 -185 111.5 -299.5t291.5 -114.5q103 0 203 28.5t178 79.5v-114q-168 -99 -383 -99q-228 0 -374 149.5t-146 387.5zM248 596h700q0 91 -37.5 169 t-115.5 128.5t-183 50.5q-151 0 -248 -102t-116 -246zM539 1155l204 342h154l-248 -342h-110z" />
<glyph unicode="&#xea;" horiz-adv-x="1181" d="M125 512q0 231 140.5 384t348.5 153q140 0 245 -68t156.5 -175.5t51.5 -236.5q0 -12 -1 -33t-1 -28h-821v-14q0 -185 111.5 -299.5t291.5 -114.5q103 0 203 28.5t178 79.5v-114q-168 -99 -383 -99q-228 0 -374 149.5t-146 387.5zM248 596h700q0 91 -37.5 169 t-115.5 128.5t-183 50.5q-151 0 -248 -102t-116 -246zM336 1155l250 342h57l250 -342h-121l-158 223l-159 -223h-119z" />
<glyph unicode="&#xeb;" horiz-adv-x="1181" d="M125 512q0 231 140.5 384t348.5 153q140 0 245 -68t156.5 -175.5t51.5 -236.5q0 -12 -1 -33t-1 -28h-821v-14q0 -185 111.5 -299.5t291.5 -114.5q103 0 203 28.5t178 79.5v-114q-168 -99 -383 -99q-228 0 -374 149.5t-146 387.5zM248 596h700q0 91 -37.5 169 t-115.5 128.5t-183 50.5q-151 0 -248 -102t-116 -246zM358 1323q0 37 23.5 60.5t60.5 23.5q36 0 60 -24t24 -60q0 -35 -24.5 -58.5t-59.5 -23.5q-37 0 -60.5 23.5t-23.5 58.5zM702 1323q0 36 24 60t60 24q37 0 60.5 -23.5t23.5 -60.5q0 -35 -23.5 -58.5t-60.5 -23.5 q-35 0 -59.5 23.5t-24.5 58.5z" />
<glyph unicode="&#xec;" horiz-adv-x="542" d="M-16 1497h153l205 -342h-109zM215 0v1024h113v-1024h-113z" />
<glyph unicode="&#xed;" horiz-adv-x="542" d="M201 1155l205 342h153l-248 -342h-110zM215 0v1024h113v-1024h-113z" />
<glyph unicode="&#xee;" horiz-adv-x="542" d="M-6 1155l250 342h57l250 -342h-121l-158 223l-159 -223h-119zM215 0v1024h113v-1024h-113z" />
<glyph unicode="&#xef;" horiz-adv-x="542" d="M16 1323q0 37 23.5 60.5t60.5 23.5q36 0 60 -24t24 -60q0 -35 -24.5 -58.5t-59.5 -23.5q-37 0 -60.5 23.5t-23.5 58.5zM215 0v1024h113v-1024h-113zM360 1323q0 36 24 60t60 24q37 0 60.5 -23.5t23.5 -60.5q0 -35 -23.5 -58.5t-60.5 -23.5q-35 0 -59.5 23.5t-24.5 58.5z " />
<glyph unicode="&#xf0;" horiz-adv-x="1124" d="M109 512q0 106 32 202.5t90 171t147.5 119t196.5 44.5q118 0 197 -64q-83 129 -223 266l-246 -145l-47 78l223 133q-68 66 -182 158h156q98 -88 116 -105l248 148l47 -78l-227 -135q227 -224 336 -469q78 -163 78 -320q0 -109 -32.5 -206.5t-91.5 -172t-149 -118.5 t-198 -44t-198 43.5t-149 118t-91.5 171.5t-32.5 204zM223 512q0 -121 39 -217t121.5 -155.5t196.5 -59.5q170 0 263 123.5t93 312.5q0 183 -93.5 305.5t-262.5 122.5q-114 0 -196.5 -59.5t-121.5 -155.5t-39 -217z" />
<glyph unicode="&#xf1;" horiz-adv-x="1263" d="M215 0v1024h111v-170q0 -21 -2 -41.5t-4 -31t-3 -11.5h5q16 41 48.5 85t83.5 89.5t127.5 75t163.5 29.5q187 0 263.5 -102.5t76.5 -299.5v-647h-112v614q0 58 -4 99.5t-18 87t-39 74t-70 47t-107 18.5q-173 0 -290 -126t-117 -312v-502h-113zM369 1225v114q23 33 67 56.5 t99 23.5q56 0 149.5 -44t130.5 -44q96 0 164 94v-114q-23 -33 -67 -56.5t-99 -23.5q-56 0 -150 44t-131 44q-95 0 -163 -94z" />
<glyph unicode="&#xf2;" horiz-adv-x="1277" d="M125 512q0 230 146.5 383.5t367.5 153.5t367.5 -153.5t146.5 -383.5t-146.5 -383.5t-367.5 -153.5t-367.5 153.5t-146.5 383.5zM240 512q0 -188 112.5 -310t286.5 -122t286.5 122t112.5 310t-112.5 310t-286.5 122t-286.5 -122t-112.5 -310zM356 1497h154l205 -342h-109z " />
<glyph unicode="&#xf3;" horiz-adv-x="1277" d="M125 512q0 230 146.5 383.5t367.5 153.5t367.5 -153.5t146.5 -383.5t-146.5 -383.5t-367.5 -153.5t-367.5 153.5t-146.5 383.5zM240 512q0 -188 112.5 -310t286.5 -122t286.5 122t112.5 310t-112.5 310t-286.5 122t-286.5 -122t-112.5 -310zM567 1155l205 342h154 l-248 -342h-111z" />
<glyph unicode="&#xf4;" horiz-adv-x="1277" d="M125 512q0 230 146.5 383.5t367.5 153.5t367.5 -153.5t146.5 -383.5t-146.5 -383.5t-367.5 -153.5t-367.5 153.5t-146.5 383.5zM240 512q0 -188 112.5 -310t286.5 -122t286.5 122t112.5 310t-112.5 310t-286.5 122t-286.5 -122t-112.5 -310zM360 1155l250 342h58 l250 -342h-121l-158 223l-160 -223h-119z" />
<glyph unicode="&#xf5;" horiz-adv-x="1277" d="M125 512q0 230 146.5 383.5t367.5 153.5t367.5 -153.5t146.5 -383.5t-146.5 -383.5t-367.5 -153.5t-367.5 153.5t-146.5 383.5zM240 512q0 -188 112.5 -310t286.5 -122t286.5 122t112.5 310t-112.5 310t-286.5 122t-286.5 -122t-112.5 -310zM334 1225v114q23 33 67 56.5 t99 23.5q56 0 149.5 -44t130.5 -44q96 0 164 94v-114q-23 -33 -67 -56.5t-99 -23.5q-56 0 -149.5 44t-130.5 44q-96 0 -164 -94z" />
<glyph unicode="&#xf6;" horiz-adv-x="1277" d="M125 512q0 230 146.5 383.5t367.5 153.5t367.5 -153.5t146.5 -383.5t-146.5 -383.5t-367.5 -153.5t-367.5 153.5t-146.5 383.5zM240 512q0 -188 112.5 -310t286.5 -122t286.5 122t112.5 310t-112.5 310t-286.5 122t-286.5 -122t-112.5 -310zM383 1323q0 37 23.5 60.5 t60.5 23.5q36 0 60 -24t24 -60q0 -35 -24.5 -58.5t-59.5 -23.5q-37 0 -60.5 23.5t-23.5 58.5zM727 1323q0 36 24 60t60 24q37 0 60.5 -23.5t23.5 -60.5q0 -35 -23.5 -58.5t-60.5 -23.5q-35 0 -59.5 23.5t-24.5 58.5z" />
<glyph unicode="&#xf7;" horiz-adv-x="1314" d="M201 686v102h913v-102h-913zM573 336q0 35 23.5 58.5t60.5 23.5t60.5 -23.5t23.5 -58.5q0 -37 -23.5 -60.5t-60.5 -23.5t-60.5 23.5t-23.5 60.5zM573 1139q0 37 23.5 60.5t60.5 23.5t60.5 -23.5t23.5 -60.5q0 -35 -23.5 -58.5t-60.5 -23.5t-60.5 23.5t-23.5 58.5z" />
<glyph unicode="&#xf8;" horiz-adv-x="1277" d="M125 512q0 230 146.5 383.5t367.5 153.5q142 0 260 -70l127 188h121l-168 -247q83 -73 128.5 -178.5t45.5 -229.5q0 -230 -146.5 -383.5t-367.5 -153.5q-137 0 -256 66l-123 -184h-121l164 241q-85 73 -131.5 180t-46.5 234zM240 512q0 -202 125 -324l475 703 q-92 53 -201 53q-174 0 -286.5 -122t-112.5 -310zM444 129q82 -49 195 -49q174 0 286.5 122t112.5 310q0 197 -120 317z" />
<glyph unicode="&#xf9;" horiz-adv-x="1261" d="M186 377v647h113v-614q0 -58 4 -100t18 -87.5t38.5 -73.5t69 -46.5t106.5 -18.5q116 0 208 61.5t140.5 161t48.5 215.5v502h115v-1024h-111l-2 170q0 13 1 26.5t2 23t2 17.5t2 13l1 4h-4q-11 -31 -33 -66t-59 -73.5t-82 -69t-107.5 -50.5t-130.5 -20q-183 0 -261.5 99.5 t-78.5 302.5zM344 1497h154l204 -342h-108z" />
<glyph unicode="&#xfa;" horiz-adv-x="1261" d="M186 377v647h113v-614q0 -58 4 -100t18 -87.5t38.5 -73.5t69 -46.5t106.5 -18.5q116 0 208 61.5t140.5 161t48.5 215.5v502h115v-1024h-111l-2 170q0 13 1 26.5t2 23t2 17.5t2 13l1 4h-4q-11 -31 -33 -66t-59 -73.5t-82 -69t-107.5 -50.5t-130.5 -20q-183 0 -261.5 99.5 t-78.5 302.5zM539 1155l204 342h154l-248 -342h-110z" />
<glyph unicode="&#xfb;" horiz-adv-x="1261" d="M186 377v647h113v-614q0 -58 4 -100t18 -87.5t38.5 -73.5t69 -46.5t106.5 -18.5q116 0 208 61.5t140.5 161t48.5 215.5v502h115v-1024h-111l-2 170q0 13 1 26.5t2 23t2 17.5t2 13l1 4h-4q-11 -31 -33 -66t-59 -73.5t-82 -69t-107.5 -50.5t-130.5 -20q-183 0 -261.5 99.5 t-78.5 302.5zM334 1155l250 342h57l250 -342h-121l-158 223l-159 -223h-119z" />
<glyph unicode="&#xfc;" horiz-adv-x="1261" d="M186 377v647h113v-614q0 -58 4 -100t18 -87.5t38.5 -73.5t69 -46.5t106.5 -18.5q116 0 208 61.5t140.5 161t48.5 215.5v502h115v-1024h-111l-2 170q0 13 1 26.5t2 23t2 17.5t2 13l1 4h-4q-11 -31 -33 -66t-59 -73.5t-82 -69t-107.5 -50.5t-130.5 -20q-183 0 -261.5 99.5 t-78.5 302.5zM352 1323q0 37 23.5 60.5t60.5 23.5q36 0 60 -24t24 -60q0 -35 -24.5 -58.5t-59.5 -23.5q-37 0 -60.5 23.5t-23.5 58.5zM696 1323q0 36 24 60t60 24q37 0 60.5 -23.5t23.5 -60.5q0 -35 -23.5 -58.5t-60.5 -23.5q-35 0 -59.5 23.5t-24.5 58.5z" />
<glyph unicode="&#xfd;" horiz-adv-x="1021" d="M-20 -360q54 -13 106 -13q66 0 119 27t96.5 85t75.5 120.5t72 160.5l-433 1004h127l160 -379q148 -351 207 -495q38 89 110.5 262t98.5 233l158 379h129l-408 -950q-25 -60 -40 -95t-38 -86.5t-39.5 -81.5t-40 -70.5t-44 -64t-47 -51.5t-53.5 -43.5t-59.5 -30t-69 -20.5 t-77.5 -6q-70 0 -110 16v99zM438 1155l205 342h154l-248 -342h-111z" />
<glyph unicode="&#xfe;" horiz-adv-x="1304" d="M215 -451v1926h113v-578q0 -21 -1.5 -41.5t-2.5 -30.5l-2 -10h4q46 97 150 165.5t231 68.5q203 0 338 -154t135 -383q0 -233 -134.5 -385t-338.5 -152q-125 0 -230 70.5t-151 167.5h-4q6 -35 6 -84v-580h-113zM328 512q0 -108 33 -193.5t87 -136t118 -76.5t132 -26 q165 0 266 121t101 311q0 186 -101 309t-266 123q-68 0 -132 -26t-118 -76.5t-87 -136t-33 -193.5z" />
<glyph unicode="&#xff;" horiz-adv-x="1021" d="M-20 -360q54 -13 106 -13q66 0 119 27t96.5 85t75.5 120.5t72 160.5l-433 1004h127l160 -379q148 -351 207 -495q38 89 110.5 262t98.5 233l158 379h129l-408 -950q-25 -60 -40 -95t-38 -86.5t-39.5 -81.5t-40 -70.5t-44 -64t-47 -51.5t-53.5 -43.5t-59.5 -30t-69 -20.5 t-77.5 -6q-70 0 -110 16v99zM254 1323q0 37 23.5 60.5t60.5 23.5q36 0 60 -24t24 -60q0 -35 -24.5 -58.5t-59.5 -23.5q-37 0 -60.5 23.5t-23.5 58.5zM598 1323q0 36 24 60t60 24q37 0 60.5 -23.5t23.5 -60.5q0 -35 -23.5 -58.5t-60.5 -23.5q-35 0 -59.5 23.5t-24.5 58.5z " />
<glyph unicode="&#x100;" d="M14 0l664 1499h4l659 -1499h-124l-168 383h-742l-166 -383h-127zM350 483h656q-207 473 -326 760q-100 -235 -330 -760zM387 1729v100h582v-100h-582z" />
<glyph unicode="&#x101;" horiz-adv-x="1095" d="M106 256q0 193 192 281t509 41v77q0 154 -78 221.5t-221 67.5q-102 0 -195 -27.5t-143 -58.5v113q54 29 147 53.5t201 24.5q402 0 402 -390v-659h-109v139q-1 24 0.5 46.5t3.5 32.5l2 11h-4q0 -4 -14.5 -29.5t-47.5 -63.5t-76.5 -74t-111 -61.5t-141.5 -25.5 q-141 0 -228.5 78t-87.5 203zM223 262q0 -82 57.5 -133t153.5 -51q103 0 190.5 61.5t135 154.5t47.5 191q-270 43 -427 -19.5t-157 -203.5zM223 1274v100h578v-100h-578z" />
<glyph unicode="&#x102;" d="M14 0l664 1499h4l659 -1499h-124l-168 383h-742l-166 -383h-127zM350 483h656q-207 473 -326 760q-100 -235 -330 -760zM416 1925h98q1 -95 45 -147t119 -52t119 52t45 147h98q0 -136 -69 -215.5t-193 -79.5t-193 79.5t-69 215.5z" />
<glyph unicode="&#x103;" horiz-adv-x="1095" d="M106 256q0 193 192 281t509 41v77q0 154 -78 221.5t-221 67.5q-102 0 -195 -27.5t-143 -58.5v113q54 29 147 53.5t201 24.5q402 0 402 -390v-659h-109v139q-1 24 0.5 46.5t3.5 32.5l2 11h-4q0 -4 -14.5 -29.5t-47.5 -63.5t-76.5 -74t-111 -61.5t-141.5 -25.5 q-141 0 -228.5 78t-87.5 203zM223 262q0 -82 57.5 -133t153.5 -51q103 0 190.5 61.5t135 154.5t47.5 191q-270 43 -427 -19.5t-157 -203.5zM252 1468h98q1 -90 43 -139t115 -49t114.5 49t41.5 139h100q0 -131 -67.5 -207.5t-188.5 -76.5q-123 0 -189.5 76.5t-66.5 207.5z " />
<glyph unicode="&#x104;" d="M14 0l664 1499h4l659 -1499q-215 -126 -215 -266q0 -59 34.5 -89t92.5 -30q53 0 123 29v-93q-72 -26 -135 -26q-90 0 -153.5 50t-63.5 140q0 154 195 285h-2l-168 383h-742l-166 -383h-127zM350 483h656q-207 473 -326 760q-100 -235 -330 -760z" />
<glyph unicode="&#x105;" horiz-adv-x="1095" d="M106 256q0 193 192 281t509 41v77q0 154 -78 221.5t-221 67.5q-102 0 -195 -27.5t-143 -58.5v113q54 29 147 53.5t201 24.5q402 0 402 -390v-657l2 -2q-215 -126 -215 -266q0 -59 34.5 -89t92.5 -30q52 0 122 29v-93q-72 -26 -135 -26q-90 0 -153.5 50t-63.5 140 q0 160 207 293v131q-1 24 0.5 46.5t3.5 32.5l2 11h-4q0 -4 -14.5 -29.5t-47.5 -63.5t-76.5 -74t-111 -61.5t-141.5 -25.5q-141 0 -228.5 78t-87.5 203zM223 262q0 -82 57.5 -133t153.5 -51q103 0 190.5 61.5t135 154.5t47.5 191q-270 43 -427 -19.5t-157 -203.5z" />
<glyph unicode="&#x106;" horiz-adv-x="1423" d="M104 737q0 157 58.5 297.5t159.5 242.5t244 162t304 60q245 0 453 -113v-116q-236 119 -453 119q-186 0 -334 -86.5t-229.5 -235.5t-81.5 -330q0 -182 81.5 -330.5t229.5 -234.5t334 -86q231 0 463 117v-117q-208 -111 -463 -111q-161 0 -304 59.5t-244 161t-159.5 242.5 t-58.5 299zM721 1606l240 403h157l-291 -403h-106z" />
<glyph unicode="&#x107;" horiz-adv-x="1075" d="M125 512q0 231 146.5 384t371.5 153q73 0 140 -14.5t103 -29.5t85 -40v-117q-72 44 -147.5 69t-176.5 25q-179 0 -292 -121.5t-113 -308.5t113 -308.5t292 -121.5q178 0 330 94v-117q-48 -25 -86 -40.5t-106 -29.5t-142 -14q-225 0 -371.5 153t-146.5 384zM559 1155 l205 342h154l-248 -342h-111z" />
<glyph unicode="&#x108;" horiz-adv-x="1423" d="M104 737q0 157 58.5 297.5t159.5 242.5t244 162t304 60q245 0 453 -113v-116q-236 119 -453 119q-186 0 -334 -86.5t-229.5 -235.5t-81.5 -330q0 -182 81.5 -330.5t229.5 -234.5t334 -86q231 0 463 117v-117q-208 -111 -463 -111q-161 0 -304 59.5t-244 161t-159.5 242.5 t-58.5 299zM522 1608l295 399h55l295 -399h-120l-201 278l-203 -278h-121z" />
<glyph unicode="&#x109;" horiz-adv-x="1075" d="M125 512q0 231 146.5 384t371.5 153q73 0 140 -14.5t103 -29.5t85 -40v-117q-72 44 -147.5 69t-176.5 25q-179 0 -292 -121.5t-113 -308.5t113 -308.5t292 -121.5q178 0 330 94v-117q-48 -25 -86 -40.5t-106 -29.5t-142 -14q-225 0 -371.5 153t-146.5 384zM340 1155 l250 342h57l250 -342h-121l-158 223l-159 -223h-119z" />
<glyph unicode="&#x10a;" horiz-adv-x="1423" d="M104 737q0 157 58.5 297.5t159.5 242.5t244 162t304 60q245 0 453 -113v-116q-236 119 -453 119q-186 0 -334 -86.5t-229.5 -235.5t-81.5 -330q0 -182 81.5 -330.5t229.5 -234.5t334 -86q231 0 463 117v-117q-208 -111 -463 -111q-161 0 -304 59.5t-244 161t-159.5 242.5 t-58.5 299zM764 1778q0 37 23.5 60.5t60.5 23.5q36 0 60 -24t24 -60q0 -35 -24.5 -58.5t-59.5 -23.5q-37 0 -60.5 23.5t-23.5 58.5z" />
<glyph unicode="&#x10b;" horiz-adv-x="1075" d="M125 512q0 231 146.5 384t371.5 153q73 0 140 -14.5t103 -29.5t85 -40v-117q-72 44 -147.5 69t-176.5 25q-179 0 -292 -121.5t-113 -308.5t113 -308.5t292 -121.5q178 0 330 94v-117q-48 -25 -86 -40.5t-106 -29.5t-142 -14q-225 0 -371.5 153t-146.5 384zM561 1323 q0 37 23.5 60.5t60.5 23.5q36 0 60 -24t24 -60q0 -35 -24.5 -58.5t-59.5 -23.5q-37 0 -60.5 23.5t-23.5 58.5z" />
<glyph unicode="&#x10c;" horiz-adv-x="1423" d="M104 737q0 157 58.5 297.5t159.5 242.5t244 162t304 60q245 0 453 -113v-116q-236 119 -453 119q-186 0 -334 -86.5t-229.5 -235.5t-81.5 -330q0 -182 81.5 -330.5t229.5 -234.5t334 -86q231 0 463 117v-117q-208 -111 -463 -111q-161 0 -304 59.5t-244 161t-159.5 242.5 t-58.5 299zM524 2007h121l203 -278l201 278h120l-295 -399h-55z" />
<glyph unicode="&#x10d;" horiz-adv-x="1075" d="M125 512q0 231 146.5 384t371.5 153q73 0 140 -14.5t103 -29.5t85 -40v-117q-72 44 -147.5 69t-176.5 25q-179 0 -292 -121.5t-113 -308.5t113 -308.5t292 -121.5q178 0 330 94v-117q-48 -25 -86 -40.5t-106 -29.5t-142 -14q-225 0 -371.5 153t-146.5 384zM354 1497h119 l160 -223l158 223h120l-249 -342h-58z" />
<glyph unicode="&#x10e;" horiz-adv-x="1482" d="M217 0v1475h393q155 0 294 -50.5t244.5 -142.5t167.5 -233.5t62 -311.5q0 -169 -62 -310.5t-166.5 -233.5t-241 -142.5t-287.5 -50.5h-404zM311 2007h121l203 -278l201 278h120l-294 -399h-56zM336 100h285q129 0 244 44.5t202 124.5t137.5 201.5t50.5 266.5t-51.5 266.5 t-139.5 201.5t-205.5 124.5t-250.5 44.5h-272v-1274z" />
<glyph unicode="&#x10f;" horiz-adv-x="1480" d="M125 512q0 233 134.5 385t338.5 152q126 0 230.5 -70.5t148.5 -167.5h4q-6 35 -6 84v580h115v-1475h-111v133q0 21 1.5 41.5t3.5 30.5l1 10h-4q-46 -98 -151.5 -169t-231.5 -71q-203 0 -338 154t-135 383zM240 512q0 -186 100.5 -309t263.5 -123q68 0 132.5 26 t119.5 76.5t88 136t33 193.5t-33 193.5t-88 136t-119.5 76.5t-132.5 26q-164 0 -264 -121t-100 -311zM1327 903v567h109v-567h-109z" />
<glyph unicode="&#x110;" horiz-adv-x="1523" d="M59 690v94h199v691h393q155 0 294 -50.5t244.5 -142.5t167.5 -233.5t62 -311.5q0 -169 -62 -310.5t-166.5 -233.5t-241 -142.5t-287.5 -50.5h-404v690h-199zM377 100h285q129 0 244 44.5t202 124.5t137.5 201.5t50.5 266.5t-51.5 266.5t-139.5 201.5t-205.5 124.5 t-250.5 44.5h-272v-590h452v-94h-452v-590z" />
<glyph unicode="&#x111;" horiz-adv-x="1304" d="M125 512q0 233 134.5 385t338.5 152q126 0 230.5 -70.5t148.5 -167.5h4q-6 35 -6 84v311h-348v94h348v175h115v-175h196v-94h-196v-1206h-111v133q0 21 1.5 41.5t3.5 30.5l1 10h-4q-46 -98 -151.5 -169t-231.5 -71q-203 0 -338 154t-135 383zM240 512q0 -186 100.5 -309 t263.5 -123q68 0 132.5 26t119.5 76.5t88 136t33 193.5t-33 193.5t-88 136t-119.5 76.5t-132.5 26q-164 0 -264 -121t-100 -311z" />
<glyph unicode="&#x112;" horiz-adv-x="1210" d="M217 0v1475h875v-101h-756v-577h643v-101h-643v-596h786v-100h-905zM365 1729v100h581v-100h-581z" />
<glyph unicode="&#x113;" horiz-adv-x="1181" d="M125 512q0 231 140.5 384t348.5 153q140 0 245 -68t156.5 -175.5t51.5 -236.5q0 -12 -1 -33t-1 -28h-821v-14q0 -185 111.5 -299.5t291.5 -114.5q103 0 203 28.5t178 79.5v-114q-168 -99 -383 -99q-228 0 -374 149.5t-146 387.5zM248 596h700q0 91 -37.5 169 t-115.5 128.5t-183 50.5q-151 0 -248 -102t-116 -246zM326 1274v100h577v-100h-577z" />
<glyph unicode="&#x114;" horiz-adv-x="1210" d="M217 0v1475h875v-101h-756v-577h643v-101h-643v-596h786v-100h-905zM397 1925h99q1 -95 44.5 -147t118.5 -52t119 52t45 147h99q0 -135 -69.5 -215t-193.5 -80t-193 79.5t-69 215.5z" />
<glyph unicode="&#x115;" horiz-adv-x="1181" d="M125 512q0 231 140.5 384t348.5 153q140 0 245 -68t156.5 -175.5t51.5 -236.5q0 -12 -1 -33t-1 -28h-821v-14q0 -185 111.5 -299.5t291.5 -114.5q103 0 203 28.5t178 79.5v-114q-168 -99 -383 -99q-228 0 -374 149.5t-146 387.5zM248 596h700q0 91 -37.5 169 t-115.5 128.5t-183 50.5q-151 0 -248 -102t-116 -246zM358 1468h99q1 -90 42.5 -139t114.5 -49t114.5 49t41.5 139h100q0 -131 -67.5 -207.5t-188.5 -76.5q-123 0 -189.5 76.5t-66.5 207.5z" />
<glyph unicode="&#x116;" horiz-adv-x="1210" d="M217 0v1475h875v-101h-756v-577h643v-101h-643v-596h786v-100h-905zM594 1778q0 37 23.5 60.5t60.5 23.5q36 0 60 -24t24 -60q0 -35 -24.5 -58.5t-59.5 -23.5q-37 0 -60.5 23.5t-23.5 58.5z" />
<glyph unicode="&#x117;" horiz-adv-x="1181" d="M125 512q0 231 140.5 384t348.5 153q140 0 245 -68t156.5 -175.5t51.5 -236.5q0 -12 -1 -33t-1 -28h-821v-14q0 -185 111.5 -299.5t291.5 -114.5q103 0 203 28.5t178 79.5v-114q-168 -99 -383 -99q-228 0 -374 149.5t-146 387.5zM248 596h700q0 91 -37.5 169 t-115.5 128.5t-183 50.5q-151 0 -248 -102t-116 -246zM530 1323q0 37 23.5 60.5t60.5 23.5q36 0 60 -24t24 -60q0 -35 -24.5 -58.5t-59.5 -23.5q-37 0 -60.5 23.5t-23.5 58.5z" />
<glyph unicode="&#x118;" horiz-adv-x="1210" d="M217 0v1475h875v-101h-756v-577h643v-101h-643v-596h786v-100h-6q-215 -126 -215 -266q0 -59 34.5 -89t92.5 -30q53 0 123 29v-93q-72 -26 -135 -26q-90 0 -153.5 50t-63.5 140q0 154 194 285h-776z" />
<glyph unicode="&#x119;" horiz-adv-x="1181" d="M125 512q0 231 140.5 384t348.5 153q140 0 245 -68t156.5 -175.5t51.5 -236.5q0 -12 -1 -33t-1 -28h-821v-14q0 -185 111.5 -299.5t291.5 -114.5q103 0 203 28.5t178 79.5v-114q-83 -49 -182 -74q-215 -126 -215 -266q0 -59 34.5 -89t92.5 -30q53 0 123 29v-93 q-71 -26 -136 -26q-90 0 -153.5 50t-63.5 140q0 138 160 262q-14 -2 -43 -2q-228 0 -374 149.5t-146 387.5zM248 596h700q0 91 -37.5 169t-115.5 128.5t-183 50.5q-151 0 -248 -102t-116 -246z" />
<glyph unicode="&#x11a;" horiz-adv-x="1210" d="M217 0v1475h875v-101h-756v-577h643v-101h-643v-596h786v-100h-905zM338 2007h121l203 -278l200 278h121l-295 -399h-55z" />
<glyph unicode="&#x11b;" horiz-adv-x="1181" d="M125 512q0 231 140.5 384t348.5 153q140 0 245 -68t156.5 -175.5t51.5 -236.5q0 -12 -1 -33t-1 -28h-821v-14q0 -185 111.5 -299.5t291.5 -114.5q103 0 203 28.5t178 79.5v-114q-168 -99 -383 -99q-228 0 -374 149.5t-146 387.5zM248 596h700q0 91 -37.5 169 t-115.5 128.5t-183 50.5q-151 0 -248 -102t-116 -246zM336 1497h119l159 -223l158 223h121l-250 -342h-57z" />
<glyph unicode="&#x11c;" horiz-adv-x="1458" d="M104 737q0 157 58.5 297.5t160 242.5t244.5 162t305 60q245 0 453 -113v-116q-236 119 -453 119q-141 0 -262.5 -51t-205.5 -138t-131.5 -207t-47.5 -256q0 -183 81.5 -331.5t229.5 -234t334 -85.5q193 0 357 70v479h114v-547q-213 -113 -471 -113q-161 0 -304 59.5 t-244 161t-159.5 242.5t-58.5 299zM526 1608l295 399h56l294 -399h-120l-201 278l-203 -278h-121z" />
<glyph unicode="&#x11d;" horiz-adv-x="1095" d="M113 -158q0 93 86 165.5t213 96.5q-78 7 -121 41t-43 84q0 41 34.5 75.5t92.5 53.5q-110 39 -176 127.5t-66 204.5q0 156 113 257.5t284 101.5q82 0 152 -25h369v-94h-158q-16 0 -35 3t-30 6l-11 3h-8q119 -95 119 -252q0 -151 -110 -251t-277 -103h-13 q-69 -4 -117.5 -31t-48.5 -59q0 -41 54 -60.5t205 -33.5q198 -20 302.5 -88t104.5 -201q0 -137 -128 -219t-335 -82q-208 0 -330 73t-122 207zM227 -147q0 -93 92 -143t248 -50q162 0 254 54t92 143q0 41 -18.5 75t-58.5 62.5t-112.5 44.5t-172.5 16q-141 0 -232.5 -60 t-91.5 -142zM246 690q0 -113 79.5 -185.5t204.5 -72.5q126 0 206.5 72.5t80.5 185.5q0 111 -81 184.5t-206 73.5t-204.5 -73.5t-79.5 -184.5zM268 1155l250 342h57l250 -342h-120l-158 223l-160 -223h-119z" />
<glyph unicode="&#x11e;" horiz-adv-x="1458" d="M104 737q0 157 58.5 297.5t160 242.5t244.5 162t305 60q245 0 453 -113v-116q-236 119 -453 119q-141 0 -262.5 -51t-205.5 -138t-131.5 -207t-47.5 -256q0 -183 81.5 -331.5t229.5 -234t334 -85.5q193 0 357 70v479h114v-547q-213 -113 -471 -113q-161 0 -304 59.5 t-244 161t-159.5 242.5t-58.5 299zM588 1925h98q1 -95 45 -147t119 -52t119 52t45 147h98q0 -136 -69 -215.5t-193 -79.5t-193 79.5t-69 215.5z" />
<glyph unicode="&#x11f;" horiz-adv-x="1095" d="M113 -158q0 93 86 165.5t213 96.5q-78 7 -121 41t-43 84q0 41 34.5 75.5t92.5 53.5q-110 39 -176 127.5t-66 204.5q0 156 113 257.5t284 101.5q82 0 152 -25h369v-94h-158q-16 0 -35 3t-30 6l-11 3h-8q119 -95 119 -252q0 -151 -110 -251t-277 -103h-13 q-69 -4 -117.5 -31t-48.5 -59q0 -41 54 -60.5t205 -33.5q198 -20 302.5 -88t104.5 -201q0 -137 -128 -219t-335 -82q-208 0 -330 73t-122 207zM227 -147q0 -93 92 -143t248 -50q162 0 254 54t92 143q0 41 -18.5 75t-58.5 62.5t-112.5 44.5t-172.5 16q-141 0 -232.5 -60 t-91.5 -142zM246 690q0 -113 79.5 -185.5t204.5 -72.5q126 0 206.5 72.5t80.5 185.5q0 111 -81 184.5t-206 73.5t-204.5 -73.5t-79.5 -184.5zM274 1468h99q1 -90 42.5 -139t114.5 -49t114.5 49t41.5 139h100q0 -131 -67.5 -207.5t-188.5 -76.5q-123 0 -189.5 76.5 t-66.5 207.5z" />
<glyph unicode="&#x120;" horiz-adv-x="1458" d="M104 737q0 157 58.5 297.5t160 242.5t244.5 162t305 60q245 0 453 -113v-116q-236 119 -453 119q-141 0 -262.5 -51t-205.5 -138t-131.5 -207t-47.5 -256q0 -183 81.5 -331.5t229.5 -234t334 -85.5q193 0 357 70v479h114v-547q-213 -113 -471 -113q-161 0 -304 59.5 t-244 161t-159.5 242.5t-58.5 299zM764 1778q0 37 23.5 60.5t60.5 23.5q36 0 60 -24t24 -60q0 -35 -24.5 -58.5t-59.5 -23.5q-37 0 -60.5 23.5t-23.5 58.5z" />
<glyph unicode="&#x121;" horiz-adv-x="1095" d="M113 -158q0 93 86 165.5t213 96.5q-78 7 -121 41t-43 84q0 41 34.5 75.5t92.5 53.5q-110 39 -176 127.5t-66 204.5q0 156 113 257.5t284 101.5q82 0 152 -25h369v-94h-158q-16 0 -35 3t-30 6l-11 3h-8q119 -95 119 -252q0 -151 -110 -251t-277 -103h-13 q-69 -4 -117.5 -31t-48.5 -59q0 -41 54 -60.5t205 -33.5q198 -20 302.5 -88t104.5 -201q0 -137 -128 -219t-335 -82q-208 0 -330 73t-122 207zM227 -147q0 -93 92 -143t248 -50q162 0 254 54t92 143q0 41 -18.5 75t-58.5 62.5t-112.5 44.5t-172.5 16q-141 0 -232.5 -60 t-91.5 -142zM246 690q0 -113 79.5 -185.5t204.5 -72.5q126 0 206.5 72.5t80.5 185.5q0 111 -81 184.5t-206 73.5t-204.5 -73.5t-79.5 -184.5zM451 1323q0 37 23.5 60.5t60.5 23.5q35 0 59 -23.5t24 -60.5q0 -35 -24 -58.5t-59 -23.5q-37 0 -60.5 23.5t-23.5 58.5z" />
<glyph unicode="&#x122;" horiz-adv-x="1458" d="M104 737q0 157 58.5 297.5t160 242.5t244.5 162t305 60q245 0 453 -113v-116q-236 119 -453 119q-141 0 -262.5 -51t-205.5 -138t-131.5 -207t-47.5 -256q0 -183 81.5 -331.5t229.5 -234t334 -85.5q193 0 357 70v479h114v-547q-213 -113 -471 -113q-161 0 -304 59.5 t-244 161t-159.5 242.5t-58.5 299zM676 -475l98 346h135l-135 -346h-98z" />
<glyph unicode="&#x123;" horiz-adv-x="1095" d="M113 -158q0 93 86 165.5t213 96.5q-78 7 -121 41t-43 84q0 41 34.5 75.5t92.5 53.5q-110 39 -176 127.5t-66 204.5q0 156 113 257.5t284 101.5q82 0 152 -25h369v-94h-158q-16 0 -35 3t-30 6l-11 3h-8q119 -95 119 -252q0 -151 -110 -251t-277 -103h-13 q-69 -4 -117.5 -31t-48.5 -59q0 -41 54 -60.5t205 -33.5q198 -20 302.5 -88t104.5 -201q0 -137 -128 -219t-335 -82q-208 0 -330 73t-122 207zM227 -147q0 -93 92 -143t248 -50q162 0 254 54t92 143q0 41 -18.5 75t-58.5 62.5t-112.5 44.5t-172.5 16q-141 0 -232.5 -60 t-91.5 -142zM246 690q0 -113 79.5 -185.5t204.5 -72.5q126 0 206.5 72.5t80.5 185.5q0 111 -81 184.5t-206 73.5t-204.5 -73.5t-79.5 -184.5zM440 1153l135 346h99l-99 -346h-135z" />
<glyph unicode="&#x124;" horiz-adv-x="1482" d="M217 0v1475h119v-678h813v678h117v-1475h-117v696h-813v-696h-119zM416 1608l295 399h55l295 -399h-121l-201 278l-202 -278h-121z" />
<glyph unicode="&#x125;" horiz-adv-x="1263" d="M-4 1575l250 342h57l250 -342h-121l-158 223l-159 -223h-119zM215 0v1475h113v-615q0 -21 -2 -42t-4.5 -34t-2.5 -14h5q16 41 48 85t82.5 89.5t127 75t163.5 29.5q187 0 263.5 -102.5t76.5 -299.5v-647h-112v614q0 58 -4 99.5t-18 87t-39 74t-70 47t-107 18.5 q-173 0 -290 -126t-117 -312v-502h-113z" />
<glyph unicode="&#x126;" horiz-adv-x="1574" d="M61 1087v97h201v291h119v-291h813v291h117v-291h202v-97h-202v-1087h-117v696h-813v-696h-119v1087h-201zM381 797h813v290h-813v-290z" />
<glyph unicode="&#x127;" horiz-adv-x="1263" d="M18 1206v94h197v175h113v-175h346v-94h-346v-346q0 -21 -2 -42t-4.5 -34t-2.5 -14h5q16 41 48 85t82.5 89.5t127 75t163.5 29.5q187 0 263.5 -102.5t76.5 -299.5v-647h-112v614q0 58 -4 99.5t-18 87t-39 74t-70 47t-107 18.5q-173 0 -290 -126t-117 -312v-502h-113v1206 h-197z" />
<glyph unicode="&#x128;" horiz-adv-x="552" d="M-29 1677v115q23 33 67 56.5t99 23.5q56 0 150.5 -44t132.5 -44q45 0 88 25.5t74 68.5v-115q-23 -33 -67 -56.5t-97 -23.5q-46 0 -100 22.5t-102 44.5t-81 22q-46 0 -89.5 -25.5t-74.5 -69.5zM217 0v1475h119v-1475h-119z" />
<glyph unicode="&#x129;" horiz-adv-x="542" d="M-33 1225v114q23 33 67 56.5t99 23.5q56 0 150 -44t131 -44q96 0 164 94v-114q-23 -33 -67 -56.5t-99 -23.5q-56 0 -150 44t-131 44q-96 0 -164 -94zM215 0v1024h113v-1024h-113z" />
<glyph unicode="&#x12a;" horiz-adv-x="552" d="M-14 1729v100h581v-100h-581zM217 0v1475h119v-1475h-119z" />
<glyph unicode="&#x12b;" horiz-adv-x="542" d="M-16 1274v100h577v-100h-577zM215 0v1024h113v-1024h-113z" />
<glyph unicode="&#x12c;" horiz-adv-x="552" d="M14 1925h99q1 -95 44.5 -147t118.5 -52t119 52t45 147h99q0 -135 -69.5 -215t-193.5 -80t-193 79.5t-69 215.5zM217 0v1475h119v-1475h-119z" />
<glyph unicode="&#x12d;" horiz-adv-x="542" d="M16 1468h99q1 -90 42.5 -139t114.5 -49t114.5 49t41.5 139h100q0 -131 -67.5 -207.5t-188.5 -76.5q-123 0 -189.5 76.5t-66.5 207.5zM215 0v1024h113v-1024h-113z" />
<glyph unicode="&#x12e;" horiz-adv-x="552" d="M18 -285q0 156 199 287v1473h119v-1475q-215 -126 -215 -266q0 -59 34.5 -89t92.5 -30q53 0 123 29v-93q-72 -26 -135 -26q-90 0 -154 50t-64 140z" />
<glyph unicode="&#x12f;" horiz-adv-x="542" d="M10 -285q0 159 205 291v1018h113v-1024q-215 -128 -215 -266q0 -59 35.5 -89t93.5 -30q48 0 123 29v-93q-76 -26 -136 -26q-91 0 -155 50t-64 140zM188 1323q0 37 23.5 60.5t60.5 23.5q36 0 60 -24t24 -60q0 -35 -24.5 -58.5t-59.5 -23.5q-37 0 -60.5 23.5t-23.5 58.5z " />
<glyph unicode="&#x130;" horiz-adv-x="552" d="M193 1778q0 37 23 60.5t60 23.5q36 0 60 -24t24 -60q0 -35 -24.5 -58.5t-59.5 -23.5q-36 0 -59.5 23t-23.5 59zM217 0v1475h119v-1475h-119z" />
<glyph unicode="&#x131;" horiz-adv-x="542" d="M215 0v1024h113v-1024h-113z" />
<glyph unicode="&#x132;" horiz-adv-x="1267" d="M217 0v1475h119v-1475h-119zM559 25v114q84 -55 178 -55q93 0 145 59t52 164v1168h117v-1158q0 -164 -80 -253t-230 -89q-106 0 -182 50z" />
<glyph unicode="&#x133;" horiz-adv-x="1087" d="M188 1323q0 37 23.5 60.5t60.5 23.5q36 0 60 -24t24 -60q0 -35 -24.5 -58.5t-59.5 -23.5q-37 0 -60.5 23.5t-23.5 58.5zM215 0v1024h113v-1024h-113zM477 -367q32 -4 66 -4q102 0 159.5 65t57.5 181v1149h112v-1157q0 -161 -83 -251.5t-232 -90.5q-40 0 -80 8v100z M731 1323q0 37 23.5 60.5t60.5 23.5q36 0 60 -24t24 -60q0 -35 -24.5 -58.5t-59.5 -23.5q-37 0 -60.5 23.5t-23.5 58.5z" />
<glyph unicode="&#x134;" horiz-adv-x="716" d="M6 25v114q84 -55 178 -55q93 0 145 59t52 164v1168h117v-1158q0 -164 -80 -253t-230 -89q-106 0 -182 50zM117 1608l295 399h55l295 -399h-121l-201 278l-202 -278h-121z" />
<glyph unicode="&#x135;" horiz-adv-x="514" d="M-82 -367q32 -4 66 -4q102 0 159.5 65t57.5 181v1149h112v-1157q0 -161 -83 -251.5t-232 -90.5q-40 0 -80 8v100zM-20 1155l249 342h58l250 -342h-121l-158 223l-160 -223h-118z" />
<glyph unicode="&#x136;" horiz-adv-x="1320" d="M217 0v1475h119v-908l807 908h147l-540 -601l571 -874h-141l-510 788l-334 -372v-416h-119zM543 -475l98 346h135l-135 -346h-98z" />
<glyph unicode="&#x137;" horiz-adv-x="1124" d="M215 0v1475h113v-1026l544 575h144l-387 -414l420 -610h-136l-368 539l-217 -228v-311h-113zM426 -475l98 346h135l-135 -346h-98z" />
<glyph unicode="&#x138;" horiz-adv-x="1124" d="M215 0v1024h113v-575l544 575h144l-387 -414l420 -610h-136l-368 539l-217 -228v-311h-113z" />
<glyph unicode="&#x139;" horiz-adv-x="1040" d="M217 0v1475h119v-1375h663v-100h-782zM221 1606l240 403h157l-290 -403h-107z" />
<glyph unicode="&#x13a;" horiz-adv-x="600" d="M209 1575l205 342h153l-248 -342h-110zM215 240v1235h113v-1215q0 -94 30 -138t101 -44q64 0 84 10v-100l-13 -3q-14 -3 -38 -6.5t-50 -3.5q-227 0 -227 265z" />
<glyph unicode="&#x13b;" horiz-adv-x="1040" d="M217 0v1475h119v-1375h663v-100h-782zM461 -475l98 346h135l-135 -346h-98z" />
<glyph unicode="&#x13c;" horiz-adv-x="600" d="M215 240v1235h113v-1215q0 -94 30 -138t101 -44q64 0 84 10v-100l-13 -3q-14 -3 -38 -6.5t-50 -3.5q-227 0 -227 265zM219 -475l98 346h136l-136 -346h-98z" />
<glyph unicode="&#x13d;" horiz-adv-x="1040" d="M217 0v1475h119v-1375h663v-100h-782zM713 1008v567h108v-567h-108z" />
<glyph unicode="&#x13e;" horiz-adv-x="735" d="M215 240v1235h113v-1215q0 -94 30 -138t101 -44q64 0 84 10v-100l-13 -3q-14 -3 -38 -6.5t-50 -3.5q-227 0 -227 265zM573 903v567h109v-567h-109z" />
<glyph unicode="&#x13f;" horiz-adv-x="1040" d="M217 0v1475h119v-1375h663v-100h-782zM688 723q0 37 23.5 60.5t60.5 23.5q36 0 60 -24t24 -60q0 -35 -24.5 -58.5t-59.5 -23.5q-37 0 -60.5 23.5t-23.5 58.5z" />
<glyph unicode="&#x140;" horiz-adv-x="743" d="M215 240v1235h113v-1215q0 -94 30 -138t101 -44q64 0 84 10v-100l-13 -3q-14 -3 -38 -6.5t-50 -3.5q-227 0 -227 265zM551 723q0 37 23.5 60.5t60.5 23.5q36 0 60 -24t24 -60q0 -35 -24.5 -58.5t-59.5 -23.5q-37 0 -60.5 23.5t-23.5 58.5z" />
<glyph unicode="&#x141;" horiz-adv-x="1042" d="M27 506v117l192 131v721h119v-641l287 196v-119l-287 -194v-617h663v-100h-782v635z" />
<glyph unicode="&#x142;" horiz-adv-x="634" d="M57 541v118l193 127v689h112v-613l195 129v-119l-195 -129v-483q0 -94 30.5 -138t101.5 -44q64 0 84 10v-100l-14 -3q-13 -3 -37 -6.5t-50 -3.5q-227 0 -227 265v428z" />
<glyph unicode="&#x143;" horiz-adv-x="1554" d="M217 0v1499h2l963 -1165q5 -7 20.5 -25.5t20.5 -25.5q-2 23 -2 94v1096h116v-1498h-2l-962 1166q-34 39 -41 51q4 -50 4 -94v-1098h-119zM672 1606l239 403h158l-291 -403h-106z" />
<glyph unicode="&#x144;" horiz-adv-x="1263" d="M215 0v1024h111v-170q0 -21 -2 -41.5t-4 -31t-3 -11.5h5q16 41 48.5 85t83.5 89.5t127.5 75t163.5 29.5q187 0 263.5 -102.5t76.5 -299.5v-647h-112v614q0 58 -4 99.5t-18 87t-39 74t-70 47t-107 18.5q-173 0 -290 -126t-117 -312v-502h-113zM600 1155l205 342h153 l-247 -342h-111z" />
<glyph unicode="&#x145;" horiz-adv-x="1554" d="M217 0v1499h2l963 -1165q5 -7 20.5 -25.5t20.5 -25.5q-2 23 -2 94v1096h116v-1498h-2l-962 1166q-34 39 -41 51q4 -50 4 -94v-1098h-119zM627 -475l98 346h135l-135 -346h-98z" />
<glyph unicode="&#x146;" horiz-adv-x="1263" d="M215 0v1024h111v-170q0 -21 -2 -41.5t-4 -31t-3 -11.5h5q16 41 48.5 85t83.5 89.5t127.5 75t163.5 29.5q187 0 263.5 -102.5t76.5 -299.5v-647h-112v614q0 58 -4 99.5t-18 87t-39 74t-70 47t-107 18.5q-173 0 -290 -126t-117 -312v-502h-113zM487 -475l99 346h135 l-135 -346h-99z" />
<glyph unicode="&#x147;" horiz-adv-x="1554" d="M217 0v1499h2l963 -1165q5 -7 20.5 -25.5t20.5 -25.5q-2 23 -2 94v1096h116v-1498h-2l-962 1166q-34 39 -41 51q4 -50 4 -94v-1098h-119zM461 2007h121l202 -278l201 278h121l-295 -399h-55z" />
<glyph unicode="&#x148;" horiz-adv-x="1263" d="M215 0v1024h111v-170q0 -21 -2 -41.5t-4 -31t-3 -11.5h5q16 41 48.5 85t83.5 89.5t127.5 75t163.5 29.5q187 0 263.5 -102.5t76.5 -299.5v-647h-112v614q0 58 -4 99.5t-18 87t-39 74t-70 47t-107 18.5q-173 0 -290 -126t-117 -312v-502h-113zM418 1497h119l159 -223 l158 223h121l-250 -342h-57z" />
<glyph unicode="&#x14c;" horiz-adv-x="1699" d="M104 737q0 155 57 295.5t155.5 243t237.5 163t296 60.5q208 0 379.5 -102t268.5 -276.5t97 -383.5q0 -158 -57 -298.5t-155.5 -242.5t-237 -161.5t-295.5 -59.5q-209 0 -380.5 101t-268.5 276t-97 385zM225 737q0 -182 79.5 -330.5t223 -234.5t322.5 -86q180 0 323 86 t221.5 234.5t78.5 330.5q0 181 -78.5 330t-221.5 235.5t-323 86.5q-179 0 -322.5 -86.5t-223 -235.5t-79.5 -330zM559 1729v100h582v-100h-582z" />
<glyph unicode="&#x14d;" horiz-adv-x="1277" d="M125 512q0 230 146.5 383.5t367.5 153.5t367.5 -153.5t146.5 -383.5t-146.5 -383.5t-367.5 -153.5t-367.5 153.5t-146.5 383.5zM240 512q0 -188 112.5 -310t286.5 -122t286.5 122t112.5 310t-112.5 310t-286.5 122t-286.5 -122t-112.5 -310zM350 1274v100h578v-100h-578z " />
<glyph unicode="&#x14e;" horiz-adv-x="1699" d="M104 737q0 155 57 295.5t155.5 243t237.5 163t296 60.5q208 0 379.5 -102t268.5 -276.5t97 -383.5q0 -158 -57 -298.5t-155.5 -242.5t-237 -161.5t-295.5 -59.5q-209 0 -380.5 101t-268.5 276t-97 385zM225 737q0 -182 79.5 -330.5t223 -234.5t322.5 -86q180 0 323 86 t221.5 234.5t78.5 330.5q0 181 -78.5 330t-221.5 235.5t-323 86.5q-179 0 -322.5 -86.5t-223 -235.5t-79.5 -330zM588 1925h98q1 -95 45 -147t119 -52t119 52t45 147h98q0 -136 -69 -215.5t-193 -79.5t-193 79.5t-69 215.5z" />
<glyph unicode="&#x14f;" horiz-adv-x="1277" d="M125 512q0 230 146.5 383.5t367.5 153.5t367.5 -153.5t146.5 -383.5t-146.5 -383.5t-367.5 -153.5t-367.5 153.5t-146.5 383.5zM240 512q0 -188 112.5 -310t286.5 -122t286.5 122t112.5 310t-112.5 310t-286.5 122t-286.5 -122t-112.5 -310zM383 1468h98q1 -90 43 -139 t115 -49t114.5 49t41.5 139h100q0 -131 -67.5 -207.5t-188.5 -76.5q-123 0 -189.5 76.5t-66.5 207.5z" />
<glyph unicode="&#x150;" horiz-adv-x="1699" d="M104 737q0 155 57 295.5t155.5 243t237.5 163t296 60.5q208 0 379.5 -102t268.5 -276.5t97 -383.5q0 -158 -57 -298.5t-155.5 -242.5t-237 -161.5t-295.5 -59.5q-209 0 -380.5 101t-268.5 276t-97 385zM225 737q0 -182 79.5 -330.5t223 -234.5t322.5 -86q180 0 323 86 t221.5 234.5t78.5 330.5q0 181 -78.5 330t-221.5 235.5t-323 86.5q-179 0 -322.5 -86.5t-223 -235.5t-79.5 -330zM625 1606l200 346h148l-240 -346h-108zM920 1606l210 346h148l-250 -346h-108z" />
<glyph unicode="&#x151;" horiz-adv-x="1277" d="M125 512q0 230 146.5 383.5t367.5 153.5t367.5 -153.5t146.5 -383.5t-146.5 -383.5t-367.5 -153.5t-367.5 153.5t-146.5 383.5zM240 512q0 -188 112.5 -310t286.5 -122t286.5 122t112.5 310t-112.5 310t-286.5 122t-286.5 -122t-112.5 -310zM408 1155l200 342h148 l-240 -342h-108zM702 1155l211 342h148l-250 -342h-109z" />
<glyph unicode="&#x152;" horiz-adv-x="2164" d="M104 737q0 208 94 382.5t261 277t370 102.5q251 0 439 -145v121h770v-101h-654v-577h506v-101h-506v-596h684v-100h-800v119q-190 -144 -439 -144q-152 0 -287 59.5t-231 161.5t-151.5 242.5t-55.5 298.5zM225 737q0 -182 77 -330.5t215.5 -234.5t311.5 -86 q262 0 439 172v954q-177 177 -439 177q-173 0 -311.5 -86.5t-215.5 -235.5t-77 -330z" />
<glyph unicode="&#x153;" horiz-adv-x="1810" d="M125 512q0 231 141.5 384t354.5 153q190 0 327 -131q131 131 316 131q101 0 184.5 -39.5t136.5 -106.5t82 -153t29 -181q0 -12 -1 -33t-1 -28h-783v-14q2 -185 108.5 -299.5t276.5 -114.5q202 0 361 108v-114q-161 -99 -363 -99q-207 0 -344 134q-137 -134 -329 -134 q-213 0 -354.5 153t-141.5 384zM240 512q0 -188 107.5 -310t273.5 -122q158 0 262 113q-88 145 -88 321q0 174 86 317q-104 113 -260 113q-166 0 -273.5 -122t-107.5 -310zM915 596h662q0 92 -34.5 169.5t-108 128t-172.5 50.5q-97 0 -174.5 -50.5t-120 -128t-52.5 -169.5z " />
<glyph unicode="&#x154;" horiz-adv-x="1265" d="M217 0v1475h457q227 0 357 -114t130 -314q0 -165 -92 -273t-250 -139l357 -635h-132l-344 621h-364v-621h-119zM336 719h338q172 0 269 87.5t97 240.5q0 154 -97.5 240.5t-272.5 86.5h-334v-655zM532 1606l240 403h158l-291 -403h-107z" />
<glyph unicode="&#x155;" horiz-adv-x="745" d="M197 0v1024h110v-170q0 -19 -2 -39.5t-3.5 -31t-0.5 -11.5h2q42 123 127 200t199 77q13 0 27 -1.5t23 -3.5l9 -2v-110l-8 1q-7 1 -18.5 2t-22.5 1q-82 0 -147.5 -45.5t-104 -118t-58.5 -154.5t-20 -163v-455h-112zM381 1155l205 342h153l-247 -342h-111z" />
<glyph unicode="&#x156;" horiz-adv-x="1265" d="M217 0v1475h457q227 0 357 -114t130 -314q0 -165 -92 -273t-250 -139l357 -635h-132l-344 621h-364v-621h-119zM336 719h338q172 0 269 87.5t97 240.5q0 154 -97.5 240.5t-272.5 86.5h-334v-655zM494 -475l98 346h135l-135 -346h-98z" />
<glyph unicode="&#x157;" horiz-adv-x="745" d="M86 -475l98 346h135l-135 -346h-98zM197 0v1024h110v-170q0 -19 -2 -39.5t-3.5 -31t-0.5 -11.5h2q42 123 127 200t199 77q13 0 27 -1.5t23 -3.5l9 -2v-110l-8 1q-7 1 -18.5 2t-22.5 1q-82 0 -147.5 -45.5t-104 -118t-58.5 -154.5t-20 -163v-455h-112z" />
<glyph unicode="&#x158;" horiz-adv-x="1265" d="M217 0v1475h457q227 0 357 -114t130 -314q0 -165 -92 -273t-250 -139l357 -635h-132l-344 621h-364v-621h-119zM279 2007h120l203 -278l201 278h121l-295 -399h-56zM336 719h338q172 0 269 87.5t97 240.5q0 154 -97.5 240.5t-272.5 86.5h-334v-655z" />
<glyph unicode="&#x159;" horiz-adv-x="745" d="M190 1497h119l160 -223l158 223h121l-250 -342h-58zM197 0v1024h110v-170q0 -19 -2 -39.5t-3.5 -31t-0.5 -11.5h2q42 123 127 200t199 77q13 0 27 -1.5t23 -3.5l9 -2v-110l-8 1q-7 1 -18.5 2t-22.5 1q-82 0 -147.5 -45.5t-104 -118t-58.5 -154.5t-20 -163v-455h-112z" />
<glyph unicode="&#x15a;" horiz-adv-x="1050" d="M90 63v121q214 -100 408 -100q154 0 254 69t100 189q0 123 -74.5 198.5t-275.5 147.5q-224 81 -318 183t-94 257q0 172 131.5 271.5t325.5 99.5q190 0 350 -78v-116q-186 86 -348 86q-150 0 -245 -70.5t-95 -187.5q0 -114 74 -193.5t272 -151.5q228 -81 322 -181t94 -259 q0 -173 -131.5 -273t-339.5 -100q-222 0 -410 88zM444 1606l240 403h158l-291 -403h-107z" />
<glyph unicode="&#x15b;" horiz-adv-x="913" d="M117 774q0 126 98 200.5t254 74.5q152 0 283 -62v-110q-135 69 -273 69q-118 0 -185 -45.5t-67 -126.5q0 -75 60 -122t192 -89q173 -55 252.5 -125.5t79.5 -187.5q0 -134 -99 -204.5t-257 -70.5q-188 0 -334 68v113q169 -78 328 -78q107 0 179 43t72 127q0 82 -61 127.5 t-207 89.5q-147 46 -231 119.5t-84 189.5zM369 1155l204 342h154l-248 -342h-110z" />
<glyph unicode="&#x15c;" horiz-adv-x="1050" d="M90 63v121q214 -100 408 -100q154 0 254 69t100 189q0 123 -74.5 198.5t-275.5 147.5q-224 81 -318 183t-94 257q0 172 131.5 271.5t325.5 99.5q190 0 350 -78v-116q-186 86 -348 86q-150 0 -245 -70.5t-95 -187.5q0 -114 74 -193.5t272 -151.5q228 -81 322 -181t94 -259 q0 -173 -131.5 -273t-339.5 -100q-222 0 -410 88zM195 1608l294 399h56l295 -399h-121l-201 278l-203 -278h-120z" />
<glyph unicode="&#x15d;" horiz-adv-x="913" d="M117 774q0 126 98 200.5t254 74.5q152 0 283 -62v-110q-135 69 -273 69q-118 0 -185 -45.5t-67 -126.5q0 -75 60 -122t192 -89q173 -55 252.5 -125.5t79.5 -187.5q0 -134 -99 -204.5t-257 -70.5q-188 0 -334 68v113q169 -78 328 -78q107 0 179 43t72 127q0 82 -61 127.5 t-207 89.5q-147 46 -231 119.5t-84 189.5zM182 1155l250 342h57l250 -342h-121l-157 223l-160 -223h-119z" />
<glyph unicode="&#x15e;" horiz-adv-x="1050" d="M90 63v121q214 -100 408 -100q154 0 254 69t100 189q0 123 -74.5 198.5t-275.5 147.5q-224 81 -318 183t-94 257q0 172 131.5 271.5t325.5 99.5q190 0 350 -78v-116q-186 86 -348 86q-150 0 -245 -70.5t-95 -187.5q0 -114 74 -193.5t272 -151.5q228 -81 322 -181t94 -259 q0 -161 -115 -259t-301 -112l-45 -108q46 0 90 -16t76.5 -54.5t32.5 -91.5q0 -92 -67.5 -137t-166.5 -45q-25 0 -50 2t-39 4.5t-15 3.5v90q47 -10 92 -10q56 0 99.5 23.5t43.5 72.5q0 41 -36.5 65.5t-82.5 30.5t-94 0l72 168q-207 8 -375 88z" />
<glyph unicode="&#x15f;" horiz-adv-x="913" d="M117 774q0 126 98 200.5t254 74.5q152 0 283 -62v-110q-135 69 -273 69q-118 0 -185 -45.5t-67 -126.5q0 -75 60 -122t192 -89q173 -55 252.5 -125.5t79.5 -187.5q0 -128 -90 -197.5t-236 -75.5l-45 -108q46 0 90 -16t76.5 -54.5t32.5 -91.5q0 -92 -67 -137t-166 -45 q-25 0 -50.5 2t-39.5 4.5t-15 3.5v90q47 -10 92 -10q56 0 100 23.5t44 72.5q0 41 -36.5 65.5t-82.5 30.5t-94 0l73 170q-163 13 -276 66v113q169 -78 328 -78q107 0 179 43t72 127q0 82 -61 127.5t-207 89.5q-147 46 -231 119.5t-84 189.5z" />
<glyph unicode="&#x160;" horiz-adv-x="1050" d="M90 63v121q214 -100 408 -100q154 0 254 69t100 189q0 123 -74.5 198.5t-275.5 147.5q-224 81 -318 183t-94 257q0 172 131.5 271.5t325.5 99.5q190 0 350 -78v-116q-186 86 -348 86q-150 0 -245 -70.5t-95 -187.5q0 -114 74 -193.5t272 -151.5q228 -81 322 -181t94 -259 q0 -173 -131.5 -273t-339.5 -100q-222 0 -410 88zM211 2007h121l203 -278l200 278h121l-295 -399h-55z" />
<glyph unicode="&#x161;" horiz-adv-x="913" d="M117 774q0 126 98 200.5t254 74.5q152 0 283 -62v-110q-135 69 -273 69q-118 0 -185 -45.5t-67 -126.5q0 -75 60 -122t192 -89q173 -55 252.5 -125.5t79.5 -187.5q0 -134 -99 -204.5t-257 -70.5q-188 0 -334 68v113q169 -78 328 -78q107 0 179 43t72 127q0 82 -61 127.5 t-207 89.5q-147 46 -231 119.5t-84 189.5zM178 1497h119l160 -223l157 223h121l-250 -342h-57z" />
<glyph unicode="&#x162;" horiz-adv-x="1105" d="M35 1374v101h1036v-101h-461v-1374h-16l-55 -131q46 0 89.5 -16t76 -54.5t32.5 -91.5q0 -92 -67 -137t-166 -45q-25 0 -50.5 2t-39.5 4.5t-15 3.5v90q48 -10 93 -10q56 0 99.5 23.5t43.5 72.5q0 41 -36.5 65.5t-82.5 30.5t-94 0l82 193h-10v1374h-459z" />
<glyph unicode="&#x163;" horiz-adv-x="743" d="M55 928v96h185v307h112v-307h334v-96h-334v-623q0 -227 168 -227q109 0 203 49v-102q-87 -50 -217 -50l-45 -106q46 0 89.5 -16t76 -54.5t32.5 -91.5q0 -92 -67 -137t-166 -45q-25 0 -50 2t-39 4.5t-15 3.5v90q47 -10 92 -10q56 0 99.5 23.5t43.5 72.5q0 41 -36.5 65.5 t-82.5 30.5t-94 0l78 179q-82 22 -132 94.5t-50 202.5v645h-185z" />
<glyph unicode="&#x164;" horiz-adv-x="1105" d="M35 1374v101h1036v-101h-461v-1374h-116v1374h-459zM229 2007h121l203 -278l201 278h120l-294 -399h-56z" />
<glyph unicode="&#x165;" horiz-adv-x="743" d="M55 928v96h185v307h112v-307h334v-96h-334v-623q0 -227 168 -227q109 0 203 49v-102q-87 -50 -217 -50q-54 0 -99 16t-84 50t-61 96t-22 146v645h-185zM520 1202v520h109v-520h-109z" />
<glyph unicode="&#x166;" horiz-adv-x="1105" d="M35 1374v101h1036v-101h-461v-493h293v-97h-293v-784h-116v784h-291v97h291v493h-459z" />
<glyph unicode="&#x167;" horiz-adv-x="743" d="M55 928v96h185v307h112v-307h334v-96h-334v-324h322v-94h-322v-205q0 -227 168 -227q109 0 203 49v-102q-87 -50 -217 -50q-54 0 -99 16t-84 50t-61 96t-22 146v227h-174v94h174v324h-185z" />
<glyph unicode="&#x168;" horiz-adv-x="1431" d="M178 500v975h119v-971q0 -196 111.5 -307t308.5 -111t308.5 111t111.5 307v971h116v-975q0 -247 -142 -386t-394 -139q-254 0 -396.5 139t-142.5 386zM412 1677v115q23 33 67 56.5t99 23.5q56 0 150 -44t132 -44q45 0 88 25.5t74 68.5v-115q-23 -33 -67 -56.5t-97 -23.5 q-46 0 -100 22.5t-102 44.5t-81 22q-95 0 -163 -95z" />
<glyph unicode="&#x169;" horiz-adv-x="1261" d="M186 377v647h113v-614q0 -58 4 -100t18 -87.5t38.5 -73.5t69 -46.5t106.5 -18.5q116 0 208 61.5t140.5 161t48.5 215.5v502h115v-1024h-111l-2 170q0 13 1 26.5t2 23t2 17.5t2 13l1 4h-4q-11 -31 -33 -66t-59 -73.5t-82 -69t-107.5 -50.5t-130.5 -20q-183 0 -261.5 99.5 t-78.5 302.5zM307 1225v114q23 33 67 56.5t99 23.5q56 0 150 -44t131 -44q96 0 164 94v-114q-23 -33 -67 -56.5t-99 -23.5q-56 0 -150 44t-131 44q-96 0 -164 -94z" />
<glyph unicode="&#x16a;" horiz-adv-x="1431" d="M178 500v975h119v-971q0 -196 111.5 -307t308.5 -111t308.5 111t111.5 307v971h116v-975q0 -247 -142 -386t-394 -139q-254 0 -396.5 139t-142.5 386zM426 1729v100h582v-100h-582z" />
<glyph unicode="&#x16b;" horiz-adv-x="1261" d="M186 377v647h113v-614q0 -58 4 -100t18 -87.5t38.5 -73.5t69 -46.5t106.5 -18.5q116 0 208 61.5t140.5 161t48.5 215.5v502h115v-1024h-111l-2 170q0 13 1 26.5t2 23t2 17.5t2 13l1 4h-4q-11 -31 -33 -66t-59 -73.5t-82 -69t-107.5 -50.5t-130.5 -20q-183 0 -261.5 99.5 t-78.5 302.5zM326 1274v100h577v-100h-577z" />
<glyph unicode="&#x16c;" horiz-adv-x="1431" d="M178 500v975h119v-971q0 -196 111.5 -307t308.5 -111t308.5 111t111.5 307v971h116v-975q0 -247 -142 -386t-394 -139q-254 0 -396.5 139t-142.5 386zM455 1925h98q1 -95 45 -147t119 -52t119 52t45 147h98q0 -136 -69 -215.5t-193 -79.5t-193 79.5t-69 215.5z" />
<glyph unicode="&#x16d;" horiz-adv-x="1261" d="M186 377v647h113v-614q0 -58 4 -100t18 -87.5t38.5 -73.5t69 -46.5t106.5 -18.5q116 0 208 61.5t140.5 161t48.5 215.5v502h115v-1024h-111l-2 170q0 13 1 26.5t2 23t2 17.5t2 13l1 4h-4q-11 -31 -33 -66t-59 -73.5t-82 -69t-107.5 -50.5t-130.5 -20q-183 0 -261.5 99.5 t-78.5 302.5zM354 1468h99q1 -90 42.5 -139t114.5 -49t114.5 49t41.5 139h100q0 -131 -67.5 -207.5t-188.5 -76.5q-123 0 -189.5 76.5t-66.5 207.5z" />
<glyph unicode="&#x16e;" horiz-adv-x="1431" d="M178 500v975h119v-971q0 -196 111.5 -307t308.5 -111t308.5 111t111.5 307v971h116v-975q0 -247 -142 -386t-394 -139q-254 0 -396.5 139t-142.5 386zM522 1778q0 79 55 131.5t140 52.5q87 0 141.5 -52.5t54.5 -131.5t-54.5 -132t-141.5 -53q-85 0 -140 53t-55 132z M614 1778q0 -42 28.5 -70.5t74.5 -28.5q48 0 76 28t28 71t-28 70.5t-76 27.5q-46 0 -74.5 -28t-28.5 -70z" />
<glyph unicode="&#x16f;" horiz-adv-x="1261" d="M186 377v647h113v-614q0 -58 4 -100t18 -87.5t38.5 -73.5t69 -46.5t106.5 -18.5q116 0 208 61.5t140.5 161t48.5 215.5v502h115v-1024h-111l-2 170q0 13 1 26.5t2 23t2 17.5t2 13l1 4h-4q-11 -31 -33 -66t-59 -73.5t-82 -69t-107.5 -50.5t-130.5 -20q-183 0 -261.5 99.5 t-78.5 302.5zM414 1323q0 80 54 132t140 52q87 0 142 -52t55 -132q0 -79 -55 -130.5t-142 -51.5q-86 0 -140 51.5t-54 130.5zM506 1323q0 -41 28 -68.5t74 -27.5q48 0 76.5 27.5t28.5 68.5q0 44 -28.5 72t-76.5 28q-46 0 -74 -28t-28 -72z" />
<glyph unicode="&#x170;" horiz-adv-x="1431" d="M178 500v975h119v-971q0 -196 111.5 -307t308.5 -111t308.5 111t111.5 307v971h116v-975q0 -247 -142 -386t-394 -139q-254 0 -396.5 139t-142.5 386zM485 1606l201 346h148l-240 -346h-109zM780 1606l211 346h148l-250 -346h-109z" />
<glyph unicode="&#x171;" horiz-adv-x="1261" d="M186 377v647h113v-614q0 -58 4 -100t18 -87.5t38.5 -73.5t69 -46.5t106.5 -18.5q116 0 208 61.5t140.5 161t48.5 215.5v502h115v-1024h-111l-2 170q0 13 1 26.5t2 23t2 17.5t2 13l1 4h-4q-11 -31 -33 -66t-59 -73.5t-82 -69t-107.5 -50.5t-130.5 -20q-183 0 -261.5 99.5 t-78.5 302.5zM369 1155l200 342h148l-240 -342h-108zM664 1155l210 342h148l-250 -342h-108z" />
<glyph unicode="&#x172;" horiz-adv-x="1431" d="M178 500v975h119v-971q0 -196 111.5 -307t308.5 -111t308.5 111t111.5 307v971h116v-975q0 -195 -90 -324.5t-254 -175.5q-215 -126 -215 -266q0 -59 34.5 -89t92.5 -30q53 0 123 29v-93q-72 -26 -135 -26q-90 0 -153.5 50t-63.5 140q0 136 160 260h-35 q-254 0 -396.5 139t-142.5 386z" />
<glyph unicode="&#x173;" horiz-adv-x="1261" d="M186 377v647h113v-614q0 -58 4 -100t18 -87.5t38.5 -73.5t69 -46.5t106.5 -18.5q116 0 208 61.5t140.5 161t48.5 215.5v502h115v-1024q-216 -127 -216 -266q0 -59 34.5 -89t92.5 -30q53 0 123 29v-93q-71 -26 -135 -26q-90 0 -153.5 50t-63.5 140q0 160 207 293l-2 162 q0 13 1 26.5t2 23t2 17.5t2 13l1 4h-4q-11 -31 -33 -66t-59 -73.5t-82 -69t-107.5 -50.5t-130.5 -20q-183 0 -261.5 99.5t-78.5 302.5z" />
<glyph unicode="&#x174;" horiz-adv-x="2023" d="M35 1475h127l311 -873l111 -313q65 183 112 307l312 858h4l313 -858l113 -307q64 189 108 313l312 873h127l-547 -1500h-4l-224 607l-200 557q-160 -446 -201 -557l-223 -607h-4zM688 1608l295 399h55l295 -399h-121l-200 278l-203 -278h-121z" />
<glyph unicode="&#x175;" horiz-adv-x="1564" d="M14 1024h125l322 -807l307 789h31l305 -789l323 807h123l-430 -1049h-30l-308 781l-305 -781h-31zM504 1155l250 342h57l250 -342h-121l-158 223l-159 -223h-119z" />
<glyph unicode="&#x176;" horiz-adv-x="1216" d="M4 1475h133l471 -766l471 766h133l-544 -881v-594h-119v594zM285 1608l295 399h55l295 -399h-121l-201 278l-202 -278h-121z" />
<glyph unicode="&#x177;" horiz-adv-x="1021" d="M-20 -360q54 -13 106 -13q66 0 119 27t96.5 85t75.5 120.5t72 160.5l-433 1004h127l160 -379q148 -351 207 -495q38 89 110.5 262t98.5 233l158 379h129l-408 -950q-25 -60 -40 -95t-38 -86.5t-39.5 -81.5t-40 -70.5t-44 -64t-47 -51.5t-53.5 -43.5t-59.5 -30t-69 -20.5 t-77.5 -6q-70 0 -110 16v99zM233 1155l250 342h58l250 -342h-121l-158 223l-160 -223h-119z" />
<glyph unicode="&#x178;" horiz-adv-x="1216" d="M4 1475h133l471 -766l471 766h133l-544 -881v-594h-119v594zM350 1778q0 37 23.5 60.5t60.5 23.5q36 0 60 -24t24 -60q0 -35 -24.5 -58.5t-59.5 -23.5q-37 0 -60.5 23.5t-23.5 58.5zM694 1778q0 36 24 60t60 24q37 0 60.5 -23.5t23.5 -60.5q0 -35 -23.5 -58.5 t-60.5 -23.5q-35 0 -59.5 23.5t-24.5 58.5z" />
<glyph unicode="&#x179;" horiz-adv-x="1210" d="M80 0l848 1374h-805v101h991l-850 -1375h864v-100h-1048zM518 1606l240 403h157l-290 -403h-107z" />
<glyph unicode="&#x17a;" horiz-adv-x="974" d="M74 0l626 926h-585v98h782l-633 -924h649v-100h-839zM432 1155l205 342h154l-248 -342h-111z" />
<glyph unicode="&#x17b;" horiz-adv-x="1210" d="M80 0l848 1374h-805v101h991l-850 -1375h864v-100h-1048zM522 1778q0 37 23.5 60.5t60.5 23.5q36 0 60 -24t24 -60q0 -35 -24.5 -58.5t-59.5 -23.5q-37 0 -60.5 23.5t-23.5 58.5z" />
<glyph unicode="&#x17c;" horiz-adv-x="974" d="M74 0l626 926h-585v98h782l-633 -924h649v-100h-839zM406 1323q0 37 23 60.5t60 23.5q36 0 60 -24t24 -60q0 -35 -24.5 -58.5t-59.5 -23.5q-37 0 -60 23.5t-23 58.5z" />
<glyph unicode="&#x17d;" horiz-adv-x="1210" d="M80 0l848 1374h-805v101h991l-850 -1375h864v-100h-1048zM297 2007h121l203 -278l200 278h121l-295 -399h-55z" />
<glyph unicode="&#x17e;" horiz-adv-x="974" d="M74 0l626 926h-585v98h782l-633 -924h649v-100h-839zM211 1497h119l159 -223l158 223h121l-250 -342h-57z" />
<glyph unicode="&#x192;" horiz-adv-x="1005" d="M-109 -360q55 -11 121 -11q96 0 155.5 62.5t78.5 183.5l129 821h-215v95h231l58 364q25 160 126.5 252t262.5 92q65 0 114 -14v-103q-39 13 -116 13q-114 0 -183 -62.5t-88 -185.5l-57 -356h297v-95h-313l-130 -827q-26 -164 -119.5 -254t-236.5 -90q-73 0 -115 14v101z " />
<glyph unicode="&#x1fa;" d="M14 0l664 1499h4l659 -1499h-124l-168 383h-742l-166 -383h-127zM350 483h656q-207 473 -326 760q-100 -235 -330 -760zM483 1757q0 77 55 129.5t140 52.5t139.5 -52t54.5 -130q0 -80 -54 -132t-140 -52t-140.5 52t-54.5 132zM575 1757q0 -43 27.5 -70.5t75.5 -27.5 q46 0 73 28t27 70q0 41 -27 68.5t-73 27.5q-48 0 -75.5 -27.5t-27.5 -68.5zM606 2003l142 231h141l-172 -231h-111z" />
<glyph unicode="&#x1fb;" horiz-adv-x="1095" d="M106 256q0 193 192 281t509 41v77q0 154 -78 221.5t-221 67.5q-102 0 -195 -27.5t-143 -58.5v113q54 29 147 53.5t201 24.5q402 0 402 -390v-659h-109v139q-1 24 0.5 46.5t3.5 32.5l2 11h-4q0 -4 -14.5 -29.5t-47.5 -63.5t-76.5 -74t-111 -61.5t-141.5 -25.5 q-141 0 -228.5 78t-87.5 203zM223 262q0 -82 57.5 -133t153.5 -51q103 0 190.5 61.5t135 154.5t47.5 191q-270 43 -427 -19.5t-157 -203.5zM322 1307q0 78 54 130t140 52q85 0 140 -52.5t55 -129.5q0 -80 -54.5 -132.5t-140.5 -52.5q-87 0 -140.5 52.5t-53.5 132.5z M414 1307q0 -43 27 -71t75 -28q46 0 73 28t27 71q0 41 -27 68.5t-73 27.5q-48 0 -75 -27.5t-27 -68.5zM444 1552l142 232h141l-172 -232h-111z" />
<glyph unicode="&#x1fc;" horiz-adv-x="1810" d="M16 0l734 1475h856v-101h-787l189 -577h583v-101h-551l193 -596h518v-100h-602l-123 383h-696l-189 -383h-125zM377 483h618l-243 774zM1083 1606l240 403h158l-291 -403h-107z" />
<glyph unicode="&#x1fd;" horiz-adv-x="1748" d="M106 260q0 122 81.5 202.5t226.5 112t338 13.5q12 103 53 186q-25 83 -105 126.5t-192 43.5q-102 0 -195 -27.5t-143 -58.5v113q54 29 147 53.5t201 24.5q129 0 221 -43.5t135 -122.5q65 79 156 122.5t195 43.5q103 0 187.5 -40t139 -107.5t84 -154.5t29.5 -184 q0 -12 -1 -33t-1 -28h-797q0 -189 107 -305.5t284 -116.5q98 0 195 28.5t174 79.5v-114q-164 -99 -369 -99q-134 0 -241.5 55t-175.5 156q-74 -91 -184 -151t-234 -60q-140 0 -228 80.5t-88 204.5zM223 266q0 -81 58 -134.5t153 -53.5q108 0 203.5 52t157.5 142 q-45 106 -45 226q-257 23 -392 -38t-135 -194zM797 1155l204 342h154l-248 -342h-110zM870 590h676q0 93 -35.5 172t-110.5 130.5t-177 51.5q-99 0 -177.5 -52t-121 -130.5t-54.5 -171.5z" />
<glyph unicode="&#x1fe;" horiz-adv-x="1699" d="M104 737q0 155 57 295.5t155.5 243t237.5 163t296 60.5q210 0 389 -108l156 227h121l-197 -287q130 -106 203 -260.5t73 -333.5q0 -158 -57 -298.5t-155.5 -242.5t-237 -161.5t-295.5 -59.5q-214 0 -389 107l-156 -225h-121l195 282q-129 106 -202 261.5t-73 336.5z M225 737q0 -153 57 -283t160 -221l734 1065q-147 91 -326 91t-322.5 -86.5t-223 -235.5t-79.5 -330zM524 174q142 -88 326 -88q180 0 323 86t221.5 234.5t78.5 330.5q0 151 -57.5 281t-160.5 221zM723 1606l240 403h157l-291 -403h-106z" />
<glyph unicode="&#x1ff;" horiz-adv-x="1277" d="M125 512q0 230 146.5 383.5t367.5 153.5q142 0 260 -70l127 188h121l-168 -247q83 -73 128.5 -178.5t45.5 -229.5q0 -230 -146.5 -383.5t-367.5 -153.5q-137 0 -256 66l-123 -184h-121l164 241q-85 73 -131.5 180t-46.5 234zM240 512q0 -202 125 -324l475 703 q-92 53 -201 53q-174 0 -286.5 -122t-112.5 -310zM444 129q82 -49 195 -49q174 0 286.5 122t112.5 310q0 197 -120 317zM567 1155l205 342h154l-248 -342h-111z" />
<glyph unicode="&#x218;" horiz-adv-x="1050" d="M90 63v121q214 -100 408 -100q154 0 254 69t100 189q0 123 -74.5 198.5t-275.5 147.5q-224 81 -318 183t-94 257q0 172 131.5 271.5t325.5 99.5q190 0 350 -78v-116q-186 86 -348 86q-150 0 -245 -70.5t-95 -187.5q0 -114 74 -193.5t272 -151.5q228 -81 322 -181t94 -259 q0 -173 -131.5 -273t-339.5 -100q-222 0 -410 88zM373 -475l98 346h135l-135 -346h-98z" />
<glyph unicode="&#x219;" horiz-adv-x="913" d="M117 774q0 126 98 200.5t254 74.5q152 0 283 -62v-110q-135 69 -273 69q-118 0 -185 -45.5t-67 -126.5q0 -75 60 -122t192 -89q173 -55 252.5 -125.5t79.5 -187.5q0 -134 -99 -204.5t-257 -70.5q-188 0 -334 68v113q169 -78 328 -78q107 0 179 43t72 127q0 82 -61 127.5 t-207 89.5q-147 46 -231 119.5t-84 189.5zM305 -475l98 346h136l-136 -346h-98z" />
<glyph unicode="&#x21a;" horiz-adv-x="1105" d="M35 1374v101h1036v-101h-461v-1374h-116v1374h-459zM385 -475l98 346h135l-135 -346h-98z" />
<glyph unicode="&#x21b;" horiz-adv-x="743" d="M55 928v96h185v307h112v-307h334v-96h-334v-623q0 -227 168 -227q109 0 203 49v-102q-87 -50 -217 -50q-54 0 -99 16t-84 50t-61 96t-22 146v645h-185zM299 -475l98 346h135l-135 -346h-98z" />
<glyph unicode="&#x237;" horiz-adv-x="514" d="M-82 -367q32 -4 66 -4q102 0 159.5 65t57.5 181v1149h112v-1157q0 -161 -83 -251.5t-232 -90.5q-40 0 -80 8v100z" />
<glyph unicode="&#x2c6;" horiz-adv-x="757" d="M100 1155l250 342h58l249 -342h-120l-158 223l-160 -223h-119z" />
<glyph unicode="&#x2c7;" horiz-adv-x="757" d="M100 1497h119l160 -223l158 223h120l-249 -342h-58z" />
<glyph unicode="&#x2d8;" horiz-adv-x="712" d="M100 1468h99q1 -90 42.5 -139t114.5 -49t114.5 49t41.5 139h100q0 -131 -67.5 -207.5t-188.5 -76.5q-123 0 -189.5 76.5t-66.5 207.5z" />
<glyph unicode="&#x2d9;" horiz-adv-x="366" d="M100 1323q0 37 23.5 60.5t60.5 23.5q36 0 60 -24t24 -60q0 -35 -24.5 -58.5t-59.5 -23.5q-37 0 -60.5 23.5t-23.5 58.5z" />
<glyph unicode="&#x2da;" horiz-adv-x="589" d="M100 1323q0 80 54.5 132t140.5 52q87 0 142 -52t55 -132q0 -79 -55 -130.5t-142 -51.5q-86 0 -140.5 51.5t-54.5 130.5zM193 1323q0 -41 28 -68.5t74 -27.5q48 0 76 27.5t28 68.5q0 44 -28 72t-76 28q-46 0 -74 -28t-28 -72z" />
<glyph unicode="&#x2db;" horiz-adv-x="552" d="M100 -285q0 54 24.5 105.5t67 93.5t89 75t100.5 62l37 -51q-215 -126 -215 -266q0 -59 34.5 -89t92.5 -30q53 0 123 29v-93q-71 -26 -136 -26q-90 0 -153.5 50t-63.5 140z" />
<glyph unicode="&#x2dc;" horiz-adv-x="811" d="M100 1225v114q23 33 67 56.5t99 23.5q56 0 150 -44t131 -44q96 0 164 94v-114q-23 -33 -67 -56.5t-99 -23.5q-56 0 -150 44t-131 44q-96 0 -164 -94z" />
<glyph unicode="&#x2dd;" horiz-adv-x="854" d="M100 1155l201 342h148l-240 -342h-109zM395 1155l211 342h148l-250 -342h-109z" />
<glyph unicode="&#x301;" horiz-adv-x="557" d="M111 1149l141 231h141l-172 -231h-110z" />
<glyph unicode="&#x3c0;" horiz-adv-x="1521" d="M162 922v102h1184v-102h-213v-676q0 -80 43 -126t116 -46q41 0 68 6v-96q-45 -9 -82 -9q-123 0 -189.5 73.5t-66.5 201.5v672h-537v-922h-110v922h-213z" />
<glyph unicode="&#x1e80;" horiz-adv-x="2023" d="M35 1475h127l311 -873l111 -313q65 183 112 307l312 858h4l313 -858l113 -307q64 189 108 313l312 873h127l-547 -1500h-4l-224 607l-200 557q-160 -446 -201 -557l-223 -607h-4zM668 2009h157l240 -403h-107z" />
<glyph unicode="&#x1e81;" horiz-adv-x="1564" d="M14 1024h125l322 -807l307 789h31l305 -789l323 807h123l-430 -1049h-30l-308 781l-305 -781h-31zM487 1497h154l205 -342h-109z" />
<glyph unicode="&#x1e82;" horiz-adv-x="2023" d="M35 1475h127l311 -873l111 -313q65 183 112 307l312 858h4l313 -858l113 -307q64 189 108 313l312 873h127l-547 -1500h-4l-224 607l-200 557q-160 -446 -201 -557l-223 -607h-4zM944 1606l240 403h157l-290 -403h-107z" />
<glyph unicode="&#x1e83;" horiz-adv-x="1564" d="M14 1024h125l322 -807l307 789h31l305 -789l323 807h123l-430 -1049h-30l-308 781l-305 -781h-31zM713 1155l205 342h153l-248 -342h-110z" />
<glyph unicode="&#x1e84;" horiz-adv-x="2023" d="M35 1475h127l311 -873l111 -313q65 183 112 307l312 858h4l313 -858l113 -307q64 189 108 313l312 873h127l-547 -1500h-4l-224 607l-200 557q-160 -446 -201 -557l-223 -607h-4zM754 1778q0 37 23.5 60.5t60.5 23.5q36 0 60 -24t24 -60q0 -35 -24.5 -58.5t-59.5 -23.5 q-37 0 -60.5 23.5t-23.5 58.5zM1098 1778q0 36 24 60t60 24q37 0 60.5 -23.5t23.5 -60.5q0 -35 -23.5 -58.5t-60.5 -23.5q-35 0 -59.5 23.5t-24.5 58.5z" />
<glyph unicode="&#x1e85;" horiz-adv-x="1564" d="M14 1024h125l322 -807l307 789h31l305 -789l323 807h123l-430 -1049h-30l-308 781l-305 -781h-31zM526 1323q0 37 23.5 60.5t60.5 23.5q36 0 60 -24t24 -60q0 -35 -24.5 -58.5t-59.5 -23.5q-37 0 -60.5 23.5t-23.5 58.5zM870 1323q0 36 24 60t60 24q37 0 60.5 -23.5 t23.5 -60.5q0 -35 -23.5 -58.5t-60.5 -23.5q-35 0 -59.5 23.5t-24.5 58.5z" />
<glyph unicode="&#x1e9e;" horiz-adv-x="1302" d="M178 0v1053q0 190 143.5 318t354.5 128q286 0 500 -178l-435 -551l117 -33q192 -55 293.5 -151.5t101.5 -247.5q0 -168 -118.5 -265.5t-327.5 -97.5q-185 0 -324 68v111q168 -76 316 -76q160 0 251 69t91 189q0 115 -87 191t-253 122l-232 64l455 579q-145 99 -350 99 q-98 0 -184 -40.5t-141.5 -120t-55.5 -181.5v-1049h-115z" />
<glyph unicode="&#x1ef2;" horiz-adv-x="1216" d="M4 1475h133l471 -766l471 766h133l-544 -881v-594h-119v594zM264 2009h158l240 -403h-107z" />
<glyph unicode="&#x1ef3;" horiz-adv-x="1021" d="M-20 -360q54 -13 106 -13q66 0 119 27t96.5 85t75.5 120.5t72 160.5l-433 1004h127l160 -379q148 -351 207 -495q38 89 110.5 262t98.5 233l158 379h129l-408 -950q-25 -60 -40 -95t-38 -86.5t-39.5 -81.5t-40 -70.5t-44 -64t-47 -51.5t-53.5 -43.5t-59.5 -30t-69 -20.5 t-77.5 -6q-70 0 -110 16v99zM223 1497h154l205 -342h-109z" />
<glyph unicode="&#x2000;" horiz-adv-x="1117" />
<glyph unicode="&#x2001;" horiz-adv-x="2234" />
<glyph unicode="&#x2002;" horiz-adv-x="1117" />
<glyph unicode="&#x2003;" horiz-adv-x="2234" />
<glyph unicode="&#x2004;" horiz-adv-x="744" />
<glyph unicode="&#x2005;" horiz-adv-x="558" />
<glyph unicode="&#x2006;" horiz-adv-x="372" />
<glyph unicode="&#x2007;" horiz-adv-x="372" />
<glyph unicode="&#x2008;" horiz-adv-x="279" />
<glyph unicode="&#x2009;" horiz-adv-x="446" />
<glyph unicode="&#x200a;" horiz-adv-x="124" />
<glyph unicode="&#x2010;" horiz-adv-x="776" d="M100 528v103h576v-103h-576z" />
<glyph unicode="&#x2011;" horiz-adv-x="776" d="M100 528v103h576v-103h-576z" />
<glyph unicode="&#x2012;" horiz-adv-x="776" d="M100 528v103h576v-103h-576z" />
<glyph unicode="&#x2013;" horiz-adv-x="1183" d="M100 528v103h983v-103h-983z" />
<glyph unicode="&#x2014;" horiz-adv-x="1601" d="M100 528v103h1401v-103h-1401z" />
<glyph unicode="&#x2018;" horiz-adv-x="342" d="M29 1049l198 536h97l-156 -536h-139z" />
<glyph unicode="&#x2019;" horiz-adv-x="342" d="M33 1049l155 536h140l-199 -536h-96z" />
<glyph unicode="&#x201a;" horiz-adv-x="342" d="M33 -276l155 536h140l-199 -536h-96z" />
<glyph unicode="&#x201c;" horiz-adv-x="636" d="M29 1049l198 536h97l-156 -536h-139zM324 1049l198 536h96l-155 -536h-139z" />
<glyph unicode="&#x201d;" horiz-adv-x="636" d="M33 1049l155 536h140l-199 -536h-96zM330 1049l155 536h140l-199 -536h-96z" />
<glyph unicode="&#x201e;" horiz-adv-x="636" d="M33 -276l155 536h140l-199 -536h-96zM330 -276l155 536h140l-199 -536h-96z" />
<glyph unicode="&#x2020;" horiz-adv-x="1144" d="M98 930v106h412v576h117v-576h420v-106h-420v-1067h-117v1067h-412z" />
<glyph unicode="&#x2021;" horiz-adv-x="1140" d="M98 317v105h410v629h-410v106h410v455h115v-455h419v-106h-419v-629h419v-105h-419v-454h-115v454h-410z" />
<glyph unicode="&#x2022;" horiz-adv-x="509" d="M100 737q0 66 44 110t110 44t111 -44t45 -110t-45 -109.5t-111 -43.5t-110 43.5t-44 109.5z" />
<glyph unicode="&#x2026;" horiz-adv-x="1105" d="M100 57q0 37 23.5 60.5t60.5 23.5q36 0 60 -24t24 -60q0 -35 -24.5 -58.5t-59.5 -23.5q-37 0 -60.5 23.5t-23.5 58.5zM469 57q0 37 23.5 60.5t60.5 23.5q36 0 60 -24t24 -60q0 -35 -24.5 -58.5t-59.5 -23.5q-37 0 -60.5 23.5t-23.5 58.5zM838 57q0 37 23.5 60.5 t60.5 23.5t60.5 -23.5t23.5 -60.5q0 -35 -23.5 -58.5t-60.5 -23.5t-60.5 23.5t-23.5 58.5z" />
<glyph unicode="&#x202f;" horiz-adv-x="446" />
<glyph unicode="&#x2030;" horiz-adv-x="2246" d="M119 1143q0 148 98.5 252t239.5 104q139 0 237.5 -104t98.5 -252t-98.5 -252.5t-237.5 -104.5q-141 0 -239.5 104.5t-98.5 252.5zM219 1143q0 -110 69.5 -187t168.5 -77q98 0 167.5 77t69.5 187q0 109 -69.5 186.5t-167.5 77.5t-168 -77.5t-70 -186.5zM285 0l1050 1475 h111l-1051 -1475h-110zM936 330q0 149 99 253.5t239 104.5q92 0 168.5 -48.5t120.5 -127.5q45 80 120 128t168 48q140 0 238 -104.5t98 -253.5q0 -147 -98.5 -251t-237.5 -104q-94 0 -169 48t-119 129q-44 -80 -120 -128.5t-169 -48.5q-139 0 -238.5 104.5t-99.5 250.5z M1038 330q0 -109 69 -185.5t167 -76.5t167.5 76.5t69.5 185.5q0 110 -69.5 188t-167.5 78t-167 -78t-69 -188zM1614 330q0 -109 69.5 -185.5t167.5 -76.5t168 76.5t70 185.5q0 110 -70 188t-168 78t-167.5 -78t-69.5 -188z" />
<glyph unicode="&#x2039;" horiz-adv-x="675" d="M121 512l323 512h131l-327 -512l327 -512h-131z" />
<glyph unicode="&#x203a;" horiz-adv-x="675" d="M100 0l328 512l-328 512h131l324 -512l-324 -512h-131z" />
<glyph unicode="&#x2044;" horiz-adv-x="1243" d="M41 0l1051 1475h110l-1050 -1475h-111z" />
<glyph unicode="&#x205f;" horiz-adv-x="558" />
<glyph unicode="&#x2070;" horiz-adv-x="813" d="M70 1081q0 181 95.5 299.5t242.5 118.5q146 0 240.5 -118.5t94.5 -299.5q0 -179 -94.5 -297t-240.5 -118q-147 0 -242.5 118t-95.5 297zM174 1081q0 -138 66.5 -229.5t167.5 -91.5t167 91.5t66 229.5q0 141 -66 232.5t-167 91.5t-167.5 -91.5t-66.5 -232.5z" />
<glyph unicode="&#x2074;" horiz-adv-x="692" d="M47 885l320 614h110l-282 -528h233v219h96v-219h129v-86h-129v-195h-98v195h-379z" />
<glyph unicode="&#x20a4;" horiz-adv-x="1284" d="M139 535v96h203v213h-192v96h192v94q0 219 121.5 342t335.5 123q169 0 293 -67v-113q-138 74 -289 74q-163 0 -255.5 -96.5t-92.5 -266.5v-90h526v-96h-526v-213h516v-96h-516v-105q0 -190 -101 -326h766v-104h-960q36 40 62 76t56.5 91t47 122t16.5 141v105h-203z" />
<glyph unicode="&#x20ac;" horiz-adv-x="1665" d="M82 535v96h240q-7 61 -7 106q0 55 9 107h-222v96h238q64 246 257 402.5t450 156.5q232 0 430 -113v-116q-220 119 -430 119q-212 0 -368 -124t-214 -325h813v-96h-834q-6 -52 -6 -107q0 -53 6 -106h813v-96h-792q57 -202 213 -325.5t369 -123.5q224 0 440 117v-117 q-199 -111 -440 -111q-258 0 -451.5 155.5t-255.5 404.5h-258z" />
<glyph unicode="&#x2122;" horiz-adv-x="1331" d="M80 1391v84h483v-84h-196v-533h-93v533h-194zM655 858v635h25l272 -344l275 344h26v-635h-92v418l-207 -254l-209 256v-420h-90z" />
<glyph unicode="&#x212e;" horiz-adv-x="2101" d="M205 735q0 208 113.5 384t308 278t424.5 102q229 0 424 -105t308 -283t113 -386v-25h-1370q-12 0 -12 -10v-391q0 -27 18 -51q98 -95 232 -144t289 -49q164 0 305 56t239 161h123q-114 -136 -288.5 -216.5t-380.5 -80.5q-176 0 -333.5 60t-269.5 161.5t-177.5 242 t-65.5 296.5zM514 788q0 -14 12 -14h1053q6 0 6 14v390q0 27 -18 51q-95 92 -229.5 141t-284.5 49q-319 0 -518 -190q-21 -27 -21 -58v-383z" />
<glyph unicode="&#x2153;" horiz-adv-x="1769" d="M156 690v90h204v602h-194v93h297v-695h199v-90h-506zM301 0l1051 1475h110l-1050 -1475h-111zM1106 20v97q100 -49 217 -49q88 0 138 38t50 97q0 75 -65 118.5t-184 43.5h-31v84h41q102 0 166.5 41.5t64.5 103.5q0 58 -48.5 90.5t-133.5 32.5q-103 0 -203 -49v94 q92 47 207 47q127 0 204 -58.5t77 -154.5q0 -66 -46 -115t-122 -71q82 -24 130 -78t48 -131q0 -98 -80 -162t-211 -64q-127 0 -219 45z" />
<glyph unicode="&#x2154;" horiz-adv-x="1822" d="M156 690q234 230 299 305q117 133 128 220q1 11 1 22q0 79 -48 123.5t-133 44.5q-117 0 -215 -68v99q95 63 220 63q128 0 203 -70t75 -188q0 -42 -18 -88.5t-42.5 -85.5t-73 -93t-85 -91.5t-102.5 -100.5h368v-92h-577zM371 0l1050 1475h111l-1051 -1475h-110zM1159 20 v97q100 -49 217 -49q88 0 138.5 38t50.5 97q0 75 -65 118.5t-185 43.5h-31v84h41q102 0 166.5 41.5t64.5 103.5q0 58 -48.5 90.5t-133.5 32.5q-103 0 -203 -49v94q92 47 207 47q127 0 204 -58.5t77 -154.5q0 -66 -46 -115t-122 -71q82 -24 130 -78t48 -131q0 -98 -80 -162 t-211 -64q-127 0 -219 45z" />
<glyph unicode="&#x2212;" horiz-adv-x="1312" d="M201 686v102h911v-102h-911z" />
<glyph unicode="&#x2215;" horiz-adv-x="1243" d="M41 0l1051 1475h110l-1050 -1475h-111z" />
<glyph unicode="&#x2219;" horiz-adv-x="366" d="M100 735q0 37 23.5 60.5t60.5 23.5q36 0 60 -24t24 -60q0 -35 -24.5 -58.5t-59.5 -23.5q-37 0 -60.5 23.5t-23.5 58.5z" />
<glyph unicode="&#x2248;" horiz-adv-x="1249" d="M201 803v106q42 37 106.5 60.5t128.5 23.5q72 0 189.5 -43t181.5 -43q60 0 124.5 25.5t108.5 64.5v-106q-42 -37 -107 -60.5t-130 -23.5q-71 0 -188.5 44t-180.5 44q-60 0 -124.5 -26t-108.5 -66zM211 477v107q42 37 106 60.5t129 23.5q71 0 188.5 -43t180.5 -43 q62 0 127 25.5t107 64.5v-107q-42 -37 -106.5 -60.5t-129.5 -23.5q-72 0 -189.5 43t-181.5 43q-60 0 -124.5 -25.5t-106.5 -64.5z" />
<glyph unicode="&#x2260;" horiz-adv-x="1312" d="M201 508v100h342l135 258h-477v101h526l213 403h90l-211 -403h293v-101h-344l-135 -258h479v-100h-528l-211 -404h-90l211 404h-293z" />
<glyph unicode="&#x2264;" horiz-adv-x="1161" d="M121 885l837 514v-125l-641 -389l641 -385v-125zM182 137v90h776v-90h-776z" />
<glyph unicode="&#x2265;" horiz-adv-x="1161" d="M201 137v90h776v-90h-776zM201 375v125l641 385l-641 389v125l837 -514z" />
<glyph unicode="&#x25fc;" horiz-adv-x="1024" d="M0 0v1024h1024v-1024h-1024z" />
<glyph unicode="&#xf6c3;" horiz-adv-x="434" d="M100 -475l99 346h135l-135 -346h-99z" />
<glyph d="M14 0l641 1493h47l639 -1493h-122l-168 391h-746l-166 -391h-125zM348 492h662l-330 780z" />
<glyph d="M14 0l641 1493h47l639 -1493h-122l-168 391h-746l-166 -391h-125zM348 492h662l-330 780zM621 1606l239 403h158l-291 -403h-106z" />
<glyph d="M14 0l641 1493h47l639 -1493h-122l-168 391h-746l-166 -391h-125zM348 492h662l-330 780zM418 1925h98q1 -95 45 -147t119 -52t119 52t45 147h98q0 -136 -69 -215.5t-193 -79.5t-193 79.5t-69 215.5z" />
<glyph d="M14 0l641 1493h47l639 -1493h-122l-168 391h-746l-166 -391h-125zM348 492h662l-330 780zM356 1608l295 399h56l294 -399h-120l-201 278l-203 -278h-121z" />
<glyph d="M14 0l641 1493h47l639 -1493h-122l-168 391h-746l-166 -391h-125zM348 492h662l-330 780zM424 1778q0 37 23.5 60.5t60.5 23.5t60.5 -23.5t23.5 -60.5q0 -35 -23.5 -58.5t-60.5 -23.5t-60.5 23.5t-23.5 58.5zM770 1778q0 37 23.5 60.5t60.5 23.5q36 0 60 -24t24 -60 q0 -35 -24.5 -58.5t-59.5 -23.5q-37 0 -60.5 23.5t-23.5 58.5z" />
<glyph d="M14 0l641 1493h47l639 -1493h-122l-168 391h-746l-166 -391h-125zM344 2009h158l239 -403h-106zM348 492h662l-330 780z" />
<glyph d="M14 0l641 1493h47l639 -1493h-122l-168 391h-746l-166 -391h-125zM348 492h662l-330 780zM389 1729v100h582v-100h-582z" />
<glyph d="M14 0l641 1493h47l639 -1493h-6q-215 -128 -215 -266q0 -59 35.5 -89t93.5 -30q48 0 123 29v-93q-76 -26 -135 -26q-91 0 -155 50t-64 140q0 156 199 287l-166 389h-746l-166 -391h-125zM348 492h662l-330 780z" />
<glyph d="M14 0l641 1493h47l639 -1493h-122l-168 391h-746l-166 -391h-125zM348 492h662l-330 780zM483 1778q0 79 55 131.5t142 52.5q85 0 139.5 -52.5t54.5 -131.5t-54.5 -132t-139.5 -53q-87 0 -142 53t-55 132zM578 1778q0 -43 27 -71t75 -28q46 0 74 28.5t28 70.5t-28 70 t-74 28q-48 0 -75 -27.5t-27 -70.5z" />
<glyph d="M14 0l641 1493h47l639 -1493h-122l-168 391h-746l-166 -391h-125zM348 492h662l-330 780zM483 1753q0 79 55 131.5t142 52.5q85 0 139.5 -52.5t54.5 -131.5t-54 -130.5t-140 -51.5q-87 0 -142 51.5t-55 130.5zM578 1753q0 -43 27 -70.5t75 -27.5q46 0 73 28t27 70t-27 70 t-73 28q-48 0 -75 -27.5t-27 -70.5zM608 1999l142 231h141l-172 -231h-111z" />
<glyph d="M14 0l641 1493h47l639 -1493h-122l-168 391h-746l-166 -391h-125zM348 492h662l-330 780zM373 1677v115q23 33 67 56.5t99 23.5q58 0 151 -44t131 -44q96 0 164 94v-115q-23 -33 -67 -56.5t-99 -23.5q-56 0 -150 44.5t-132 44.5q-45 0 -89 -26t-75 -69z" />
<glyph horiz-adv-x="552" d="M-158 -311q85 -56 178 -56t145 59.5t52 164.5v1618h119v-1608q0 -163 -80.5 -252.5t-230.5 -89.5q-109 0 -183 49v115z" />
<glyph horiz-adv-x="552" d="M-158 -311q85 -56 178 -56t145 59.5t52 164.5v1618h119v-1608q0 -163 -80.5 -252.5t-230.5 -89.5q-109 0 -183 49v115zM-47 1608l295 399h55l297 -399h-123l-201 278l-200 -278h-123z" />
<glyph horiz-adv-x="1396" d="M217 0v1475h119v-924l821 924h148l-555 -613l350 -645q39 -69 76 -101t88 -32q65 0 102 14v-106q-43 -17 -113 -17q-98 0 -161.5 64t-145.5 217l-276 518l-334 -373v-401h-119z" />
<glyph horiz-adv-x="1329" d="M217 0v1475h119v-908l807 908h147l-536 -598q282 -668 625 -982.5t782 -314.5q122 0 219 17v-107q-92 -18 -232 -18q-462 0 -825.5 316.5t-654.5 995.5l-332 -368v-416h-119z" />
<glyph horiz-adv-x="1228" d="M217 0v1475h119v-908l807 908h147l-545 -609l156 -389q172 -430 409 -639t568 -209q126 0 225 21v-107q-84 -24 -229 -24q-362 0 -623.5 220t-447.5 681l-144 356l-323 -360v-416h-119z" />
<glyph horiz-adv-x="1366" d="M217 0v1475h119v-924l821 924h148l-555 -613l350 -645q39 -69 76 -101t88 -32q65 0 102 14v-106q-43 -17 -113 -17q-98 0 -161.5 64t-145.5 217l-276 518l-334 -373v-401h-119zM539 -475l98 346h135l-135 -346h-98z" />
<glyph horiz-adv-x="1312" d="M217 0v1475h119v-908l807 908h147l-536 -598q282 -668 625 -982.5t782 -314.5q122 0 219 17v-107q-92 -18 -232 -18q-462 0 -825.5 316.5t-654.5 995.5l-332 -368v-416h-119zM502 -475l100 346h135l-135 -346h-100z" />
<glyph horiz-adv-x="1222" d="M217 0v1475h119v-908l807 908h147l-545 -609l156 -389q172 -430 409 -639t568 -209q126 0 225 21v-107q-84 -24 -229 -24q-362 0 -623.5 220t-447.5 681l-144 356l-323 -360v-416h-119zM481 -475l101 346h135l-135 -346h-101z" />
<glyph horiz-adv-x="1746" d="M217 0v1493h53l602 -887l605 887h53v-1493h-117v1092q0 75 4 118q-25 -45 -59 -94l-486 -704l-483 704q-34 49 -59 94q4 -43 4 -118v-1092h-117z" />
<glyph horiz-adv-x="1564" d="M217 0v1493h49l908 -1161q37 -47 59 -78q0 9 -1 41t-1 55v1123h117v-1491h-50l-907 1161q-5 7 -28 36t-31 42q4 -50 4 -97v-1124h-119z" />
<glyph horiz-adv-x="1564" d="M217 0v1493h49l908 -1161q37 -47 59 -78q0 9 -1 41t-1 55v1123h117v-1491h-50l-907 1161q-5 7 -28 36t-31 42q4 -50 4 -97v-1124h-119zM686 1606l240 403h159l-290 -403h-109z" />
<glyph horiz-adv-x="1564" d="M217 0v1493h49l908 -1161q37 -47 59 -78q0 9 -1 41t-1 55v1123h117v-1491h-50l-907 1161q-5 7 -28 36t-31 42q4 -50 4 -97v-1124h-119zM463 2007h123l200 -278l201 278h123l-295 -399h-57z" />
<glyph horiz-adv-x="1564" d="M217 0v1493h49l908 -1161q37 -47 59 -78q0 9 -1 41t-1 55v1123h117v-1491h-50l-907 1161q-5 7 -28 36t-31 42q4 -50 4 -97v-1124h-119zM621 -475l98 346h135l-135 -346h-98z" />
<glyph horiz-adv-x="1564" d="M217 0v1493h49l908 -1161q37 -47 59 -78q0 9 -1 41t-1 55v1123h117v-1491h-50l-907 1161q-5 7 -28 36t-31 42q4 -50 4 -97v-1124h-119zM471 1677v115q23 33 67 56.5t99 23.5q56 0 150.5 -44t132.5 -44q92 0 163 94v-115q-23 -33 -67 -56.5t-98 -23.5q-46 0 -100 22.5 t-102 44.5t-81 22q-46 0 -89.5 -25.5t-74.5 -69.5z" />
<glyph horiz-adv-x="1708" d="M104 737q0 155 57 295.5t155.5 243t237.5 163t296 60.5q208 0 379.5 -102t268.5 -276.5t97 -383.5q0 -241 -125 -430t-333 -272q319 -270 644.5 -401.5t633.5 -129.5q187 1 349.5 46.5t270.5 125.5v-122q-104 -73 -275.5 -117.5t-355.5 -44.5q-335 0 -687.5 150 t-700.5 452q-101 -19 -166 -19q-209 0 -380.5 101t-268.5 276t-97 385zM225 737q0 -182 79.5 -330.5t223 -234.5t322.5 -86q180 0 323 86t221.5 234.5t78.5 330.5q0 181 -78.5 330t-221.5 235.5t-323 86.5q-179 0 -322.5 -86.5t-223 -235.5t-79.5 -330z" />
<glyph horiz-adv-x="1708" d="M104 737q0 155 57 295.5t155.5 243t237.5 163t296 60.5q208 0 379.5 -102t268.5 -276.5t97 -383.5q0 -236 -120.5 -423.5t-321.5 -274.5q149 -138 304.5 -238t296.5 -152.5t261.5 -76t233.5 -23.5q184 0 357.5 45.5t291.5 122.5v-123q-120 -72 -298 -114.5t-362 -42.5 q-122 0 -258 29.5t-291.5 92t-326 175t-332.5 264.5q-94 -23 -180 -23q-209 0 -380.5 101t-268.5 276t-97 385zM225 737q0 -182 79.5 -330.5t223 -234.5t322.5 -86q180 0 323 86t221.5 234.5t78.5 330.5q0 181 -78.5 330t-221.5 235.5t-323 86.5q-179 0 -322.5 -86.5 t-223 -235.5t-79.5 -330z" />
<glyph horiz-adv-x="1259" d="M217 0v1475h457q227 0 357 -114t130 -314q0 -168 -98.5 -278.5t-267.5 -135.5l192 -422q29 -64 62 -95.5t79 -31.5q55 0 91 12v-104q-38 -17 -103 -17q-40 0 -73.5 13t-57.5 32.5t-49.5 58.5t-43 73.5t-46.5 95.5l-168 373h-342v-621h-119zM336 719h338q173 0 269.5 87 t96.5 241t-97.5 240.5t-272.5 86.5h-334v-655z" />
<glyph horiz-adv-x="1280" d="M217 0v1475h457q227 0 357 -114t130 -314q0 -158 -87.5 -266t-239.5 -144l102 -238q177 -390 489 -604t709 -215q141 0 256 25v-107q-31 -9 -107 -17.5t-153 -8.5q-432 0 -767.5 229.5t-526.5 650.5l-115 269h-385v-621h-119zM336 719h338q172 0 269 87.5t97 240.5 q0 154 -97.5 240.5t-272.5 86.5h-334v-655z" />
<glyph horiz-adv-x="1284" d="M217 0v1475h457q227 0 357 -114t130 -314q0 -156 -88.5 -264.5t-241.5 -143.5l93 -219q104 -254 263 -434.5t344 -270t384 -90.5q119 0 229 25v-107q-72 -26 -233 -26q-223 0 -427.5 97.5t-376.5 292t-286 468.5l-104 246h-381v-621h-119zM336 719h338q172 0 269 87.5 t97 240.5q0 154 -97.5 240.5t-272.5 86.5h-334v-655z" />
<glyph horiz-adv-x="1259" d="M217 0v1475h457q227 0 357 -114t130 -314q0 -168 -98.5 -278.5t-267.5 -135.5l192 -422q29 -64 62 -95.5t79 -31.5q55 0 91 12v-104q-38 -17 -103 -17q-40 0 -73.5 13t-57.5 32.5t-49.5 58.5t-43 73.5t-46.5 95.5l-168 373h-342v-621h-119zM336 719h338q173 0 269.5 87 t96.5 241t-97.5 240.5t-272.5 86.5h-334v-655zM528 1606l242 403h158l-291 -403h-109z" />
<glyph horiz-adv-x="1280" d="M217 0v1475h457q227 0 357 -114t130 -314q0 -158 -87.5 -266t-239.5 -144l102 -238q177 -390 489 -604t709 -215q141 0 256 25v-107q-31 -9 -107 -17.5t-153 -8.5q-432 0 -767.5 229.5t-526.5 650.5l-115 269h-385v-621h-119zM336 719h338q172 0 269 87.5t97 240.5 q0 154 -97.5 240.5t-272.5 86.5h-334v-655zM532 1606l240 403h158l-291 -403h-107z" />
<glyph horiz-adv-x="1284" d="M217 0v1475h457q227 0 357 -114t130 -314q0 -156 -88.5 -264.5t-241.5 -143.5l93 -219q104 -254 263 -434.5t344 -270t384 -90.5q119 0 229 25v-107q-72 -26 -233 -26q-223 0 -427.5 97.5t-376.5 292t-286 468.5l-104 246h-381v-621h-119zM336 719h338q172 0 269 87.5 t97 240.5q0 154 -97.5 240.5t-272.5 86.5h-334v-655zM532 1606l240 403h158l-291 -403h-107z" />
<glyph horiz-adv-x="1259" d="M217 0v1475h457q227 0 357 -114t130 -314q0 -168 -98.5 -278.5t-267.5 -135.5l192 -422q29 -64 62 -95.5t79 -31.5q55 0 91 12v-104q-38 -17 -103 -17q-40 0 -73.5 13t-57.5 32.5t-49.5 58.5t-43 73.5t-46.5 95.5l-168 373h-342v-621h-119zM293 2007h121l202 -278 l201 278h121l-295 -399h-55zM336 719h338q173 0 269.5 87t96.5 241t-97.5 240.5t-272.5 86.5h-334v-655z" />
<glyph horiz-adv-x="1280" d="M217 0v1475h457q227 0 357 -114t130 -314q0 -158 -87.5 -266t-239.5 -144l102 -238q177 -390 489 -604t709 -215q141 0 256 25v-107q-31 -9 -107 -17.5t-153 -8.5q-432 0 -767.5 229.5t-526.5 650.5l-115 269h-385v-621h-119zM289 2007h123l200 -278l203 278h121 l-295 -399h-55zM336 719h338q172 0 269 87.5t97 240.5q0 154 -97.5 240.5t-272.5 86.5h-334v-655z" />
<glyph horiz-adv-x="1284" d="M217 0v1475h457q227 0 357 -114t130 -314q0 -156 -88.5 -264.5t-241.5 -143.5l93 -219q104 -254 263 -434.5t344 -270t384 -90.5q119 0 229 25v-107q-72 -26 -233 -26q-223 0 -427.5 97.5t-376.5 292t-286 468.5l-104 246h-381v-621h-119zM289 2007h123l200 -278l203 278 h121l-295 -399h-55zM336 719h338q172 0 269 87.5t97 240.5q0 154 -97.5 240.5t-272.5 86.5h-334v-655z" />
<glyph horiz-adv-x="1259" d="M217 0v1475h457q227 0 357 -114t130 -314q0 -168 -98.5 -278.5t-267.5 -135.5l192 -422q29 -64 62 -95.5t79 -31.5q55 0 91 12v-104q-38 -17 -103 -17q-40 0 -73.5 13t-57.5 32.5t-49.5 58.5t-43 73.5t-46.5 95.5l-168 373h-342v-621h-119zM336 719h338q173 0 269.5 87 t96.5 241t-97.5 240.5t-272.5 86.5h-334v-655zM461 -475l100 346h135l-135 -346h-100z" />
<glyph horiz-adv-x="1280" d="M217 0v1475h457q227 0 357 -114t130 -314q0 -158 -87.5 -266t-239.5 -144l102 -238q177 -390 489 -604t709 -215q141 0 256 25v-107q-31 -9 -107 -17.5t-153 -8.5q-432 0 -767.5 229.5t-526.5 650.5l-115 269h-385v-621h-119zM336 719h338q172 0 269 87.5t97 240.5 q0 154 -97.5 240.5t-272.5 86.5h-334v-655zM471 -475l100 346h136l-136 -346h-100z" />
<glyph horiz-adv-x="1284" d="M217 0v1475h457q227 0 357 -114t130 -314q0 -156 -88.5 -264.5t-241.5 -143.5l93 -219q104 -254 263 -434.5t344 -270t384 -90.5q119 0 229 25v-107q-72 -26 -233 -26q-223 0 -427.5 97.5t-376.5 292t-286 468.5l-104 246h-381v-621h-119zM336 719h338q172 0 269 87.5 t97 240.5q0 154 -97.5 240.5t-272.5 86.5h-334v-655zM469 -475l98 346h135l-135 -346h-98z" />
<glyph horiz-adv-x="1292" d="M0 1475h129l516 -1260l516 1260h131l-624 -1493h-45z" />
<glyph horiz-adv-x="2041" d="M31 1475h127l422 -1219l421 1204h35l338 -956l88 -248l422 1219h127l-526 -1493h-47l-420 1175l-225 -639l-189 -536h-47z" />
<glyph horiz-adv-x="2041" d="M31 1475h127l422 -1219l421 1204h35l338 -956l88 -248l422 1219h127l-526 -1493h-47l-420 1175l-225 -639l-189 -536h-47zM956 1606l242 403h158l-291 -403h-109z" />
<glyph horiz-adv-x="2041" d="M31 1475h127l422 -1219l421 1204h35l338 -956l88 -248l422 1219h127l-526 -1493h-47l-420 1175l-225 -639l-189 -536h-47zM696 1608l297 399h56l294 -399h-120l-203 278l-201 -278h-123z" />
<glyph horiz-adv-x="2041" d="M31 1475h127l422 -1219l421 1204h35l338 -956l88 -248l422 1219h127l-526 -1493h-47l-420 1175l-225 -639l-189 -536h-47zM764 1778q0 37 23.5 60.5t60.5 23.5q36 0 60 -24t24 -60q0 -35 -24.5 -58.5t-59.5 -23.5q-37 0 -60.5 23.5t-23.5 58.5zM1108 1778q0 37 23.5 60.5 t60.5 23.5t60.5 -23.5t23.5 -60.5q0 -35 -23.5 -58.5t-60.5 -23.5t-60.5 23.5t-23.5 58.5z" />
<glyph horiz-adv-x="2041" d="M31 1475h127l422 -1219l421 1204h35l338 -956l88 -248l422 1219h127l-526 -1493h-47l-420 1175l-225 -639l-189 -536h-47zM672 2009h157l240 -403h-108z" />
<glyph horiz-adv-x="1185" d="M82 0v41l842 1331h-801v103h964v-41l-843 -1332h866v-102h-1028z" />
<glyph horiz-adv-x="1056" d="M90 -25l838 1399h-805v101h991l-741 -1233q104 -13 272 -131q54 -34 156.5 -102t164 -107.5t161 -100t170.5 -97t168.5 -79.5t179 -66.5t177 -40t187.5 -16.5q166 0 346.5 47.5t278.5 124.5l2 -125q-93 -67 -277.5 -112t-363.5 -45q-99 0 -203.5 18.5t-196 47.5 t-194 75.5t-183 89.5t-178.5 103.5t-164 104t-156.5 104t-139.5 92.5q-87 58 -148.5 89t-116.5 34l-104 -175h-121z" />
<glyph horiz-adv-x="1056" d="M90 -25l850 1397h-817v103h979v-41l-729 -1192q54 -5 117.5 -38.5t154.5 -92.5q53 -34 156.5 -102t164.5 -107.5t161 -100t171 -97t168.5 -79.5t179 -66.5t177 -40t186.5 -16.5q166 0 346.5 47.5t278.5 124.5q0 -20 1 -62t1 -63q-93 -67 -277.5 -112t-363.5 -45 q-98 0 -203 19t-195.5 47t-195 75t-183 89t-179.5 103.5t-163.5 103.5t-156.5 105.5t-139 92.5q-59 39 -94.5 60.5t-83.5 41t-87 21.5l-104 -175h-121z" />
<glyph horiz-adv-x="1105" d="M90 -25l838 1399h-805v101h991l-770 -1285q94 -12 215 -100q183 -138 321.5 -229.5t285.5 -167t284 -111t276 -35.5q157 0 330 47t268 119l5 -123q-91 -65 -268.5 -109t-346.5 -44q-146 0 -293 38t-300 116.5t-299.5 175.5t-327.5 237q-117 87 -207 96l-76 -125h-121z " />
<glyph horiz-adv-x="1105" d="M90 -25l850 1397h-817v103h979v-41l-758 -1244q94 -12 215 -100q183 -138 321.5 -229.5t285.5 -167t284 -111t276 -35.5q158 0 329.5 47t268.5 119l5 -123q-91 -65 -268.5 -109t-346.5 -44q-146 0 -293 38t-300 116.5t-299.5 175.5t-327.5 237q-117 87 -207 96l-76 -125 h-121z" />
<glyph horiz-adv-x="1185" d="M82 0v41l842 1331h-801v103h964v-41l-843 -1332h866v-102h-1028zM512 1606l242 403h157l-290 -403h-109z" />
<glyph horiz-adv-x="1056" d="M90 -25l838 1399h-805v101h991l-741 -1233q104 -13 272 -131q54 -34 156.5 -102t164 -107.5t161 -100t170.5 -97t168.5 -79.5t179 -66.5t177 -40t187.5 -16.5q166 0 346.5 47.5t278.5 124.5l2 -125q-93 -67 -277.5 -112t-363.5 -45q-99 0 -203.5 18.5t-196 47.5 t-194 75.5t-183 89.5t-178.5 103.5t-164 104t-156.5 104t-139.5 92.5q-87 58 -148.5 89t-116.5 34l-104 -175h-121zM518 1606l240 403h157l-288 -403h-109z" />
<glyph horiz-adv-x="1056" d="M90 -25l850 1397h-817v103h979v-41l-729 -1192q54 -5 117.5 -38.5t154.5 -92.5q53 -34 156.5 -102t164.5 -107.5t161 -100t171 -97t168.5 -79.5t179 -66.5t177 -40t186.5 -16.5q166 0 346.5 47.5t278.5 124.5q0 -20 1 -62t1 -63q-93 -67 -277.5 -112t-363.5 -45 q-98 0 -203 19t-195.5 47t-195 75t-183 89t-179.5 103.5t-163.5 103.5t-156.5 105.5t-139 92.5q-59 39 -94.5 60.5t-83.5 41t-87 21.5l-104 -175h-121zM518 1606l240 403h157l-288 -403h-109z" />
<glyph horiz-adv-x="1105" d="M90 -25l838 1399h-805v101h991l-770 -1285q94 -12 215 -100q183 -138 321.5 -229.5t285.5 -167t284 -111t276 -35.5q157 0 330 47t268 119l5 -123q-91 -65 -268.5 -109t-346.5 -44q-146 0 -293 38t-300 116.5t-299.5 175.5t-327.5 237q-117 87 -207 96l-76 -125h-121z M518 1606l240 403h157l-288 -403h-109z" />
<glyph horiz-adv-x="1105" d="M90 -25l850 1397h-817v103h979v-41l-758 -1244q94 -12 215 -100q183 -138 321.5 -229.5t285.5 -167t284 -111t276 -35.5q158 0 329.5 47t268.5 119l5 -123q-91 -65 -268.5 -109t-346.5 -44q-146 0 -293 38t-300 116.5t-299.5 175.5t-327.5 237q-117 87 -207 96l-76 -125 h-121zM518 1606l240 403h157l-288 -403h-109z" />
<glyph horiz-adv-x="1185" d="M82 0l90 188l752 1184h-801v103h964v-41l-843 -1332h866v-102h-1028zM289 2007h123l200 -278l201 278h123l-295 -399h-55z" />
<glyph horiz-adv-x="1056" d="M90 -25l838 1399h-805v101h991l-741 -1233q104 -13 272 -131q54 -34 156.5 -102t164 -107.5t161 -100t170.5 -97t168.5 -79.5t179 -66.5t177 -40t187.5 -16.5q166 0 346.5 47.5t278.5 124.5l2 -125q-93 -67 -277.5 -112t-363.5 -45q-99 0 -203.5 18.5t-196 47.5 t-194 75.5t-183 89.5t-178.5 103.5t-164 104t-156.5 104t-139.5 92.5q-87 58 -148.5 89t-116.5 34l-104 -175h-121zM297 2007h121l203 -278l200 278h121l-295 -399h-55z" />
<glyph horiz-adv-x="1056" d="M90 -25l850 1397h-817v103h979v-41l-729 -1192q54 -5 117.5 -38.5t154.5 -92.5q53 -34 156.5 -102t164.5 -107.5t161 -100t171 -97t168.5 -79.5t179 -66.5t177 -40t186.5 -16.5q166 0 346.5 47.5t278.5 124.5q0 -20 1 -62t1 -63q-93 -67 -277.5 -112t-363.5 -45 q-98 0 -203 19t-195.5 47t-195 75t-183 89t-179.5 103.5t-163.5 103.5t-156.5 105.5t-139 92.5q-59 39 -94.5 60.5t-83.5 41t-87 21.5l-104 -175h-121zM297 2007h121l203 -278l200 278h121l-295 -399h-55z" />
<glyph horiz-adv-x="1105" d="M90 -25l838 1399h-805v101h991l-770 -1285q94 -12 215 -100q183 -138 321.5 -229.5t285.5 -167t284 -111t276 -35.5q157 0 330 47t268 119l5 -123q-91 -65 -268.5 -109t-346.5 -44q-146 0 -293 38t-300 116.5t-299.5 175.5t-327.5 237q-117 87 -207 96l-76 -125h-121z M297 2007h121l203 -278l200 278h121l-295 -399h-55z" />
<glyph horiz-adv-x="1105" d="M90 -25l850 1397h-817v103h979v-41l-758 -1244q94 -12 215 -100q183 -138 321.5 -229.5t285.5 -167t284 -111t276 -35.5q158 0 329.5 47t268.5 119l5 -123q-91 -65 -268.5 -109t-346.5 -44q-146 0 -293 38t-300 116.5t-299.5 175.5t-327.5 237q-117 87 -207 96l-76 -125 h-121zM297 2007h121l203 -278l200 278h121l-295 -399h-55z" />
<glyph horiz-adv-x="1185" d="M82 0l90 188l752 1184h-801v103h964v-41l-843 -1332h866v-102h-1028zM510 1778q0 37 23.5 60.5t60.5 23.5q36 0 60 -24t24 -60q0 -35 -24.5 -58.5t-59.5 -23.5q-37 0 -60.5 23.5t-23.5 58.5z" />
<glyph horiz-adv-x="1056" d="M90 -25l838 1399h-805v101h991l-741 -1233q104 -13 272 -131q54 -34 156.5 -102t164 -107.5t161 -100t170.5 -97t168.5 -79.5t179 -66.5t177 -40t187.5 -16.5q166 0 346.5 47.5t278.5 124.5l2 -125q-93 -67 -277.5 -112t-363.5 -45q-99 0 -203.5 18.5t-196 47.5 t-194 75.5t-183 89.5t-178.5 103.5t-164 104t-156.5 104t-139.5 92.5q-87 58 -148.5 89t-116.5 34l-104 -175h-121zM520 1778q0 37 23.5 60.5t60.5 23.5t60.5 -23.5t23.5 -60.5q0 -35 -23.5 -58.5t-60.5 -23.5t-60.5 23.5t-23.5 58.5z" />
<glyph horiz-adv-x="1056" d="M90 -25l850 1397h-817v103h979v-41l-729 -1192q54 -5 117.5 -38.5t154.5 -92.5q53 -34 156.5 -102t164.5 -107.5t161 -100t171 -97t168.5 -79.5t179 -66.5t177 -40t186.5 -16.5q166 0 346.5 47.5t278.5 124.5q0 -20 1 -62t1 -63q-93 -67 -277.5 -112t-363.5 -45 q-98 0 -203 19t-195.5 47t-195 75t-183 89t-179.5 103.5t-163.5 103.5t-156.5 105.5t-139 92.5q-59 39 -94.5 60.5t-83.5 41t-87 21.5l-104 -175h-121zM520 1778q0 37 23.5 60.5t60.5 23.5t60.5 -23.5t23.5 -60.5q0 -35 -23.5 -58.5t-60.5 -23.5t-60.5 23.5t-23.5 58.5z" />
<glyph horiz-adv-x="1105" d="M90 -25l838 1399h-805v101h991l-770 -1285q94 -12 215 -100q183 -138 321.5 -229.5t285.5 -167t284 -111t276 -35.5q157 0 330 47t268 119l5 -123q-91 -65 -268.5 -109t-346.5 -44q-146 0 -293 38t-300 116.5t-299.5 175.5t-327.5 237q-117 87 -207 96l-76 -125h-121z M520 1778q0 37 23.5 60.5t60.5 23.5t60.5 -23.5t23.5 -60.5q0 -35 -23.5 -58.5t-60.5 -23.5t-60.5 23.5t-23.5 58.5z" />
<glyph horiz-adv-x="1105" d="M90 -25l850 1397h-817v103h979v-41l-758 -1244q94 -12 215 -100q183 -138 321.5 -229.5t285.5 -167t284 -111t276 -35.5q158 0 329.5 47t268.5 119l5 -123q-91 -65 -268.5 -109t-346.5 -44q-146 0 -293 38t-300 116.5t-299.5 175.5t-327.5 237q-117 87 -207 96l-76 -125 h-121zM520 1778q0 37 23.5 60.5t60.5 23.5t60.5 -23.5t23.5 -60.5q0 -35 -23.5 -58.5t-60.5 -23.5t-60.5 23.5t-23.5 58.5z" />
<glyph horiz-adv-x="1304" d="M125 512q0 233 134.5 385t338.5 152q126 0 231.5 -71t151.5 -169h4q-1 4 -2 11t-3 28.5t-1 42.5v133h111v-1024h-111v137q0 21 1.5 41t3.5 30l1 9h-4q-46 -99 -151.5 -170.5t-231.5 -71.5q-203 0 -338 154t-135 383zM240 512q0 -186 100.5 -309t263.5 -123q68 0 132.5 26 t119.5 76.5t88 136t33 193.5t-33 193.5t-88 136t-119.5 76.5t-132.5 26q-164 0 -264 -121t-100 -311z" />
<glyph horiz-adv-x="1306" d="M125 512q0 233 134.5 385t338.5 152q126 0 232.5 -71t150.5 -169h4q-6 35 -6 82l2 133h109v-1024h-109l-2 137q0 21 1.5 41t3.5 30l1 9h-4q-44 -98 -149.5 -170t-231.5 -72q-135 0 -244 70.5t-170 193t-61 273.5zM240 512q0 -186 101 -309t265 -123q68 0 132 26 t118.5 76.5t87.5 136t33 193.5t-33 193.5t-87.5 136t-118.5 76.5t-132 26q-165 0 -265.5 -121t-100.5 -311zM535 1155l206 342h154l-250 -342h-110z" />
<glyph horiz-adv-x="1306" d="M125 512q0 233 134.5 385t338.5 152q126 0 232.5 -71t150.5 -169h4q-6 35 -6 82l2 133h109v-1024h-109l-2 137q0 21 1.5 41t3.5 30l1 9h-4q-44 -98 -149.5 -170t-231.5 -72q-135 0 -244 70.5t-170 193t-61 273.5zM240 512q0 -186 101 -309t265 -123q68 0 132 26 t118.5 76.5t87.5 136t33 193.5t-33 193.5t-87.5 136t-118.5 76.5t-132 26q-165 0 -265.5 -121t-100.5 -311zM338 1468h98q1 -90 43 -139t115 -49t115 49t43 139h98q0 -131 -67.5 -207.5t-188.5 -76.5t-188.5 76.5t-67.5 207.5z" />
<glyph horiz-adv-x="1306" d="M125 512q0 233 134.5 385t338.5 152q126 0 232.5 -71t150.5 -169h4q-6 35 -6 82l2 133h109v-1024h-109l-2 137q0 21 1.5 41t3.5 30l1 9h-4q-44 -98 -149.5 -170t-231.5 -72q-135 0 -244 70.5t-170 193t-61 273.5zM240 512q0 -186 101 -309t265 -123q68 0 132 26 t118.5 76.5t87.5 136t33 193.5t-33 193.5t-87.5 136t-118.5 76.5t-132 26q-165 0 -265.5 -121t-100.5 -311zM332 1155l250 342h57l250 -342h-119l-160 223l-159 -223h-119z" />
<glyph horiz-adv-x="598" d="M100 1155l240 404h158l-291 -404h-107z" />
<glyph horiz-adv-x="557" d="M111 1149l141 231h141l-172 -231h-110z" />
<glyph horiz-adv-x="1306" d="M125 512q0 233 134.5 385t338.5 152q126 0 232.5 -71t150.5 -169h4q-6 35 -6 82l2 133h109v-1024h-109l-2 137q0 21 1.5 41t3.5 30l1 9h-4q-44 -98 -149.5 -170t-231.5 -72q-135 0 -244 70.5t-170 193t-61 273.5zM240 512q0 -186 101 -309t265 -123q68 0 132 26 t118.5 76.5t87.5 136t33 193.5t-33 193.5t-87.5 136t-118.5 76.5t-132 26q-165 0 -265.5 -121t-100.5 -311zM344 1323q0 37 23.5 60.5t60.5 23.5t60.5 -23.5t23.5 -60.5q0 -35 -23.5 -58.5t-60.5 -23.5t-60.5 23.5t-23.5 58.5zM690 1323q0 37 23.5 60.5t60.5 23.5 t60.5 -23.5t23.5 -60.5q0 -35 -23.5 -58.5t-60.5 -23.5t-60.5 23.5t-23.5 58.5z" />
<glyph horiz-adv-x="1306" d="M125 512q0 233 134.5 385t338.5 152q126 0 232.5 -71t150.5 -169h4q-6 35 -6 82l2 133h109v-1024h-109l-2 137q0 21 1.5 41t3.5 30l1 9h-4q-44 -98 -149.5 -170t-231.5 -72q-135 0 -244 70.5t-170 193t-61 273.5zM240 512q0 -186 101 -309t265 -123q68 0 132 26 t118.5 76.5t87.5 136t33 193.5t-33 193.5t-87.5 136t-118.5 76.5t-132 26q-165 0 -265.5 -121t-100.5 -311zM317 1497h154l205 -342h-109z" />
<glyph horiz-adv-x="1306" d="M125 512q0 233 134.5 385t338.5 152q126 0 232.5 -71t150.5 -169h4q-6 35 -6 82l2 133h109v-1024h-109l-2 137q0 21 1.5 41t3.5 30l1 9h-4q-44 -98 -149.5 -170t-231.5 -72q-135 0 -244 70.5t-170 193t-61 273.5zM240 512q0 -186 101 -309t265 -123q68 0 132 26 t118.5 76.5t87.5 136t33 193.5t-33 193.5t-87.5 136t-118.5 76.5t-132 26q-165 0 -265.5 -121t-100.5 -311zM301 1274v100h578v-100h-578z" />
<glyph horiz-adv-x="1503" d="M70 362q0 63 21.5 120t52.5 98t79.5 81t87 64.5t90.5 52.5q-105 108 -151.5 192.5t-46.5 198.5q0 135 104 232.5t252 97.5q147 0 251.5 -95.5t104.5 -229.5q0 -64 -24 -123.5t-59.5 -103t-85 -83.5t-91.5 -65t-88 -47l424 -435q115 191 94 447h107q27 -300 -123 -522 q79 -74 137 -110.5t93.5 -44t91.5 -7.5q25 0 75 10v-96q-43 -19 -102 -19q-82 0 -165.5 38.5t-199.5 146.5q-176 -185 -448 -185q-211 0 -346 110t-135 277zM184 373q0 -128 104 -211.5t263 -83.5q111 0 207 41t166 117l-455 471q-285 -137 -285 -334zM315 1169 q0 -94 42 -167t139 -177q309 145 309 344q0 94 -72.5 161t-173.5 67t-172.5 -67t-71.5 -161z" />
<glyph horiz-adv-x="1306" d="M125 512q0 233 134.5 385t338.5 152q126 0 232.5 -71t150.5 -169h4q-6 35 -6 82l2 133h109v-1024q-216 -129 -216 -266q0 -59 36 -89t94 -30q47 0 122 29v-93q-76 -26 -135 -26q-91 0 -155 50t-64 140q0 161 209 293l-2 129q0 21 1.5 41t3.5 30l1 9h-4 q-44 -98 -149.5 -170t-231.5 -72q-135 0 -244 70.5t-170 193t-61 273.5zM240 512q0 -186 101 -309t265 -123q68 0 132 26t118.5 76.5t87.5 136t33 193.5t-33 193.5t-87.5 136t-118.5 76.5t-132 26q-165 0 -265.5 -121t-100.5 -311z" />
<glyph horiz-adv-x="1306" d="M125 512q0 233 134.5 385t338.5 152q126 0 232.5 -71t150.5 -169h4q-6 35 -6 82l2 133h109v-1024h-109l-2 137q0 21 1.5 41t3.5 30l1 9h-4q-44 -98 -149.5 -170t-231.5 -72q-135 0 -244 70.5t-170 193t-61 273.5zM240 512q0 -186 101 -309t265 -123q68 0 132 26 t118.5 76.5t87.5 136t33 193.5t-33 193.5t-87.5 136t-118.5 76.5t-132 26q-165 0 -265.5 -121t-100.5 -311zM395 1323q0 80 55 132t142 52q86 0 140 -52t54 -132q0 -79 -54 -130.5t-140 -51.5q-87 0 -142 51.5t-55 130.5zM487 1323q0 -41 28.5 -68.5t76.5 -27.5 q46 0 74 27.5t28 68.5q0 44 -28 72t-74 28q-48 0 -76.5 -28t-28.5 -72z" />
<glyph horiz-adv-x="1306" d="M125 512q0 233 134.5 385t338.5 152q126 0 232.5 -71t150.5 -169h4q-6 35 -6 82l2 133h109v-1024h-109l-2 137q0 21 1.5 41t3.5 30l1 9h-4q-44 -98 -149.5 -170t-231.5 -72q-135 0 -244 70.5t-170 193t-61 273.5zM240 512q0 -186 101 -309t265 -123q68 0 132 26 t118.5 76.5t87.5 136t33 193.5t-33 193.5t-87.5 136t-118.5 76.5t-132 26q-165 0 -265.5 -121t-100.5 -311zM406 1307q0 78 54 130t140 52q85 0 140 -52.5t55 -129.5q0 -80 -54.5 -132.5t-140.5 -52.5q-87 0 -140.5 52.5t-53.5 132.5zM498 1307q0 -43 27 -71t75 -28 q46 0 74 28.5t28 70.5q0 41 -28 68.5t-74 27.5q-48 0 -75 -27.5t-27 -68.5zM526 1552l142 232h139l-170 -232h-111z" />
<glyph horiz-adv-x="1009" d="M102 827l383 672h41l381 -670h-127l-274 500l-279 -502h-125z" />
<glyph horiz-adv-x="1306" d="M125 512q0 233 134.5 385t338.5 152q126 0 232.5 -71t150.5 -169h4q-6 35 -6 82l2 133h109v-1024h-109l-2 137q0 21 1.5 41t3.5 30l1 9h-4q-44 -98 -149.5 -170t-231.5 -72q-135 0 -244 70.5t-170 193t-61 273.5zM240 512q0 -186 101 -309t265 -123q68 0 132 26 t118.5 76.5t87.5 136t33 193.5t-33 193.5t-87.5 136t-118.5 76.5t-132 26q-165 0 -265.5 -121t-100.5 -311zM299 1225v114q23 33 67 56.5t99 23.5q56 0 149 -44t131 -44q96 0 164 94v-114q-23 -33 -67 -56.5t-99 -23.5q-58 0 -151 44t-131 44q-45 0 -88 -25.5t-74 -68.5z " />
<glyph horiz-adv-x="798" d="M137 1475h99q1 -95 44.5 -147t118.5 -52t119 52t45 147h99q0 -135 -69.5 -215t-193.5 -80t-193 79.5t-69 215.5z" />
<glyph horiz-adv-x="845" d="M100 1556h121l203 -278l201 278h120l-294 -399h-56z" />
<glyph horiz-adv-x="845" d="M100 1157l295 399h56l294 -399h-120l-201 279l-203 -279h-121z" />
<glyph horiz-adv-x="712" d="M100 1327q0 37 23.5 60.5t60.5 23.5q36 0 60 -24t24 -60q0 -35 -24.5 -58.5t-59.5 -23.5q-37 0 -60.5 23.5t-23.5 58.5zM444 1327q0 36 24 60t60 24q37 0 60.5 -23.5t23.5 -60.5q0 -35 -23.5 -58.5t-60.5 -23.5q-35 0 -59.5 23.5t-24.5 58.5z" />
<glyph horiz-adv-x="366" d="M100 1327q0 37 23.5 60.5t60.5 23.5q36 0 60 -24t24 -60q0 -35 -24.5 -58.5t-59.5 -23.5q-37 0 -60.5 23.5t-23.5 58.5z" />
<glyph horiz-adv-x="669" d="M78 928v96h166v131q0 160 89 252t247 92q68 0 116 -12v-105q-52 13 -106 13q-116 0 -176 -61.5t-60 -182.5v-127h293v-96h-291v-1379h-114v1379h-164z" />
<glyph horiz-adv-x="2310" d="M205 944v72h295v-72h-113v-301h-80v301h-102zM238 430h12l37 -106l39 102h8l39 -102l37 106h12l-43 -119h-12l-37 101l-39 -101h-10zM428 430h8l39 -106l37 102h10l39 -102l35 106h12l-43 -119h-10l-39 101l-35 -101h-10zM453 643v252h82v-252h-82zM598 547v348h66l8 -23 l8 7q6 8 21.5 15t35.5 7q50 0 77.5 -34.5t27.5 -94.5t-33 -96.5t-88 -36.5q-24 0 -41 10v-102h-82zM614 430h13l37 -106l36 102h11l37 -102l38 106h11l-43 -119h-13l-36 101l-37 -101h-11zM680 709q9 -9 31 -9q47 0 47 68q0 70 -45 70q-20 0 -33 -13v-116zM801 317q0 9 10 9 q4 0 4 -9q0 -10 -6 -10q-8 0 -8 10zM836 424v6h90v-6h-39v-113h-10v113h-41zM879 768q0 61 34 97t93 36q61 0 95 -35t34 -94q0 -61 -35 -97t-96 -36q-59 0 -92 35t-33 94zM948 311v119h13v-119h-13zM961 772q0 -76 45 -76t45 72q0 76 -45 76t-45 -72zM999 311v119h37 q43 0 43 -35q0 -17 -13 -27t-32 -10h-24v-47h-11zM1010 367h26q33 0 33 26q0 31 -35 31h-24v-57zM1081 944v72h285v-72h-102v-301h-80v301h-103zM1096 371q0 28 15.5 44.5t43.5 16.5q26 0 41.5 -16.5t15.5 -44.5t-15.5 -46t-43.5 -18q-24 0 -40.5 18.5t-16.5 45.5zM1108 371 q0 -24 12 -39t35 -15q21 0 34 14t13 38q0 55 -49 55q-45 0 -45 -53zM1223 424v6h90v-6h-39v-113h-10v113h-41zM1300 895h91l51 -172h2l41 172h88l-80 -256q-20 -55 -49 -78.5t-76 -23.5q-33 0 -61 14l10 57q1 0 7.5 -1.5t17 -3t20.5 -1.5q32 0 37 31l-8 26zM1319 430h10 l41 -65l41 65h10l-47 -74v-45h-10v45zM1444 311v119h37q43 0 43 -35q0 -17 -12 -27t-31 -10h-27v-47h-10zM1454 367h27q30 0 30 26q0 31 -30 31h-27v-57zM1548 311v119h72v-6h-61v-49h59v-8h-59v-48h63v-8h-74zM1597 547v348h66l8 -23l6 7q22 22 62 22q47 0 74.5 -35 t27.5 -94q0 -60 -33 -96.5t-88 -36.5q-23 0 -43 10v-102h-80zM1651 317q0 9 8 9t8 -9q0 -10 -8 -10t-8 10zM1677 709q18 -9 33 -9q23 0 35 19t12 49q0 70 -47 70q-16 0 -33 -13v-116zM1694 371q0 28 16 44.5t45 16.5q18 0 27 -6q0 -1 -1 -3t-1 -3q-12 4 -27 4q-47 0 -47 -53 q0 -54 53 -54q15 0 25 5l4 -9q-24 -6 -31 -6q-28 0 -45.5 18.5t-17.5 45.5zM1804 371q0 28 16 44.5t44 16.5q25 0 42 -17t17 -44t-17 -45.5t-44 -18.5q-26 0 -42 18.5t-16 45.5zM1815 371q0 -24 13 -39t36 -15q20 0 33.5 14t13.5 38q0 26 -13.5 40.5t-35.5 14.5 q-21 0 -34 -14t-13 -39zM1876 768q0 61 34 97t95 36q46 0 73 -26.5t27 -67.5q0 -29 -8 -53h-139q6 -49 55 -49q33 0 70 14l16 -60q-35 -20 -94 -20q-61 0 -95 35t-34 94zM1952 311v119h14l51 -90l47 90h17v-119h-10v109l-50 -92h-8l-49 92v-109h-12zM1958 797h70 q5 20 -3.5 33.5t-25.5 13.5q-20 0 -29 -11.5t-12 -35.5z" />
<glyph horiz-adv-x="1103" d="M59 367v41l512 1067h125l-479 -1002h520v426h113v-426h217v-106h-217v-367h-113v367h-678z" />
<glyph horiz-adv-x="692" d="M51 879v26l316 594h110l-287 -532h238v223h96v-223h129v-88h-129v-189h-98v189h-375z" />
<glyph horiz-adv-x="1304" d="M125 512q0 232 134.5 384.5t338.5 152.5q126 0 231.5 -71t151.5 -169h4q-6 35 -6 82v133h111v-1055q0 -214 -133 -329t-353 -115q-212 0 -368 94v113q87 -51 171.5 -77t196.5 -26q167 0 269 91t102 251v158q0 22 1.5 43t3.5 31l1 10h-4q-44 -97 -148.5 -167.5 t-230.5 -70.5q-134 0 -242.5 70t-169.5 192.5t-61 274.5zM240 512q0 -186 100.5 -309t263.5 -123q68 0 132.5 26t119.5 76.5t88 136t33 193.5t-33 193.5t-88 136t-119.5 76.5t-132.5 26q-164 0 -264 -121.5t-100 -310.5z" />
<glyph horiz-adv-x="1306" d="M125 512q0 232 135 384.5t340 152.5q126 0 231.5 -71t149.5 -169h4q-6 35 -6 82l2 133h109v-1055q0 -214 -132 -329t-352 -115q-212 0 -368 94v113q87 -51 170.5 -77t195.5 -26q167 0 270 91t103 251v158q0 22 1.5 43t3.5 31l1 10h-4q-46 -97 -151 -167.5t-230 -70.5 q-134 0 -242.5 70t-169.5 192.5t-61 274.5zM240 512q0 -186 101 -309t265 -123q68 0 132 26t118.5 76.5t87.5 136t33 193.5t-33 193.5t-87.5 136t-118.5 76.5t-132 26q-165 0 -265.5 -121.5t-100.5 -310.5zM342 1468h98q1 -90 43 -139t113 -49q73 0 115 49t43 139h98 q2 -131 -65.5 -207.5t-190.5 -76.5q-122 0 -189 76.5t-65 207.5z" />
<glyph horiz-adv-x="1306" d="M125 512q0 232 135 384.5t340 152.5q126 0 231.5 -71t149.5 -169h4q-6 35 -6 82l2 133h109v-1055q0 -214 -132 -329t-352 -115q-212 0 -368 94v113q87 -51 170.5 -77t195.5 -26q167 0 270 91t103 251v158q0 22 1.5 43t3.5 31l1 10h-4q-46 -97 -151 -167.5t-230 -70.5 q-134 0 -242.5 70t-169.5 192.5t-61 274.5zM240 512q0 -186 101 -309t265 -123q68 0 132 26t118.5 76.5t87.5 136t33 193.5t-33 193.5t-87.5 136t-118.5 76.5t-132 26q-165 0 -265.5 -121.5t-100.5 -310.5zM326 1155l249 342h58l250 -342h-119l-160 223l-160 -223h-118z" />
<glyph horiz-adv-x="1306" d="M125 512q0 232 135 384.5t340 152.5q126 0 231.5 -71t149.5 -169h4q-6 35 -6 82l2 133h109v-1055q0 -214 -132 -329t-352 -115q-212 0 -368 94v113q87 -51 170.5 -77t195.5 -26q167 0 270 91t103 251v158q0 22 1.5 43t3.5 31l1 10h-4q-46 -97 -151 -167.5t-230 -70.5 q-134 0 -242.5 70t-169.5 192.5t-61 274.5zM240 512q0 -186 101 -309t265 -123q68 0 132 26t118.5 76.5t87.5 136t33 193.5t-33 193.5t-87.5 136t-118.5 76.5t-132 26q-165 0 -265.5 -121.5t-100.5 -310.5zM520 1153l135 348h99l-99 -348h-135z" />
<glyph horiz-adv-x="1306" d="M125 512q0 232 135 384.5t340 152.5q126 0 231.5 -71t149.5 -169h4q-6 35 -6 82l2 133h109v-1055q0 -214 -132 -329t-352 -115q-212 0 -368 94v113q87 -51 170.5 -77t195.5 -26q167 0 270 91t103 251v158q0 22 1.5 43t3.5 31l1 10h-4q-46 -97 -151 -167.5t-230 -70.5 q-134 0 -242.5 70t-169.5 192.5t-61 274.5zM240 512q0 -186 101 -309t265 -123q68 0 132 26t118.5 76.5t87.5 136t33 193.5t-33 193.5t-87.5 136t-118.5 76.5t-132 26q-165 0 -265.5 -121.5t-100.5 -310.5zM516 1323q0 36 24 60t60 24q37 0 60.5 -23.5t23.5 -60.5 q0 -35 -23.5 -58.5t-60.5 -23.5q-35 0 -59.5 23.5t-24.5 58.5z" />
<glyph horiz-adv-x="1275" d="M215 -451v1514q0 121 49 218.5t150 157.5t239 60q160 0 259.5 -82t99.5 -215q0 -56 -20.5 -105.5t-53 -85.5t-71.5 -68.5t-78.5 -60t-72 -53.5t-53 -55.5t-20.5 -60.5q0 -65 45.5 -95.5t179.5 -74.5q169 -57 245.5 -124.5t76.5 -178.5q0 -127 -97 -196t-251 -69 q-185 0 -324 68v113q166 -78 318 -78q102 0 171.5 42t69.5 120q0 73 -59.5 118.5t-198.5 90.5q-48 16 -80.5 28t-68.5 29.5t-58.5 36t-42 43t-28.5 56t-9 69.5q0 44 20 83.5t52.5 69.5t71.5 58.5t78.5 57.5t72 60t52.5 71.5t20 86.5q0 89 -68 143t-180 54 q-146 0 -234.5 -92.5t-88.5 -243.5v-1510h-113z" />
<glyph horiz-adv-x="598" d="M100 1559h158l240 -404h-107z" />
<glyph horiz-adv-x="854" d="M100 1155l201 346h148l-240 -346h-109zM395 1155l211 346h148l-250 -346h-109z" />
<glyph horiz-adv-x="542" d="M188 1323q0 37 23.5 60.5t60.5 23.5q36 0 60 -24t24 -60q0 -35 -24.5 -58.5t-59.5 -23.5q-37 0 -60.5 23.5t-23.5 58.5zM215 0v1024h113v-1024h-113z" />
<glyph horiz-adv-x="542" d="M188 1323q0 37 23.5 60.5t60.5 23.5q36 0 60 -24t24 -60q0 -35 -24.5 -58.5t-59.5 -23.5q-37 0 -60.5 23.5t-23.5 58.5zM215 -451v1475h113v-1475h-113z" />
<glyph horiz-adv-x="514" d="M-23 1155l252 342h56l250 -342h-119l-160 223l-158 -223h-121zM201 -451v1475h112v-1475h-112z" />
<glyph horiz-adv-x="1085" d="M215 0v1475h113v-1475h-113zM391 530l473 494h146l-480 -494l480 -530h-146z" />
<glyph horiz-adv-x="1030" d="M215 0v1475h113v-1475h-113zM391 530l473 494h146l-490 -504q79 -148 161.5 -271t193 -242t228.5 -200.5t268 -131.5t312 -50q170 0 326 56v-105q-48 -27 -134.5 -43t-186.5 -16q-183 0 -348.5 53t-297 142.5t-252.5 222.5t-214.5 275.5t-184.5 319.5z" />
<glyph horiz-adv-x="1107" d="M215 0v1475h113v-1024l526 573h143l-405 -442l242 -394q36 -63 67 -84.5t80 -21.5q47 0 96 14v-102q-51 -19 -106 -19q-85 0 -135.5 36t-108.5 134l-217 361l-182 -199v-307h-113z" />
<glyph horiz-adv-x="1122" d="M215 0v1475h113v-1026l544 575h144l-389 -414q57 -116 112.5 -215t125.5 -202t141.5 -184.5t159.5 -155t181 -122.5t203.5 -77.5t229.5 -28.5q165 0 321 56v-105q-48 -27 -134.5 -43t-186.5 -16q-177 0 -336.5 55.5t-284 146.5t-240 227t-202 276.5t-172.5 316.5 l-217 -232v-307h-113z" />
<glyph horiz-adv-x="1085" d="M215 0v1475h113v-1475h-113zM391 530l473 494h146l-480 -494l480 -530h-146zM408 -475l98 346h135l-135 -346h-98z" />
<glyph horiz-adv-x="1107" d="M215 0v1475h113v-1024l526 573h143l-405 -442l242 -394q36 -63 67 -84.5t80 -21.5q47 0 96 14v-102q-51 -19 -106 -19q-85 0 -135.5 36t-108.5 134l-217 361l-182 -199v-307h-113zM426 -475l98 346h135l-135 -346h-98z" />
<glyph horiz-adv-x="1122" d="M215 0v1475h113v-1026l544 575h144l-389 -414q57 -116 112.5 -215t125.5 -202t141.5 -184.5t159.5 -155t181 -122.5t203.5 -77.5t229.5 -28.5q165 0 321 56v-105q-48 -27 -134.5 -43t-186.5 -16q-177 0 -336.5 55.5t-284 146.5t-240 227t-202 276.5t-172.5 316.5 l-217 -232v-307h-113zM418 -475l100 346h135l-135 -346h-100z" />
<glyph horiz-adv-x="542" d="M215 0v1475h113v-1475h-113z" />
<glyph horiz-adv-x="542" d="M211 1575l207 340h153l-249 -340h-111zM215 0v1475h113v-1475h-113z" />
<glyph horiz-adv-x="735" d="M215 0v1475h113v-1475h-113zM573 903v567h111v-567h-111z" />
<glyph horiz-adv-x="542" d="M104 -475l101 346h135l-135 -346h-101zM215 0v1475h113v-1475h-113z" />
<glyph horiz-adv-x="741" d="M215 0v1475h113v-1475h-113zM551 725q0 35 23.5 58.5t60.5 23.5q35 0 59.5 -23.5t24.5 -58.5q0 -36 -24 -60t-60 -24q-37 0 -60.5 23.5t-23.5 60.5z" />
<glyph horiz-adv-x="614" d="M57 541v118l193 127v689h115v-613l192 129v-119l-192 -129v-743h-115v668z" />
<glyph horiz-adv-x="782" d="M100 1278v100h582v-100h-582z" />
<glyph horiz-adv-x="1796" d="M156 690v90h204v602h-194v93h297v-695h199v-90h-506zM301 0l1051 1475h110l-1050 -1475h-111zM1071 0q68 85 157 179.5t140.5 147t89 112t37.5 108.5q0 79 -50 123.5t-136 44.5q-117 0 -215 -68v98q97 64 219 64q129 0 205.5 -70t76.5 -188q0 -37 -10.5 -73.5t-38 -78.5 t-49 -71.5t-70.5 -79.5t-74 -74t-87 -82h379v-92h-574z" />
<glyph horiz-adv-x="1716" d="M156 690v90h204v602h-194v93h297v-695h199v-90h-506zM301 0l1051 1475h110l-1050 -1475h-111zM961 188v27l313 594h110l-286 -533h237v224h97v-224h129v-88h-129v-188h-99v188h-372z" />
<glyph horiz-adv-x="591" d="M100 1327q0 79 55 131.5t140 52.5q87 0 142 -52.5t55 -131.5t-55 -131.5t-142 -52.5q-85 0 -140 52.5t-55 131.5zM193 1327q0 -42 28 -70t74 -28q48 0 76 27.5t28 70.5t-28 70.5t-76 27.5q-46 0 -74 -28t-28 -70z" />
<glyph horiz-adv-x="589" d="M100 1307q0 78 54.5 130t140.5 52q85 0 139.5 -52t54.5 -130q0 -80 -54 -132.5t-140 -52.5q-87 0 -141 52.5t-54 132.5zM193 1307q0 -43 27 -71t75 -28q46 0 73 28t27 71q0 41 -27 68.5t-73 27.5q-48 0 -75 -27.5t-27 -68.5z" />
<glyph horiz-adv-x="589" d="M100 1307q0 77 55 129.5t140 52.5t139.5 -52t54.5 -130q0 -80 -54 -132.5t-140 -52.5t-140.5 52.5t-54.5 132.5zM193 1307q0 -43 27 -71t75 -28q46 0 73 28t27 71q0 41 -27 68.5t-73 27.5q-48 0 -75 -27.5t-27 -68.5z" />
<glyph horiz-adv-x="987" d="M25 1368v107h897v-39l-646 -1436h-126l618 1368h-743z" />
<glyph horiz-adv-x="677" d="M55 928v96h213v348h113v-348h250v-96h-250v-928h-113v928h-213z" />
<glyph horiz-adv-x="677" d="M55 928v96h213v348h113v-348h250v-96h-250v-324h242v-94h-242v-510h-113v510h-202v94h202v324h-213z" />
<glyph horiz-adv-x="696" d="M55 928v96h213v348h113v-348h250v-96h-250v-928h-113v928h-213zM530 1202v520h111v-520h-111z" />
<glyph horiz-adv-x="677" d="M55 928v96h213v348h113v-348h250v-96h-250v-928h-113v928h-213zM162 -475l98 346h135l-135 -346h-98z" />
<glyph horiz-adv-x="1738" d="M156 711v96q100 -49 217 -49q88 0 138 38t50 97q0 75 -65 118.5t-185 43.5h-30v84h41q102 0 166.5 41.5t64.5 103.5q0 58 -48.5 90.5t-133.5 32.5q-103 0 -203 -49v94q92 47 207 47q127 0 203.5 -58.5t76.5 -154.5q0 -66 -46 -115t-122 -71q82 -24 130.5 -78t48.5 -131 q0 -98 -79.5 -161.5t-211.5 -63.5q-127 0 -219 45zM319 0l1051 1475h111l-1051 -1475h-111zM983 188v27l313 594h111l-287 -533h238v224h98v-224h129v-88h-129v-188h-98v188h-375z" />
<glyph horiz-adv-x="811" d="M100 1227v114q23 33 67 56.5t99 23.5q56 0 150.5 -44t132.5 -44q45 0 88 25.5t74 68.5v-114q-23 -33 -67 -56.5t-97 -23.5q-46 0 -100 22t-102 44t-81 22q-96 0 -164 -94z" />
<glyph horiz-adv-x="1046" d="M39 0v41q336 357 430 466q193 224 251 368q38 94 38 186q0 146 -92 237t-240 91q-179 0 -328 -115v119q150 106 334 106q198 0 323.5 -122.5t125.5 -315.5q0 -81 -31.5 -168.5t-69 -155.5t-128.5 -178.5t-147.5 -173t-187.5 -201.5q-48 -52 -73 -78h702v-106h-907z" />
<glyph horiz-adv-x="681" d="M39 690q68 85 157 179.5t140.5 147t89 112t37.5 108.5q0 79 -50 123.5t-137 44.5q-117 0 -215 -68v99q95 63 220 63q129 0 206.5 -70t77.5 -188q0 -32 -10.5 -66t-23.5 -61.5t-42.5 -66t-49.5 -62.5t-64.5 -68t-66.5 -65t-75 -70h379v-92h-573z" />
<glyph horiz-adv-x="1226" d="M184 459v565h111v-559q0 -387 317 -387q318 0 318 387v559h114v-565q0 -235 -114.5 -359.5t-317.5 -124.5q-201 0 -314.5 124t-113.5 360z" />
<glyph horiz-adv-x="1226" d="M184 459v565h111v-559q0 -387 317 -387q318 0 318 387v559h114v-565q0 -235 -114.5 -359.5t-317.5 -124.5q-201 0 -314.5 124t-113.5 360zM532 1155l205 342h154l-248 -342h-111z" />
<glyph horiz-adv-x="1226" d="M184 459v565h111v-559q0 -387 317 -387q318 0 318 387v559h114v-565q0 -235 -114.5 -359.5t-317.5 -124.5q-201 0 -314.5 124t-113.5 360zM354 1468h99q1 -90 42.5 -139t112.5 -49q73 0 115 49t43 139h98q2 -131 -65.5 -207.5t-190.5 -76.5q-122 0 -189 76.5t-65 207.5z " />
<glyph horiz-adv-x="1226" d="M184 459v565h111v-559q0 -387 317 -387q318 0 318 387v559h114v-565q0 -235 -114.5 -359.5t-317.5 -124.5q-201 0 -314.5 124t-113.5 360zM332 1155l250 342h57l250 -342h-121l-158 223l-159 -223h-119z" />
<glyph horiz-adv-x="1226" d="M184 459v565h111v-559q0 -387 317 -387q318 0 318 387v559h114v-565q0 -235 -114.5 -359.5t-317.5 -124.5q-201 0 -314.5 124t-113.5 360zM352 1323q0 37 23.5 60.5t60.5 23.5t60.5 -23.5t23.5 -60.5q0 -35 -23.5 -58.5t-60.5 -23.5t-60.5 23.5t-23.5 58.5zM698 1323 q0 37 23.5 60.5t60.5 23.5t60.5 -23.5t23.5 -60.5q0 -35 -23.5 -58.5t-60.5 -23.5t-60.5 23.5t-23.5 58.5z" />
<glyph horiz-adv-x="1226" d="M184 459v565h111v-559q0 -387 317 -387q318 0 318 387v559h114v-565q0 -235 -114.5 -359.5t-317.5 -124.5q-201 0 -314.5 124t-113.5 360zM342 1497h154l206 -342h-110z" />
<glyph horiz-adv-x="1241" d="M184 459v565h111v-559q0 -387 317 -387q318 0 318 387v559h114v-565q0 -235 -114.5 -359.5t-317.5 -124.5q-201 0 -314.5 124t-113.5 360zM367 1155l202 342h146l-240 -342h-108zM662 1155l210 342h150l-252 -342h-108z" />
<glyph horiz-adv-x="1226" d="M184 459v565h111v-559q0 -387 317 -387q318 0 318 387v559h114v-565q0 -235 -114.5 -359.5t-317.5 -124.5q-201 0 -314.5 124t-113.5 360zM319 1274v100h580v-100h-580z" />
<glyph horiz-adv-x="677" d="M55 928v96h213v348h113v-348h250v-96h-250v-928h-23l-55 -131q46 0 90 -16t76.5 -54.5t32.5 -91.5q0 -92 -67.5 -137t-166.5 -45q-25 0 -50 2t-39 4.5t-15 3.5v90l6 -1q5 -1 14.5 -2.5t20.5 -3t25.5 -2.5t27.5 -1q55 0 98 23.5t43 72.5q0 41 -36 65.5t-82 30.5t-95 0 l82 193v928h-213z" />
<glyph horiz-adv-x="1226" d="M184 459v565h111v-559q0 -387 317 -387q318 0 318 387v559h114v-565q0 -185 -71 -302t-201 -157q-213 -127 -213 -266q0 -59 35.5 -89t93.5 -30q48 0 123 29v-93q-76 -26 -135 -26q-91 0 -155 50t-64 140q0 137 159 260h-4q-201 0 -314.5 124t-113.5 360z" />
<glyph horiz-adv-x="1226" d="M184 459v565h111v-559q0 -387 317 -387q318 0 318 387v559h114v-565q0 -235 -114.5 -359.5t-317.5 -124.5q-201 0 -314.5 124t-113.5 360zM414 1323q0 80 54.5 132t141.5 52q86 0 140.5 -52t54.5 -132q0 -79 -54.5 -130.5t-140.5 -51.5q-87 0 -141.5 51.5t-54.5 130.5z M508 1323q0 -41 27 -68.5t75 -27.5q46 0 74.5 27.5t28.5 68.5q0 43 -28.5 71.5t-74.5 28.5q-48 0 -75 -28t-27 -72z" />
<glyph horiz-adv-x="1226" d="M184 459v565h111v-559q0 -387 317 -387q318 0 318 387v559h114v-565q0 -235 -114.5 -359.5t-317.5 -124.5q-201 0 -314.5 124t-113.5 360zM305 1225v114q23 33 67 56.5t99 23.5q56 0 149.5 -44t131.5 -44q95 0 163 94v-114q-23 -33 -67 -56.5t-98 -23.5q-56 0 -150.5 44 t-132.5 44q-45 0 -88 -25.5t-74 -68.5z" />
<glyph horiz-adv-x="1001" d="M14 1024h125q208 -482 361 -848q34 80 162.5 384.5t197.5 463.5h127l-461 -1049h-51z" />
<glyph horiz-adv-x="1579" d="M18 1024h123l320 -831q8 21 307 817h45l307 -817q5 14 320 831h121l-414 -1049h-51q-108 274 -305 801q-97 -259 -306 -801h-51z" />
<glyph horiz-adv-x="1579" d="M18 1024h123l320 -831q8 21 307 817h45l307 -817q5 14 320 831h121l-414 -1049h-51q-108 274 -305 801q-97 -259 -306 -801h-51zM719 1155l205 342h155l-250 -342h-110z" />
<glyph horiz-adv-x="1579" d="M18 1024h123l320 -831q8 21 307 817h45l307 -817q5 14 320 831h121l-414 -1049h-51q-108 274 -305 801q-97 -259 -306 -801h-51zM508 1155l252 342h55l250 -342h-119l-160 223l-157 -223h-121z" />
<glyph horiz-adv-x="1579" d="M18 1024h123l320 -831q8 21 307 817h45l307 -817q5 14 320 831h121l-414 -1049h-51q-108 274 -305 801q-97 -259 -306 -801h-51zM532 1323q0 37 23.5 60.5t60.5 23.5q36 0 60 -24t24 -60q0 -35 -24.5 -58.5t-59.5 -23.5q-37 0 -60.5 23.5t-23.5 58.5zM879 1323 q0 37 23.5 60.5t58.5 23.5q37 0 60 -23.5t23 -60.5q0 -35 -23 -58.5t-60 -23.5q-35 0 -58.5 23.5t-23.5 58.5z" />
<glyph horiz-adv-x="1579" d="M18 1024h123l320 -831q8 21 307 817h45l307 -817q5 14 320 831h121l-414 -1049h-51q-108 274 -305 801q-97 -259 -306 -801h-51zM496 1497h153l205 -342h-109z" />
<glyph horiz-adv-x="1046" d="M74 0l354 483l-332 541h131l273 -451l321 451h135l-395 -535q69 -108 130 -196t134.5 -180t143.5 -162t153 -133t166 -104t179.5 -65t197.5 -24q189 0 328 56v-107q-137 -57 -328 -57q-109 0 -212 23.5t-193 65t-178 105t-162.5 134.5t-152 163.5t-142.5 183.5t-136 201 l-282 -393h-133z" />
<glyph horiz-adv-x="1021" d="M16 1024h127l199 -471l168 -403l168 403l199 471h129l-408 -950l-221 -525h-117l193 469z" />
<glyph horiz-adv-x="1038" d="M16 1024h125l211 -481l166 -383q24 55 80.5 185t85.5 198l211 481h127l-447 -997v-478h-112v478z" />
<glyph horiz-adv-x="1021" d="M16 1024h127l199 -471l168 -403l168 403l199 471h129l-408 -950l-221 -525h-117l193 469zM436 1155l207 342h154l-250 -342h-111z" />
<glyph horiz-adv-x="1021" d="M16 1024h127l199 -471l168 -403l168 403l199 471h129l-408 -950l-221 -525h-117l193 469zM231 1155l252 342h56l252 -342h-121l-158 223l-160 -223h-121z" />
<glyph horiz-adv-x="1021" d="M16 1024h127l199 -471l168 -403l168 403l199 471h129l-408 -950l-221 -525h-117l193 469zM254 1323q0 37 23.5 60.5t60.5 23.5q36 0 60 -24t24 -60q0 -35 -24.5 -58.5t-59.5 -23.5q-37 0 -60.5 23.5t-23.5 58.5zM600 1323q0 37 23.5 60.5t58.5 23.5q37 0 60.5 -23.5 t23.5 -60.5q0 -35 -23.5 -58.5t-60.5 -23.5q-35 0 -58.5 23.5t-23.5 58.5z" />
<glyph horiz-adv-x="1021" d="M16 1024h127l199 -471l168 -403l168 403l199 471h129l-408 -950l-221 -525h-117l193 469zM225 1497h154l207 -342h-111z" />
<glyph horiz-adv-x="970" d="M84 0v37l631 889h-594v98h766v-37l-635 -887h659v-100h-827z" />
<glyph horiz-adv-x="974" d="M76 0l635 926h-592v98h782l-565 -819q64 0 174 -84q233 -193 428 -304.5t351 -152.5t329 -41q129 0 261 36t206 83v-113q-67 -44 -193 -78t-268 -34q-282 0 -564 119t-603 393q-40 33 -61 48.5t-57 30.5t-65 9l-79 -117h-119z" />
<glyph horiz-adv-x="972" d="M76 0l643 926h-600v98h772v-39l-551 -780q72 -3 174 -84q177 -146 327 -244t283 -153.5t249 -78t245 -22.5t261 36t206 83v-113q-67 -44 -193 -78t-268 -34q-281 0 -561.5 118.5t-603.5 393.5q-37 32 -59 48.5t-57 31t-64 8.5l-84 -117h-119z" />
<glyph horiz-adv-x="970" d="M84 0v37l631 889h-594v98h766v-37l-635 -887h659v-100h-827zM424 1155l207 342h153l-249 -342h-111z" />
<glyph horiz-adv-x="974" d="M76 0l635 926h-592v98h782l-565 -819q64 0 174 -84q233 -193 428 -304.5t351 -152.5t329 -41q129 0 261 36t206 83v-113q-67 -44 -193 -78t-268 -34q-282 0 -564 119t-603 393q-40 33 -61 48.5t-57 30.5t-65 9l-79 -117h-119zM430 1155l207 342h154l-250 -342h-111z" />
<glyph horiz-adv-x="974" d="M76 0l643 926h-600v98h772v-39l-551 -780q72 -3 174 -84q177 -146 327 -244t283 -153.5t249 -78t245 -22.5t261 36t206 83v-113q-67 -44 -193 -78t-268 -34q-281 0 -561.5 118.5t-603.5 393.5q-37 32 -59 48.5t-57 31t-64 8.5l-84 -117h-119zM430 1155l207 342h154 l-250 -342h-111z" />
<glyph horiz-adv-x="970" d="M84 0v37l631 889h-594v98h766v-37l-635 -887h659v-100h-827zM207 1497h119l159 -223l160 223h119l-250 -342h-57z" />
<glyph horiz-adv-x="974" d="M76 0l635 926h-592v98h782l-565 -819q64 0 174 -84q233 -193 428 -304.5t351 -152.5t329 -41q129 0 261 36t206 83v-113q-67 -44 -193 -78t-268 -34q-282 0 -564 119t-603 393q-40 33 -61 48.5t-57 30.5t-65 9l-79 -117h-119zM211 1497h119l159 -223l160 223h119 l-250 -342h-57z" />
<glyph horiz-adv-x="974" d="M76 0l643 926h-600v98h772v-39l-551 -780q72 -3 174 -84q177 -146 327 -244t283 -153.5t249 -78t245 -22.5t261 36t206 83v-113q-67 -44 -193 -78t-268 -34q-281 0 -561.5 118.5t-603.5 393.5q-37 32 -59 48.5t-57 31t-64 8.5l-84 -117h-119zM209 1497h119l159 -223 l160 223h119l-250 -342h-57z" />
<glyph horiz-adv-x="970" d="M84 0v37l631 889h-594v98h766v-37l-635 -887h659v-100h-827zM401 1323q0 37 23.5 60.5t60.5 23.5q36 0 60 -24t24 -60q0 -35 -24.5 -58.5t-59.5 -23.5q-37 0 -60.5 23.5t-23.5 58.5z" />
<glyph horiz-adv-x="974" d="M76 0l635 926h-592v98h782l-565 -819q64 0 174 -84q233 -193 428 -304.5t351 -152.5t329 -41q129 0 261 36t206 83v-113q-67 -44 -193 -78t-268 -34q-282 0 -564 119t-603 393q-40 33 -61 48.5t-57 30.5t-65 9l-79 -117h-119zM406 1323q0 37 23 60.5t60 23.5q36 0 60 -24 t24 -60q0 -35 -24.5 -58.5t-59.5 -23.5q-37 0 -60 23.5t-23 58.5z" />
<glyph horiz-adv-x="974" d="M76 0l643 926h-600v98h772v-39l-551 -780q72 -3 174 -84q177 -146 327 -244t283 -153.5t249 -78t245 -22.5t261 36t206 83v-113q-67 -44 -193 -78t-268 -34q-281 0 -561.5 118.5t-603.5 393.5q-37 32 -59 48.5t-57 31t-64 8.5l-84 -117h-119zM401 1323q0 36 24 60t60 24 q37 0 60.5 -23.5t23.5 -60.5q0 -35 -23.5 -58.5t-60.5 -23.5q-35 0 -59.5 23.5t-24.5 58.5z" />
<glyph horiz-adv-x="1302" d="M125 -201l176 351q-85 103 -130.5 254t-45.5 333q0 217 64.5 389.5t186.5 272.5t281 100q152 0 273 -94l137 270h111l-172 -342q88 -103 136 -257.5t48 -338.5q0 -219 -64.5 -391.5t-186.5 -271.5t-282 -99q-159 0 -284 103l-140 -279h-108zM248 737q0 -295 110 -471 l521 1034q-99 89 -222 89t-216.5 -83.5t-143 -231t-49.5 -337.5zM426 182q96 -96 231 -96q186 0 298 180t112 471q0 299 -119 482z" />
</font>
</defs>
</svg>
